<svg width="113" height="21" viewBox="0 0 113 21" fill="none" xmlns="http://www.w3.org/2000/svg">
<g clip-path="url(#clip0_7628_11016)">
<path d="M35.1476 7.28606C36.4376 7.84978 37.5523 8.75718 38.3729 9.91157C39.1335 11.0138 39.5414 12.3258 39.5414 13.6703C39.5414 15.0147 39.1335 16.3268 38.3729 17.429C37.5501 18.5845 36.4325 19.492 35.1396 20.0545C33.675 20.7034 32.0896 21.0258 30.4911 21C28.8932 21.0124 27.3104 20.6862 25.8445 20.0423C24.491 19.4726 23.3021 18.5652 22.3887 17.4046C21.5529 16.3438 21.0978 15.0271 21.0978 13.6703C21.0978 12.3134 21.5529 10.9968 22.3887 9.93592C23.3021 8.77535 24.491 7.8679 25.8445 7.29824C27.3104 6.65438 28.8932 6.32816 30.4911 6.34055C32.0923 6.31355 33.6805 6.63604 35.1476 7.28606ZM33.5239 16.7939C34.3605 16.0824 34.7788 15.0456 34.7788 13.6835C34.7788 12.3213 34.3605 11.2757 33.5239 10.5466C32.6781 9.82877 31.6026 9.44786 30.4991 9.47534C29.7498 9.47468 29.0085 9.63151 28.3221 9.93592C27.6353 10.2367 27.0442 10.7241 26.6143 11.344C26.1808 12.041 25.9508 12.8477 25.9508 13.6713C25.9508 14.4948 26.1808 15.3016 26.6143 15.9985C27.0449 16.6174 27.6359 17.1039 28.3221 17.4046C29.0085 17.709 29.7498 17.8659 30.4991 17.8652C31.6026 17.8927 32.6781 17.5118 33.5239 16.7939Z" fill="white"/>
<path d="M45.5732 20.4786H40.7784V2.06958H45.5732V20.4786Z" fill="white"/>
<path d="M59.3184 6.91272H64.1153V20.4785H59.3184V18.7356C58.0395 20.1965 56.1018 20.9269 53.5052 20.9269C51.5541 20.9269 50.042 20.2756 48.969 18.973C47.8959 17.6704 47.3613 15.517 47.3653 12.5127V6.91272H52.1642V12.4376C52.1487 13.3341 52.2158 14.2301 52.3646 15.1139C52.4865 15.8202 52.8262 16.4694 53.3348 16.9684C53.844 17.4661 54.6064 17.715 55.622 17.715C57.092 17.715 58.0756 17.2213 58.5727 16.2339C59.0698 15.2464 59.3157 13.9648 59.3104 12.3889L59.3184 6.91272Z" fill="white"/>
<path d="M91.1144 7.28608C91.935 7.8339 92.5457 8.72192 92.9466 9.95013C93.3475 11.1783 93.5479 12.8205 93.5479 14.8765V20.4785H88.7531V14.9516C88.7531 13.3933 88.5199 12.1198 88.0535 11.131C87.5871 10.1422 86.6891 9.64849 85.3594 9.64984C84.424 9.64984 83.715 9.8825 83.2326 10.3478C82.7382 10.8338 82.4072 11.4648 82.2864 12.1516C82.1251 13.0504 82.0513 13.9631 82.0659 14.8765V20.4785H77.245V14.9516C77.245 13.3582 77.0319 12.0765 76.6056 11.1067C76.1793 10.1368 75.3026 9.65119 73.9756 9.64984C72.9065 9.64984 72.1234 9.89874 71.6263 10.3965C71.1124 10.9222 70.7841 11.6046 70.6922 12.3382C70.5517 13.4279 70.49 14.5265 70.5078 15.6252V20.4785H65.7129V6.91274H69.8442L70.3835 8.67999C71.055 7.92356 71.9035 7.35006 72.8511 7.01216C74.0035 6.62136 75.2141 6.436 76.4292 6.46434C77.6599 6.46434 78.6622 6.697 79.436 7.16231C80.2097 7.62762 80.8077 8.38241 81.23 9.42666C81.7547 8.39351 82.6261 7.58348 83.6876 7.14202C84.7701 6.68753 86.1732 6.4596 87.8971 6.45825C89.2255 6.46231 90.2979 6.73825 91.1144 7.28608Z" fill="white"/>
<path d="M112.976 14.1298H99.5976C99.6621 15.2167 100.122 16.241 100.889 17.0049C101.652 17.761 102.705 18.1391 104.05 18.1391C104.743 18.1434 105.431 18.0168 106.078 17.7658C106.668 17.5451 107.192 17.1764 107.602 16.6945C107.979 16.2521 108.185 15.6861 108.181 15.1017H112.976C112.986 16.2124 112.606 17.2906 111.906 18.1452C111.192 19.0325 110.163 19.7251 108.819 20.2229C107.474 20.7206 105.876 20.9695 104.024 20.9695C102.413 20.9883 100.815 20.6749 99.327 20.0484C97.9927 19.5057 96.8288 18.6067 95.9594 17.4472C95.1605 16.3245 94.7306 14.9758 94.7306 13.5921C94.7306 12.2085 95.1605 10.8598 95.9594 9.73707C96.8235 8.58045 97.982 7.68342 99.311 7.142C100.808 6.52012 102.414 6.2116 104.032 6.23504C105.632 6.20688 107.22 6.51573 108.696 7.142C109.955 7.67033 111.041 8.5464 111.831 9.67011C112.59 10.7952 112.989 12.1287 112.976 13.4907V13.6145V14.1298ZM99.8442 11.9162H108.009C107.565 9.97379 106.245 9.00258 104.05 9.00258C101.819 9.00258 100.417 9.97379 99.8442 11.9162Z" fill="white"/>
<path d="M16.323 7.51733H19.7648L19.6625 8.67588C19.4606 10.8374 18.7138 12.9102 17.4936 14.6959C16.8666 15.6176 16.1331 16.4601 15.3087 17.2057C14.4657 17.9719 13.5413 18.6408 12.5524 19.2002L11.1212 20.0118C10.8659 20.1548 10.5785 20.2289 10.2867 20.2267C9.99493 20.2246 9.70862 20.1464 9.45539 19.9996L8.05221 19.2002C6.08009 18.1031 4.38337 16.562 3.09298 14.6959C1.86983 12.9109 1.12212 10.8367 0.922065 8.67385L0.821838 7.51733H4.25963L4.35584 8.48313C4.52674 10.0908 5.09252 11.6295 6.00157 12.9591C6.99536 14.3962 8.29738 15.5871 9.8102 16.4428L10.2793 16.7066L10.7503 16.4408C12.2644 15.5887 13.5669 14.3987 14.559 12.9611C15.47 11.6317 16.0366 10.0919 16.2067 8.48313L16.323 7.51733Z" fill="white"/>
<path d="M10.2933 20.9676C9.85611 20.9699 9.42627 20.8536 9.0485 20.6308L7.65734 19.8415C5.5904 18.6858 3.81343 17.0649 2.46358 15.1038C1.16967 13.2164 0.379729 11.0224 0.170387 8.73484L0 6.77687H4.96124L5.12361 8.4102C5.28172 9.8971 5.8055 11.3202 6.64706 12.5493C7.57822 13.8902 8.79743 15.0001 10.2131 15.7957L10.2953 15.8403L10.3855 15.7896C11.7973 14.9948 13.0115 13.8845 13.9356 12.5432C14.7797 11.3137 15.3043 9.88887 15.461 8.40006L15.6254 6.76672H20.5906L20.4163 8.72876C20.2064 11.0174 19.418 13.2129 18.1271 15.1038C17.4655 16.0719 16.6931 16.9573 15.8258 17.7415C14.9411 18.5456 13.971 19.2478 12.9333 19.8354L11.5021 20.647C11.1333 20.8578 10.7168 20.9682 10.2933 20.9676ZM1.65976 8.26006L1.68983 8.61107C1.87841 10.6517 2.58404 12.6085 3.73847 14.2922C4.95717 16.0607 6.56051 17.5226 8.42509 18.5653L9.82827 19.3627C9.96369 19.4419 10.1168 19.485 10.2732 19.4878C10.4296 19.4907 10.5841 19.4532 10.7223 19.3789L12.1575 18.5673C13.0973 18.0347 13.976 17.3985 14.7775 16.6702C15.5583 15.9633 16.2534 15.1651 16.8482 14.2922C17.9988 12.6068 18.7028 10.6507 18.8928 8.61107L18.9249 8.25803H17.0065L16.9765 8.55223C16.7937 10.2818 16.1851 11.9372 15.2064 13.367C14.152 14.9017 12.7658 16.1729 11.1533 17.0841L10.2953 17.567L9.44339 17.0841C7.82584 16.173 6.43377 14.902 5.37217 13.367C4.39606 11.94 3.7889 10.2881 3.60617 8.56238L3.5761 8.26817L1.65976 8.26006Z" fill="white"/>
<path d="M19.7788 0.773071H0.809814V4.26496H19.7788V0.773071Z" fill="white"/>
<path d="M20.5425 5.03797H0.0480957V0H20.5425V5.03797ZM1.57355 3.48986H19.0131V1.54203H1.57355V3.48986Z" fill="white"/>
</g>
<defs>
<clipPath id="clip0_7628_11016">
<rect width="113" height="21" fill="white"/>
</clipPath>
</defs>
</svg>
