<svg id="Capa_1" data-name="Capa 1" xmlns="http://www.w3.org/2000/svg" viewBox="0 0 162 56"><defs><style>.cls-1{fill:#afafaf;}</style></defs><path class="cls-1" d="M37.46,23.41v-3.2c0-1.1.27-1.37,1.33-1.44a22.66,22.66,0,0,0,7.88-1.65,2.52,2.52,0,0,1,2.33,0,22.4,22.4,0,0,0,7.66,1.63c1.32.1,1.56.32,1.52,1.65-.07,2.34.14,4.68-.16,7-.81,6.35-3.92,11-9.51,13.88a1.41,1.41,0,0,1-1.42,0,16.81,16.81,0,0,1-9-11.15,16.16,16.16,0,0,1-.57-3.37c0-1.12,0-2.24,0-3.35Zm7.17.86c-.2,0-.41,0-.61,0-.46-.06-.59.14-.61.61,0,.66.33.66.76.61s.79.12.78.76q-.06,2.54,0,5.07c0,.59-.16.82-.73.76-.22,0-.51-.12-.62.25-.21.72.06,1.11.78,1.13,1.32,0,1.35,0,1.36,1.42,0,.48.14.63.6.64s.6-.21.58-.65c0-.28.08-.6,0-.83-.09-.48.08-.54.45-.55s.48.17.46.52,0,.73,0,1.09.26.44.59.43.59,0,.59-.47-.19-1.07.08-1.44.91-.11,1.35-.31a1.57,1.57,0,0,1,.23,0A2.5,2.5,0,0,0,52.62,31a2,2,0,0,0-1.21-2.41c-.32-.13-.27-.25-.08-.49,1.24-1.56.68-3.23-1.29-3.64-.8-.16-1.09-.47-1-1.26,0-.1,0-.21,0-.31,0-.43-.09-.68-.59-.66s-.53.27-.51.65,0,.52,0,.78c0,.46-.18.57-.59.58s-.49-.24-.48-.58,0-.63,0-.94-.13-.48-.49-.5c-.88,0-.7.61-.65,1.07.11.82-.18,1.1-.93,1Z"/><path class="cls-1" d="M114.48,32.53c0,1.5,0,3,0,4.52,0,.23.11.47-.23.64a14.18,14.18,0,0,1-4.94,1.48c-3.83.39-7.43-.14-10.09-3.33s-3.06-7.12-1.52-11,4.85-5.75,8.92-5.94A10.92,10.92,0,0,1,113.84,21c.5.38.43.6.06,1-.74.81-1.44,1.66-2.14,2.5-.19.22-.28.33-.58.07a5.37,5.37,0,0,0-6.39-.95c-2.3,1.14-3.12,3.25-3.07,5.8a5.75,5.75,0,0,0,2.8,5.17,5.32,5.32,0,0,0,2.83.6h.38c2.39,0,2.52-.17,2.52-2.56,0-1.48,0-1.46-1.45-1.49-.69,0-1.63.33-2-.14s-.07-1.35-.07-2.05c0-1.58,0-1.58,1.56-1.58,1.85,0,3.69,0,5.53,0,.59,0,.71.17.69.74C114.45,29.56,114.48,31,114.48,32.53Z"/><path class="cls-1" d="M75,28.62a4.59,4.59,0,0,1,3.64,3.94,5.1,5.1,0,0,1-2.5,5.17,10,10,0,0,1-4.3,1.06c-2.45,0-4.89,0-7.34,0-.46,0-.52-.17-.52-.58Q64,29.1,64,20c0-.5.15-.58.59-.58,2.37,0,4.75,0,7.12,0a7.55,7.55,0,0,1,4.42,1.24,4.59,4.59,0,0,1,.29,7.07C76,28.08,75.34,28,75,28.62Zm-4.69,2c-.48,0-1,0-1.44,0s-.53.09-.51.52c0,.72,0,1.45,0,2.18,0,1.74,0,1.73,1.73,1.74A6.31,6.31,0,0,0,73,34.6a2.1,2.1,0,0,0,1.17-2,1.75,1.75,0,0,0-1.31-1.73A7.21,7.21,0,0,0,70.35,30.59ZM68.41,25c0,.53,0,1,0,1.36-.06.58.08.84.71.78a9.93,9.93,0,0,1,2,0,2.39,2.39,0,0,0,1.58-.5,1.75,1.75,0,0,0,.79-1.8,1.61,1.61,0,0,0-1.25-1.48,6.11,6.11,0,0,0-2-.19c-.6,0-1.38-.21-1.76.1S68.51,24.45,68.41,25Z"/><path class="cls-1" d="M123.51,24.71A7.06,7.06,0,0,1,130.88,32a7.37,7.37,0,1,1-14.74-.33A7.08,7.08,0,0,1,123.51,24.71Zm-3.11,7.18c0,1.84,1.39,3.77,2.78,3.68a3.37,3.37,0,0,0,3.47-3.66,3.28,3.28,0,0,0-3.14-3.49A3.22,3.22,0,0,0,120.4,31.89Z"/><path class="cls-1" d="M88.09,32.14c0-1.15,0-2.14,0-3.13,0-.4-.1-.54-.51-.53s-1.21.25-1.52-.09S86,27.3,86,26.74c0-1.56,0-1.58,1.49-1.56.52,0,.63-.17.61-.66,0-.78,0-1.56,0-2.34,0-.44.06-.65.57-.63,1.06.05,2.12,0,3.18,0,.42,0,.57.1.55.55,0,.83,0,1.67,0,2.5,0,.45.13.58.56.56.67,0,1.36,0,2,0,.37,0,.54.06.52.5,0,.78,0,1.56,0,2.34,0,.42-.14.52-.52.5-.68,0-1.36,0-2,0-.44,0-.56.13-.55.57,0,1.53,0,3.07,0,4.6s.61,2.22,2.15,1.93c.79-.15.81.14.78.74a7.39,7.39,0,0,0,0,1.56c.12.77-.25,1-.89,1.07a7.77,7.77,0,0,1-3.92-.22,3.37,3.37,0,0,1-2.21-2.64A20,20,0,0,1,88.09,32.14Z"/><path class="cls-1" d="M80.08,31.92c0-2.08,0-4.16,0-6.24,0-.39.05-.54.47-.53,1.14,0,2.27,0,3.41,0,.47,0,.5.19.5.58q0,6.24,0,12.48c0,.42-.06.6-.52.59-1.11,0-2.22,0-3.33,0-.44,0-.54-.12-.53-.56C80.09,36.13,80.08,34,80.08,31.92Z"/><path class="cls-1" d="M84.65,20.78a2.41,2.41,0,0,1-2.39,2.49,2.48,2.48,0,0,1,0-4.95A2.34,2.34,0,0,1,84.65,20.78Z"/><path class="cls-1" d="M48.21,29.31a3.63,3.63,0,0,1,1.4.29,1.12,1.12,0,0,1,.7,1,1.06,1.06,0,0,1-.58,1.08,4.6,4.6,0,0,1-2.51.37c-.27,0-.29-.23-.3-.44V30.37C46.92,29.25,46.92,29.25,48.21,29.31Z"/><path class="cls-1" d="M47,26.8c.13-.42-.4-1.26.73-1.2,1.37.07,2.08.45,2.1,1.25s-.75,1.32-2.12,1.3C47,28.15,47,28.15,47,26.8Z"/></svg>