<svg id="Capa_1" data-name="Capa 1" xmlns="http://www.w3.org/2000/svg" viewBox="0 0 162 56"><defs><style>.cls-1{fill:#afafaf;}</style></defs><path class="cls-1" d="M142.57,32l-.27,0H130.76c.06.26.09.48.15.7a4.14,4.14,0,0,0,3.3,3.27,4.25,4.25,0,0,0,3.65-.77,3.27,3.27,0,0,0,.87-1.14.34.34,0,0,1,.21-.18h3.47a1.5,1.5,0,0,1,0,.24,6.58,6.58,0,0,1-4,4.48,8,8,0,0,1-8.2-1,7.37,7.37,0,0,1-2.84-4.88,8.56,8.56,0,0,1,.88-5.69,7.34,7.34,0,0,1,5.41-3.88,7.54,7.54,0,0,1,5,.7,7,7,0,0,1,3.78,5.34c.06.33.07.67.11,1,0,.11,0,.21.06.32Zm-3.64-2.59a.79.79,0,0,0,0-.23,7.82,7.82,0,0,0-.39-1.09,3.89,3.89,0,0,0-4.27-1.93,4,4,0,0,0-3.19,2.91c-.11.34-.09.36.26.36h7.31Z"/><path class="cls-1" d="M82.16,37v1.65c0,.32,0,.32-.32.32H79c-.21,0-.27-.06-.27-.28V17c0-.22.06-.29.27-.29h2.93c.22,0,.29.06.29.29,0,2.65,0,5.3,0,8v.37c.11-.11.18-.17.24-.24a6,6,0,0,1,4.08-2,7.3,7.3,0,0,1,7.59,5.41,8.74,8.74,0,0,1-1.33,8A6.8,6.8,0,0,1,88,39.21a6.06,6.06,0,0,1-4.5-1.05,14.31,14.31,0,0,1-1.15-1,1.13,1.13,0,0,1-.12-.18Zm4.42-10.66a4.09,4.09,0,0,0-2.57.81A4.92,4.92,0,0,0,82.17,32a4.37,4.37,0,0,0,4.94,3.9,4.13,4.13,0,0,0,3-1.85,5.33,5.33,0,0,0,.79-3.82A4.35,4.35,0,0,0,86.58,26.33Z"/><path class="cls-1" d="M106.32,36.43a.92.92,0,0,0-.13.18,4.57,4.57,0,0,1-3.25,2.47A7.11,7.11,0,0,1,99,38.87a4.27,4.27,0,0,1-2.92-4.27,4.19,4.19,0,0,1,2.77-4.06,10.91,10.91,0,0,1,3-.76c.86-.13,1.72-.29,2.57-.45a1.92,1.92,0,0,0,.56-.22,1.46,1.46,0,0,0,.21-2.56,2.76,2.76,0,0,0-1.22-.49,4.32,4.32,0,0,0-2.56.26A2.42,2.42,0,0,0,100,28c0,.19-.12.23-.29.23h-3c-.21,0-.25-.06-.21-.27a5.78,5.78,0,0,1,1.86-3.45,6.1,6.1,0,0,1,3-1.38,9.25,9.25,0,0,1,4.28.19,4.84,4.84,0,0,1,3.66,4.29,7.45,7.45,0,0,1,.06,1.16v6.64c0,.34,0,.34.32.34h1.21c.17,0,.22.06.22.23v2.72c0,.17-.05.24-.22.24-.72,0-1.44,0-2.16,0a2.58,2.58,0,0,1-2.41-2.31ZM106,31.09l-.13.09a2.25,2.25,0,0,1-1.33.83c-.71.15-1.43.24-2.15.36a5.64,5.64,0,0,0-1.92.59,1.66,1.66,0,0,0-.94,1.53A1.63,1.63,0,0,0,100.59,36a4,4,0,0,0,5.23-2.36A9.64,9.64,0,0,0,106,31.09Z"/><path class="cls-1" d="M44.48,39.28a7.84,7.84,0,0,1-6.06-2.5,7.72,7.72,0,0,1-2-4.54,8.33,8.33,0,0,1,1.38-5.87,7.46,7.46,0,0,1,5.07-3.23A7.92,7.92,0,0,1,49,24.49a7.62,7.62,0,0,1,3.17,5.35A8.29,8.29,0,0,1,50.6,36.2a7.59,7.59,0,0,1-5,3C45.19,39.23,44.73,39.25,44.48,39.28Zm4.26-8.21c0-.17,0-.44-.06-.71a4.45,4.45,0,0,0-3.81-4,4.1,4.1,0,0,0-4.09,1.73,5.16,5.16,0,0,0-.8,4.3A4.37,4.37,0,0,0,47,35,4.84,4.84,0,0,0,48.74,31.07Z"/><path class="cls-1" d="M65.51,25.3l.2-.26a5,5,0,0,1,3.42-1.95,6.6,6.6,0,0,1,3.38.33,5.17,5.17,0,0,1,3.06,3.37A8.38,8.38,0,0,1,76,29.51q0,4.57,0,9.16c0,.24-.07.3-.3.3H72.88c-.34,0-.35,0-.35-.34,0-2.88,0-5.76,0-8.64A4,4,0,0,0,72,27.85a3,3,0,0,0-2.57-1.52,3.45,3.45,0,0,0-3,1.23,4.1,4.1,0,0,0-1,2.71c0,2.78,0,5.56,0,8.34,0,.35,0,.35-.34.35H62.27c-.22,0-.28-.07-.28-.3V23.59c0-.22.06-.3.28-.29h2.89c.2,0,.28.05.28.27,0,.48,0,1,0,1.44,0,.09,0,.18,0,.26Z"/><path class="cls-1" d="M114,34.13h1.47c.12,0,.22,0,.26.16a2.52,2.52,0,0,0,2.16,1.91,5.68,5.68,0,0,0,3.11-.14,1.57,1.57,0,0,0,1.14-1.15,1.44,1.44,0,0,0-.88-1.76,8.56,8.56,0,0,0-1.51-.38,23.33,23.33,0,0,1-4.06-.8A4.23,4.23,0,0,1,113.22,30a4.45,4.45,0,0,1,1.47-5.91,7.11,7.11,0,0,1,3-1,8.71,8.71,0,0,1,3.45.21,5.14,5.14,0,0,1,3.5,2.71,12.08,12.08,0,0,1,.56,1.7c0,.16,0,.26-.2.26h-2.94a.29.29,0,0,1-.22-.15,2.49,2.49,0,0,0-2.1-1.76,4.68,4.68,0,0,0-2.35.09,2.55,2.55,0,0,0-.85.44,1.34,1.34,0,0,0,.14,2.22,4.17,4.17,0,0,0,1.57.49,27.48,27.48,0,0,1,4,.74,4.69,4.69,0,0,1,2.52,1.72,4.21,4.21,0,0,1,.75,2.31,4.54,4.54,0,0,1-.81,3,5.15,5.15,0,0,1-2.67,1.82,10.23,10.23,0,0,1-4.08.36,7.49,7.49,0,0,1-3.19-1,5.28,5.28,0,0,1-2.53-3.89c0-.19.06-.21.2-.21Z"/><path class="cls-1" d="M35,29.26h-.29c-1,0-2.07,0-3.11,0a.37.37,0,0,1-.4-.28,3.93,3.93,0,0,0-3.4-2.64,4.2,4.2,0,0,0-4.62,3.3,5.33,5.33,0,0,0,.7,4.51,4.17,4.17,0,0,0,7.36-1,.24.24,0,0,1,.26-.19h3.24c.2,0,.22.06.18.25A7.42,7.42,0,0,1,29,39.11a7.91,7.91,0,0,1-6.71-1.59,7.69,7.69,0,0,1-2.75-4.87,8.54,8.54,0,0,1,.69-5.18,7.45,7.45,0,0,1,5.29-4.24,7.71,7.71,0,0,1,6.92,1.59A7.42,7.42,0,0,1,35,29.26Z"/><path class="cls-1" d="M59,31.14v7.5c0,.32,0,.32-.33.32H56c-.43,0-.43,0-.43-.44V27c0-.55,0-.48-.47-.48H53.54c-.18,0-.25,0-.25-.25q0-1.35,0-2.7c0-.18.06-.24.24-.24h5.24c.22,0,.26.09.26.29C59,26.11,59,28.63,59,31.14Z"/><path class="cls-1" d="M57.27,16.85A2.27,2.27,0,1,1,55,19.09,2.17,2.17,0,0,1,57.27,16.85Z"/></svg>