<svg id="Capa_1" data-name="Capa 1" xmlns="http://www.w3.org/2000/svg" viewBox="0 0 162 56"><defs><style>.cls-1{fill:#afafaf;}</style></defs><path class="cls-1" d="M22.61,18.56c.22,0,.43.05.64.05h18V36.85H22.61ZM36.79,31.41l-4.86-8.16-4.81,8.16Z"/><path class="cls-1" d="M139.39,31.64c-.71,1.65-2.07,2.11-3.67,2.13a7.59,7.59,0,0,1-4-.88l.81-1.84c.42.19.8.38,1.2.53a3.73,3.73,0,0,0,2.61.14c.25-.09.43-.4.64-.61-.21-.21-.38-.53-.63-.61a14.42,14.42,0,0,0-1.46-.27,8.41,8.41,0,0,1-1.79-.54,2.28,2.28,0,0,1-.6-3.68A3.91,3.91,0,0,1,135,24.84a6.67,6.67,0,0,1,3.76.58,3.13,3.13,0,0,1,.33.22l-.81,1.79a9.7,9.7,0,0,0-1.67-.57,4.81,4.81,0,0,0-1.69.08c-.22,0-.38.44-.57.67.21.16.4.41.63.48.67.18,1.36.28,2,.44a3.06,3.06,0,0,1,2.42,1.78Z"/><path class="cls-1" d="M86.26,32.66l-.05,1h-2.4V22.34h2.48v3.94a3.63,3.63,0,0,1,2.18-1.23,3.83,3.83,0,0,1,4.47,3.76A7.45,7.45,0,0,1,92.73,31a3.69,3.69,0,0,1-4.28,2.83A3.09,3.09,0,0,1,86.26,32.66Zm-.08-3.12h0c0,.11,0,.21,0,.31A2.12,2.12,0,0,0,88,32a1.92,1.92,0,0,0,2.24-1.67,4.57,4.57,0,0,0,0-1.61,1.93,1.93,0,0,0-1.9-1.8,2,2,0,0,0-2.17,1.83C86.21,29,86.2,29.29,86.18,29.54Z"/><path class="cls-1" d="M126.84,28.63l3.77,5.14c-1,0-1.91,0-2.81,0-.11,0-.23-.17-.31-.29-.69-.92-1.36-1.84-2-2.76l-.29-.38c-1.59.68-1.33,2.1-1.3,3.43H121.5v-12h2.33v6.76c.39-.38.69-.65,1-.94.74-.74,1.47-1.51,2.24-2.23a1.17,1.17,0,0,1,.73-.31c.78,0,1.56,0,2.37,0Z"/><path class="cls-1" d="M51.91,33.66H49.35V22.39h8.27v2.15H51.94v2.85h5v2.2H55.9c-1.06,0-2.11,0-3.17,0s-.82-.13-.82.83S51.91,32.55,51.91,33.66Z"/><path class="cls-1" d="M104.44,24.74A4.57,4.57,0,0,1,109,28.49a4.51,4.51,0,0,1-3.33,5.12,4.66,4.66,0,0,1-5.67-3,4.54,4.54,0,0,1,4.16-5.87Zm2.17,4.57a2.25,2.25,0,0,0-2.21-2.26,2.27,2.27,0,0,0,0,4.53A2.22,2.22,0,0,0,106.61,29.31Z"/><path class="cls-1" d="M79.26,31l1.49,1.33a3.76,3.76,0,0,1-1.82,1.19,6,6,0,0,1-3.18.09,4.42,4.42,0,0,1-2.89-6.25,4.22,4.22,0,0,1,4.7-2.57c2.08.26,3.31,1.56,3.65,3.85.22,1.42.22,1.42-1.16,1.42H74.92C75.14,31.75,77.5,32.55,79.26,31Zm-4.34-2.56h4a1.94,1.94,0,0,0-2.14-1.75A2,2,0,0,0,74.92,28.47Z"/><path class="cls-1" d="M119.35,26.91l-2,1.2c-1.47-1.42-2.64-1.55-3.62-.45a2.42,2.42,0,0,0,.12,3.31c1,1,2.29.79,3.41-.49l2,1.18a7.9,7.9,0,0,1-.67.79,4.51,4.51,0,0,1-5.09.95,4.29,4.29,0,0,1-2.79-3.93,4.53,4.53,0,0,1,4.34-4.73A4.7,4.7,0,0,1,119.35,26.91Z"/><path class="cls-1" d="M94.8,21.66c.78,0,1.52,0,2.26,0,.33,0,.31.22.31.44V33.57H94.8Z"/><path class="cls-1" d="M68,25.74c.63-.3,1.25-.61,1.89-.9a1.21,1.21,0,0,1,.34-.05c.41-.07.6.06.57.54s0,1.22,0,1.87h-.67a2.28,2.28,0,0,0-2.14,2.23c.09,1.39,0,2.78,0,4.22H65.52c0-.16,0-.32,0-.48,0-2.54,0-5.07,0-7.61,0-.49.16-.61.6-.58a7.22,7.22,0,0,0,1.23,0c.42,0,.63.09.59.55A.33.33,0,0,0,68,25.74Z"/><path class="cls-1" d="M60,25h2.52v8.66H60Z"/><path class="cls-1" d="M61.19,20.89a1.5,1.5,0,0,1,1.52,1.47,1.51,1.51,0,0,1-3,0A1.51,1.51,0,0,1,61.19,20.89Z"/></svg>