<svg width="85" height="85" viewBox="0 0 85 85" fill="none" xmlns="http://www.w3.org/2000/svg">
<path d="M71.8446 42.5C71.8446 40.4138 75.3647 38.0147 74.969 36.0429C74.5582 34.0103 70.3677 33.1196 69.5804 31.25C68.7797 29.348 71.0964 25.7991 69.9473 24.1087C68.7982 22.4183 64.5698 23.1612 63.1031 21.7168C61.6364 20.2723 62.4052 16.1171 60.6744 14.9763C58.9436 13.8355 55.3545 16.1262 53.4232 15.3377C51.5248 14.5623 50.6203 10.4324 48.5565 10.0306C46.5543 9.64085 44.1195 13.1077 42.0001 13.1077C39.8808 13.1077 37.4459 9.64085 35.4437 10.0306C33.3809 10.4354 32.4753 14.5623 30.577 15.3377C28.6458 16.1262 25.0423 13.8447 23.3258 14.9773C21.6094 16.11 22.3638 20.2723 20.8971 21.7168C19.4304 23.1612 15.2123 22.4051 14.0539 24.1087C12.8956 25.8123 15.2205 29.348 14.4198 31.25C13.6325 33.1196 9.44008 34.0114 9.03102 36.0429C8.63531 38.0147 12.1566 40.4138 12.1566 42.5C12.1566 44.5861 8.63531 46.9852 9.03102 48.957C9.44214 50.9885 13.6325 51.8803 14.4198 53.7499C15.2205 55.6519 12.9048 59.2008 14.0539 60.8912C15.203 62.5817 19.4304 61.8387 20.8971 63.2831C22.3638 64.7276 21.596 68.8818 23.3258 70.0226C25.0556 71.1633 28.6458 68.8737 30.577 69.6622C32.4753 70.4376 33.3809 74.5675 35.4437 74.9695C37.4469 75.3591 39.8818 71.8922 42.0001 71.8922C44.1184 71.8922 46.5543 75.3591 48.5565 74.9695C50.6203 74.5643 51.5248 70.4376 53.4232 69.6622C55.3554 68.8737 58.958 71.1542 60.6754 70.0226C62.3929 68.8909 61.6364 64.7276 63.1031 63.2831C64.5698 61.8387 68.7889 62.5948 69.9473 60.8912C71.1057 59.1876 68.7797 55.6519 69.5814 53.7499C70.3677 51.8803 74.5608 50.9885 74.969 48.957C75.3647 46.9852 71.8446 44.5861 71.8446 42.5Z" stroke="#F1F2F0" stroke-width="1.2" stroke-miterlimit="10"/>
<path d="M24.8034 33.7339V43H21.8984V36.9896H19.8072V35.3117C20.6337 35.3117 21.2472 35.2157 21.6479 35.0237C22.057 34.8317 22.3074 34.6271 22.3992 34.4101C22.491 34.1847 22.537 33.9593 22.537 33.7339H24.8034ZM31.5253 33.6087C35.3987 33.592 37.3354 35.1656 37.3354 38.3294C37.3354 39.5649 36.9431 40.6835 36.1584 41.6852C35.382 42.6786 33.8377 43.1753 31.5253 43.1753C29.8975 43.1753 28.637 42.904 27.7438 42.3614C26.8505 41.8188 26.2537 41.1843 25.9531 40.4581C25.661 39.7318 25.5274 39.0223 25.5524 38.3294C25.5524 37.1273 25.9657 36.0421 26.7921 35.0737C27.6185 34.097 29.1963 33.6087 31.5253 33.6087ZM31.5378 40.9089C32.2641 40.9089 32.8526 40.7878 33.3034 40.5457C33.7625 40.2953 34.0881 39.9781 34.2801 39.5941C34.4721 39.2017 34.5598 38.776 34.5431 38.3169C34.5598 37.8828 34.4721 37.4821 34.2801 37.1148C34.0881 36.7475 33.7625 36.447 33.3034 36.2132C32.8526 35.9795 32.2641 35.8626 31.5378 35.8626C30.8199 35.8626 30.2356 35.9795 29.7848 36.2132C29.334 36.447 29.0126 36.7475 28.8206 37.1148C28.6286 37.4821 28.541 37.8828 28.5577 38.3169C28.541 38.776 28.6286 39.2017 28.8206 39.5941C29.0126 39.9781 29.334 40.2953 29.7848 40.5457C30.2356 40.7878 30.8199 40.9089 31.5378 40.9089ZM43.778 33.6087C47.6514 33.592 49.5881 35.1656 49.5881 38.3294C49.5881 39.5649 49.1958 40.6835 48.4111 41.6852C47.6347 42.6786 46.0904 43.1753 43.778 43.1753C42.1502 43.1753 40.8897 42.904 39.9965 42.3614C39.1033 41.8188 38.5064 41.1843 38.2059 40.4581C37.9137 39.7318 37.7801 39.0223 37.8052 38.3294C37.8052 37.1273 38.2184 36.0421 39.0448 35.0737C39.8713 34.097 41.449 33.6087 43.778 33.6087ZM43.7906 40.9089C44.5168 40.9089 45.1053 40.7878 45.5561 40.5457C46.0153 40.2953 46.3408 39.9781 46.5328 39.5941C46.7248 39.2017 46.8125 38.776 46.7958 38.3169C46.8125 37.8828 46.7248 37.4821 46.5328 37.1148C46.3408 36.7475 46.0153 36.447 45.5561 36.2132C45.1053 35.9795 44.5168 35.8626 43.7906 35.8626C43.0726 35.8626 42.4883 35.9795 42.0375 36.2132C41.5867 36.447 41.2653 36.7475 41.0733 37.1148C40.8813 37.4821 40.7937 37.8828 40.8104 38.3169C40.7937 38.776 40.8813 39.2017 41.0733 39.5941C41.2653 39.9781 41.5867 40.2953 42.0375 40.5457C42.4883 40.7878 43.0726 40.9089 43.7906 40.9089ZM52.4495 43H50.0704L58.2095 34.2348H60.5887L52.4495 43ZM52.8753 38.2918C52.5163 38.2918 52.1824 38.2042 51.8735 38.0289C51.5647 37.8452 51.3184 37.599 51.1348 37.2901C50.9595 36.9812 50.8718 36.6473 50.8718 36.2883C50.8718 35.9294 50.9595 35.5955 51.1348 35.2866C51.3184 34.9777 51.5647 34.7357 51.8735 34.5603C52.1824 34.3767 52.5163 34.2849 52.8753 34.2849C53.2342 34.2849 53.5681 34.3767 53.877 34.5603C54.1859 34.7357 54.428 34.9777 54.6033 35.2866C54.7869 35.5955 54.8788 35.9294 54.8788 36.2883C54.8788 36.6473 54.7869 36.9812 54.6033 37.2901C54.428 37.599 54.1859 37.8452 53.877 38.0289C53.5681 38.2042 53.2342 38.2918 52.8753 38.2918ZM52.8753 37.0146C53.0756 37.0146 53.2426 36.9437 53.3761 36.8017C53.5181 36.6598 53.589 36.4887 53.589 36.2883C53.589 36.088 53.5181 35.9169 53.3761 35.775C53.2426 35.633 53.0756 35.5621 52.8753 35.5621C52.6749 35.5621 52.5038 35.633 52.3619 35.775C52.2283 35.9169 52.1615 36.088 52.1615 36.2883C52.1615 36.4887 52.2283 36.6598 52.3619 36.8017C52.5038 36.9437 52.6749 37.0146 52.8753 37.0146ZM57.7838 42.9249C57.4248 42.9249 57.0909 42.8372 56.7821 42.6619C56.4732 42.4783 56.2269 42.232 56.0433 41.9231C55.868 41.6143 55.7803 41.2803 55.7803 40.9214C55.7803 40.5624 55.868 40.2285 56.0433 39.9197C56.2269 39.6108 56.4732 39.3687 56.7821 39.1934C57.0909 39.0097 57.4248 38.9179 57.7838 38.9179C58.1428 38.9179 58.4767 39.0097 58.7855 39.1934C59.0944 39.3687 59.3365 39.6108 59.5118 39.9197C59.6955 40.2285 59.7873 40.5624 59.7873 40.9214C59.7873 41.2803 59.6955 41.6143 59.5118 41.9231C59.3365 42.232 59.0944 42.4783 58.7855 42.6619C58.4767 42.8372 58.1428 42.9249 57.7838 42.9249ZM57.7838 41.6351C57.9758 41.6351 58.1428 41.5642 58.2847 41.4223C58.4266 41.2803 58.4975 41.1134 58.4975 40.9214C58.4975 40.721 58.4266 40.5541 58.2847 40.4205C58.1428 40.2786 57.9758 40.2077 57.7838 40.2077C57.5918 40.2077 57.4248 40.2786 57.2829 40.4205C57.141 40.5624 57.0701 40.7294 57.0701 40.9214C57.0701 41.1134 57.141 41.2803 57.2829 41.4223C57.4248 41.5642 57.5918 41.6351 57.7838 41.6351ZM26.8608 44.08H28.8768V47.112C28.8768 47.688 28.7168 48.208 28.3968 48.672C28.0768 49.136 27.6448 49.5013 27.1008 49.768C26.5568 50.0293 25.9621 50.16 25.3168 50.16C24.6234 50.16 23.9941 50.0293 23.4288 49.768C22.8634 49.5067 22.4154 49.1467 22.0848 48.688C21.7594 48.224 21.5941 47.704 21.5888 47.128V44.08H23.6368V47.128C23.6368 47.6133 23.8021 47.9707 24.1328 48.2C24.4688 48.4293 24.8661 48.544 25.3248 48.544C25.5648 48.544 25.8021 48.4987 26.0368 48.408C26.2714 48.312 26.4661 48.1573 26.6208 47.944C26.7808 47.7307 26.8608 47.4587 26.8608 47.128V44.08ZM33.968 44.08C34.464 44.08 34.9013 44.1627 35.28 44.328C35.664 44.4933 35.96 44.7253 36.168 45.024C36.3813 45.3173 36.488 45.6587 36.488 46.048V46.08C36.488 46.72 36.2693 47.216 35.832 47.568C35.3946 47.9147 34.7973 48.088 34.04 48.088H31.472V50H29.496V44.08H33.968ZM33.616 46.688C33.8933 46.688 34.0986 46.68 34.232 46.664C34.3706 46.648 34.4853 46.5973 34.576 46.512C34.6666 46.4267 34.712 46.2853 34.712 46.088C34.712 45.8853 34.6666 45.7387 34.576 45.648C34.4853 45.5573 34.368 45.5013 34.224 45.48C34.08 45.4587 33.8773 45.448 33.616 45.448H33.352C33.2453 45.448 33.0586 45.4507 32.792 45.456C32.5253 45.456 32.0853 45.456 31.472 45.456V46.688H33.608H33.616ZM36.8603 45.68V44.08H43.8523L36.8603 45.68ZM43.8523 44.08V45.688H41.3563V50H39.3883V45.688H36.8603V44.08H43.8523ZM46.3626 50H44.3866V44.08H46.3626V50ZM55.4754 44.08V50H53.5074V47.328L52.2034 50H50.3874L48.9954 47.296V50H47.0194V44.08H49.2754L51.2914 48.152L53.2754 44.08H55.4754ZM61.8086 47.696H58.1126V48.6L62.4806 48.568V50H56.1366V44.08H62.4806L62.4886 45.512H58.1126V46.296H61.8086V47.696Z" fill="#F1F2F0"/>
</svg>
