<svg width="85" height="85" viewBox="0 0 85 85" fill="none" xmlns="http://www.w3.org/2000/svg">
<path d="M61.906 42.6723C61.7814 42.4658 61.7151 42.2274 61.7151 41.9848L61.7146 18.1253C61.7146 17.659 61.5342 17.2208 61.2055 16.8916L59.8317 15.5114C59.503 15.1822 59.0678 15 58.6036 15H23.111C22.6469 15 22.2107 15.1813 21.883 15.5114L20.5091 16.8916C20.1814 17.2218 20 17.659 20 18.1253V66.8747C20 67.341 20.1804 67.7791 20.5091 68.1084L21.883 69.4886C22.2116 69.8178 22.6469 70 23.111 70H60.889C61.3531 70 61.7893 69.8187 62.117 69.4886L63.4909 68.1084C63.8186 67.7782 64 67.341 64 66.8747C64 66.6178 63.7916 66.4085 63.5359 66.4085C63.2802 66.4085 63.0718 66.6178 63.0718 66.8747C63.0718 67.0917 62.9884 67.2958 62.8345 67.449L61.4606 68.8277C61.3081 68.9809 61.1054 69.066 60.889 69.066H23.111C22.8951 69.066 22.6919 68.9823 22.5394 68.8277L21.167 67.4475C21.0145 67.2943 20.9297 67.0907 20.9297 66.8733V18.125C20.9297 17.9081 21.0131 17.704 21.167 17.5508L22.5409 16.1721C22.6934 16.0189 22.8961 15.9337 23.1125 15.9337H58.6075C58.8235 15.9337 59.0267 16.0175 59.1792 16.1721L60.5516 17.5523C60.7041 17.7054 60.7888 17.9091 60.7888 18.1265V41.986C60.7888 42.399 60.9016 42.8039 61.1151 43.1569L62.8803 46.078C63.0048 46.2859 63.0711 46.5228 63.0711 46.7655V64.3575C63.0711 64.6144 63.2795 64.8237 63.5352 64.8237C63.791 64.8237 63.9993 64.6144 63.9993 64.3575L63.9989 46.7642C63.9989 46.3513 63.8862 45.9464 63.6726 45.5934L61.906 42.6723Z" fill="#F1F2F0"/>
<path d="M21.9376 14H62.0626C62.3736 14 62.6633 13.8426 62.8381 13.5781C63.013 13.315 63.0484 12.9798 62.9336 12.6843L62.2153 10.8342C62.0182 10.327 61.5471 10 61.015 10H22.9852C22.4531 10 21.9825 10.3284 21.7849 10.8342L21.0666 12.6843C20.9513 12.9798 20.9872 13.315 21.1621 13.5781C21.3365 13.8426 21.6261 14 21.9371 14H21.9376ZM22.6455 11.1855C22.7013 11.0416 22.8345 10.9495 22.9857 10.9495H25.4828C24.7711 11.3579 24.1979 12.0075 23.8831 12.8185C23.8529 12.896 23.8434 12.9744 23.8501 13.0505H21.9395L21.93 13.0355L22.6455 11.1855Z" fill="#F1F2F0"/>
<path d="M62.0636 71H21.9374C21.6265 71 21.3368 71.1574 21.1619 71.4219C20.987 71.685 20.9516 72.0202 21.0664 72.3157L21.7848 74.1658C21.9818 74.673 22.453 75 22.9851 75H61.0147C61.5468 75 62.0175 74.6716 62.215 74.1658L62.9334 72.3157C63.0487 72.0202 63.0128 71.685 62.8379 71.4219C62.664 71.1574 62.3745 71 62.0636 71ZM22.9851 74.0505C22.8344 74.0505 22.7006 73.9585 22.6449 73.8146L21.9265 71.9646L21.4965 72.1394L21.9369 71.9496H23.8476C23.8424 72.0256 23.8514 72.1041 23.8807 72.1816C24.1954 72.9925 24.7701 73.6426 25.4804 74.0505L22.9851 74.0505Z" fill="#F1F2F0"/>
<path d="M63.5 20C63.2245 20 63 20.2018 63 20.4495V39.5505C63 39.7982 63.2245 40 63.5 40C63.7755 40 64 39.7982 64 39.5505V20.4495C64 20.2018 63.7755 20 63.5 20Z" fill="#F1F2F0"/>
<path d="M41.1484 23.0051C37.6808 23.3644 34.3927 24.3064 31.3755 25.8037C31.0135 25.9833 30.8922 26.3768 31.1047 26.6824C31.2458 26.8854 31.4998 27 31.7607 27C31.8918 27 32.0245 26.9721 32.1444 26.9112C34.9822 25.5023 38.0739 24.6178 41.3329 24.2794C41.7501 24.236 42.0455 23.9163 41.9942 23.5641C41.9439 23.2127 41.5627 22.9605 41.1484 23.0051Z" fill="#F1F2F0"/>
<path d="M26.0822 36.8919C25.9037 37.2559 26.0255 37.7109 26.3543 37.9085C26.4563 37.9698 26.567 38 26.6769 38C26.9169 38 27.1495 37.8584 27.2725 37.6078C28.9723 34.1383 31.5223 31.304 34.6484 29.4076C34.9759 29.2086 35.0963 28.7536 34.9166 28.3895C34.7368 28.0255 34.3258 27.8936 33.997 28.0927C30.6431 30.1279 27.9059 33.1704 26.0822 36.8919Z" fill="#F1F2F0"/>
<path d="M49.4554 25.6844C47.7532 25.2302 45.9941 25 44.226 25C41.5452 25 38.931 25.5198 36.4563 26.5446C36.0852 26.6984 35.9038 27.1373 36.0513 27.5238C36.1646 27.8202 36.4356 28 36.7237 28C36.812 28 36.9027 27.9824 36.9905 27.9466C39.2941 26.9933 41.7292 26.5093 44.226 26.5093C45.8732 26.5093 47.512 26.7234 49.0972 27.1456C49.4839 27.25 49.8786 27.0055 49.9772 26.6009C50.0764 26.1987 49.8424 25.7886 49.4553 25.6843L49.4554 25.6844Z" fill="#F1F2F0"/>
<path d="M41.3895 30.5458C41.8028 30.4591 42.068 30.046 41.9847 29.6248C41.9 29.2021 41.4976 28.9294 41.0843 29.0161C32.3439 30.8468 26 38.8014 26 47.9305C26 48.6684 26.0154 49.449 26.0471 50.2509C26.0639 50.6711 26.4009 51 26.8088 51H26.8395C27.2612 50.9828 27.5888 50.6199 27.5719 50.1895C27.5412 49.409 27.5263 48.6482 27.5263 47.93C27.5249 39.5385 33.3557 32.227 41.3902 30.5454L41.3895 30.5458Z" fill="#F1F2F0"/>
<path d="M53.6092 31.5734C50.6364 29.8894 47.2416 29 43.7895 29C43.3532 29 43 29.3425 43 29.7655C43 30.1885 43.3532 30.531 43.7895 30.531C46.9618 30.531 50.0808 31.3492 52.8126 32.8956C52.9377 32.9667 53.0751 33 53.2104 33C53.4816 33 53.7456 32.8638 53.8922 32.6202C54.1116 32.2554 53.9855 31.7862 53.6092 31.5734Z" fill="#F1F2F0"/>
<path d="M29.644 49.0007C29.2722 49.0172 28.9836 49.3234 29.0007 49.6826C29.0941 51.6096 29.3151 53.5532 29.659 55.4591C29.7168 55.7759 30.0014 56 30.3233 56C30.3615 56 30.4005 55.9966 30.44 55.9907C30.807 55.9288 31.0539 55.5909 30.9899 55.2364C30.6557 53.3838 30.4409 51.4948 30.3501 49.6225C30.333 49.2616 30.0186 48.9842 29.644 49.0007Z" fill="#F1F2F0"/>
<path d="M38.5666 35.3825C38.9618 35.1944 39.1146 34.7521 38.9078 34.3931C38.7004 34.0346 38.2128 33.8961 37.817 34.0836C32.3788 36.6647 29 41.7158 29 47.2668C29 47.672 29.3617 48 29.8084 48C30.2551 48 30.6167 47.672 30.6167 47.2668C30.6167 42.2637 33.6639 37.7103 38.5666 35.3825Z" fill="#F1F2F0"/>
<path d="M40.5376 33.4415C40.1458 33.5288 39.917 33.8518 40.0281 34.1631C40.1392 34.4743 40.5457 34.6543 40.9384 34.567C42.1221 34.3024 43.3519 34.1684 44.5921 34.1684C48.4575 34.1684 52.1447 35.4928 54.71 37.8011C54.856 37.9317 55.0586 38 55.2635 38C55.4364 38 55.6107 37.9522 55.75 37.8542C56.0556 37.6405 56.0853 37.2719 55.8157 37.0294C52.9717 34.469 48.8798 33 44.5916 33C43.2153 32.9992 41.8515 33.148 40.5376 33.4415Z" fill="#F1F2F0"/>
<path d="M43.2867 37.4594C43.6809 37.4594 44 37.133 44 36.7297C44 36.3265 43.6809 36 43.2867 36C37.0631 36 32 41.1796 32 47.5468C32 51.5551 32.4891 55.5591 33.4539 59.4494C33.5355 59.7797 33.8263 60 34.145 60C34.2034 60 34.2617 59.9934 34.3215 59.9773C34.7027 59.8777 34.9347 59.4811 34.8374 59.0912C33.9023 55.3193 33.4275 51.4357 33.4275 47.5482C33.4252 41.9853 37.849 37.4595 43.2866 37.4595L43.2867 37.4594Z" fill="#F1F2F0"/>
<path d="M55.1719 46C55.2203 46 55.2681 45.9963 55.3164 45.9897C55.766 45.9204 56.0667 45.547 55.9873 45.1548C55.0715 40.6262 51.1564 37.0402 46.012 36.018C45.5651 35.9301 45.1231 36.1725 45.021 36.5604C44.919 36.9484 45.1983 37.3349 45.6435 37.4238C50.1371 38.3177 53.5584 41.4502 54.3587 45.4051C54.4307 45.7552 54.7793 46 55.1719 46Z" fill="#F1F2F0"/>
<path d="M51.5624 52.6049C51.6377 53.019 52.017 53.29 52.411 53.2126C52.8035 53.1332 53.0619 52.733 52.9871 52.3174C52.651 50.4645 52.4811 48.5723 52.4811 46.6926C52.4811 41.8995 48.7844 38 44.2406 38C39.6967 38 36 41.8995 36 46.6926C36 50.8269 36.514 54.9473 37.5288 58.9416L37.9082 60.433C37.9952 60.7751 38.2875 61 38.608 61C38.6702 61 38.7333 60.9916 38.7963 60.9737C39.1823 60.864 39.412 60.4454 39.3089 60.0368L38.9295 58.5454C37.9477 54.6821 37.4507 50.6939 37.4507 46.6926C37.4507 42.7415 40.4978 39.5293 44.2415 39.5293C47.9857 39.5293 51.0323 42.7435 51.0323 46.6926C51.03 48.6682 51.2094 50.6571 51.5624 52.6049Z" fill="#F1F2F0"/>
<path d="M40.8544 49.6841C40.841 49.2846 40.6399 48.9799 40.403 49.001C40.1677 49.0237 39.9874 49.3666 40.0007 49.7675C40.0961 52.5996 40.3641 55.4233 40.7969 58.1632L41.1598 60.462C41.2111 60.7866 41.3834 61 41.5724 61C41.609 61 41.6462 60.992 41.6833 60.975C41.9108 60.8709 42.0462 60.4738 41.9855 60.0861L41.6226 57.7873C41.2048 55.1435 40.9467 52.4174 40.8544 49.6841Z" fill="#F1F2F0"/>
<path d="M48.7188 55.4665C48.797 55.7884 49.0598 56 49.3479 56C49.4037 56 49.4604 55.9921 49.5171 55.9752C49.864 55.872 50.0705 55.4782 49.9778 55.0938C49.3356 52.4465 49.0099 49.7151 49.0099 46.9741C49.0099 44.231 46.9888 42 44.5049 42C42.0206 42 40 44.2315 40 46.9741C40 47.3716 40.2915 47.6935 40.6515 47.6935C41.0116 47.6935 41.3031 47.3716 41.3031 46.9741C41.3031 45.0237 42.7399 43.4389 44.5048 43.4389C46.2698 43.4389 47.7066 45.0253 47.7066 46.9741C47.7058 49.8409 48.0468 52.6978 48.7186 55.4666L48.7188 55.4665Z" fill="#F1F2F0"/>
<path d="M43.8663 46.4939C44.0593 46.4939 44.215 46.6487 44.215 46.8373C44.215 50.1035 44.6509 53.36 45.5084 56.5165C45.6173 56.9142 46.034 57.1509 46.4378 57.0447C46.8417 56.9375 47.0821 56.5287 46.9742 56.1295C46.1497 53.0996 45.7315 49.9735 45.7315 46.8373C45.7315 45.8241 44.8942 45 43.8658 45C42.8368 45 42 45.8245 42 46.8373C42 50.2951 42.4605 53.7416 43.3692 57.0801L44.0135 59.4461C44.1046 59.7803 44.4104 60 44.7459 60C44.8109 60 44.8769 59.9918 44.9429 59.9743C45.3468 59.8671 45.5871 59.4582 45.4793 59.059L44.835 56.693C43.9608 53.4797 43.518 50.1636 43.518 46.8363C43.516 46.6476 43.6732 46.4939 43.8663 46.4939Z" fill="#F1F2F0"/>
</svg>
