<svg width="85" height="85" viewBox="0 0 85 85" fill="none" xmlns="http://www.w3.org/2000/svg">
<path fill-rule="evenodd" clip-rule="evenodd" d="M12.5947 23.162C11.2408 23.162 10.1402 24.2835 10.1402 25.6624V61.3392C10.1402 62.7176 11.2403 63.8396 12.5942 63.8396H70.4037C71.7576 63.8396 72.8593 62.7181 72.8593 61.3398V25.6629C72.8593 24.2846 71.7576 23.1631 70.4032 23.1631H12.5936L12.5947 23.162ZM70.4043 65H12.5947C10.6127 65 9 63.3575 9 61.3384V25.6616C9 23.6425 10.6122 22 12.5947 22H70.4043C72.3883 22 74 23.6425 74 25.6616V61.3384C74 63.3575 72.3873 65 70.4037 65H70.4043Z" fill="#F1F2F0"/>
<path fill-rule="evenodd" clip-rule="evenodd" d="M13.4904 35.8181H27.5126C27.7268 35.11 27.8354 34.3737 27.8354 33.6235C27.8359 29.5204 24.5451 26.1817 20.5002 26.1817C16.456 26.1817 13.1651 29.5197 13.1651 33.6235C13.1651 34.3731 13.2742 35.1099 13.4899 35.8181H13.4904ZM27.9291 37H13.0726C12.8281 37 12.6098 36.8461 12.5248 36.614C12.1774 35.6573 12 34.6511 12 33.6236C12 28.8682 15.814 25 20.5 25C25.1877 25 29 28.8684 29 33.6236C29 34.6511 28.8242 35.6574 28.4752 36.614C28.3902 36.8461 28.1721 37 27.9291 37Z" fill="#F1F2F0"/>
<path fill-rule="evenodd" clip-rule="evenodd" d="M20.5005 29C20.2243 29 20 28.6602 20 28.2412V25.7588C20 25.3398 20.2239 25 20.5 25C20.7761 25 21 25.3398 21 25.7588V28.2412C21 28.6602 20.7761 29 20.5 29H20.5005Z" fill="#F1F2F0"/>
<path fill-rule="evenodd" clip-rule="evenodd" d="M24.695 31C24.517 31 24.3397 30.9549 24.2037 30.8642C23.9324 30.6834 23.9318 30.3897 24.2037 30.2084L25.8122 29.1357C26.0842 28.9548 26.5241 28.9548 26.796 29.1357C27.068 29.317 27.068 29.6102 26.796 29.7915L25.1875 30.8638C25.0516 30.9545 24.8736 30.9996 24.695 30.9996V31Z" fill="#F1F2F0"/>
<path fill-rule="evenodd" clip-rule="evenodd" d="M28.4309 34H26.5691C26.2548 34 26 33.7761 26 33.5C26 33.2239 26.2548 33 26.5691 33H28.4309C28.7452 33 29 33.2239 29 33.5C29 33.7761 28.7452 34 28.4309 34Z" fill="#F1F2F0"/>
<path fill-rule="evenodd" clip-rule="evenodd" d="M15.2412 34H12.7588C12.3398 34 12 33.7761 12 33.5C12 33.2239 12.3398 33 12.7588 33H15.2412C15.6602 33 16 33.2239 16 33.5C16 33.7761 15.6602 34 15.2412 34Z" fill="#F1F2F0"/>
<path fill-rule="evenodd" clip-rule="evenodd" d="M16.5363 31C16.4181 31 16.2983 30.9549 16.2081 30.8642L15.1359 29.7915C14.9547 29.6106 14.9547 29.317 15.1359 29.1357C15.3172 28.9548 15.6104 28.9548 15.7917 29.1357L16.8642 30.2084C17.0455 30.3893 17.0451 30.6829 16.8642 30.8642C16.774 30.9549 16.6554 31 16.5372 31H16.5363Z" fill="#F1F2F0"/>
<path fill-rule="evenodd" clip-rule="evenodd" d="M55.4891 35.8181H69.5113C69.727 35.11 69.8346 34.3737 69.8346 33.6235C69.8346 29.5204 66.5438 26.1817 62.4994 26.1817C58.455 26.1817 55.1643 29.5197 55.1643 33.6235C55.1643 34.3736 55.2734 35.1099 55.4891 35.8181ZM69.9291 37H55.0726C54.8286 37 54.6098 36.8461 54.5263 36.614C54.1774 35.6573 54 34.6517 54 33.6236C54 28.8682 57.814 25 62.5 25C67.1881 25 71 28.8684 71 33.6236C71 34.6511 70.8242 35.6574 70.4752 36.614C70.3908 36.8461 70.1735 37 69.9295 37H69.9291Z" fill="#F1F2F0"/>
<path fill-rule="evenodd" clip-rule="evenodd" d="M62.4998 29C62.2238 29 62 28.6602 62 28.2412L62.0005 25.7588C62.0005 25.3398 62.2242 25 62.5002 25C62.7767 25 63 25.3398 63 25.7588V28.2412C63 28.6602 62.7758 29 62.5002 29H62.4998Z" fill="#F1F2F0"/>
<path fill-rule="evenodd" clip-rule="evenodd" d="M58.3043 31C58.1264 31 57.9473 30.9549 57.8114 30.8642L56.2036 29.7915C55.9324 29.6106 55.9318 29.317 56.2036 29.1357C56.4755 28.9548 56.9151 28.9548 57.187 29.1357L58.7966 30.2084C59.0678 30.3893 59.0678 30.6829 58.7966 30.8642C58.6607 30.9549 58.4815 31 58.3043 31Z" fill="#F1F2F0"/>
<path fill-rule="evenodd" clip-rule="evenodd" d="M57.2419 34H54.7595C54.3404 34 54 33.7761 54 33.5C54 33.2239 54.3398 33 54.7588 33H57.2412C57.6602 33 58 33.2239 58 33.5C58.0007 33.7761 57.6602 34 57.2412 34H57.2419Z" fill="#F1F2F0"/>
<path fill-rule="evenodd" clip-rule="evenodd" d="M70.2419 34H67.7595C67.3405 34 67 33.7761 67 33.5C67 33.2239 67.3398 33 67.7588 33H70.2412C70.6602 33 71 33.2239 71 33.5C71 33.7761 70.6602 34 70.2412 34H70.2419Z" fill="#F1F2F0"/>
<path fill-rule="evenodd" clip-rule="evenodd" d="M66.6971 31C66.5179 31 66.3399 30.9549 66.2039 30.8642C65.932 30.6829 65.932 30.3897 66.2039 30.2084L67.813 29.1357C68.0843 28.9548 68.5247 28.9548 68.7961 29.1357C69.068 29.317 69.068 29.6102 68.7961 29.7915L67.1877 30.8638C67.0517 30.9545 66.8744 30.9996 66.6971 30.9996L66.6971 31Z" fill="#F1F2F0"/>
<path fill-rule="evenodd" clip-rule="evenodd" d="M33.664 35.8181H49.3359C49.577 35.11 49.699 34.3737 49.699 33.6235C49.6995 29.5204 46.021 26.1817 41.5008 26.1817C36.9806 26.1817 33.3027 29.5197 33.3027 33.6235C33.3027 34.3736 33.4229 35.1099 33.664 35.8181ZM49.8013 37H33.197C32.9243 37 32.6815 36.8461 32.5865 36.614C32.1965 35.6573 32 34.6517 32 33.6236C32 28.8682 36.2609 25 41.5 25C46.738 25 51 28.8684 51 33.6236C51 34.6517 50.8018 35.6579 50.4117 36.614C50.3185 36.8461 50.0745 37 49.8018 37H49.8013Z" fill="#F1F2F0"/>
<path fill-rule="evenodd" clip-rule="evenodd" d="M41.5014 29C40.673 29 40 28.6602 40 28.2412V25.7588C40 25.3398 40.6716 25 41.5 25C42.3284 25 43 25.3398 43 25.7588V28.2412C43 28.6602 42.3284 29 41.5 29H41.5014Z" fill="#F1F2F0"/>
<path fill-rule="evenodd" clip-rule="evenodd" d="M37.0712 31C36.834 31 36.5976 30.9549 36.4163 30.8642L34.2719 29.7915C33.9094 29.6106 33.9094 29.317 34.2719 29.1357C34.6345 28.9548 35.2209 28.9548 35.5835 29.1357L37.7287 30.2084C38.0904 30.3893 38.0904 30.6829 37.7287 30.8642C37.5474 30.9549 37.311 31 37.0721 31H37.0712Z" fill="#F1F2F0"/>
<path fill-rule="evenodd" clip-rule="evenodd" d="M35.2412 34H32.7588C32.3398 34 32 33.7761 32 33.5C32 33.2239 32.3398 33 32.7588 33H35.2412C35.6602 33 36 33.2239 36 33.5C36 33.7761 35.6602 34 35.2412 34Z" fill="#F1F2F0"/>
<path fill-rule="evenodd" clip-rule="evenodd" d="M50.4309 34H48.5691C48.2548 34 48 33.7761 48 33.5C48 33.2239 48.2548 33 48.5691 33H50.4309C50.7452 33 51 33.2239 51 33.5C51 33.7761 50.7452 34 50.4309 34Z" fill="#F1F2F0"/>
<path fill-rule="evenodd" clip-rule="evenodd" d="M45.9274 31C45.691 31 45.4513 30.9549 45.27 30.8642C44.91 30.6834 44.91 30.3897 45.27 30.2084L47.4167 29.1357C47.7792 28.9548 48.3656 28.9548 48.7281 29.1357C49.0906 29.317 49.0906 29.6102 48.7281 29.7915L46.584 30.8638C46.4027 30.9545 46.1638 30.9996 45.9274 30.9996L45.9274 31Z" fill="#F1F2F0"/>
<path fill-rule="evenodd" clip-rule="evenodd" d="M26.9861 48.8496H31.013V44.1504H26.9861V48.8496ZM31.5065 50H26.4935C26.2212 50 26 49.7424 26 49.4248V43.5752C26 43.2576 26.2208 43 26.493 43H31.5065C31.7788 43 31.9996 43.2576 31.9996 43.5752L32 49.4248C32 49.7424 31.7788 50 31.507 50H31.5065Z" fill="#F1F2F0"/>
<path fill-rule="evenodd" clip-rule="evenodd" d="M26.9861 59.6852H31.013V54.3148H26.9861V59.6852ZM31.5065 61H26.4935C26.2212 61 26 60.7057 26 60.3426V53.6574C26 53.2943 26.2208 53 26.493 53H31.5065C31.7788 53 31.9996 53.2943 31.9996 53.6574L32 60.3426C32 60.7057 31.7788 61 31.507 61H31.5065Z" fill="#F1F2F0"/>
<path fill-rule="evenodd" clip-rule="evenodd" d="M35.1505 48.8496H39.8489V44.1504H35.1505V48.8496ZM40.4247 50H34.5758C34.2581 50 34 49.7424 34 49.4248V43.5752C34 43.2576 34.2576 43 34.5753 43H40.4247C40.7424 43 41 43.2576 41 43.5752V49.4248C41 49.7424 40.7424 50 40.4247 50Z" fill="#F1F2F0"/>
<path fill-rule="evenodd" clip-rule="evenodd" d="M35.1505 59.6852H39.8489V54.3148H35.1505V59.6852ZM40.4247 61H34.5758C34.2581 61 34 60.7057 34 60.3426V53.6574C34 53.2943 34.2576 53 34.5753 53H40.4247C40.7424 53 41 53.2943 41 53.6574V60.3426C41 60.7057 40.7424 61 40.4247 61Z" fill="#F1F2F0"/>
<path fill-rule="evenodd" clip-rule="evenodd" d="M44.315 48.8496H49.685V44.1504H44.315V48.8496ZM50.3425 50H43.6575C43.2944 50 43 49.7424 43 49.4248V43.5752C43 43.2576 43.2944 43 43.6575 43H50.3425C50.7056 43 51 43.2576 51 43.5752V49.4248C51 49.7424 50.7056 50 50.3425 50Z" fill="#F1F2F0"/>
<path fill-rule="evenodd" clip-rule="evenodd" d="M44.315 59.6852H49.685V54.3148H44.315V59.6852ZM50.3425 61H43.6575C43.2944 61 43 60.7057 43 60.3426V53.6574C43 53.2943 43.2944 53 43.6575 53H50.3425C50.7056 53 51 53.2943 51 53.6574V60.3426C51 60.7057 50.7056 61 50.3425 61Z" fill="#F1F2F0"/>
<path fill-rule="evenodd" clip-rule="evenodd" d="M16 44.1884C14.4499 44.1884 13.1882 45.4501 13.1882 47.0003C13.1882 48.5506 14.4493 49.8118 16 49.8118C17.5507 49.8118 18.8118 48.5506 18.8118 47.0003C18.8118 45.4501 17.5507 44.1884 16 44.1884ZM16 51C13.7952 51 12 49.2057 12 47.0002C12 44.7948 13.7953 43 16 43C18.2053 43 20 44.7943 20 47.0002C20 49.2057 18.2052 51 16 51Z" fill="#F1F2F0"/>
<path fill-rule="evenodd" clip-rule="evenodd" d="M16 53.3373C14.4499 53.3373 13.1882 54.756 13.1882 56.5C13.1882 58.244 14.4493 59.6627 16 59.6627C17.5507 59.6627 18.8118 58.244 18.8118 56.5C18.8118 54.756 17.5507 53.3373 16 53.3373ZM16 61C13.7952 61 12 58.9815 12 56.5C12 54.0185 13.7953 52 16 52C18.2053 52 20 54.0185 20 56.5C20 58.981 18.2052 61 16 61Z" fill="#F1F2F0"/>
<path fill-rule="evenodd" clip-rule="evenodd" d="M67.5013 61C66.673 61 66 60.7581 66 60.4598V55.5402C66 55.2419 66.6716 55 67.5 55C68.3284 55 69 55.2419 69 55.5402V60.4598C69 60.7581 68.3284 61 67.5 61H67.5013Z" fill="#F1F2F0"/>
<path fill-rule="evenodd" clip-rule="evenodd" d="M67.5013 49C66.673 49 66 48.7581 66 48.4598V43.5402C66 43.2419 66.6716 43 67.5 43C68.3284 43 69 43.2419 69 43.5402V48.4598C69 48.7581 68.3284 49 67.5 49H67.5013Z" fill="#F1F2F0"/>
<path fill-rule="evenodd" clip-rule="evenodd" d="M67.5 50.1516C66.2053 50.1516 65.152 51.2049 65.152 52.5001C65.152 53.7948 66.2048 54.8482 67.4995 54.8482C68.7941 54.8482 69.847 53.7948 69.847 52.5001C69.847 51.205 68.7941 50.1516 67.4995 50.1516H67.5ZM67.5 56C65.5692 56 64 54.4299 64 52.5C64 50.5697 65.5691 49 67.5 49C69.4308 49 71 50.5701 71 52.5C71 54.4297 69.4309 56 67.5005 56H67.5Z" fill="#F1F2F0"/>
<path fill-rule="evenodd" clip-rule="evenodd" d="M59.5 61C59.2239 61 59 60.7581 59 60.4598V55.5402C59 55.2419 59.2239 55 59.5 55C59.7761 55 60 55.2419 60 55.5402V60.4598C60 60.7581 59.7757 61 59.5 61Z" fill="#F1F2F0"/>
<path fill-rule="evenodd" clip-rule="evenodd" d="M59.5 49C59.2239 49 59 48.7581 59 48.4598V43.5402C59 43.2419 59.2239 43 59.5 43C59.7761 43 60 43.2419 60 43.5402V48.4598C60 48.7581 59.7757 49 59.5 49Z" fill="#F1F2F0"/>
<path fill-rule="evenodd" clip-rule="evenodd" d="M59.4995 50.1516C58.2051 50.1516 57.1518 51.2049 57.1518 52.5001C57.1518 53.7948 58.2045 54.8482 59.499 54.8482C60.794 54.8482 61.8478 53.7948 61.8478 52.5001C61.8478 51.205 60.7935 50.1516 59.499 50.1516H59.4995ZM59.4995 56C57.5706 56 56 54.4299 56 52.5C56 50.5697 57.5705 49 59.499 49C61.4295 49 63 50.5701 63 52.5C63 54.4297 61.4295 56 59.4995 56Z" fill="#F1F2F0"/>
<path fill-rule="evenodd" clip-rule="evenodd" d="M20.5418 37C20.3842 37 20.2296 36.9094 20.1455 36.7471L18.0609 32.7591C17.9353 32.5171 18.01 32.2076 18.2295 32.068C18.4477 31.9279 18.7287 32.0113 18.8542 32.2534L20.9391 36.2408C21.0647 36.4829 20.99 36.7924 20.7705 36.9325C20.6984 36.9782 20.6201 37.0005 20.5418 37Z" fill="#F1F2F0"/>
<path fill-rule="evenodd" clip-rule="evenodd" d="M41.5027 36.999C40.6714 36.999 40 36.757 40 36.4588V31.5403C40 31.2416 40.6714 31 41.5013 31C42.3285 31 43 31.242 43 31.5407V36.4593C43 36.758 42.3286 37 41.5027 37V36.999Z" fill="#F1F2F0"/>
<path fill-rule="evenodd" clip-rule="evenodd" d="M62.4742 37C62.3527 37 62.2321 36.9421 62.1391 36.8264C61.9539 36.5949 61.9534 36.2195 62.1391 35.988L65.1905 32.1736C65.3761 31.9421 65.6769 31.9421 65.8608 32.1736C66.0464 32.4051 66.0464 32.7805 65.8608 33.012L62.8097 36.8264C62.7175 36.9421 62.5957 37 62.4742 37Z" fill="#F1F2F0"/>
</svg>
