<svg width="85" height="85" viewBox="0 0 85 85" fill="none" xmlns="http://www.w3.org/2000/svg">
<path d="M15.375 14.3638H31.1633C34.132 14.3638 36.5383 17.336 36.5383 19.7453V35.5528C36.5383 36.2595 36.3993 36.9593 36.1292 37.6122C35.8591 38.2651 35.4631 38.8584 34.964 39.3581C34.4649 39.8578 33.8723 40.2542 33.2202 40.5246C32.5681 40.7951 31.8692 40.9343 31.1633 40.9343H15.375C12.4063 40.9343 10 37.962 10 35.5528V19.7453C10 18.318 10.5663 16.9492 11.5743 15.94C12.5823 14.9308 13.9494 14.3638 15.375 14.3638Z" stroke="#F1F2F0" stroke-miterlimit="10"/>
<path d="M72.3609 23.8435C73.3681 24.8541 73.9337 26.2235 73.9337 27.6512C73.9337 29.0788 73.3681 30.4482 72.3609 31.4588L61.1961 42.6325C59.0987 44.7371 55.2956 44.3356 53.5946 42.6325L42.3975 31.4588C41.3904 30.4482 40.8247 29.0788 40.8247 27.6512C40.8247 26.2235 41.3904 24.8541 42.3975 23.8435L53.5623 12.6698C55.6598 10.5652 59.4628 10.9621 61.1638 12.6698" stroke="#F1F2F0" stroke-miterlimit="10"/>
<path d="M15.375 48.4297H31.1633C34.132 48.4297 36.5383 51.402 36.5383 53.8112V69.6187C36.5383 70.3254 36.3993 71.0252 36.1292 71.6781C35.859 72.331 35.4631 72.9243 34.964 73.424C34.4649 73.9237 33.8723 74.3201 33.2202 74.5905C32.5681 74.861 31.8692 75.0002 31.1633 75.0002H15.375C12.4063 75.0002 10 72.0279 10 69.6187V53.8158C10 52.3885 10.5663 51.0197 11.5743 50.0105C12.5823 49.0013 13.9494 48.4343 15.375 48.4343V48.4297Z" stroke="#F1F2F0" stroke-miterlimit="10"/>
<path d="M49.487 48.4297H65.2708C68.2394 48.4297 70.6504 51.402 70.6504 53.8112V69.6187C70.6491 71.0464 70.0818 72.4152 69.0731 73.4243C68.0643 74.4334 66.6967 75.0002 65.2708 75.0002H49.487C46.5183 75.0002 44.1074 72.0279 44.1074 69.6187V53.8158C44.1074 52.3873 44.6742 51.0173 45.6831 50.0072C46.6919 48.9971 48.0603 48.4297 49.487 48.4297Z" stroke="#F1F2F0" stroke-miterlimit="10"/>
<path d="M70.245 16.796C70.1821 16.8005 70.1189 16.8005 70.056 16.796C69.7364 16.7683 69.4272 16.6683 69.1517 16.5036C68.8762 16.3389 68.6416 16.1138 68.4657 15.8452C68.2512 15.5219 68.1326 15.1444 68.1236 14.7564C68.1146 14.3684 68.2156 13.9858 68.4149 13.6529C68.5786 13.3791 68.8015 13.1454 69.0672 12.969C69.3329 12.7927 69.6346 12.6782 69.9503 12.6339C70.266 12.5897 70.5876 12.6168 70.8915 12.7132C71.1953 12.8097 71.4737 12.9731 71.7063 13.1914C71.9059 13.3814 72.0661 13.6091 72.1776 13.8612C72.2891 14.1134 72.3498 14.3851 72.3563 14.6608C72.3627 14.9365 72.3147 15.2108 72.215 15.4679C72.1154 15.725 71.966 15.9599 71.7754 16.159C71.5756 16.362 71.3373 16.5229 71.0745 16.6323C70.8117 16.7417 70.5297 16.7973 70.245 16.796ZM70.245 13.0575H70.0192C69.7693 13.092 69.5305 13.1826 69.3206 13.3224C69.1107 13.4623 68.935 13.6478 68.8068 13.8652C68.6529 14.1249 68.5748 14.4225 68.5814 14.7243C68.5879 15.0262 68.6787 15.3202 68.8436 15.5729C68.9824 15.7838 69.1668 15.9609 69.3829 16.0911C69.5991 16.2213 69.8417 16.3013 70.0929 16.3252C70.3413 16.3487 70.5919 16.3157 70.8258 16.2286C71.0597 16.1415 71.2709 16.0025 71.4435 15.8221C71.7403 15.508 71.901 15.0892 71.8907 14.6569C71.8803 14.2246 71.6997 13.814 71.3882 13.5145C71.0803 13.2202 70.6707 13.0565 70.245 13.0575Z" fill="#F1F2F0" stroke="#F1F2F0" stroke-width="0.2"/>
<path d="M50.6715 35.2807L50.1045 31.1822L62.5047 18.3101L62.832 18.6239L50.5885 31.3345L51.1232 35.2207L50.6715 35.2807Z" fill="#F1F2F0" stroke="#F1F2F0" stroke-width="0.2"/>
<path d="M50.9806 33.633L50.6533 33.3191L59.8083 23.8115L60.1402 24.1254L50.9806 33.633Z" fill="#F1F2F0" stroke="#F1F2F0" stroke-width="0.2"/>
<path d="M61.8135 25.9295V25.468L64.2382 25.4126C64.3339 25.41 64.4248 25.3703 64.4918 25.3019L67.0778 22.6157L67.4097 22.9296L64.8237 25.6157C64.7488 25.6933 64.6593 25.7552 64.5604 25.798C64.4615 25.8408 64.3552 25.8635 64.2474 25.8649L61.8135 25.9295Z" fill="#F1F2F0" stroke="#F1F2F0" stroke-width="0.2"/>
<path d="M59.204 28.6346L59.1948 28.1823L61.6334 28.1269L61.5781 25.7084L62.0344 25.6992L62.1036 28.57L59.204 28.6346Z" fill="#F1F2F0" stroke="#F1F2F0" stroke-width="0.2"/>
<path d="M56.6 31.3433L56.5908 30.891L59.0294 30.8356L58.9741 28.4172L59.4304 28.4033L59.495 31.2741L56.6 31.3433Z" fill="#F1F2F0" stroke="#F1F2F0" stroke-width="0.2"/>
<path d="M56.8093 31.1461L56.353 31.1567L56.4143 33.8006L56.8706 33.79L56.8093 31.1461Z" fill="#F1F2F0" stroke="#F1F2F0" stroke-width="0.2"/>
<path d="M54.9954 35.8111L50.8789 35.4788L50.9158 35.0265L54.8156 35.3403L56.4936 33.605L56.8209 33.9188L54.9954 35.8111Z" fill="#F1F2F0" stroke="#F1F2F0" stroke-width="0.2"/>
<path d="M70.2311 24.665C69.3612 24.6693 68.5229 24.3388 67.8894 23.7419L67.1103 23.0035L67.4238 22.6758L68.2074 23.4142C68.5965 23.7871 69.0804 24.0459 69.6064 24.1623C70.1323 24.2787 70.6801 24.2482 71.1899 24.0742C71.715 23.9089 72.1839 23.6009 72.5445 23.1845C72.905 22.7681 73.1431 22.2596 73.2321 21.7158L74.4997 13.902C74.5824 13.4223 74.5448 12.9295 74.3903 12.468C74.2359 12.0064 73.9693 11.5904 73.6146 11.2574C73.2605 10.92 72.8289 10.6748 72.3578 10.5436C71.8868 10.4125 71.3907 10.3992 70.9133 10.5051L63.0768 12.1159C62.538 12.2154 62.0375 12.4628 61.6312 12.8307C61.2248 13.1985 60.9285 13.6722 60.7755 14.1989C60.6225 14.7255 60.6187 15.2844 60.7646 15.8131C60.9105 16.3418 61.2003 16.8194 61.6017 17.1928L62.8094 18.3374L62.4913 18.665L61.2836 17.5204C60.8277 17.0891 60.4996 16.54 60.3355 15.9338C60.1714 15.3276 60.1776 14.6879 60.3535 14.085C60.5294 13.4821 60.8682 12.9396 61.3324 12.5173C61.7967 12.0949 62.3684 11.8091 62.9846 11.6913L70.8212 10.0805C71.3704 9.95937 71.9409 9.97514 72.4827 10.1264C73.0244 10.2777 73.5208 10.5599 73.9281 10.9482C74.3372 11.3305 74.6449 11.8086 74.8236 12.3395C75.0022 12.8705 75.0462 13.4375 74.9515 13.9897L73.6838 21.8081C73.5812 22.4345 73.3071 23.0202 72.8921 23.5001C72.4771 23.9799 71.9374 24.3353 71.3328 24.5265C70.9753 24.631 70.6034 24.6778 70.2311 24.665Z" fill="#F1F2F0" stroke="#F1F2F0" stroke-width="0.2"/>
<path d="M27.8122 59.5571H30.4812L30.4028 60.4433C30.2448 62.1003 29.6655 63.6892 28.7203 65.0586C28.2336 65.7643 27.6659 66.4103 27.0285 66.9832C26.3736 67.5694 25.6563 68.0817 24.8896 68.5109L23.7833 69.134C23.5884 69.2412 23.3694 69.2968 23.1471 69.2955C22.9178 69.2965 22.6921 69.2377 22.4925 69.1247L21.4 68.5109C19.8768 67.6695 18.5677 66.4882 17.5739 65.0586C16.6265 63.6904 16.047 62.1009 15.8914 60.4433L15.813 59.5571H18.4774L18.5512 60.2956C18.6839 61.5275 19.1229 62.7065 19.8281 63.7248C20.5985 64.8278 21.6088 65.7415 22.7829 66.3971L23.1471 66.6001L23.5113 66.3971C24.6838 65.7431 25.6926 64.8309 26.4615 63.7294C27.1685 62.7104 27.6076 61.5294 27.7384 60.2956L27.8122 59.5571Z" fill="#F1F2F0"/>
<path d="M23.1468 69.8676C22.8078 69.8687 22.4748 69.7778 22.1833 69.6045L21.1047 68.9999C19.5044 68.1139 18.1278 66.873 17.0803 65.3722C16.078 63.9247 15.4652 62.2429 15.301 60.4892L15.1719 58.9893H19.0118L19.1409 60.24C19.2623 61.3807 19.668 62.4726 20.321 63.4154C21.0434 64.4443 21.989 65.2963 23.0868 65.9076L23.1514 65.94L23.2205 65.903C24.3197 65.2955 25.2657 64.4447 25.9864 63.4154C26.64 62.473 27.0458 61.3809 27.1664 60.24L27.2955 58.9893H31.1446L31.011 60.4938C30.8366 62.2411 30.2176 63.9143 29.2132 65.3538C28.7009 66.0962 28.1037 66.7762 27.4338 67.3799C26.7467 67.9949 25.9938 68.532 25.1889 68.9814L24.0825 69.6045C23.7984 69.7714 23.4761 69.862 23.1468 69.8676ZM16.458 60.1246V60.3923C16.6038 61.9555 17.15 63.4546 18.0438 64.7446C18.9894 66.0998 20.2318 67.2206 21.6763 68.0215L22.7642 68.6307C22.8707 68.6897 22.9905 68.7206 23.1122 68.7206C23.2339 68.7206 23.3537 68.6897 23.4602 68.6307L24.5711 68.0076C25.2987 67.5993 25.9789 67.1117 26.5994 66.5538C27.2051 66.004 27.7436 65.3843 28.2036 64.7076C29.0959 63.4186 29.642 61.9214 29.7894 60.36V60.0877H28.3051V60.3139C28.1583 61.6407 27.683 62.9098 26.9222 64.0061C26.1042 65.1795 25.0308 66.1516 23.7829 66.8492L23.1145 67.2184L22.4553 66.8538C21.2018 66.1548 20.1236 65.1794 19.3022 64.0015C18.5379 62.9071 18.0622 61.637 17.9193 60.3092V60.0831L16.458 60.1246Z" fill="#F1F2F0"/>
<path d="M30.4993 54.3877H15.7988V57.0646H30.4993V54.3877Z" fill="#F1F2F0"/>
<path d="M31.0895 57.6559H15.1997V53.8159H31.0802L31.0895 57.6559ZM16.389 56.4697H29.9048V54.979H16.389V56.4697Z" fill="#F1F2F0"/>
</svg>
