<svg width="85" height="85" viewBox="0 0 85 85" fill="none" xmlns="http://www.w3.org/2000/svg">
<path d="M15.4646 13.188H31.5164C34.5346 13.188 36.9811 16.2179 36.9811 18.6738V34.7878C36.9811 35.5082 36.8397 36.2216 36.5651 36.8871C36.2905 37.5527 35.8879 38.1575 35.3805 38.6669C34.873 39.1763 34.2706 39.5803 33.6076 39.856C32.9446 40.1317 32.234 40.2736 31.5164 40.2736H15.4646C12.4464 40.2736 10 37.2437 10 34.7878V18.6738C10 17.2189 10.5757 15.8235 11.6006 14.7948C12.6254 13.766 14.0153 13.188 15.4646 13.188Z" stroke="#F1F2F0" stroke-miterlimit="10"/>
<path d="M42.9377 30.6128C41.9137 29.5825 41.3386 28.1866 41.3386 26.7313C41.3386 25.2759 41.9137 23.88 42.9377 22.8498L54.2888 11.4595C56.4212 9.31406 60.2877 9.72338 62.017 11.4595L73.4009 22.8498C74.4249 23.88 75 25.2759 75 26.7313C75 28.1866 74.4249 29.5825 73.4009 30.6128L62.0499 42.0031C59.9175 44.1485 56.051 43.7439 54.3216 42.0031" stroke="#F1F2F0" stroke-miterlimit="10"/>
<path d="M15.4646 47.9146H31.5164C34.5346 47.9146 36.9811 50.9444 36.9811 53.4004V69.5143C36.9811 70.2348 36.8397 70.9481 36.5651 71.6137C36.2905 72.2792 35.8879 72.884 35.3805 73.3934C34.8731 73.9028 34.2706 74.3069 33.6076 74.5826C32.9446 74.8583 32.234 75.0002 31.5164 75.0002H15.4646C12.4464 75.0002 10 71.9703 10 69.5143V53.4051C10 51.9501 10.5757 50.5548 11.6006 49.526C12.6254 48.4972 14.0153 47.9193 15.4646 47.9193V47.9146Z" stroke="#F1F2F0" stroke-miterlimit="10"/>
<path d="M50.1456 47.9146H66.1927C69.2109 47.9146 71.662 50.9444 71.662 53.4004V69.5143C71.6608 70.9697 71.084 72.365 70.0584 73.3937C69.0329 74.4223 67.6424 75.0002 66.1927 75.0002H50.1456C47.1274 75.0002 44.6763 71.9703 44.6763 69.5143V53.4051C44.6763 51.9489 45.2525 50.5523 46.2782 49.5227C47.3039 48.493 48.6951 47.9146 50.1456 47.9146Z" stroke="#F1F2F0" stroke-miterlimit="10"/>
<path d="M51.7752 38.8238C52.0201 38.4038 52.2796 37.9876 52.5241 37.5628C52.5784 37.4936 52.6152 37.4122 52.6313 37.3255C52.6474 37.2389 52.6423 37.1495 52.6166 37.0652C52.5909 36.9809 52.5452 36.9041 52.4835 36.8415C52.4219 36.7789 52.346 36.7324 52.2626 36.7058C52.1047 36.6768 51.9422 36.6887 51.7903 36.7403C51.1023 36.9437 50.4252 37.1655 49.7467 37.3682C49.673 37.3896 49.5982 37.4062 49.5224 37.4181C49.5627 37.3194 49.5917 37.2599 49.6111 37.201L50.3314 35.5447C50.3791 35.4168 50.442 35.3021 50.4795 35.1653C50.5071 35.075 50.511 34.979 50.491 34.8867C50.471 34.7944 50.4277 34.7088 50.3653 34.6383C50.3029 34.5677 50.2235 34.5146 50.1347 34.484C50.046 34.4535 49.951 34.4465 49.8589 34.4638C49.7644 34.4707 49.6771 34.5106 49.579 34.5321C47.696 35.1483 45.8099 35.7216 43.9357 36.3276C43.7822 36.3723 43.6995 36.3449 43.6187 36.2119C43.2621 35.582 42.8225 35.0038 42.3117 34.493C41.2644 33.3886 39.9146 32.6238 38.4347 32.2963C37.0702 31.9885 35.6482 32.0658 34.3249 32.5198C34.2534 32.5374 34.1836 32.5617 34.1165 32.5924C33.66 32.7538 33.2186 32.9558 32.7976 33.1962C31.5991 33.8624 30.6153 34.8613 29.963 36.0744C29.1195 37.6602 28.7831 39.4705 29 41.2574C29.0139 41.3164 29.0088 41.3783 28.9856 41.4341C28.9623 41.49 28.9221 41.537 28.8706 41.5684C28.4898 41.8164 28.1259 42.1015 27.7534 42.3345C27.354 42.5657 26.9895 42.8535 26.6712 43.1891C26.5851 43.2737 26.5229 43.38 26.4912 43.497C26.4594 43.614 26.4591 43.7374 26.4903 43.8546C26.5215 43.9718 26.5832 44.0785 26.6688 44.1637C26.7545 44.2489 26.8612 44.3096 26.9778 44.3395C27.2931 44.4354 27.6158 44.5047 27.9424 44.5468C28.6764 44.6511 29.4232 44.7354 30.1613 44.83C30.2209 44.8302 30.2786 44.8507 30.3253 44.8881C30.3719 44.9256 30.4047 44.9777 30.4184 45.0362C30.6867 45.7251 30.9376 46.4344 31.238 47.1066C31.8158 48.4492 32.6116 49.6855 33.5925 50.7645C35.1412 52.4763 37.2026 53.6304 39.462 54.0508C41.375 54.4073 43.3396 54.3681 45.2366 53.9356C46.325 53.7185 47.3878 53.3874 48.4079 52.9477C48.4999 52.9254 48.5858 52.8823 48.6589 52.8217C48.732 52.7611 48.7905 52.6844 48.83 52.5976C48.8694 52.5108 48.8888 52.4161 48.8866 52.3207C48.8844 52.2252 48.8607 52.1314 48.8173 52.0465C48.4706 50.9325 48.1246 49.828 47.7732 48.7143C47.7517 48.6502 47.744 48.5822 47.7506 48.5149C47.7572 48.4475 47.7779 48.3824 47.8113 48.3238L51.863 40.8855C51.9337 40.7463 52.0188 40.6108 52.0749 40.4679C52.1135 40.3789 52.1282 40.2812 52.1175 40.1846C52.1068 40.088 52.071 39.9959 52.0139 39.9176C51.9567 39.8394 51.8801 39.7776 51.7918 39.7386C51.7035 39.6995 51.6066 39.6846 51.5108 39.6953C51.4211 39.7018 51.3266 39.7087 51.2369 39.7153C51.2181 39.705 51.2011 39.6917 51.1866 39.6758C51.228 39.6379 51.2647 39.595 51.296 39.5482C51.4515 39.3358 51.6228 39.0791 51.7752 38.8238ZM48.9163 35.9353C48.7712 36.2905 48.6317 36.5927 48.5131 36.9221C48.3946 37.2515 48.2742 37.4901 48.1329 37.7685C48.0936 37.8497 48.0252 37.9128 47.9416 37.9452L44.9296 38.9024C44.8398 38.9089 44.7634 38.9672 44.7253 38.8359C44.5795 38.3965 44.4192 37.9535 44.2734 37.5141C44.2688 37.4874 44.2668 37.4603 44.2675 37.4332L48.9163 35.9353ZM47.4375 52.1377C46.4052 52.5335 45.3339 52.8171 44.2417 52.9838C42.3329 53.3203 40.3719 53.1978 38.5182 52.6261C37.6381 52.3359 36.8069 51.9123 36.0531 51.3699C35.4246 50.9276 34.8501 50.4119 34.3416 49.8337C33.6443 49.0585 33.046 48.1984 32.5606 47.2734L32.5043 47.153C32.0634 46.3115 31.7052 45.4285 31.4347 44.5168C31.3916 44.3281 31.2925 44.157 31.1508 44.0263C31.009 43.8956 30.8312 43.8114 30.641 43.7849C30.0304 43.681 29.4028 43.6024 28.7936 43.5176C28.5969 43.4889 28.4102 43.469 28.2145 43.4546C28.2111 43.4373 28.2099 43.4197 28.2107 43.4022L28.5996 43.1344C28.9882 42.8619 29.3727 42.5993 29.7464 42.3183C29.8676 42.2377 29.9673 42.1282 30.0366 41.9996C30.1059 41.871 30.1428 41.7272 30.144 41.5807C30.1513 41.5137 30.1463 41.446 30.1295 41.3807C29.9783 40.3648 30.0241 39.3291 30.2644 38.331C30.3417 38.0095 30.4443 37.6947 30.5712 37.3895C31.0944 36.0265 32.0708 34.8893 33.3337 34.1719C34.351 33.5767 35.5037 33.2568 36.6802 33.243C37.9081 33.2245 39.1157 33.5617 40.1597 34.2145C41.0911 34.7854 41.8814 35.5627 42.4706 36.4872C42.908 37.1662 43.2491 37.9035 43.4841 38.6776C44.5084 41.9762 45.5385 45.2679 46.5745 48.5529C46.9194 49.6431 47.2556 50.7435 47.6003 51.829C47.6499 52.0552 47.6499 52.0552 47.4375 52.1377ZM50.7161 38.4272C50.3178 39.0882 49.9292 39.7533 49.5366 40.4282C49.4814 40.4961 49.443 40.5762 49.4245 40.662C49.4061 40.7478 49.4081 40.8368 49.4305 40.9217C49.4529 41.0066 49.495 41.0849 49.5533 41.1501C49.6116 41.2154 49.6844 41.2658 49.7658 41.2971C49.9065 41.329 50.0516 41.3362 50.1947 41.3185C50.2554 41.3065 50.3145 41.2877 50.371 41.2625C50.3782 41.2798 50.3891 41.2954 50.4028 41.308C49.3719 43.1977 48.3406 45.0825 47.303 47.0109C47.2725 46.9592 47.2463 46.9051 47.2248 46.849C46.5355 44.6334 45.8464 42.421 45.1575 40.2118C45.1151 40.0856 45.144 40.026 45.2691 39.9834C47.0613 39.4249 48.8516 38.8618 50.64 38.294C50.6982 38.2763 50.7574 38.2623 50.8174 38.2523C50.7561 38.3238 50.7275 38.3881 50.6972 38.4286L50.7161 38.4272Z" fill="#F1F2F0"/>
<path d="M48.9165 35.9356C48.7714 36.2909 48.6319 36.5931 48.5133 36.9225C48.3948 37.2519 48.2744 37.4904 48.1331 37.7688C48.0938 37.85 48.0254 37.9131 47.9418 37.9456L44.9298 38.9027C44.8401 38.9092 44.7636 38.9675 44.7256 38.8362C44.5797 38.3969 44.4194 37.9538 44.2736 37.5145C44.269 37.4877 44.267 37.4606 44.2677 37.4335L48.9165 35.9356Z" fill="#F1F2F0"/>
<path d="M49.6091 40.3769C49.5524 40.4461 49.5129 40.5279 49.4939 40.6154C49.4749 40.7029 49.477 40.7937 49.4999 40.8803C49.5229 40.9668 49.566 41.0467 49.6259 41.1132C49.6857 41.1798 49.7605 41.2311 49.844 41.263C49.9885 41.2955 50.1375 41.3028 50.2844 41.2846C50.3467 41.2724 50.4075 41.2532 50.4656 41.2274C50.4729 41.2451 50.4841 41.261 50.4982 41.2739C49.4386 43.2018 48.3786 45.1249 47.3122 47.0925C47.2809 47.0398 47.2541 46.9846 47.232 46.9274C46.5252 44.6678 45.8187 42.4114 45.1124 40.1583C45.069 40.0296 45.0987 39.9689 45.2272 39.9253C47.0678 39.3547 48.9065 38.7794 50.7432 38.1993C50.803 38.1812 50.8638 38.167 50.9254 38.1567C50.8829 38.2428 50.8528 38.2988 50.8224 38.3498C50.413 39.0242 50.0137 39.7028 49.6091 40.3769Z" fill="#F1F2F0"/>
<path d="M47.4372 52.138C46.4049 52.5338 45.3336 52.8175 44.2415 52.9841C42.3326 53.3207 40.3716 53.1981 38.518 52.6264C37.6379 52.3362 36.8066 51.9126 36.0528 51.3703C35.4244 50.9279 34.8499 50.4123 34.3413 49.8341C33.644 49.0588 33.0457 48.1987 32.5603 47.2737L32.5041 47.1533C32.0632 46.3118 31.7049 45.4288 31.4345 44.5171C31.3913 44.3284 31.2923 44.1574 31.1505 44.0266C31.0087 43.8959 30.831 43.8117 30.6407 43.7852C30.0302 43.6813 29.4025 43.6027 28.7934 43.5179C28.5966 43.4892 28.41 43.4693 28.2143 43.4549C28.2109 43.4376 28.2096 43.4201 28.2105 43.4025L28.5994 43.1348C28.9879 42.8622 29.3724 42.5996 29.7461 42.3186C29.8673 42.238 29.967 42.1286 30.0363 42C30.1057 41.8713 30.1425 41.7275 30.1437 41.5811C30.151 41.5141 30.1461 41.4463 30.1292 41.3811C29.9781 40.3651 30.0239 39.3294 30.2641 38.3314C30.3415 38.0098 30.4441 37.695 30.5709 37.3898C31.0941 36.0268 32.0706 34.8896 33.3335 34.1722C34.3507 33.5771 35.5035 33.2571 36.6799 33.2433C37.9078 33.2249 39.1154 33.562 40.1594 34.2148C41.0908 34.7858 41.8811 35.563 42.4703 36.4876C42.9077 37.1666 43.2489 37.9038 43.4839 38.6779C44.5081 41.9765 45.5382 45.2682 46.5742 48.5532C46.9192 49.6434 47.2554 50.7439 47.6 51.8293C47.6496 52.0555 47.6496 52.0555 47.4372 52.138Z" fill="#F1F2F0"/>
<path d="M35.0272 42.4067C34.6398 42.4348 34.2507 42.3853 33.8823 42.2611C33.5139 42.1368 33.1735 41.9401 32.8808 41.6826C32.5869 41.4273 32.3461 41.1157 32.1724 40.766C31.9987 40.4163 31.8956 40.0354 31.8689 39.6453C31.813 38.8575 32.0691 38.0797 32.5812 37.4824C33.0932 36.8851 33.8193 36.517 34.6005 36.4587C34.988 36.4292 35.3774 36.4781 35.746 36.6024C36.1146 36.7268 36.4549 36.9241 36.7469 37.1828C37.0414 37.4378 37.2829 37.7492 37.4574 38.0988C37.6319 38.4484 37.7359 38.8294 37.7635 39.2197C37.8192 40.0098 37.5615 40.7897 37.0472 41.388C36.7936 41.6835 36.4847 41.9256 36.138 42.1004C35.7914 42.2752 35.4139 42.3793 35.0272 42.4067ZM34.6382 37.0447C34.0119 37.0905 33.4295 37.3852 33.019 37.864C32.6085 38.3429 32.4037 38.9666 32.4495 39.5981C32.4723 39.9113 32.5561 40.217 32.6962 40.4975C32.8363 40.7781 33.03 41.0281 33.266 41.2332C33.5006 41.4403 33.7738 41.5982 34.0696 41.6974C34.3655 41.7967 34.678 41.8353 34.9887 41.8111C35.2991 41.789 35.602 41.7055 35.8803 41.5652C36.1585 41.425 36.4066 41.2308 36.6102 40.9938C36.8212 40.7564 36.9822 40.4784 37.0836 40.1764C37.1849 39.8744 37.2244 39.5548 37.1997 39.237C37.1805 38.9234 37.0986 38.6169 36.9591 38.3359C36.8197 38.0549 36.6254 37.8051 36.3879 37.6016C36.1528 37.3949 35.8796 37.237 35.5839 37.137C35.2882 37.037 34.9759 36.9968 34.6649 37.0189L34.6382 37.0447Z" fill="#272828"/>
<path d="M31.9722 47.4174C36.6412 47.7414 41.2876 46.5321 45.2159 43.9708C45.5287 43.766 45.1989 43.2779 44.8818 43.4877C41.082 45.957 36.5926 47.1242 32.0805 46.8159C31.713 46.7901 31.5935 47.3685 31.9705 47.3936L31.9722 47.4174Z" fill="#F1F2F0"/>
<path d="M35.0497 51.6203C39.5028 51.96 43.9369 50.7618 47.6228 48.2227C47.6775 48.1748 47.7128 48.1081 47.7217 48.0356C47.7306 47.9631 47.7126 47.8897 47.6711 47.8298C47.6296 47.7698 47.5675 47.7274 47.4969 47.7107C47.4263 47.6941 47.3521 47.7044 47.2886 47.7396C43.7399 50.1867 39.4734 51.3502 35.1833 51.0409C34.8159 51.0151 34.6964 51.5935 35.0733 51.6186L35.0497 51.6203Z" fill="#F1F2F0"/>
<path d="M33.0595 45.5186C33.2916 45.5016 33.466 45.2982 33.4491 45.0641C33.4321 44.83 33.2301 44.654 32.998 44.671C32.7658 44.6879 32.5914 44.8914 32.6084 45.1255C32.6254 45.3595 32.8273 45.5355 33.0595 45.5186Z" fill="#F1F2F0"/>
<path d="M36.7362 45.4082C36.9684 45.3913 37.1428 45.1878 37.1258 44.9537C37.1088 44.7197 36.9069 44.5437 36.6747 44.5606C36.4426 44.5776 36.2682 44.7811 36.2851 45.0151C36.3021 45.2492 36.5041 45.4252 36.7362 45.4082Z" fill="#F1F2F0"/>
<path d="M40.142 44.3838C40.3741 44.3669 40.5486 44.1634 40.5316 43.9293C40.5146 43.6953 40.3127 43.5193 40.0805 43.5362C39.8484 43.5532 39.6739 43.7566 39.6909 43.9907C39.7079 44.2248 39.9098 44.4008 40.142 44.3838Z" fill="#F1F2F0"/>
<path d="M42.8983 42.7134C43.1305 42.6965 43.3049 42.493 43.2879 42.2589C43.271 42.0249 43.069 41.8488 42.8368 41.8658C42.6047 41.8827 42.4303 42.0862 42.4472 42.3203C42.4642 42.5544 42.6662 42.7304 42.8983 42.7134Z" fill="#F1F2F0"/>
<path d="M33.4288 28.9298L31.9937 29.54L33.5897 33.3499L35.0248 32.7396L33.4288 28.9298Z" fill="#F1F2F0"/>
<path d="M32.6112 30.2468C33.6154 30.1735 34.37 29.2933 34.2965 28.2807C34.2231 27.2682 33.3494 26.5068 32.3452 26.5801C31.341 26.6535 30.5864 27.5337 30.6598 28.5462C30.7333 29.5588 31.6069 30.3202 32.6112 30.2468Z" fill="#F1F2F0"/>
<path d="M32.6399 30.6372C32.3503 30.6589 32.0592 30.6224 31.7836 30.53C31.5079 30.4375 31.2532 30.2909 31.034 30.0986C30.8144 29.9073 30.6345 29.6742 30.5047 29.4125C30.3749 29.1508 30.2977 28.8659 30.2777 28.5741C30.256 28.2821 30.2919 27.9886 30.3834 27.7108C30.4749 27.433 30.6202 27.1762 30.8108 26.9554C31.0001 26.7339 31.2313 26.5526 31.4907 26.4219C31.7502 26.2912 32.0329 26.2137 32.3224 26.194C32.6118 26.1728 32.9025 26.2095 33.178 26.3018C33.4534 26.3941 33.7081 26.5402 33.9276 26.7319C34.147 26.9235 34.3268 27.1569 34.4567 27.4186C34.5866 27.6803 34.664 27.9653 34.6846 28.2571C34.7057 28.5489 34.6696 28.8421 34.5783 29.1197C34.4869 29.3973 34.3421 29.654 34.1522 29.8751C33.9623 30.0962 33.7309 30.2773 33.4714 30.4081C33.2119 30.5388 32.9294 30.6167 32.6399 30.6372ZM32.3743 26.9753C32.1866 26.9879 32.0033 27.0379 31.835 27.1225C31.6667 27.2071 31.5168 27.3246 31.394 27.4681C31.27 27.6111 31.1756 27.7776 31.1161 27.9578C31.0566 28.138 31.0333 28.3284 31.0475 28.5179C31.0608 28.7074 31.1114 28.8924 31.1962 29.062C31.2811 29.2317 31.3985 29.3827 31.5418 29.5062C31.6831 29.6307 31.8475 29.7258 32.0255 29.786C32.2034 29.8461 32.3914 29.8701 32.5785 29.8566C32.9543 29.8292 33.3038 29.6523 33.5501 29.365C33.7964 29.0777 33.9193 28.7035 33.8918 28.3246C33.8643 27.9457 33.6887 27.5932 33.4035 27.3447C33.1184 27.0962 32.7471 26.972 32.3713 26.9994L32.3743 26.9753Z" fill="#F1F2F0"/>
<path d="M34.8739 40.2109C35.3147 40.1787 35.646 39.7924 35.6137 39.3479C35.5815 38.9034 35.198 38.5692 34.7572 38.6014C34.3163 38.6336 33.9851 39.02 34.0174 39.4644C34.0496 39.9089 34.4331 40.2431 34.8739 40.2109Z" fill="#272828"/>
</svg>
