<svg width="85" height="85" viewBox="0 0 85 85" fill="none" xmlns="http://www.w3.org/2000/svg">
<path d="M3.50095 30.0632L11.8788 30.0885H9.85965C10.1841 31.0477 10.8169 31.8848 11.6682 32.4807C12.5195 33.0766 13.5459 33.401 14.6014 33.4078L20.3775 33.4267C21.4596 33.4299 22.5127 33.0928 23.3742 32.4675C24.2357 31.8421 24.8576 30.9633 25.144 29.9668L27.1715 29.981V27.0094L25.0199 26.9968H25.0083C24.6574 26.0835 24.0223 25.2946 23.1883 24.736C22.3544 24.1774 21.3614 23.8759 20.3427 23.8719L14.5666 23.8545C13.5169 23.8522 12.4938 24.1694 11.6456 24.76C10.7975 25.3506 10.1684 26.1839 9.84972 27.139L12.6103 27.1469L3.4844 27.1185C3.08421 27.1329 2.70558 27.2954 2.42857 27.5716C2.15155 27.8478 1.99787 28.216 2.00002 28.5985C2.00217 28.9809 2.15998 29.3476 2.44008 29.6209C2.72019 29.8943 3.10062 30.0529 3.50095 30.0632ZM14.5898 26.5495L20.3626 26.5684C20.8254 26.5685 21.2752 26.7146 21.642 26.9841H21.1603C20.7571 26.9952 20.3743 27.1559 20.0931 27.4322C19.8119 27.7084 19.6545 28.0784 19.6542 28.4636C19.6507 28.8523 19.8089 29.2265 20.0941 29.5039C20.3793 29.7814 20.7682 29.9393 21.1752 29.9431H22.0723H22.6764H22.0789C21.875 30.1868 21.6161 30.3833 21.3215 30.518C21.0268 30.6527 20.7041 30.722 20.3775 30.7207L14.603 30.7033C14.3185 30.7032 14.0369 30.6493 13.7744 30.5445C13.5119 30.4398 13.2738 30.2864 13.0738 30.0932H13.5454C13.7473 30.0957 13.9476 30.0598 14.1347 29.9875C14.3217 29.9152 14.4918 29.808 14.635 29.6721C14.7782 29.5363 14.8916 29.3745 14.9685 29.1963C15.0454 29.0181 15.0843 28.827 15.083 28.6343C15.0821 28.2424 14.9192 27.8668 14.6297 27.5891C14.3402 27.3114 13.9475 27.1542 13.5372 27.1517H13.0738C13.2721 26.9604 13.5083 26.8087 13.7685 26.7053C14.0288 26.602 14.3079 26.549 14.5898 26.5495Z" fill="#F1F2F0"/>
<path d="M81.8662 27.2275L75.7177 27.2086C75.3868 26.2519 74.7514 25.4178 73.9001 24.8227C73.0489 24.2277 72.0243 23.9013 70.9694 23.8893L65.1916 23.8766C64.1419 23.8733 63.1187 24.191 62.2717 24.7831C61.4247 25.3753 60.7985 26.2108 60.4846 27.1675H59.7183L57.921 27.1548C57.5289 26.1681 56.819 25.3258 55.8935 24.7491C55.6632 24.6144 55.4212 24.4986 55.1703 24.403C54.5668 24.1355 53.909 23.9984 53.2438 24.0015L47.4643 23.9936C47.0383 23.9921 46.6142 24.0485 46.2049 24.1611C45.5048 24.3392 44.8542 24.6618 44.2988 25.1062C43.7435 25.5505 43.297 26.1058 42.9907 26.7328L42.9759 26.7597C42.8912 26.9288 42.823 27.105 42.7723 27.286H43.6693L45.9566 27.2987C46.1522 27.1057 46.3866 26.9524 46.6456 26.8478C46.9047 26.7433 47.1831 26.6896 47.4643 26.6901L53.257 26.7186C53.7347 26.71 54.2013 26.8559 54.5811 27.1327H54.0614C53.8601 27.1316 53.6607 27.1689 53.4747 27.2423C53.2887 27.3157 53.1199 27.4237 52.9781 27.5602C52.8363 27.6966 52.7245 27.8586 52.649 28.0368C52.5736 28.215 52.5361 28.4057 52.5387 28.5979C52.5356 28.9906 52.6958 29.3684 52.9841 29.6484C53.2723 29.9285 53.6651 30.0879 54.0763 30.0916H54.9733C54.7728 30.3336 54.5175 30.529 54.2266 30.6632C53.9356 30.7973 53.6165 30.8667 53.2934 30.8661L47.4875 30.8377C47.2079 30.8368 46.9313 30.7829 46.6737 30.6793C46.416 30.5757 46.1824 30.4243 45.9864 30.2339H46.4581C46.6584 30.2371 46.8574 30.2017 47.0431 30.1298C47.2288 30.0578 47.3974 29.9508 47.5388 29.8152C47.6802 29.6796 47.7915 29.5181 47.866 29.3405C47.9405 29.1628 47.9767 28.9726 47.9725 28.7813C47.9751 28.5876 47.9374 28.3954 47.8617 28.2157C47.786 28.036 47.6736 27.8725 47.5312 27.7346C47.3888 27.5967 47.2192 27.4872 47.0321 27.4123C46.8451 27.3375 46.6443 27.2989 46.4415 27.2987H45.9616L43.6759 27.286H42.7789L40.2963 27.2702C40.2018 26.978 40.0765 26.6957 39.9223 26.4277C39.5767 25.7977 39.0879 25.2495 38.4917 24.8234C37.8954 24.3973 37.2068 24.104 36.4765 23.9651C36.1617 23.901 35.8415 23.8639 35.5198 23.8545H31.3491V26.5653L35.5364 26.5795C35.8405 26.5816 36.141 26.6428 36.4196 26.7594C36.6981 26.8759 36.9489 27.0454 37.1567 27.2576L39.0418 27.2702H36.4103C36.2076 27.2685 36.0065 27.3053 35.8188 27.3784C35.6311 27.4516 35.4605 27.5596 35.3168 27.6962C35.1732 27.8328 35.0593 27.9953 34.982 28.1742C34.9046 28.3532 34.8652 28.545 34.8661 28.7386C34.87 29.128 35.0342 29.5003 35.3231 29.775C35.612 30.0498 36.0025 30.2049 36.4103 30.207H36.9779C36.5873 30.5422 36.0781 30.7235 35.5529 30.7144H31.3508V33.4014L35.5645 33.4141C35.9348 33.4203 36.3044 33.3832 36.6651 33.3034C37.3631 33.1531 38.018 32.8586 38.5839 32.4405C39.1498 32.0224 39.6129 31.4909 39.9405 30.8835C40.0577 30.6712 40.1584 30.4509 40.2417 30.2244H42.7789C42.8368 30.4172 42.9229 30.5816 42.9941 30.7602L43.009 30.7729C43.3194 31.416 43.7754 31.9854 44.3441 32.4399C44.9128 32.8945 45.5799 33.2229 46.2975 33.4014C46.6944 33.5032 47.1031 33.5563 47.514 33.5595L53.3067 33.5737C53.9506 33.5795 54.5881 33.4517 55.1752 33.1991C55.4297 33.1172 55.6726 33.0058 55.8985 32.8672C56.9454 32.2336 57.7113 31.254 58.0501 30.1153H60.4962C60.821 31.071 61.4514 31.9053 62.2988 32.5008C63.1462 33.0962 64.1678 33.4228 65.2197 33.4346L71.0124 33.4473C72.0618 33.4471 73.0839 33.1284 73.9312 32.5371C74.7784 31.9459 75.407 31.1127 75.726 30.158L81.8811 30.177C82.0838 30.1791 82.2848 30.1425 82.4724 30.0692C82.66 29.9959 82.8303 29.8875 82.9733 29.7503C83.1163 29.6132 83.2291 29.45 83.305 29.2706C83.381 29.0911 83.4185 28.8989 83.4154 28.7054C83.4115 28.3148 83.2468 27.9413 82.9569 27.6656C82.6671 27.39 82.2753 27.2343 81.8662 27.2323V27.2275ZM72.5334 30.1469C72.1199 30.5264 71.5693 30.7392 70.9959 30.7413L65.2197 30.7286C64.9366 30.729 64.6561 30.6754 64.395 30.5709C64.1338 30.4664 63.8971 30.3131 63.6987 30.1201H64.134C64.5381 30.1143 64.9237 29.9574 65.2081 29.6832C65.4924 29.409 65.6529 29.0392 65.655 28.6533C65.6494 28.2623 65.4842 27.8888 65.1945 27.6125C64.9049 27.3361 64.5136 27.1787 64.1042 27.1738H63.6855C63.8842 26.9827 64.1211 26.8316 64.3821 26.7295C64.643 26.6274 64.9228 26.5764 65.2048 26.5795L70.9843 26.5921C71.2688 26.5916 71.5506 26.645 71.8134 26.7492C72.0762 26.8533 72.3147 27.0063 72.5152 27.1991H71.825C71.6239 27.1985 71.4246 27.2359 71.2388 27.3093C71.0529 27.3827 70.8841 27.4906 70.7422 27.6268C70.6003 27.7629 70.488 27.9245 70.412 28.1024C70.3359 28.2802 70.2975 28.4706 70.2991 28.6627C70.2982 29.0538 70.4594 29.4292 70.7475 29.707C71.0357 29.9848 71.4272 30.1424 71.8366 30.1454H73.7995H72.5268L72.5334 30.1469Z" fill="#F1F2F0"/>
<path d="M45.4578 50.2136C45.4578 48.4946 43.8984 47.1006 41.9753 47.1006C40.0522 47.1006 38.4927 48.4946 38.4927 50.2136C38.4927 51.3428 39.1673 52.3282 40.1738 52.8742V55.6265C40.1738 56.5119 40.9843 57.2364 41.9748 57.2364C42.9654 57.2364 43.7759 56.5119 43.7759 55.6265V52.8742C44.7832 52.3281 45.4578 51.3428 45.4578 50.2136Z" fill="#F1F2F0"/>
<path d="M58.9981 35.5025H55.7652L55.6378 30.979C55.6378 23.1255 49.7372 16 42.3271 16H41.6243C34.2145 16 28.1862 22.3891 28.1862 30.2429V35.5025H24.9533C23.4579 35.5025 22.2407 36.7921 22.2407 38.3775V67.1249C22.2407 68.7099 23.4575 70 24.9533 70H58.9974C60.4929 70 61.71 68.7104 61.71 67.1249V38.3775C61.7096 36.7921 60.4925 35.5025 58.997 35.5025H58.9981ZM29.1227 30.2429C29.1227 22.9358 34.7309 16.992 41.625 16.992H42.3278C49.222 16.992 54.7026 23.6721 54.7026 30.979L54.83 35.5025H29.1224L29.1227 30.2429ZM60.7762 67.1245C60.7762 68.1631 59.9789 69.0082 58.999 69.0082H24.9549C23.975 69.0082 23.1777 68.1631 23.1777 67.1245V38.3782C23.1777 37.3396 23.975 36.4945 24.9549 36.4945H58.999C59.9789 36.4945 60.7762 37.3396 60.7762 38.3782V67.1245Z" fill="#F1F2F0"/>
</svg>
