<svg width="85" height="85" viewBox="0 0 85 85" fill="none" xmlns="http://www.w3.org/2000/svg">
<path d="M71.8446 42.5C71.8446 40.4138 75.3647 38.0147 74.969 36.0429C74.5582 34.0103 70.3677 33.1196 69.5804 31.25C68.7797 29.348 71.0964 25.7991 69.9473 24.1087C68.7982 22.4183 64.5698 23.1612 63.1031 21.7168C61.6364 20.2723 62.4052 16.1171 60.6744 14.9763C58.9436 13.8355 55.3545 16.1262 53.4232 15.3377C51.5248 14.5623 50.6203 10.4324 48.5565 10.0306C46.5543 9.64085 44.1195 13.1077 42.0001 13.1077C39.8808 13.1077 37.4459 9.64085 35.4437 10.0306C33.3809 10.4354 32.4753 14.5623 30.577 15.3377C28.6458 16.1262 25.0423 13.8447 23.3258 14.9773C21.6094 16.11 22.3638 20.2723 20.8971 21.7168C19.4304 23.1612 15.2123 22.4051 14.0539 24.1087C12.8956 25.8123 15.2205 29.348 14.4198 31.25C13.6325 33.1196 9.44008 34.0114 9.03102 36.0429C8.63531 38.0147 12.1566 40.4138 12.1566 42.5C12.1566 44.5861 8.63531 46.9852 9.03102 48.957C9.44214 50.9885 13.6325 51.8803 14.4198 53.7499C15.2205 55.6519 12.9048 59.2008 14.0539 60.8912C15.203 62.5817 19.4304 61.8387 20.8971 63.2831C22.3638 64.7276 21.596 68.8818 23.3258 70.0226C25.0556 71.1633 28.6458 68.8737 30.577 69.6622C32.4753 70.4376 33.3809 74.5675 35.4437 74.9695C37.4469 75.3591 39.8818 71.8922 42.0001 71.8922C44.1184 71.8922 46.5543 75.3591 48.5565 74.9695C50.6203 74.5643 51.5248 70.4376 53.4232 69.6622C55.3554 68.8737 58.958 71.1542 60.6754 70.0226C62.3929 68.8909 61.6364 64.7276 63.1031 63.2831C64.5698 61.8387 68.7889 62.5948 69.9473 60.8912C71.1057 59.1876 68.7797 55.6519 69.5814 53.7499C70.3677 51.8803 74.5608 50.9885 74.969 48.957C75.3647 46.9852 71.8446 44.5861 71.8446 42.5Z" stroke="#F1F2F0" stroke-width="1.2" stroke-miterlimit="10"/>
<path d="M71.8446 42.5C71.8446 40.4138 75.3647 38.0147 74.969 36.0429C74.5582 34.0103 70.3677 33.1196 69.5804 31.25C68.7797 29.348 71.0964 25.7991 69.9473 24.1087C68.7982 22.4183 64.5698 23.1612 63.1031 21.7168C61.6364 20.2723 62.4052 16.1171 60.6744 14.9763C58.9436 13.8355 55.3545 16.1262 53.4232 15.3377C51.5248 14.5623 50.6203 10.4324 48.5565 10.0306C46.5543 9.64085 44.1195 13.1077 42.0001 13.1077C39.8808 13.1077 37.4459 9.64085 35.4437 10.0306C33.3809 10.4354 32.4753 14.5623 30.577 15.3377C28.6458 16.1262 25.0423 13.8447 23.3258 14.9773C21.6094 16.11 22.3638 20.2723 20.8971 21.7168C19.4304 23.1612 15.2123 22.4051 14.0539 24.1087C12.8956 25.8123 15.2205 29.348 14.4198 31.25C13.6325 33.1196 9.44008 34.0114 9.03102 36.0429C8.63531 38.0147 12.1566 40.4138 12.1566 42.5C12.1566 44.5861 8.63531 46.9852 9.03102 48.957C9.44214 50.9885 13.6325 51.8803 14.4198 53.7499C15.2205 55.6519 12.9048 59.2008 14.0539 60.8912C15.203 62.5817 19.4304 61.8387 20.8971 63.2831C22.3638 64.7276 21.596 68.8818 23.3258 70.0226C25.0556 71.1633 28.6458 68.8737 30.577 69.6622C32.4753 70.4376 33.3809 74.5675 35.4437 74.9695C37.4469 75.3591 39.8818 71.8922 42.0001 71.8922C44.1184 71.8922 46.5543 75.3591 48.5565 74.9695C50.6203 74.5643 51.5248 70.4376 53.4232 69.6622C55.3554 68.8737 58.958 71.1542 60.6754 70.0226C62.3929 68.8909 61.6364 64.7276 63.1031 63.2831C64.5698 61.8387 68.7889 62.5948 69.9473 60.8912C71.1057 59.1876 68.7797 55.6519 69.5814 53.7499C70.3677 51.8803 74.5608 50.9885 74.969 48.957C75.3647 46.9852 71.8446 44.5861 71.8446 42.5Z" stroke="#F1F2F0" stroke-width="1.2" stroke-miterlimit="10"/>
<path d="M55.2168 28.2335C55.9104 28.0607 56.6906 28.4062 56.8642 29.0965C57.0378 29.6141 56.8642 30.2183 56.4306 30.5631C47.6739 39.3635 38.9168 48.0773 30.1599 56.8775C29.8998 57.1363 29.6398 57.3951 29.2926 57.4817C28.6854 57.6544 27.9923 57.3957 27.7323 56.7914C27.4722 56.2739 27.5587 55.5836 27.9923 55.152C36.8361 46.2655 45.6796 37.379 54.5232 28.4925C54.6103 28.4053 54.8703 28.3192 55.2169 28.2331L55.2168 28.2335Z" fill="#F1F2F0"/>
<circle cx="52" cy="51.6035" r="6" fill="#F1F2F0"/>
<circle cx="32" cy="32.6035" r="6" fill="#F1F2F0"/>
</svg>
