<svg width="85" height="85" viewBox="0 0 85 85" fill="none" xmlns="http://www.w3.org/2000/svg">
<path d="M17.375 12.3638H33.1633C36.132 12.3638 38.5383 15.336 38.5383 17.7453V33.5528C38.5383 34.2595 38.3993 34.9593 38.1292 35.6122C37.8591 36.2651 37.4631 36.8584 36.964 37.3581C36.4649 37.8578 35.8723 38.2542 35.2202 38.5246C34.5681 38.7951 33.8692 38.9343 33.1633 38.9343H17.375C14.4063 38.9343 12 35.962 12 33.5528V17.7453C12 16.318 12.5663 14.9492 13.5743 13.94C14.5823 12.9308 15.9494 12.3638 17.375 12.3638Z" stroke="#F1F2F0" stroke-miterlimit="10"/>
<path d="M17.375 47H33.1633C36.132 47 38.5383 49.9723 38.5383 52.3815V68.189C38.5383 68.8957 38.3993 69.5955 38.1292 70.2484C37.859 70.9013 37.4631 71.4946 36.964 71.9943C36.4649 72.494 35.8723 72.8904 35.2202 73.1609C34.5681 73.4313 33.8692 73.5705 33.1633 73.5705H17.375C14.4063 73.5705 12 70.5982 12 68.189V52.3861C12 50.9588 12.5663 49.59 13.5743 48.5808C14.5823 47.5716 15.9494 47.0046 17.375 47.0046V47Z" stroke="#F1F2F0" stroke-miterlimit="10"/>
<path d="M20.8098 60.4804C20.8125 60.5267 20.7784 60.5432 20.7566 60.565C20.1619 61.1613 19.5672 61.7573 18.9726 62.3529C18.9147 62.4113 18.884 62.4067 18.8288 62.3529C18.2342 61.7557 17.6386 61.1604 17.0421 60.567C16.9846 60.5102 16.9873 60.4798 17.0421 60.4243C17.6397 59.8298 18.2353 59.2344 18.8288 58.6381C18.8853 58.5813 18.9161 58.5819 18.9722 58.6381C19.5669 59.2357 20.1616 59.8315 20.7563 60.4256C20.7768 60.4435 20.7946 60.4643 20.8098 60.4804Z" fill="#F1F2F0"/>
<path d="M30.7324 57.2108C30.702 57.2438 30.6778 57.2742 30.6511 57.3009C30.0716 57.8809 29.4895 58.457 28.9143 59.0422C28.827 59.1308 28.7854 59.1099 28.7101 59.0346C27.6813 58.0015 26.6478 56.9729 25.621 55.9381C25.5245 55.841 25.4803 55.839 25.3831 55.9381C24.3636 56.965 23.3367 57.986 22.3168 59.0099C22.2204 59.107 22.1708 59.1261 22.0638 59.0165C21.5021 58.4421 20.9325 57.876 20.361 57.3115C20.28 57.2316 20.2757 57.1886 20.3587 57.1061C22.046 55.4238 23.731 53.7393 25.4135 52.0526C25.4879 51.9779 25.5222 51.9865 25.5923 52.0549C27.275 53.7413 28.9591 55.4264 30.6445 57.11C30.6742 57.1411 30.701 57.1748 30.7324 57.2108Z" fill="#F1F2F0"/>
<path d="M30.7326 63.7718C30.7211 63.7913 30.7083 63.8099 30.6943 63.8277C30.6646 63.8607 30.6328 63.8904 30.6015 63.9215C28.944 65.5789 27.2869 67.2371 25.6302 68.896C25.5347 68.9918 25.4888 69.0123 25.3798 68.9026C23.7186 67.2329 22.0532 65.5673 20.3837 63.9059C20.2846 63.8068 20.2691 63.759 20.3787 63.6519C20.9503 63.0954 21.5139 62.5289 22.0746 61.9625C22.1645 61.872 22.211 61.8693 22.3036 61.9625C23.3277 62.993 24.3582 64.0169 25.3821 65.0478C25.4759 65.1419 25.5198 65.1531 25.6199 65.0521C26.6441 64.0205 27.6736 62.9966 28.6971 61.9658C28.7943 61.8667 28.8418 61.8697 28.9376 61.9658C29.497 62.5346 30.0643 63.0957 30.6289 63.6595C30.6636 63.6959 30.6959 63.7329 30.7326 63.7718Z" fill="#F1F2F0"/>
<path d="M25.5032 62.4469C25.4741 62.4198 25.45 62.399 25.4275 62.3766C24.8247 61.7741 24.221 61.172 23.6164 60.5702C23.5519 60.5065 23.5599 60.4744 23.6193 60.4153C24.2202 59.8183 24.8191 59.2194 25.4159 58.6185C25.4804 58.5524 25.5151 58.5478 25.5835 58.6162C26.1795 59.2178 26.7784 59.8166 27.3804 60.4127C27.4491 60.4807 27.4415 60.5157 27.3771 60.5798C26.7798 61.1721 26.1842 61.7666 25.5904 62.3634C25.5656 62.3895 25.5372 62.4146 25.5032 62.4469Z" fill="#F1F2F0"/>
<path d="M32.103 58.5732C32.1361 58.604 32.1595 58.6258 32.1823 58.6485C32.77 59.2363 33.3583 59.8235 33.9472 60.4103C34.0104 60.4728 34.0226 60.5074 33.9522 60.5755C33.361 61.1612 32.7731 61.7492 32.1883 62.3396C32.1252 62.403 32.0892 62.4142 32.0205 62.3442C31.4357 61.7547 30.8479 61.167 30.2572 60.5811C30.1934 60.5177 30.1835 60.482 30.2536 60.414C30.8443 59.8293 31.4307 59.2404 32.0188 58.6528C32.0452 58.6267 32.0743 58.602 32.103 58.5732Z" fill="#F1F2F0"/>
<path d="M51.3796 46H67.1633C70.132 46 72.5429 48.9723 72.5429 51.3815V67.189C72.5417 68.6167 71.9744 69.9855 70.9656 70.9946C69.9569 72.0037 68.5893 72.5705 67.1633 72.5705H51.3796C48.4109 72.5705 46 69.5982 46 67.189V51.3861C46 49.9576 46.5668 48.5876 47.5757 47.5775C48.5845 46.5674 49.9528 46 51.3796 46Z" stroke="#F1F2F0" stroke-miterlimit="10"/>
<path d="M51.3796 12H67.1633C70.132 12 72.5429 14.9723 72.5429 17.3815V33.189C72.5417 34.6167 71.9744 35.9855 70.9656 36.9946C69.9569 38.0037 68.5893 38.5705 67.1633 38.5705H51.3796C48.4109 38.5705 46 35.5982 46 33.189V17.3861C46 15.9576 46.5668 14.5876 47.5757 13.5775C48.5845 12.5674 49.9528 12 51.3796 12Z" stroke="#F1F2F0" stroke-miterlimit="10"/>
<mask id="path-10-inside-1_8434_3960" fill="white">
<path d="M67.786 29.3009C67.793 29.4659 67.7519 29.5347 67.5343 29.5554C65.9414 29.7122 58.006 30.4751 58.006 30.4751C57.8033 30.4943 57.764 30.5616 57.7648 30.717C57.7709 32.152 57.7648 33.5853 57.7648 35.0203V35.2874C57.6276 35.2704 57.584 35.1986 57.5245 35.149L52.6627 31.0336C52.6114 30.9932 52.5708 30.9441 52.5434 30.8896C52.516 30.835 52.5024 30.7762 52.5037 30.717C52.4104 26.9134 52.312 23.1102 52.2083 19.3071C52.2031 19.1207 52.266 19.0645 52.4774 19.0445C53.3033 18.9654 53.7742 18.9206 54.1546 18.8843C54.1509 18.8827 54.1366 18.8821 54.0792 18.8859C52.9805 18.9902 52.3992 19.0447 52.8969 18.9955C53.6612 18.9205 53.9613 18.8938 54.0792 18.8859C54.7557 18.8217 55.6284 18.7386 56.5662 18.6493C56.5662 18.6493 56.5662 18.6493 56.5662 18.6493C56.5662 18.6493 56.5662 18.6493 56.5662 18.6493C56.5662 18.6493 56.5662 18.6493 56.5662 18.6493C57.7215 18.5392 58.9756 18.4195 60.0837 18.314C61.8655 18.1388 63.6474 17.9638 65.4294 17.789C66.0139 17.7313 66.5994 17.6795 67.1822 17.6115C67.3963 17.5871 67.4767 17.6196 67.481 17.8216C67.5591 21.0269 67.643 24.2342 67.7327 27.4435C67.7493 28.0641 67.7589 28.6825 67.786 29.3009Z"/>
</mask>
<path d="M67.786 29.3009C67.793 29.4659 67.7519 29.5347 67.5343 29.5554C65.9414 29.7122 58.006 30.4751 58.006 30.4751C57.8033 30.4943 57.764 30.5616 57.7648 30.717C57.7709 32.152 57.7648 33.5853 57.7648 35.0203V35.2874C57.6276 35.2704 57.584 35.1986 57.5245 35.149L52.6627 31.0336C52.6114 30.9932 52.5708 30.9441 52.5434 30.8896C52.516 30.835 52.5024 30.7762 52.5037 30.717C52.4104 26.9134 52.312 23.1102 52.2083 19.3071C52.2031 19.1207 52.266 19.0645 52.4774 19.0445C53.3033 18.9654 53.7742 18.9206 54.1546 18.8843C54.1509 18.8827 54.1366 18.8821 54.0792 18.8859C52.9805 18.9902 52.3992 19.0447 52.8969 18.9955C53.6612 18.9205 53.9613 18.8938 54.0792 18.8859C54.7557 18.8217 55.6284 18.7386 56.5662 18.6493C56.5662 18.6493 56.5662 18.6493 56.5662 18.6493C56.5662 18.6493 56.5662 18.6493 56.5662 18.6493C56.5662 18.6493 56.5662 18.6493 56.5662 18.6493C57.7215 18.5392 58.9756 18.4195 60.0837 18.314C61.8655 18.1388 63.6474 17.9638 65.4294 17.789C66.0139 17.7313 66.5994 17.6795 67.1822 17.6115C67.3963 17.5871 67.4767 17.6196 67.481 17.8216C67.5591 21.0269 67.643 24.2342 67.7327 27.4435C67.7493 28.0641 67.7589 28.6825 67.786 29.3009Z" fill="#F1F2F0"/>
<path d="M54.1546 18.8843L54.1276 18.6013L53.0513 18.704L54.0389 19.144L54.1546 18.8843ZM63.098 18.0296L63.1259 18.3125L63.1259 18.3125L63.098 18.0296ZM60.0837 18.314L60.0567 18.031L60.0558 18.031L60.0837 18.314ZM55.4147 18.7735L55.3868 18.4906L55.3864 18.4907L55.4147 18.7735ZM54.1816 19.1673C54.822 19.1062 55.2064 19.069 56.5941 18.9322L56.5383 18.3663C55.1509 18.5032 54.7671 18.5403 54.1276 18.6013L54.1816 19.1673ZM56.5922 18.9324C56.598 18.9318 57.3866 18.8595 58.5332 18.7521L58.4802 18.186C57.3341 18.2933 56.5458 18.3656 56.5402 18.3661L56.5922 18.9324ZM58.5332 18.7521C59.8146 18.6322 61.5433 18.4685 63.1259 18.3125L63.0701 17.7467C61.4889 17.9025 59.7612 18.0661 58.4802 18.186L58.5332 18.7521ZM63.1259 18.3125C63.2169 18.3036 63.2732 18.2979 63.2966 18.2954C63.3008 18.295 63.3087 18.2942 63.315 18.2933C63.3162 18.2931 63.3183 18.2928 63.321 18.2924C63.3222 18.2922 63.3294 18.2912 63.3384 18.2892C63.3444 18.2878 63.3626 18.2828 63.3746 18.2787C63.4121 18.262 63.558 18.0591 63.5128 17.8515C63.4412 17.7788 63.3278 17.7316 63.3068 17.7286C63.2983 17.7279 63.2852 17.7272 63.2806 17.7271C63.2731 17.7271 63.2671 17.7273 63.2657 17.7274C63.2633 17.7275 63.2613 17.7276 63.2602 17.7276C63.2578 17.7278 63.2558 17.7279 63.2546 17.728C63.2466 17.7286 63.231 17.73 63.2118 17.7317C63.1306 17.7391 62.9315 17.7578 62.6434 17.785C62.0667 17.8395 61.1302 17.9287 60.0567 18.031L60.1106 18.597C61.1841 18.4947 62.1205 18.4056 62.697 18.3511C62.9855 18.3238 63.1832 18.3052 63.2631 18.298C63.273 18.2971 63.2809 18.2964 63.2868 18.2959C63.2898 18.2956 63.2921 18.2954 63.2938 18.2953C63.2957 18.2951 63.2964 18.2951 63.2962 18.2951C63.2961 18.2951 63.2959 18.2951 63.2955 18.2951C63.2952 18.2951 63.2945 18.2952 63.2936 18.2952C63.2928 18.2953 63.2912 18.2954 63.289 18.2955C63.2879 18.2955 63.2821 18.2958 63.2748 18.2957C63.2702 18.2956 63.2571 18.295 63.2487 18.2942C63.2277 18.2913 63.1144 18.2441 63.0427 18.1714C62.9975 17.9638 63.1435 17.7609 63.1809 17.7442C63.1929 17.7401 63.211 17.7351 63.2169 17.7337C63.2258 17.7318 63.2329 17.7307 63.2339 17.7306C63.2363 17.7302 63.2381 17.7299 63.239 17.7298C63.2423 17.7294 63.2433 17.7293 63.2365 17.73C63.2157 17.7322 63.1619 17.7376 63.0701 17.7467L63.1259 18.3125ZM54.0389 19.144C54.0139 19.1329 53.9783 19.1126 53.9454 19.0764C53.91 19.0376 53.8912 18.9955 53.8817 18.9607C53.875 18.9363 53.8721 18.9075 53.8741 18.923C53.8747 18.928 53.8787 18.9627 53.8965 19.0028C53.9427 19.1064 54.0299 19.1457 54.0713 19.159C54.1073 19.1705 54.1379 19.1723 54.1467 19.1728C54.1821 19.1749 54.2329 19.1712 54.2955 19.1662C54.4398 19.1547 54.7544 19.1252 55.4429 19.0564L55.3864 18.4907C54.6964 18.5595 54.3878 18.5885 54.2502 18.5995C54.1719 18.6057 54.167 18.6044 54.1802 18.6052C54.1835 18.6054 54.2107 18.6066 54.2445 18.6174C54.2837 18.6299 54.37 18.6685 54.4158 18.7712C54.4335 18.8108 54.4373 18.8451 54.4379 18.8496C54.4399 18.8646 54.4369 18.8354 54.4301 18.8106C54.4205 18.7753 54.4014 18.7327 54.3657 18.6935C54.3323 18.6569 54.2962 18.6362 54.2703 18.6246L54.0389 19.144ZM55.4426 19.0565C56.4732 18.9549 57.5038 18.8534 58.5345 18.752L58.4788 18.1862C57.4481 18.2876 56.4175 18.3891 55.3868 18.4906L55.4426 19.0565ZM58.5345 18.752C59.0602 18.7003 59.5858 18.6486 60.1115 18.5969L60.0558 18.031C59.5302 18.0827 59.0045 18.1344 58.4788 18.1862L58.5345 18.752ZM67.786 29.3009L68.3541 29.2768L68.354 29.276L67.786 29.3009ZM67.5343 29.5554L67.4805 28.9893L67.4786 28.9895L67.5343 29.5554ZM58.006 30.4751L58.0597 31.0411L58.0604 31.0411L58.006 30.4751ZM57.7648 30.717L58.3334 30.7145L58.3334 30.7138L57.7648 30.717ZM57.7648 35.2874L57.6948 35.8516L58.3334 35.9308V35.2874H57.7648ZM57.5245 35.149L57.1572 35.583L57.1603 35.5857L57.5245 35.149ZM52.6627 31.0336L53.03 30.5996L53.0224 30.5931L53.0145 30.5869L52.6627 31.0336ZM52.5037 30.717L53.0721 30.7286L53.0724 30.7158L53.0721 30.703L52.5037 30.717ZM52.2083 19.3071L52.7767 19.2916L52.7767 19.2911L52.2083 19.3071ZM52.4774 19.0445L52.5309 19.6106L52.5317 19.6105L52.4774 19.0445ZM54.1546 18.8843L54.2086 19.4504L56.3612 19.245L54.386 18.365L54.1546 18.8843ZM56.5662 18.6493L56.6201 19.2153L56.6206 19.2152L56.5662 18.6493ZM56.5662 18.6493L56.6186 19.2154L56.6228 19.215L56.5662 18.6493ZM56.5662 18.6493V18.0807H56.5426L56.519 18.0826L56.5662 18.6493ZM56.5662 18.6493V19.2178H56.5932L56.6201 19.2153L56.5662 18.6493ZM60.0837 18.314L60.1376 18.88L60.1393 18.8798L60.0837 18.314ZM52.8969 18.9955L52.8414 18.4296L52.8409 18.4297L52.8969 18.9955ZM65.4294 17.789L65.4849 18.3549L65.4852 18.3548L65.4294 17.789ZM67.1822 17.6115L67.1178 17.0466L67.1163 17.0467L67.1822 17.6115ZM67.481 17.8216L66.9126 17.8339L66.9126 17.8354L67.481 17.8216ZM67.7327 27.4435L68.3011 27.4283L68.3011 27.4277L67.7327 27.4435ZM67.2179 29.325C67.2188 29.347 67.2159 29.3282 67.2237 29.291C67.2331 29.2457 67.2589 29.1713 67.3229 29.1006C67.3849 29.0321 67.4501 29.0033 67.4797 28.993C67.5052 28.9842 67.5116 28.9864 67.4805 28.9893L67.5882 30.1214C67.7154 30.1093 67.975 30.0746 68.1658 29.8639C68.3666 29.6423 68.3582 29.3741 68.3541 29.2768L67.2179 29.325ZM67.4786 28.9895C66.6829 29.0679 64.3016 29.2977 62.1183 29.5081C61.0268 29.6132 59.9852 29.7135 59.2163 29.7875C58.8319 29.8244 58.5157 29.8549 58.2957 29.876C58.1856 29.8866 58.0996 29.8949 58.0411 29.9005C58.0118 29.9033 57.9895 29.9055 57.9744 29.9069C57.9669 29.9076 57.9612 29.9082 57.9573 29.9086C57.9554 29.9087 57.954 29.9089 57.953 29.909C57.9526 29.909 57.9522 29.9091 57.9519 29.9091C57.9518 29.9091 57.9517 29.9091 57.9517 29.9091C57.9516 29.9091 57.9516 29.9091 58.006 30.4751C58.0604 31.0411 58.0604 31.0411 58.0605 31.0411C58.0606 31.0411 58.0607 31.041 58.0608 31.041C58.061 31.041 58.0614 31.041 58.0619 31.0409C58.0628 31.0408 58.0643 31.0407 58.0662 31.0405C58.07 31.0401 58.0757 31.0396 58.0832 31.0389C58.0983 31.0374 58.1207 31.0353 58.1499 31.0325C58.2084 31.0268 58.2945 31.0186 58.4045 31.008C58.6246 30.9868 58.9408 30.9564 59.3252 30.9194C60.0941 30.8454 61.1358 30.7452 62.2273 30.64C64.41 30.4297 66.7928 30.1997 67.59 30.1212L67.4786 28.9895ZM57.9523 29.909C57.8246 29.9212 57.5745 29.9573 57.3879 30.163C57.1971 30.3734 57.1957 30.6268 57.1962 30.7202L58.3334 30.7138C58.3333 30.6937 58.3353 30.7119 58.327 30.7472C58.3169 30.7896 58.2913 30.8597 58.2302 30.927C58.1701 30.9932 58.1064 31.0231 58.0732 31.0349C58.0445 31.0451 58.0339 31.0436 58.0597 31.0411L57.9523 29.909ZM57.1962 30.7194C57.2024 32.153 57.1962 33.5819 57.1962 35.0203H58.3334C58.3334 33.5888 58.3395 32.151 58.3334 30.7145L57.1962 30.7194ZM57.1962 35.0203V35.2874H58.3334V35.0203H57.1962ZM57.8348 34.7231C57.8463 34.7245 57.8667 34.7286 57.892 34.7389C57.9178 34.7494 57.9388 34.7623 57.9537 34.7733C57.966 34.7824 57.9718 34.7887 57.9609 34.7783C57.958 34.7755 57.9558 34.7734 57.9512 34.769C57.9473 34.7652 57.942 34.7602 57.9363 34.7548C57.9249 34.744 57.9085 34.7289 57.8887 34.7124L57.1603 35.5857C57.1558 35.5819 57.1492 35.5756 57.1748 35.6C57.1931 35.6175 57.2296 35.6522 57.2774 35.6875C57.3876 35.769 57.5243 35.8305 57.6948 35.8516L57.8348 34.7231ZM57.8919 34.7151L53.03 30.5996L52.2953 31.4675L57.1572 35.583L57.8919 34.7151ZM53.0145 30.5869C53.0241 30.5945 53.0389 30.6093 53.0515 30.6344L52.0353 31.1448C52.1027 31.2789 52.1987 31.3919 52.3109 31.4803L53.0145 30.5869ZM53.0515 30.6344C53.0643 30.66 53.0729 30.6925 53.0721 30.7286L51.9352 30.7053C51.932 30.8599 51.9676 31.0101 52.0353 31.1448L53.0515 30.6344ZM53.0721 30.703C52.9789 26.899 52.8804 23.0952 52.7767 19.2916L51.6399 19.3226C51.7436 23.1251 51.842 26.9279 51.9352 30.7309L53.0721 30.703ZM52.7767 19.2911C52.7751 19.2365 52.7951 19.3894 52.6554 19.5236C52.5937 19.5828 52.5339 19.6047 52.5134 19.611C52.4957 19.6165 52.4956 19.6139 52.5309 19.6106L52.424 18.4785C52.3132 18.4889 52.0629 18.516 51.8678 18.7033C51.6451 18.9172 51.6362 19.1914 51.6399 19.3231L52.7767 19.2911ZM52.5317 19.6105C53.3574 19.5314 53.828 19.4867 54.2086 19.4504L54.1006 18.3183C53.7203 18.3546 53.2492 18.3994 52.4232 18.4785L52.5317 19.6105ZM56.5662 18.6493C56.6206 19.2152 56.6206 19.2152 56.6206 19.2152C56.6206 19.2152 56.6206 19.2152 56.6206 19.2152C56.6206 19.2152 56.6206 19.2152 56.6206 19.2152C56.6206 19.2152 56.6206 19.2152 56.6206 19.2152C56.6206 19.2152 56.6205 19.2152 56.6205 19.2152C56.6205 19.2152 56.6205 19.2152 56.6205 19.2152C56.6204 19.2152 56.6204 19.2153 56.6203 19.2153C56.6203 19.2153 56.6202 19.2153 56.6201 19.2153C56.6199 19.2153 56.6197 19.2153 56.6196 19.2153C56.6193 19.2154 56.6189 19.2154 56.6186 19.2154L56.5138 18.0831C56.5134 18.0831 56.5131 18.0831 56.5128 18.0832C56.5126 18.0832 56.5124 18.0832 56.5123 18.0832C56.5122 18.0832 56.5121 18.0832 56.512 18.0833C56.512 18.0833 56.5119 18.0833 56.5119 18.0833C56.5119 18.0833 56.5118 18.0833 56.5118 18.0833C56.5118 18.0833 56.5118 18.0833 56.5118 18.0833C56.5118 18.0833 56.5118 18.0833 56.5118 18.0833C56.5118 18.0833 56.5118 18.0833 56.5118 18.0833C56.5118 18.0833 56.5118 18.0833 56.5118 18.0833C56.5118 18.0833 56.5118 18.0833 56.5662 18.6493ZM56.6228 19.215C56.6229 19.215 56.6186 19.2154 56.6134 19.2159L56.519 18.0826C56.5163 18.0828 56.514 18.0831 56.5123 18.0832C56.5114 18.0833 56.5108 18.0834 56.5103 18.0834C56.5101 18.0834 56.5099 18.0835 56.5098 18.0835C56.5097 18.0835 56.5097 18.0835 56.5097 18.0835C56.5096 18.0835 56.5096 18.0835 56.5096 18.0835C56.5096 18.0835 56.5096 18.0835 56.5096 18.0835C56.5096 18.0835 56.5096 18.0835 56.5096 18.0835C56.5096 18.0835 56.5096 18.0835 56.5096 18.0835V18.0835L56.6228 19.215ZM56.5662 19.2178C56.5894 19.2178 56.6081 19.2164 56.6193 19.2154C56.625 19.2148 56.6296 19.2143 56.6324 19.214C56.6338 19.2138 56.6349 19.2137 56.6356 19.2136C56.636 19.2135 56.6363 19.2135 56.6365 19.2135C56.6365 19.2135 56.6366 19.2135 56.6367 19.2135C56.6367 19.2135 56.6367 19.2135 56.6367 19.2135C56.6367 19.2135 56.6367 19.2135 56.6367 19.2135C56.6367 19.2135 56.6367 19.2135 56.6367 19.2135C56.6367 19.2135 56.6367 19.2135 56.6367 19.2135C56.6371 19.2134 56.6349 19.2137 56.6324 19.214C56.6296 19.2143 56.625 19.2148 56.6193 19.2154C56.6081 19.2164 56.5894 19.2178 56.5662 19.2178V18.0807C56.543 18.0807 56.5243 18.0821 56.5131 18.0831C56.5074 18.0837 56.5028 18.0842 56.5 18.0845C56.4986 18.0847 56.4975 18.0848 56.4968 18.0849C56.4964 18.085 56.4961 18.085 56.4959 18.085C56.4959 18.085 56.4958 18.085 56.4957 18.085C56.4957 18.085 56.4957 18.085 56.4957 18.0851C56.4957 18.0851 56.4957 18.0851 56.4957 18.0851C56.4957 18.0851 56.4957 18.0851 56.4957 18.0851C56.4957 18.0851 56.4957 18.0851 56.4957 18.0851C56.4953 18.0851 56.4975 18.0848 56.5 18.0845C56.5028 18.0842 56.5074 18.0837 56.5131 18.0831C56.5243 18.0821 56.543 18.0807 56.5662 18.0807V19.2178ZM60.0297 17.7479C58.9218 17.8535 57.6674 17.9732 56.5123 18.0832L56.6201 19.2153C57.7756 19.1052 59.0294 18.9856 60.1376 18.88L60.0297 17.7479ZM56.5122 18.0832C55.5744 18.1726 54.7019 18.2557 54.0255 18.3199L54.133 19.452C54.8096 19.3877 55.6823 19.3046 56.6201 19.2153L56.5122 18.0832ZM54.0255 18.3199C53.476 18.372 53.0566 18.4117 52.8367 18.4322C52.7818 18.4373 52.7398 18.4411 52.7115 18.4437C52.6972 18.445 52.6873 18.4458 52.6813 18.4464C52.678 18.4466 52.6773 18.4467 52.6782 18.4466C52.6783 18.4466 52.6813 18.4464 52.6856 18.4461C52.6875 18.446 52.6929 18.4457 52.7 18.4455C52.7034 18.4454 52.7104 18.4452 52.7192 18.4452C52.7227 18.4452 52.7482 18.4452 52.7803 18.4487C52.8017 18.4516 52.8672 18.4654 52.9104 18.4791C53.028 18.5377 53.2766 18.9123 53.2405 19.2361C53.1546 19.3769 52.9862 19.5147 52.938 19.5377C52.9154 19.5467 52.8793 19.5588 52.8661 19.5625C52.8439 19.5686 52.8262 19.5718 52.8219 19.5726C52.8148 19.574 52.8091 19.5749 52.8061 19.5754C52.7999 19.5763 52.7951 19.577 52.7934 19.5772C52.7912 19.5775 52.7895 19.5777 52.7886 19.5778C52.786 19.5781 52.7853 19.5782 52.7884 19.5779C52.7936 19.5773 52.8029 19.5763 52.8175 19.5748C52.8462 19.5719 52.8908 19.5675 52.9529 19.5613L52.8409 18.4297C52.7785 18.4358 52.7325 18.4404 52.702 18.4436C52.687 18.4451 52.6746 18.4464 52.6657 18.4473C52.6617 18.4478 52.6558 18.4484 52.65 18.4491C52.6488 18.4493 52.6398 18.4504 52.629 18.4521C52.6258 18.4526 52.6199 18.4535 52.6127 18.4549C52.6083 18.4557 52.5905 18.459 52.5683 18.465C52.555 18.4688 52.5189 18.4809 52.4963 18.4898C52.4481 18.5129 52.2796 18.6507 52.1938 18.7915C52.1577 19.1153 52.4063 19.4899 52.5239 19.5486C52.5671 19.5622 52.6326 19.5761 52.654 19.5789C52.6862 19.5825 52.7118 19.5824 52.7154 19.5824C52.7243 19.5824 52.7314 19.5822 52.735 19.5821C52.7424 19.5819 52.7483 19.5816 52.7507 19.5814C52.7561 19.5811 52.7607 19.5808 52.7628 19.5806C52.7678 19.5803 52.7729 19.5798 52.7773 19.5795C52.7865 19.5787 52.7989 19.5776 52.8137 19.5763C52.8435 19.5736 52.8868 19.5696 52.9421 19.5644C53.1632 19.5439 53.5837 19.5041 54.133 19.452L54.0255 18.3199ZM52.9523 19.5614C53.7201 19.4861 54.0101 19.4604 54.1173 19.4532L54.0412 18.3186C53.9125 18.3272 53.6024 18.355 52.8414 18.4296L52.9523 19.5614ZM54.1173 19.4532C54.1437 19.4515 54.1487 19.4516 54.1434 19.4516C54.1415 19.4516 54.1253 19.4519 54.1025 19.45C54.0906 19.449 54.0699 19.4469 54.0441 19.4419C54.0203 19.4373 53.9756 19.4271 53.9232 19.4037L54.386 18.365C54.2926 18.3233 54.21 18.3178 54.1962 18.3167C54.1679 18.3143 54.1438 18.3144 54.1307 18.3145C54.103 18.3148 54.0721 18.3165 54.0412 18.3186L54.1173 19.4532ZM60.1393 18.8798C61.9211 18.7046 63.7029 18.5297 65.4849 18.3549L65.3739 17.2231C63.5918 17.3979 61.8099 17.5729 60.028 17.7481L60.1393 18.8798ZM65.4852 18.3548C66.0621 18.2979 66.6586 18.2451 67.2481 18.1762L67.1163 17.0467C66.5401 17.114 65.9658 17.1647 65.3735 17.2232L65.4852 18.3548ZM67.2466 18.1764C67.2875 18.1717 67.2917 18.1738 67.2769 18.1727C67.2618 18.1716 67.1885 18.1648 67.1038 18.1106C67.0076 18.049 66.9538 17.9636 66.9294 17.8974C66.9098 17.8445 66.9121 17.8134 66.9126 17.8339L68.0495 17.8093C68.0466 17.6732 68.0204 17.347 67.7167 17.1527C67.5846 17.0682 67.4508 17.0452 67.3603 17.0386C67.2701 17.0319 67.1839 17.039 67.1178 17.0466L67.2466 18.1764ZM66.9126 17.8354C66.9907 21.0414 67.0746 24.2494 67.1643 27.4594L68.3011 27.4277C68.2114 24.219 68.1275 21.0124 68.0495 17.8077L66.9126 17.8354ZM67.1643 27.4587C67.1807 28.0708 67.1906 28.701 67.218 29.3258L68.354 29.276C68.3272 28.664 68.3179 28.0575 68.3011 27.4283L67.1643 27.4587Z" fill="#F1F2F0" mask="url(#path-10-inside-1_8434_3960)"/>
<mask id="path-12-inside-2_8434_3960" fill="white">
<path d="M66.578 28.6964C66.585 28.8614 66.5439 28.9302 66.3263 28.9509C64.7334 29.1077 56.798 29.8706 56.798 29.8706C56.5953 29.8898 56.5559 29.9571 56.5568 30.1125C56.5629 31.5475 56.5568 32.9808 56.5568 34.4158V34.6829C56.4196 34.6659 56.3759 34.5941 56.3165 34.5446L51.4547 30.4291C51.4034 30.3887 51.3628 30.3396 51.3354 30.2851C51.308 30.2306 51.2944 30.1717 51.2956 30.1125C51.2024 26.309 51.104 22.5057 51.0003 18.7026C50.9951 18.5162 51.058 18.46 51.2694 18.44C52.0953 18.3609 52.5662 18.3161 52.9466 18.2798C52.9429 18.2782 52.9286 18.2776 52.8712 18.2814C51.7725 18.3857 51.1912 18.4403 51.6889 18.391C52.4532 18.316 52.7533 18.2893 52.8712 18.2814C53.5477 18.2172 54.4204 18.1341 55.3582 18.0448C55.3582 18.0448 55.3582 18.0448 55.3582 18.0448C55.3582 18.0448 55.3582 18.0448 55.3582 18.0448C55.3582 18.0448 55.3582 18.0448 55.3582 18.0448C56.5135 17.9347 57.7676 17.8151 58.8757 17.7095C60.6575 17.5343 62.4394 17.3593 64.2213 17.1845C64.8059 17.1268 65.3914 17.075 65.9742 17.007C66.1883 16.9826 66.2687 17.0151 66.273 17.2171C66.3511 20.4224 66.435 23.6297 66.5247 26.8391C66.5413 27.4597 66.5509 28.078 66.578 28.6964Z"/>
</mask>
<path d="M66.578 28.6964C66.585 28.8614 66.5439 28.9302 66.3263 28.9509C64.7334 29.1077 56.798 29.8706 56.798 29.8706C56.5953 29.8898 56.5559 29.9571 56.5568 30.1125C56.5629 31.5475 56.5568 32.9808 56.5568 34.4158V34.6829C56.4196 34.6659 56.3759 34.5941 56.3165 34.5446L51.4547 30.4291C51.4034 30.3887 51.3628 30.3396 51.3354 30.2851C51.308 30.2306 51.2944 30.1717 51.2956 30.1125C51.2024 26.309 51.104 22.5057 51.0003 18.7026C50.9951 18.5162 51.058 18.46 51.2694 18.44C52.0953 18.3609 52.5662 18.3161 52.9466 18.2798C52.9429 18.2782 52.9286 18.2776 52.8712 18.2814C51.7725 18.3857 51.1912 18.4403 51.6889 18.391C52.4532 18.316 52.7533 18.2893 52.8712 18.2814C53.5477 18.2172 54.4204 18.1341 55.3582 18.0448C55.3582 18.0448 55.3582 18.0448 55.3582 18.0448C55.3582 18.0448 55.3582 18.0448 55.3582 18.0448C55.3582 18.0448 55.3582 18.0448 55.3582 18.0448C56.5135 17.9347 57.7676 17.8151 58.8757 17.7095C60.6575 17.5343 62.4394 17.3593 64.2213 17.1845C64.8059 17.1268 65.3914 17.075 65.9742 17.007C66.1883 16.9826 66.2687 17.0151 66.273 17.2171C66.3511 20.4224 66.435 23.6297 66.5247 26.8391C66.5413 27.4597 66.5509 28.078 66.578 28.6964Z" fill="#F1F2F0"/>
<path d="M52.9466 18.2798L52.8858 17.6427L50.4628 17.8739L52.6862 18.8645L52.9466 18.2798ZM61.89 17.4251L61.9528 18.062L61.9528 18.062L61.89 17.4251ZM58.8757 17.7095L58.8149 17.0724L58.813 17.0725L58.8757 17.7095ZM54.2067 18.1691L54.1439 17.5321L54.1431 17.5322L54.2067 18.1691ZM53.0074 18.917C53.6483 18.8558 54.0331 18.8186 55.421 18.6817L55.2953 17.4079C53.9081 17.5447 53.5248 17.5818 52.8858 17.6427L53.0074 18.917ZM55.4167 18.6821C55.4226 18.6815 56.2115 18.6092 57.3583 18.5018L57.239 17.2274C56.0932 17.3346 55.3052 17.4069 55.2997 17.4074L55.4167 18.6821ZM57.3583 18.5018C58.64 18.3818 60.3694 18.2181 61.9528 18.062L61.8273 16.7882C60.2469 16.944 58.5198 17.1075 57.239 17.2274L57.3583 18.5018ZM61.9528 18.062C62.0434 18.0531 62.1011 18.0473 62.1262 18.0447C62.1289 18.0444 62.1422 18.043 62.1545 18.0413C62.157 18.041 62.1616 18.0404 62.1675 18.0395C62.17 18.0391 62.1862 18.0366 62.2065 18.0322C62.2198 18.0291 62.2607 18.0178 62.2878 18.0086C62.3721 17.971 62.7007 17.5143 62.5989 17.0468C62.4376 16.8832 62.1824 16.7769 62.1352 16.7703C62.1161 16.7686 62.0865 16.7671 62.0762 16.767C62.0594 16.7668 62.0461 16.7673 62.0431 16.7675C62.0379 16.7677 62.0336 16.7679 62.0313 16.7681C62.0265 16.7683 62.0225 16.7686 62.0205 16.7688C62.0088 16.7696 61.9897 16.7713 61.9718 16.773C61.8896 16.7804 61.6898 16.7992 61.4019 16.8264C60.8251 16.8809 59.8884 16.9701 58.8149 17.0724L58.9364 18.3466C60.0099 18.2443 60.9461 18.1552 61.5225 18.1007C61.8113 18.0734 62.0082 18.0549 62.0872 18.0478C62.1095 18.0457 62.116 18.0452 62.1143 18.0453C62.1135 18.0454 62.1106 18.0456 62.1065 18.0458C62.1045 18.046 62.1006 18.0462 62.0956 18.0464C62.0929 18.0465 62.0798 18.0471 62.0631 18.0469C62.0529 18.0467 62.0234 18.0452 62.0042 18.0436C61.9571 18.0369 61.7019 17.9307 61.5407 17.767C61.4388 17.2996 61.7674 16.8428 61.8517 16.8052C61.8788 16.7961 61.9196 16.7848 61.9329 16.7817C61.953 16.7773 61.969 16.7749 61.9714 16.7746C61.9769 16.7737 61.9813 16.7731 61.9834 16.7728C61.9928 16.7716 61.9992 16.7709 61.9908 16.7718C61.9717 16.7739 61.9195 16.7791 61.8272 16.7882L61.9528 18.062ZM52.6862 18.8645C52.6293 18.8391 52.5489 18.7932 52.4744 18.7115C52.3946 18.6238 52.3521 18.5287 52.3306 18.45C52.3155 18.3948 52.3089 18.3298 52.3133 18.3644C52.3148 18.3753 52.3236 18.4533 52.3636 18.5431C52.4674 18.7758 52.6632 18.8639 52.755 18.8933C52.8346 18.9188 52.9014 18.9224 52.9178 18.9234C52.9835 18.9272 53.063 18.9205 53.1158 18.9163C53.2643 18.9045 53.5826 18.8745 54.2702 18.8059L54.1431 17.5322C53.4522 17.6012 53.1473 17.6297 53.0139 17.6404C52.9257 17.6474 52.9495 17.643 52.9931 17.6456C53.004 17.6462 53.0673 17.6493 53.1448 17.6741C53.2344 17.7028 53.4294 17.7901 53.5327 18.0219C53.5725 18.1112 53.5813 18.1888 53.5827 18.1993C53.5871 18.2333 53.5804 18.1679 53.5652 18.1122C53.5436 18.0331 53.5009 17.9375 53.4206 17.8495C53.3458 17.7673 53.2648 17.721 53.2071 17.6952L52.6862 18.8645ZM54.2694 18.806C55.3 18.7044 56.3307 18.6029 57.3613 18.5015L57.236 17.2277C56.2053 17.3291 55.1746 17.4306 54.1439 17.5321L54.2694 18.806ZM57.3613 18.5015C57.887 18.4498 58.4126 18.3981 58.9383 18.3464L58.813 17.0725C58.2873 17.1242 57.7617 17.1759 57.236 17.2277L57.3613 18.5015ZM66.578 28.6964L67.8568 28.6422L67.8568 28.6404L66.578 28.6964ZM66.3263 28.9509L66.205 27.6766L66.2009 27.677L66.3263 28.9509ZM56.798 29.8706L56.9189 31.1449L56.9205 31.1447L56.798 29.8706ZM56.5568 30.1125L57.8368 30.107L57.8368 30.1053L56.5568 30.1125ZM56.5568 34.6829L56.3993 35.9531L57.8368 36.1314V34.6829H56.5568ZM56.3165 34.5446L55.4895 35.5216L55.4966 35.5275L56.3165 34.5446ZM51.4547 30.4291L52.2817 29.4521L52.2644 29.4375L52.2466 29.4234L51.4547 30.4291ZM51.2956 30.1125L52.5754 30.1388L52.576 30.1099L52.5753 30.0811L51.2956 30.1125ZM51.0003 18.7026L52.2798 18.6678L52.2798 18.6667L51.0003 18.7026ZM51.2694 18.44L51.3898 19.7144L51.3915 19.7142L51.2694 18.44ZM52.9466 18.2798L53.0682 19.5541L57.9141 19.0917L53.4675 17.1106L52.9466 18.2798ZM55.3582 18.0448L55.4796 19.319L55.4807 19.3189L55.3582 18.0448ZM55.3582 18.0448L55.4762 19.3193L55.4856 19.3184L55.3582 18.0448ZM55.3582 18.0448V16.7648H55.305L55.2519 16.7692L55.3582 18.0448ZM55.3582 18.0448V19.3248H55.419L55.4796 19.319L55.3582 18.0448ZM58.8757 17.7095L58.9971 18.9837L59.0009 18.9833L58.8757 17.7095ZM51.6889 18.391L51.564 17.1171L51.5628 17.1172L51.6889 18.391ZM64.2213 17.1845L64.3463 18.4584L64.3471 18.4583L64.2213 17.1845ZM65.9742 17.007L65.8292 15.7352L65.8257 15.7356L65.9742 17.007ZM66.273 17.2171L64.9933 17.2448L64.9934 17.2482L66.273 17.2171ZM66.5247 26.8391L67.8042 26.8048L67.8042 26.8033L66.5247 26.8391ZM65.2991 28.7506C65.299 28.7485 65.294 28.6621 65.3193 28.5409C65.3485 28.4014 65.4206 28.203 65.5876 28.0186C65.75 27.8392 65.9285 27.7547 66.0381 27.7166C66.0918 27.6979 66.1345 27.6883 66.16 27.6835C66.1857 27.6785 66.202 27.6769 66.205 27.6766L66.4476 30.2251C66.5978 30.2108 67.1014 30.1607 67.4852 29.7369C67.8912 29.2885 67.8617 28.758 67.8568 28.6422L65.2991 28.7506ZM66.2009 27.677C65.4061 27.7553 63.0258 27.985 60.842 28.1954C59.7506 28.3006 58.709 28.4009 57.9402 28.4748C57.5558 28.5118 57.2396 28.5422 57.0195 28.5634C56.9095 28.574 56.8235 28.5822 56.765 28.5879C56.7357 28.5907 56.7134 28.5928 56.6983 28.5943C56.6908 28.595 56.6851 28.5956 56.6813 28.5959C56.6793 28.5961 56.6779 28.5962 56.6769 28.5963C56.6765 28.5964 56.6761 28.5964 56.6759 28.5964C56.6757 28.5964 56.6756 28.5965 56.6756 28.5965C56.6755 28.5965 56.6755 28.5965 56.798 29.8706C56.9205 31.1447 56.9205 31.1447 56.9206 31.1447C56.9206 31.1447 56.9207 31.1447 56.9208 31.1447C56.9211 31.1447 56.9215 31.1446 56.9219 31.1446C56.9229 31.1445 56.9243 31.1444 56.9262 31.1442C56.9301 31.1438 56.9358 31.1433 56.9433 31.1425C56.9584 31.1411 56.9808 31.1389 57.01 31.1361C57.0685 31.1305 57.1546 31.1222 57.2646 31.1116C57.4847 31.0905 57.8009 31.0601 58.1854 31.0231C58.9542 30.9491 59.996 30.8488 61.0876 30.7436C63.2698 30.5334 65.6536 30.3033 66.4517 30.2247L66.2009 27.677ZM56.6771 28.5963C56.5164 28.6116 56.0292 28.6658 55.653 29.0805C55.2672 29.5058 55.2762 30.0067 55.2768 30.1197L57.8368 30.1053C57.8368 30.1086 57.8385 30.1914 57.8113 30.3065C57.7802 30.4376 57.7085 30.6248 57.5491 30.8005C57.392 30.9737 57.2186 31.0598 57.1035 31.1007C56.9986 31.138 56.9243 31.1444 56.9189 31.1449L56.6771 28.5963ZM55.2768 30.1179C55.2829 31.5498 55.2768 32.9731 55.2768 34.4158H57.8368C57.8368 32.9886 57.8429 31.5452 57.8368 30.107L55.2768 30.1179ZM55.2768 34.4158V34.6829H57.8368V34.4158H55.2768ZM56.7144 33.4126C56.783 33.4211 56.8647 33.4398 56.9521 33.4754C57.0405 33.5114 57.1131 33.5557 57.1687 33.5969C57.2186 33.6338 57.2509 33.6658 57.2446 33.6597C57.2427 33.6579 57.2422 33.6574 57.2364 33.6518C57.232 33.6476 57.2247 33.6405 57.2162 33.6326C57.1996 33.6169 57.1716 33.5909 57.1364 33.5616L55.4966 35.5275C55.468 35.5036 55.4357 35.472 55.475 35.5096C55.4979 35.5315 55.5609 35.5918 55.6463 35.655C55.8499 35.8056 56.1012 35.9162 56.3993 35.9531L56.7144 33.4126ZM57.1435 33.5676L52.2817 29.4521L50.6277 31.406L55.4895 35.5215L57.1435 33.5676ZM52.2466 29.4234C52.3324 29.4911 52.4166 29.5859 52.4792 29.7105L50.1916 30.8597C50.3089 31.0934 50.4744 31.2863 50.6628 31.4347L52.2466 29.4234ZM52.4792 29.7105C52.5424 29.8365 52.5786 29.9833 52.5754 30.1388L50.0159 30.0862C50.0103 30.3601 50.0735 30.6246 50.1916 30.8597L52.4792 29.7105ZM52.5753 30.0811C52.482 26.2764 52.3835 22.472 52.2798 18.6678L49.7208 18.7375C49.8244 22.5394 49.9229 26.3415 50.016 30.1438L52.5753 30.0811ZM52.2798 18.6667C52.2802 18.6816 52.2833 18.7801 52.2473 18.9151C52.2059 19.0706 52.1152 19.2641 51.9401 19.4322C51.7753 19.5905 51.6062 19.6581 51.5155 19.6862C51.4311 19.7123 51.3765 19.7156 51.3898 19.7144L51.1491 17.1657C51.0319 17.1768 50.5543 17.2138 50.1671 17.5856C49.7176 18.0172 49.7157 18.5587 49.7208 18.7386L52.2798 18.6667ZM51.3915 19.7142C52.2171 19.6351 52.6874 19.5904 53.0682 19.5541L52.825 17.0056C52.445 17.0419 51.9736 17.0867 51.1473 17.1659L51.3915 19.7142ZM55.3582 18.0448C55.4807 19.3189 55.4807 19.3189 55.4807 19.3189C55.4807 19.3189 55.4807 19.3189 55.4807 19.3189C55.4807 19.3189 55.4806 19.3189 55.4806 19.3189C55.4806 19.3189 55.4806 19.3189 55.4806 19.3189C55.4806 19.3189 55.4806 19.3189 55.4805 19.3189C55.4805 19.3189 55.4804 19.3189 55.4804 19.3189C55.4803 19.3189 55.4802 19.3189 55.4801 19.3189C55.4799 19.319 55.4797 19.319 55.4795 19.319C55.4791 19.319 55.4788 19.3191 55.4784 19.3191C55.4776 19.3192 55.4769 19.3192 55.4762 19.3193L55.2402 16.7702C55.2394 16.7703 55.2387 16.7703 55.238 16.7704C55.2376 16.7705 55.2372 16.7705 55.2368 16.7705C55.2366 16.7705 55.2364 16.7706 55.2362 16.7706C55.2361 16.7706 55.236 16.7706 55.2359 16.7706C55.2359 16.7706 55.2358 16.7706 55.2358 16.7706C55.2358 16.7706 55.2358 16.7706 55.2357 16.7706C55.2357 16.7706 55.2357 16.7706 55.2357 16.7706C55.2357 16.7706 55.2357 16.7706 55.2357 16.7706C55.2357 16.7706 55.2357 16.7706 55.2357 16.7706C55.2357 16.7706 55.2357 16.7706 55.3582 18.0448ZM55.4856 19.3184C55.4859 19.3184 55.4763 19.3194 55.4645 19.3203L55.2519 16.7692C55.2459 16.7697 55.2408 16.7701 55.2368 16.7705C55.2349 16.7707 55.2334 16.7709 55.2324 16.771C55.2319 16.771 55.2315 16.771 55.2312 16.7711C55.2311 16.7711 55.231 16.7711 55.2309 16.7711C55.2309 16.7711 55.2309 16.7711 55.2308 16.7711C55.2308 16.7711 55.2308 16.7711 55.2308 16.7711C55.2308 16.7711 55.2308 16.7711 55.2308 16.7711C55.2308 16.7711 55.2308 16.7711 55.2308 16.7711C55.2308 16.7711 55.2308 16.7711 55.2308 16.7711C55.2308 16.7711 55.2308 16.7711 55.2308 16.7711L55.4856 19.3184ZM55.3582 19.3248C55.3848 19.3248 55.4083 19.3239 55.4281 19.3228C55.4478 19.3218 55.4647 19.3204 55.4777 19.3192C55.4905 19.318 55.5009 19.3168 55.5072 19.3161C55.5104 19.3157 55.513 19.3154 55.5145 19.3152C55.5153 19.3151 55.516 19.315 55.5163 19.315C55.5165 19.3149 55.5167 19.3149 55.5168 19.3149C55.5169 19.3149 55.5169 19.3149 55.5169 19.3149C55.5169 19.3149 55.5169 19.3149 55.517 19.3149C55.517 19.3149 55.517 19.3149 55.517 19.3149C55.517 19.3149 55.517 19.3149 55.517 19.3149C55.5172 19.3148 55.5159 19.315 55.5145 19.3152C55.513 19.3154 55.5104 19.3157 55.5072 19.3161C55.5009 19.3168 55.4905 19.318 55.4777 19.3192C55.4647 19.3204 55.4478 19.3218 55.4281 19.3228C55.4083 19.3239 55.3848 19.3248 55.3582 19.3248V16.7648C55.3316 16.7648 55.3081 16.7656 55.2883 16.7667C55.2686 16.7677 55.2517 16.7691 55.2387 16.7703C55.2258 16.7716 55.2155 16.7727 55.2092 16.7735C55.206 16.7738 55.2034 16.7741 55.2019 16.7743C55.2011 16.7744 55.2004 16.7745 55.2 16.7746C55.1998 16.7746 55.1997 16.7746 55.1996 16.7746C55.1995 16.7746 55.1995 16.7746 55.1995 16.7746C55.1995 16.7746 55.1994 16.7746 55.1994 16.7746C55.1994 16.7746 55.1994 16.7746 55.1994 16.7746C55.1994 16.7746 55.1994 16.7746 55.1994 16.7746C55.1992 16.7747 55.2004 16.7745 55.2019 16.7743C55.2034 16.7741 55.206 16.7738 55.2092 16.7735C55.2155 16.7727 55.2258 16.7716 55.2387 16.7703C55.2517 16.7691 55.2686 16.7677 55.2883 16.7667C55.3081 16.7656 55.3316 16.7648 55.3582 16.7648V19.3248ZM58.7542 16.4352C57.6464 16.5408 56.3917 16.6605 55.2368 16.7705L55.4796 19.319C56.6353 19.2089 57.8888 19.0893 58.9971 18.9837L58.7542 16.4352ZM55.2367 16.7705C54.299 16.8599 53.4265 16.943 52.7503 17.0072L52.9922 19.5557C53.6689 19.4915 54.5418 19.4084 55.4796 19.319L55.2367 16.7705ZM52.7503 17.0072C52.2007 17.0593 51.7819 17.0989 51.5628 17.1193C51.508 17.1244 51.4668 17.1282 51.4396 17.1307C51.4256 17.1319 51.4173 17.1326 51.4132 17.133C51.4106 17.1332 51.4128 17.133 51.4172 17.1327C51.4187 17.1326 51.4265 17.132 51.4369 17.1314C51.4414 17.1311 51.454 17.1304 51.4701 17.1299C51.4779 17.1297 51.4936 17.1293 51.5135 17.1293C51.5215 17.1294 51.579 17.1292 51.6512 17.1372C51.6996 17.1436 51.847 17.1747 51.9442 17.2055C52.2089 17.3375 52.7685 18.1808 52.6872 18.9098C52.494 19.2268 52.1148 19.5369 52.0063 19.5888C51.9554 19.609 51.8741 19.6362 51.8444 19.6446C51.7944 19.6582 51.7545 19.6656 51.7448 19.6674C51.7287 19.6704 51.7158 19.6725 51.7088 19.6736C51.6857 19.6773 51.6674 19.6794 51.6673 19.6794C51.6595 19.6804 51.6546 19.6809 51.6572 19.6806C51.66 19.6803 51.6674 19.6795 51.6817 19.6781C51.7093 19.6753 51.753 19.6709 51.815 19.6648L51.5628 17.1172C51.5003 17.1234 51.4533 17.1281 51.4217 17.1313C51.4064 17.1329 51.3922 17.1344 51.3809 17.1356C51.3764 17.1361 51.3664 17.1372 51.3553 17.1385C51.3535 17.1387 51.334 17.1411 51.3102 17.1448C51.3031 17.146 51.29 17.1481 51.2738 17.1511C51.264 17.153 51.224 17.1604 51.1739 17.174C51.1442 17.1824 51.0629 17.2096 51.012 17.2298C50.9034 17.2817 50.5242 17.5918 50.331 17.9089C50.2497 18.6379 50.8093 19.4811 51.0741 19.6131C51.1713 19.6439 51.3187 19.6751 51.3671 19.6814C51.4394 19.6895 51.497 19.6893 51.5051 19.6893C51.525 19.6894 51.5409 19.689 51.5488 19.6887C51.5653 19.6882 51.5783 19.6875 51.5834 19.6872C51.5949 19.6865 51.6043 19.6858 51.6078 19.6856C51.6163 19.6849 51.6243 19.6843 51.6293 19.6839C51.6405 19.6829 51.6544 19.6817 51.6695 19.6803C51.7005 19.6775 51.7446 19.6735 51.8 19.6683C52.0218 19.6477 52.443 19.6078 52.9922 19.5557L52.7503 17.0072ZM51.8138 19.6649C52.5857 19.5892 52.8631 19.5649 52.9569 19.5586L52.7856 17.0043C52.6435 17.0138 52.3208 17.0429 51.564 17.1171L51.8138 19.6649ZM52.9569 19.5586C52.9805 19.557 52.9692 19.5582 52.9433 19.5585C52.932 19.5586 52.8907 19.559 52.8358 19.5545C52.8074 19.5521 52.7593 19.5472 52.7002 19.5357C52.6455 19.5251 52.5443 19.5019 52.4257 19.4491L53.4675 17.1106C53.2584 17.0175 53.0744 17.0055 53.0469 17.0032C52.9865 16.9982 52.9373 16.9984 52.9148 16.9987C52.8664 16.9992 52.8193 17.002 52.7856 17.0043L52.9569 19.5586ZM59.0009 18.9833C60.7826 18.8081 62.5644 18.6332 64.3463 18.4584L64.0964 15.9106C62.3143 16.0854 60.5323 16.2604 58.7504 16.4356L59.0009 18.9833ZM64.3471 18.4583C64.9143 18.4023 65.5247 18.3482 66.1226 18.2784L65.8257 15.7356C65.258 15.8019 64.6975 15.8513 64.0956 15.9107L64.3471 18.4583ZM66.1192 18.2787C66.1444 18.2759 66.0972 18.2836 66.0167 18.2777C65.9355 18.2717 65.7327 18.2463 65.5124 18.1054C65.266 17.9477 65.1236 17.7276 65.0542 17.5398C64.9957 17.3819 64.9937 17.2619 64.9933 17.2448L67.5527 17.1894C67.5488 17.0093 67.5164 16.3483 66.8921 15.9489C66.6244 15.7777 66.3611 15.7361 66.2045 15.7246C66.0486 15.7131 65.911 15.7259 65.8292 15.7352L66.1192 18.2787ZM64.9934 17.2482C65.0715 20.4551 65.1554 23.664 65.2452 26.8748L67.8042 26.8033C67.7145 23.5955 67.6307 20.3897 67.5527 17.1859L64.9934 17.2482ZM65.2451 26.8733C65.2612 27.4746 65.2715 28.1197 65.2992 28.7524L67.8568 28.6404C67.8303 28.0364 67.8214 27.4447 67.8042 26.8048L65.2451 26.8733Z" fill="#F1F2F0" mask="url(#path-12-inside-2_8434_3960)"/>
<path d="M59.8321 50L59.7046 50.433V62.9962L59.8321 63.1233L65.6636 59.6762L59.8321 50Z" fill="#F1F2F0"/>
<path d="M59.8317 50L54 59.6762L59.8317 63.1233V57.0255V50Z" fill="#F1F2F0"/>
<path d="M59.8321 64.2275L59.7603 64.3151V68.7903L59.8321 69.0001L65.6672 60.7822L59.8321 64.2275Z" fill="#F1F2F0"/>
<path d="M59.8317 69.0001V64.2275L54 60.7822L59.8317 69.0001Z" fill="#F1F2F0"/>
<path d="M59.832 63.1237L65.6636 59.6766L59.832 57.0259V63.1237Z" fill="#F1F2F0"/>
<path d="M54 59.6766L59.8317 63.1237V57.0259L54 59.6766Z" fill="#F1F2F0"/>
</svg>
