<svg width="159" height="63" viewBox="0 0 159 63" fill="none" xmlns="http://www.w3.org/2000/svg">
<g filter="url(#filter0_d_7627_9799)">
<mask id="mask0_7627_9799" style="mask-type:luminance" maskUnits="userSpaceOnUse" x="4" y="0" width="152" height="56">
<path d="M155.06 0H4V55.0102H155.06V0Z" fill="white"/>
</mask>
<g mask="url(#mask0_7627_9799)">
<path d="M24.856 2.52186C26.1231 3.88316 26.7532 6.04082 26.7465 8.99484V12.6397C26.7465 15.6108 26.1231 17.7446 24.8761 19.1229C23.6292 20.5013 21.5778 21.1649 18.7319 21.1649H13.5833V25.5857H4V0.520752H18.7319C21.5476 0.520752 23.589 1.19459 24.856 2.52186ZM17.123 9.66869C17.1652 9.30859 17.0757 8.94529 16.8716 8.64772C16.5979 8.44811 16.2616 8.3573 15.9263 8.39247H13.5833V13.5586H15.9263C16.2572 13.5923 16.5898 13.5133 16.8716 13.334C16.9769 13.1987 17.0523 13.042 17.0928 12.8746C17.1229 12.7092 17.1229 12.5396 17.0928 12.3743L17.123 9.66869Z" fill="white"/>
<path d="M39.9198 25.5653L39.5779 21.7264H36.0885L35.7566 25.5959H26.123L29.8136 0.551392H45.9634L49.5835 25.5959L39.9198 25.5653ZM36.5913 15.6414H39.0751L38.4717 8.58647H37.1846L36.5913 15.6414Z" fill="white"/>
<path d="M51.2629 0.520752H60.8563V18.3164H67.9558V25.5959H51.2629V0.520752Z" fill="white"/>
<path d="M70.0876 4.11459C70.3812 3.37859 70.8279 2.71569 71.3972 2.17119C71.9664 1.62669 72.6448 1.21345 73.3859 0.959776C75.7918 0.234142 78.2998 -0.0798488 80.8072 0.0306835C83.3151 -0.0917973 85.8251 0.222439 88.2285 0.959776C88.9799 1.20722 89.6671 1.62237 90.2397 2.17474C90.8225 2.72401 91.2791 3.39673 91.5772 4.14522C92.2665 6.30554 92.5662 8.57442 92.462 10.8428V15.3453C92.5723 17.6305 92.2585 19.9163 91.5369 22.0838C91.2348 22.8267 90.7747 23.4926 90.1894 24.0338C89.6115 24.5743 88.9255 24.9817 88.1782 25.2284C83.3301 26.4125 78.2744 26.4125 73.4262 25.2284C72.6803 24.9837 71.9955 24.5777 71.4192 24.0383C70.8428 23.499 70.3885 22.8391 70.0876 22.1042C69.3753 19.9208 69.0684 17.6221 69.1826 15.3249V10.8326C69.0749 8.55584 69.3817 6.27841 70.0876 4.11459ZM78.9469 17.2954C78.9879 17.4241 79.0606 17.54 79.158 17.6323C79.2497 17.7302 79.3637 17.8039 79.4899 17.8467C80.3652 18.0644 81.2793 18.0644 82.1547 17.8467C82.2795 17.8009 82.3928 17.7277 82.4867 17.6324C82.5805 17.5372 82.6526 17.4221 82.6977 17.2954C82.8057 16.8933 82.8499 16.4763 82.8285 16.06V9.93417C82.8452 9.53491 82.8011 9.13542 82.6977 8.74983C82.6555 8.62169 82.583 8.506 82.4866 8.41289C82.391 8.32226 82.278 8.25275 82.1547 8.20871C81.2793 7.99105 80.3652 7.99105 79.4899 8.20871C79.3655 8.25038 79.252 8.32018 79.158 8.41289C79.0616 8.506 78.9891 8.62169 78.9469 8.74983C78.8435 9.13542 78.7994 9.53491 78.8161 9.93417V16.06C78.7998 16.4761 78.8439 16.8923 78.9469 17.2954Z" fill="white"/>
<path d="M129.92 0.520752V25.5653H120.87V8.88255H119.955L118.024 25.5653H106.711L104.7 8.88255H103.825V25.5653H94.775V0.520752H110.744L111.83 16.6828H112.675L113.911 0.520752H129.92Z" fill="white"/>
<path d="M145.397 25.5653L145.045 21.7264H141.535L141.213 25.5959H131.54L135.22 0.551392H151.37L155 25.5959L145.397 25.5653ZM142.078 15.6414H144.562L143.949 8.58647H142.641L142.078 15.6414Z" fill="white"/>
<path d="M58.1814 46.2911V46.8118C58.2427 48.0922 57.9723 49.3666 57.397 50.5077C56.8283 51.4733 55.9357 52.1983 54.8831 52.5497C53.3612 53.0132 51.7747 53.2201 50.1869 53.1623H36.3801V28.1279H49.9053C52.5299 28.1279 54.4506 28.5976 55.6674 29.5165C56.8842 30.4354 57.4775 31.9872 57.4775 34.1823V34.703C57.5349 36.0954 57.0958 37.4621 56.2406 38.5521C55.2581 39.6329 53.8965 40.2782 52.4495 40.349V40.7778C56.2708 40.9888 58.1814 42.8266 58.1814 46.2911ZM45.7422 35.1114V38.3684H47.4919C47.6775 38.4092 47.8695 38.4092 48.0551 38.3684C48.2387 38.3179 48.4077 38.2233 48.5478 38.0927C48.7691 37.6776 48.8603 37.2039 48.8093 36.7348V36.3978C48.8553 36.039 48.7694 35.6754 48.5679 35.3769C48.2716 35.1774 47.9155 35.0907 47.5623 35.1318L45.7422 35.1114ZM49.0707 44.4431C49.1111 43.968 49.0205 43.4908 48.8093 43.0648C48.6785 42.9299 48.5157 42.8315 48.3366 42.7789C48.1584 42.7331 47.9718 42.7331 47.7936 42.7789H45.7824V46.2401H47.7936C48.1523 46.2771 48.5116 46.175 48.7992 45.9542C49.0213 45.6372 49.1215 45.2486 49.0808 44.8617L49.0707 44.4431Z" fill="white"/>
<path d="M60.7859 31.7116C61.079 30.9655 61.5285 30.2931 62.1032 29.7411C62.6749 29.1827 63.362 28.7607 64.1144 28.5057C68.9884 27.2806 74.0831 27.2806 78.957 28.5057C79.7055 28.7596 80.3914 29.1739 80.9682 29.7207C81.5428 30.275 81.9951 30.9465 82.2956 31.6912C82.9942 33.8495 83.2976 36.1195 83.1906 38.3888V42.8913C83.2981 45.1805 82.9809 47.4697 82.2554 49.6399C81.9525 50.3799 81.4941 51.0438 80.9122 51.5852C80.3303 52.1266 79.639 52.5324 78.8866 52.7743C76.4984 53.4833 74.0113 53.7868 71.5257 53.6728C69.0304 53.7774 66.5349 53.474 64.1345 52.7743C63.3878 52.5316 62.7017 52.1276 62.1233 51.59C61.5497 51.0469 61.0972 50.3855 60.796 49.6501C60.0843 47.4664 59.7741 45.1684 59.8809 42.8708V38.3786C59.7851 36.119 60.0916 33.8605 60.7859 31.7116ZM69.6452 44.8618C69.6937 44.9898 69.7653 45.1075 69.8564 45.2089C69.9541 45.3018 70.0708 45.3715 70.1983 45.4131C71.0685 45.6445 71.9828 45.6445 72.853 45.4131C72.9802 45.3738 73.0957 45.3027 73.1888 45.2064C73.2819 45.1101 73.3497 44.9916 73.386 44.8618C73.4982 44.4604 73.5458 44.0432 73.5268 43.6264V37.5005C73.5409 37.0974 73.4933 36.6944 73.386 36.306C73.3446 36.1804 73.2719 36.0678 73.1748 35.9793C73.0831 35.8813 72.9692 35.8077 72.843 35.7649C71.9711 35.5468 71.0601 35.5468 70.1882 35.7649C70.0602 35.81 69.9434 35.8832 69.8463 35.9793C69.7559 36.0733 69.6841 36.1843 69.6351 36.306C69.5312 36.6949 69.4871 37.0979 69.5044 37.5005V43.6264C69.4904 44.043 69.5378 44.4594 69.6452 44.8618Z" fill="white"/>
<path d="M103.061 28.1279V36.2243H98.3951V53.1623H88.9224V36.2243H84.2866V28.1279H103.061Z" fill="white"/>
<path d="M135.22 35.9486C135.572 35.4279 135.944 34.9277 136.286 34.3968C136.362 34.3128 136.418 34.2112 136.447 34.1007C136.472 33.9898 136.472 33.8746 136.447 33.7638C136.417 33.6525 136.366 33.5484 136.296 33.4575C136.221 33.3729 136.128 33.3066 136.024 33.2635C135.826 33.2125 135.619 33.2125 135.421 33.2635C134.526 33.4575 133.641 33.6821 132.756 33.8863H132.465C132.525 33.7638 132.575 33.6821 132.605 33.6106L133.671 31.5687C133.742 31.4053 133.832 31.2624 133.893 31.0888C133.928 30.9724 133.928 30.8479 133.893 30.7315C133.879 30.6125 133.834 30.4994 133.762 30.4048C133.687 30.3077 133.591 30.2306 133.48 30.1801C133.368 30.1377 133.248 30.1203 133.128 30.1291C133.008 30.1291 132.897 30.1801 132.766 30.1904C130.313 30.8132 127.859 31.3747 125.415 31.9771C125.378 31.9917 125.338 31.9985 125.297 31.9971C125.257 31.9958 125.218 31.9862 125.181 31.9691C125.145 31.952 125.112 31.9276 125.085 31.8974C125.058 31.8672 125.037 31.8318 125.023 31.7933C124.62 30.9519 124.114 30.1662 123.515 29.4553C122.279 27.943 120.632 26.8349 118.778 26.2698C117.069 25.7411 115.248 25.7057 113.519 26.1677L113.248 26.2392C112.653 26.4051 112.075 26.6237 111.518 26.8926C109.927 27.6398 108.58 28.8337 107.636 30.3333C106.416 32.299 105.82 34.5976 105.927 36.9186C105.952 36.9913 105.952 37.0705 105.927 37.1432C105.893 37.2142 105.836 37.2717 105.766 37.3066C105.263 37.5924 104.76 37.9191 104.278 38.1846C103.747 38.4536 103.256 38.7973 102.82 39.2056C102.7 39.3048 102.61 39.4353 102.559 39.5829C102.507 39.7304 102.497 39.8895 102.528 40.0428C102.55 40.1984 102.616 40.344 102.719 40.4614C102.82 40.5813 102.953 40.6698 103.101 40.7166C103.492 40.8712 103.896 40.9907 104.308 41.074C105.233 41.2782 106.178 41.4619 107.114 41.6457C107.188 41.6567 107.257 41.6885 107.315 41.7376C107.369 41.7927 107.405 41.8644 107.415 41.9418C107.697 42.8505 107.948 43.7898 108.27 44.678C108.88 46.4619 109.781 48.1289 110.935 49.6093C112.745 51.9578 115.264 53.6397 118.105 54.3977C120.511 55.0314 123.018 55.1634 125.476 54.7857C126.885 54.594 128.27 54.2517 129.609 53.7647C129.728 53.741 129.841 53.6923 129.941 53.6217C130.032 53.5476 130.111 53.4578 130.172 53.3563C130.229 53.2456 130.264 53.1239 130.272 52.999C130.278 52.8768 130.257 52.7549 130.212 52.6416L129.206 48.2514C129.191 48.167 129.191 48.0806 129.206 47.9962C129.22 47.9091 129.251 47.8256 129.297 47.7511L135.15 38.5623C135.25 38.3888 135.371 38.2152 135.461 38.0417C135.513 37.9297 135.54 37.8079 135.542 37.6843C135.537 37.5573 135.499 37.4338 135.431 37.327C135.365 37.2223 135.275 37.1349 135.17 37.0717C135.056 37.0182 134.933 36.9904 134.808 36.9901H134.456H134.405L134.556 36.8369C134.727 36.5715 134.999 36.2651 135.22 35.9486ZM131.841 31.9566C131.63 32.4059 131.419 32.7734 131.238 33.192C131.073 33.5451 130.885 33.8862 130.675 34.213C130.615 34.3134 130.522 34.3893 130.413 34.4274L126.491 35.3769C126.381 35.3769 126.27 35.4382 126.24 35.2646C126.089 34.6929 125.928 34.1007 125.787 33.5289C125.778 33.4922 125.778 33.4534 125.787 33.4166L131.841 31.9566ZM128.462 52.6825C127.109 53.0923 125.717 53.3558 124.309 53.4686C121.847 53.7202 119.361 53.3701 117.059 52.4476C115.963 51.9974 114.945 51.3736 114.042 50.5997C113.291 49.9721 112.615 49.2558 112.031 48.4658C111.22 47.399 110.544 46.2327 110.02 44.9945L109.959 44.8414C109.476 43.7136 109.102 42.5407 108.843 41.3394C108.803 41.0938 108.691 40.8663 108.521 40.686C108.356 40.5024 108.138 40.3771 107.898 40.3286C107.134 40.1347 106.339 39.9713 105.565 39.8079C105.324 39.7569 105.082 39.7059 104.841 39.6752C104.836 39.6639 104.834 39.6518 104.834 39.6395C104.834 39.6272 104.836 39.6151 104.841 39.6038L105.354 39.2974C105.877 38.9809 106.359 38.6849 106.892 38.3582C107.056 38.2649 107.194 38.1315 107.295 37.9702C107.399 37.8128 107.458 37.629 107.466 37.4393C107.486 37.3554 107.486 37.2679 107.466 37.1841C107.373 35.8633 107.526 34.5366 107.918 33.2737C108.048 32.8665 108.209 32.4704 108.401 32.0894C109.191 30.3853 110.538 29.0111 112.212 28.1994C113.566 27.5346 115.065 27.2324 116.566 27.3214C118.134 27.4138 119.642 27.9632 120.91 28.9039C122.048 29.721 122.984 30.7937 123.646 32.0383C124.137 32.9569 124.502 33.9393 124.732 34.9583C125.73 39.3009 126.736 43.6366 127.748 47.9656C128.08 49.4051 128.412 50.8447 128.754 52.2741C128.744 52.5906 128.744 52.5906 128.462 52.6825ZM133.903 35.3259C133.339 36.1426 132.786 36.9594 132.223 37.7966C132.142 37.8746 132.083 37.9734 132.052 38.0825C132.027 38.1934 132.027 38.3085 132.052 38.4194C132.07 38.5309 132.115 38.6361 132.183 38.7257C132.254 38.813 132.343 38.8829 132.444 38.9299C132.619 38.9893 132.804 39.0136 132.988 39.0014C133.067 38.9904 133.144 38.9698 133.219 38.9401C133.212 38.9599 133.212 38.9816 133.219 39.0014C131.731 41.3394 130.202 43.6673 128.744 46.0563C128.724 45.9994 128.708 45.9414 128.694 45.8828L126.682 37.1432C126.682 36.9798 126.682 36.8982 126.843 36.8573L133.882 35.1931H134.114C134.049 35.2578 133.992 35.3297 133.943 35.4075L133.903 35.3259Z" fill="#343BAB"/>
<path d="M131.841 31.9567C131.63 32.4059 131.419 32.7735 131.238 33.1921C131.073 33.5451 130.885 33.8863 130.675 34.213C130.615 34.3134 130.522 34.3893 130.413 34.4274L126.491 35.3769C126.381 35.3769 126.27 35.4382 126.24 35.2646C126.089 34.6929 125.928 34.1007 125.788 33.529C125.778 33.4922 125.778 33.4535 125.788 33.4167L131.841 31.9567Z" fill="#80A4FF"/>
<path d="M132.193 37.7864C132.12 37.8693 132.066 37.9666 132.032 38.0723C132.007 38.1832 132.007 38.2983 132.032 38.4092C132.054 38.5214 132.102 38.6265 132.173 38.7155C132.235 38.8074 132.323 38.8784 132.424 38.9197C132.599 38.9783 132.784 39.0026 132.967 38.9911L133.199 38.9401V39.0014C131.71 41.3292 130.182 43.6672 128.724 46.0461C128.708 45.9929 128.698 45.9381 128.694 45.8827L126.682 37.1432C126.682 36.9798 126.682 36.9084 126.853 36.8573L133.893 35.1931H134.114L133.973 35.428C133.309 36.1528 132.716 36.9696 132.193 37.7864Z" fill="#80A4FF"/>
<path d="M128.462 52.6824C127.109 53.0923 125.717 53.3558 124.309 53.4686C121.847 53.7202 119.361 53.3701 117.059 52.4476C115.964 51.9974 114.945 51.3736 114.042 50.5996C113.291 49.9721 112.615 49.2557 112.031 48.4658C111.22 47.399 110.544 46.2327 110.02 44.9945L109.959 44.8414C109.476 43.7136 109.103 42.5407 108.843 41.3394C108.803 41.0938 108.691 40.8662 108.521 40.686C108.357 40.5023 108.138 40.3771 107.898 40.3286C107.134 40.1346 106.339 39.9713 105.565 39.8079C105.324 39.7569 105.082 39.7058 104.841 39.6752C104.836 39.6639 104.834 39.6518 104.834 39.6395C104.834 39.6272 104.836 39.6151 104.841 39.6037L105.354 39.2974C105.877 38.9809 106.359 38.6849 106.892 38.3582C107.056 38.2649 107.195 38.1315 107.295 37.9702C107.399 37.8128 107.458 37.6289 107.466 37.4393C107.486 37.3554 107.486 37.2679 107.466 37.184C107.373 35.8633 107.526 34.5366 107.918 33.2737C108.048 32.8665 108.209 32.4704 108.401 32.0893C109.191 30.3853 110.538 29.0111 112.212 28.1994C113.566 27.5346 115.065 27.2323 116.566 27.3214C118.134 27.4138 119.642 27.9632 120.91 28.9039C122.048 29.721 122.984 30.7937 123.646 32.0383C124.137 32.9569 124.502 33.9393 124.732 34.9583C125.731 39.3008 126.736 43.6366 127.748 47.9655C128.08 49.4051 128.412 50.8447 128.754 52.2741C128.744 52.5906 128.744 52.5906 128.462 52.6824Z" fill="#80A4FF"/>
<path d="M113.61 38.5725C114.286 38.5745 114.948 38.3726 115.512 37.9924C116.076 37.6122 116.515 37.0708 116.776 36.4367C117.036 35.8026 117.105 35.1043 116.974 34.4302C116.844 33.7562 116.519 33.1367 116.041 32.6502C115.563 32.1637 114.954 31.8321 114.291 31.6973C113.627 31.5626 112.939 31.6307 112.314 31.8931C111.688 32.1556 111.154 32.6005 110.778 33.1716C110.402 33.7426 110.201 34.4142 110.201 35.1012C110.201 36.0201 110.56 36.9015 111.199 37.5522C111.838 38.2029 112.705 38.5698 113.61 38.5725Z" fill="#E2ED4C"/>
<path d="M113.549 38.9809C113.056 38.9839 112.567 38.8867 112.111 38.695C111.652 38.4974 111.235 38.2094 110.885 37.8476C110.534 37.4913 110.258 37.0679 110.07 36.602C109.876 36.1375 109.78 35.6365 109.789 35.1318C109.786 34.5002 109.937 33.8777 110.228 33.3197C110.52 32.7618 110.943 32.2857 111.459 31.9339C111.976 31.5822 112.57 31.3657 113.189 31.3038C113.809 31.2418 114.433 31.3363 115.008 31.5788C115.464 31.773 115.878 32.0576 116.224 32.416C116.578 32.7756 116.858 33.2023 117.049 33.6718C117.238 34.1379 117.334 34.6378 117.33 35.142C117.328 36.1629 116.931 37.1419 116.224 37.868C115.871 38.2203 115.454 38.5009 114.997 38.695C114.54 38.8913 114.046 38.9887 113.549 38.9809ZM113.549 32.0485C112.749 32.0485 111.982 32.3712 111.416 32.9456C110.85 33.52 110.533 34.2991 110.533 35.1114C110.533 35.5144 110.612 35.9134 110.764 36.2855C110.912 36.6668 111.135 37.014 111.418 37.3065C111.702 37.6014 112.044 37.8312 112.423 37.9804C112.79 38.1348 113.183 38.2143 113.58 38.2143C113.976 38.2143 114.369 38.1348 114.736 37.9804C115.112 37.8297 115.454 37.604 115.742 37.3167C116.034 37.0282 116.264 36.6803 116.415 36.2957C116.574 35.918 116.656 35.5118 116.657 35.1012C116.659 34.6956 116.584 34.2934 116.435 33.9169C116.281 33.5363 116.056 33.1896 115.772 32.8959C115.492 32.6083 115.158 32.38 114.79 32.224C114.423 32.068 114.028 31.9876 113.63 31.9872L113.549 32.0485Z" fill="#343BAB"/>
<path d="M109.195 45.1476C115.117 46.005 121.152 44.8833 126.391 41.952C126.803 41.7171 126.391 41.0637 126.009 41.2985C120.944 44.1186 115.114 45.1934 109.396 44.3615C108.924 44.3002 108.723 45.0353 109.195 45.0966V45.1476Z" fill="#343BAB"/>
<path d="M112.735 50.8549C118.378 51.7016 124.137 50.5747 129.066 47.6592C129.136 47.5983 129.186 47.516 129.207 47.4244C129.241 47.3394 129.241 47.2439 129.207 47.1589C129.161 47.0754 129.085 47.0132 128.995 46.9854C128.912 46.9502 128.818 46.9502 128.734 46.9854C123.984 49.7832 118.439 50.8629 113.006 50.0483C112.544 49.9768 112.333 50.7119 112.815 50.7834L112.735 50.8549Z" fill="#343BAB"/>
<path d="M110.764 42.8198C110.871 42.8198 110.976 42.7875 111.066 42.7269C111.155 42.6663 111.225 42.5802 111.266 42.4795C111.307 42.3787 111.318 42.2679 111.297 42.1609C111.276 42.054 111.224 41.9557 111.148 41.8786C111.072 41.8015 110.975 41.749 110.87 41.7278C110.765 41.7065 110.655 41.7174 110.556 41.7591C110.457 41.8008 110.372 41.8715 110.312 41.9622C110.253 42.0529 110.221 42.1594 110.221 42.2685C110.221 42.4147 110.278 42.5549 110.38 42.6583C110.482 42.7617 110.62 42.8198 110.764 42.8198Z" fill="#343BAB"/>
<path d="M115.45 43.0138C115.558 43.0159 115.664 42.9852 115.754 42.9259C115.845 42.8666 115.916 42.7812 115.959 42.6807C116.001 42.5801 116.014 42.4689 115.994 42.3613C115.974 42.2537 115.923 42.1545 115.848 42.0764C115.772 41.9983 115.675 41.9447 115.57 41.9226C115.464 41.9005 115.354 41.9108 115.255 41.9522C115.155 41.9936 115.069 42.0643 115.009 42.1552C114.949 42.246 114.917 42.353 114.917 42.4625C114.917 42.607 114.973 42.7457 115.072 42.8488C115.172 42.9519 115.308 43.0112 115.45 43.0138Z" fill="#343BAB"/>
<path d="M119.885 42.0132C119.992 42.0152 120.098 41.9846 120.189 41.9253C120.28 41.866 120.351 41.7806 120.393 41.68C120.436 41.5795 120.448 41.4683 120.428 41.3607C120.409 41.2531 120.358 41.1539 120.282 41.0758C120.207 40.9976 120.11 40.9441 120.004 40.922C119.899 40.8999 119.789 40.9102 119.689 40.9516C119.589 40.993 119.504 41.0637 119.444 41.1545C119.384 41.2454 119.352 41.3524 119.352 41.4619C119.352 41.6064 119.407 41.745 119.507 41.8481C119.607 41.9512 119.742 42.0105 119.885 42.0132Z" fill="#343BAB"/>
<path d="M123.555 40.1244C123.697 40.1217 123.833 40.0624 123.933 39.9593C124.032 39.8562 124.088 39.7175 124.088 39.5731C124.099 39.4951 124.092 39.4157 124.07 39.3403C124.048 39.2648 124.01 39.1951 123.959 39.1358C123.908 39.0765 123.845 39.0289 123.775 38.9963C123.704 38.9638 123.628 38.9469 123.55 38.9469C123.472 38.9469 123.396 38.9638 123.325 38.9963C123.255 39.0289 123.192 39.0765 123.141 39.1358C123.09 39.1951 123.052 39.2648 123.03 39.3403C123.008 39.4157 123.001 39.4951 123.012 39.5731C123.012 39.6455 123.026 39.7172 123.053 39.784C123.081 39.8509 123.121 39.9117 123.171 39.9629C123.221 40.0141 123.281 40.0547 123.347 40.0824C123.413 40.1101 123.484 40.1244 123.555 40.1244Z" fill="#343BAB"/>
<path d="M112.765 21.4814L110.875 22.1349L112.564 27.1887L114.444 26.5353L112.765 21.4814Z" fill="#343BAB"/>
<path d="M111.599 23.1047C112.063 23.1088 112.518 22.9727 112.906 22.7138C113.294 22.4548 113.597 22.0847 113.778 21.6504C113.958 21.2161 114.007 20.7372 113.919 20.2744C113.831 19.8116 113.609 19.3858 113.283 19.0511C112.956 18.7163 112.538 18.4877 112.083 18.3943C111.628 18.3008 111.156 18.3467 110.727 18.5261C110.297 18.7056 109.93 19.0105 109.672 19.4021C109.414 19.7937 109.276 20.2544 109.276 20.7258C109.274 21.0369 109.333 21.3452 109.449 21.6331C109.565 21.921 109.736 22.1828 109.952 22.4037C110.168 22.6246 110.424 22.8002 110.707 22.9205C110.989 23.0408 111.292 23.1034 111.599 23.1047Z" fill="#80A4FF"/>
<path d="M111.599 23.605C111.23 23.6059 110.864 23.533 110.523 23.3906C110.178 23.2462 109.866 23.0307 109.608 22.7576C109.345 22.492 109.136 22.1762 108.994 21.8286C108.854 21.4784 108.782 21.1039 108.783 20.7259C108.783 20.348 108.855 19.9736 108.994 19.6232C109.283 18.922 109.832 18.3644 110.523 18.0714C110.867 17.929 111.236 17.8561 111.609 17.8569C111.978 17.8561 112.343 17.929 112.685 18.0714C113.029 18.2162 113.341 18.4289 113.603 18.697C113.865 18.9651 114.073 19.2834 114.213 19.6335C114.353 19.9836 114.425 20.3581 114.424 20.7361C114.424 21.114 114.353 21.4884 114.213 21.8388C113.925 22.54 113.375 23.0976 112.685 23.3906C112.34 23.5331 111.971 23.6059 111.599 23.605ZM111.599 18.8677C111.358 18.8663 111.119 18.9113 110.895 19.0005C110.674 19.0994 110.474 19.2377 110.301 19.4088C110.133 19.5812 109.999 19.7859 109.909 20.0112C109.816 20.2377 109.768 20.4806 109.768 20.7259C109.768 20.9712 109.816 21.2141 109.909 21.4406C109.997 21.6672 110.13 21.8725 110.301 22.043C110.471 22.2177 110.672 22.3565 110.895 22.4513C111.118 22.5447 111.357 22.5932 111.599 22.5943C112.081 22.5943 112.544 22.3996 112.886 22.053C113.227 21.7065 113.419 21.2364 113.419 20.7463C113.419 20.2562 113.227 19.7862 112.886 19.4396C112.544 19.093 112.081 18.8984 111.599 18.8984V18.8677Z" fill="#343BAB"/>
<path d="M113.61 36.1426C113.809 36.1426 114.003 36.0828 114.168 35.9706C114.334 35.8584 114.463 35.6989 114.539 35.5124C114.615 35.3258 114.635 35.1206 114.596 34.9225C114.557 34.7245 114.461 34.5425 114.321 34.3997C114.18 34.257 114.001 34.1597 113.806 34.1203C113.611 34.0809 113.409 34.1012 113.225 34.1784C113.041 34.2557 112.884 34.3865 112.774 34.5544C112.663 34.7223 112.604 34.9197 112.604 35.1217C112.604 35.3925 112.71 35.6522 112.899 35.8436C113.087 36.0351 113.343 36.1426 113.61 36.1426Z" fill="#343BAB"/>
</g>
</g>
<defs>
<filter id="filter0_d_7627_9799" x="0" y="0" width="159" height="63" filterUnits="userSpaceOnUse" color-interpolation-filters="sRGB">
<feFlood flood-opacity="0" result="BackgroundImageFix"/>
<feColorMatrix in="SourceAlpha" type="matrix" values="0 0 0 0 0 0 0 0 0 0 0 0 0 0 0 0 0 0 127 0" result="hardAlpha"/>
<feOffset dy="4"/>
<feGaussianBlur stdDeviation="2"/>
<feComposite in2="hardAlpha" operator="out"/>
<feColorMatrix type="matrix" values="0 0 0 0 0 0 0 0 0 0 0 0 0 0 0 0 0 0 0.25 0"/>
<feBlend mode="normal" in2="BackgroundImageFix" result="effect1_dropShadow_7627_9799"/>
<feBlend mode="normal" in="SourceGraphic" in2="effect1_dropShadow_7627_9799" result="shape"/>
</filter>
</defs>
</svg>
