<svg width="355" height="315" viewBox="0 0 355 315" fill="none" xmlns="http://www.w3.org/2000/svg">
<g clip-path="url(#clip0_8114_3295)">
<path fill-rule="evenodd" clip-rule="evenodd" d="M90.7449 82.1067H322.212C330.058 82.1277 337.576 85.2578 343.124 90.8128C348.672 96.3679 351.798 103.896 351.819 111.752V250.073C351.798 257.929 348.672 265.457 343.124 271.012C337.576 276.567 330.058 279.697 322.212 279.718H90.7449C82.8991 279.697 75.3807 276.567 69.8328 271.012C64.285 265.457 61.159 257.929 61.1381 250.073V111.752C61.159 103.896 64.285 96.3679 69.8328 90.8128C75.3807 85.2578 82.8991 82.1277 90.7449 82.1067Z" fill="#80A4FF"/>
<path d="M322.212 85.3028H90.7449C87.2784 85.306 83.8465 85.9939 80.6458 87.3271C77.4452 88.6602 74.5386 90.6125 72.0926 93.072C69.6358 95.5217 67.6858 98.4327 66.3544 101.638C65.0229 104.844 64.3362 108.281 64.3334 111.752V250.07C64.3366 253.541 65.0236 256.977 66.3551 260.182C67.6865 263.386 69.6362 266.297 72.0926 268.746C74.5386 271.206 77.4452 273.158 80.6458 274.491C83.8465 275.824 87.2784 276.512 90.7449 276.515H322.212C329.211 276.494 335.916 273.701 340.865 268.746C345.813 263.791 348.603 257.077 348.624 250.07V111.752C348.602 104.745 345.812 98.0305 340.864 93.0752C335.916 88.1198 329.211 85.3257 322.212 85.3028ZM90.7449 78.9182H322.212C330.901 78.9421 339.228 82.4091 345.372 88.5616C351.516 94.7141 354.977 103.052 355 111.752V250.07C354.976 258.769 351.514 267.106 345.37 273.258C339.227 279.41 330.901 282.876 322.212 282.9H90.7449C86.441 282.898 82.1799 282.045 78.2059 280.39C74.2318 278.736 70.6231 276.312 67.5866 273.258C64.5365 270.217 62.1159 266.604 60.4634 262.625C58.811 258.646 57.9593 254.379 57.9572 250.07V111.752C57.9588 107.442 58.8103 103.175 60.4627 99.1949C62.1152 95.2151 64.5361 91.6011 67.5866 88.5602C70.6231 85.5061 74.2318 83.0823 78.2059 81.4277C82.1799 79.7731 86.441 78.9204 90.7449 78.9182Z" fill="#343BAB"/>
<path fill-rule="evenodd" clip-rule="evenodd" d="M321.447 278.807L312.897 268.63L297.4 269.252C297.4 269.252 289.244 278.699 289.031 279.162C288.818 279.625 281.626 278.359 281.626 278.359L274.405 267.737L259.175 268.46L253.297 277.925L244.213 278.012L235.84 268.641L218.563 268.728L215.09 277.925L203.691 278.012L197.723 267.748L181.872 267.481L178.042 276.765L165.885 277.488L156.533 266.595C156.533 266.595 142.997 268.113 142.954 268.338C142.911 268.562 135.783 278.46 135.783 278.46C135.783 278.46 127.591 278.909 127.414 278.46C127.237 278.012 114.322 266.053 114.322 266.053L101.273 269.223C101.273 269.223 102.068 278.312 101.808 278.193C101.548 278.074 321.425 278.818 321.425 278.818" fill="#E2ED4C"/>
<path fill-rule="evenodd" clip-rule="evenodd" d="M342.089 280.948C336.824 280.17 329.841 279.693 322.23 279.693H90.7449C82.8774 279.693 75.7068 280.199 70.392 281.02C65.7379 281.743 62.5065 282.701 61.4883 283.778C61.2842 283.965 61.1611 284.225 61.1453 284.501V286.403V306.978C61.1453 309.628 74.4647 311.793 90.7521 311.793H322.212C338.492 311.793 351.819 309.624 351.819 306.978V284.509C351.812 283.117 348.06 281.844 342.089 280.948Z" fill="#80A4FF"/>
<path d="M322.212 315H90.7449C82.4694 315 74.8836 314.439 69.3305 313.536C62.3151 312.393 57.9572 310.119 57.9572 306.992V284.523C57.9572 281.396 62.3151 279.122 69.3305 277.979C74.8836 277.076 82.4694 276.515 90.7449 276.515H322.212C330.488 276.515 338.074 277.076 343.627 277.979C350.642 279.122 355 281.396 355 284.523V306.978C355 310.105 350.642 312.379 343.627 313.521C338.074 314.425 330.488 314.985 322.212 314.985M90.7449 308.601H322.212C330.213 308.601 337.431 308.08 342.605 307.238C346.32 306.634 348.624 307.458 348.624 306.978V284.509C348.624 284.028 346.32 284.87 342.605 284.248C337.431 283.406 330.213 282.885 322.212 282.885H90.7449C82.7438 282.885 75.5262 283.406 70.3523 284.248C66.637 284.852 64.3334 284.028 64.3334 284.509V306.978C64.3334 307.458 66.637 306.634 70.3523 307.238C75.5262 308.095 82.7438 308.615 90.7449 308.615V308.601Z" fill="#343BAB"/>
<path fill-rule="evenodd" clip-rule="evenodd" d="M114.25 106.872H298.707C311.68 106.872 322.295 116.864 322.295 129.08V232.734C322.295 244.954 311.68 254.947 298.707 254.947H114.25C101.277 254.947 90.6617 244.954 90.6617 232.734V129.08C90.6617 116.864 101.277 106.872 114.25 106.872Z" fill="#B6CBFF"/>
<path d="M298.707 110.06H114.25C108.878 110.034 103.698 112.062 99.7677 115.729C97.9162 117.432 96.435 119.499 95.4162 121.8C94.3975 124.101 93.8631 126.588 93.8463 129.106V232.756C93.8631 235.273 94.3975 237.76 95.4162 240.061C96.435 242.363 97.9162 244.429 99.7677 246.132C103.7 249.794 108.88 251.817 114.25 251.787H298.707C304.078 251.817 309.257 249.794 313.189 246.132C315.041 244.429 316.522 242.363 317.541 240.061C318.56 237.76 319.094 235.273 319.111 232.756V129.106C319.094 126.588 318.56 124.101 317.541 121.8C316.522 119.499 315.041 117.432 313.189 115.729C309.257 112.067 304.078 110.045 298.707 110.075M114.25 103.694H298.707C305.698 103.67 312.435 106.315 317.547 111.091C322.443 115.704 325.491 122.074 325.491 129.098V232.749C325.491 239.773 322.451 246.143 317.547 250.756C312.435 255.532 305.698 258.177 298.707 258.153H114.25C107.259 258.177 100.522 255.532 95.4097 250.756C90.5138 246.143 87.4664 239.773 87.4664 232.749V129.098C87.4664 122.074 90.5065 115.722 95.4097 111.091C100.519 106.31 107.257 103.66 114.25 103.679V103.694Z" fill="#343BAB"/>
<path d="M208.872 277.987L214.841 265.138L215.949 262.745L218.581 262.759L237.194 262.849L239.833 262.86L240.92 265.261L246.708 278.019L239.227 281.396L234.526 271.038L221.181 270.973L216.325 281.428L208.872 277.987Z" fill="#343BAB"/>
<path d="M247.56 278.214L253.528 265.366L254.64 262.976L257.269 262.987L275.885 263.077L278.521 263.088L279.611 265.489L285.399 278.247L277.914 281.627L273.213 271.266L259.868 271.201L255.012 281.656L247.56 278.214Z" fill="#343BAB"/>
<path d="M286.251 278.446L292.219 265.597L293.328 263.204L295.96 263.215L314.572 263.305L317.208 263.32L318.298 265.716L324.086 278.478L316.605 281.855L311.904 271.494L298.559 271.429L293.703 281.888L286.251 278.446Z" fill="#343BAB"/>
<path d="M200.131 281.428L195.275 270.973L181.93 271.038L177.229 281.396L169.745 278.019L175.536 265.261L176.623 262.86L179.262 262.849L197.875 262.759L200.507 262.745L201.615 265.138L207.583 277.987L200.131 281.428Z" fill="#343BAB"/>
<path d="M161.44 281.656L156.587 271.201L143.243 271.266L138.542 281.627L131.057 278.247L136.845 265.489L137.935 263.088L140.571 263.077L159.183 262.987L161.816 262.976L162.928 265.366L168.892 278.214L161.44 281.656Z" fill="#343BAB"/>
<path d="M122.753 281.888L117.896 271.429L104.552 271.494L99.8544 281.855L92.3696 278.478L98.1574 265.716L99.2442 263.32L101.884 263.305L120.496 263.215L123.128 263.204L124.24 265.597L130.205 278.446L122.753 281.888Z" fill="#343BAB"/>
<path d="M249.723 140.009H245.751C244.906 140.009 244.096 140.345 243.499 140.943C242.902 141.541 242.566 142.352 242.566 143.198V191.383C242.566 192.228 242.902 193.039 243.499 193.637C244.096 194.235 244.906 194.571 245.751 194.571H249.723C250.141 194.572 250.556 194.49 250.942 194.33C251.329 194.169 251.681 193.935 251.977 193.639C252.273 193.342 252.508 192.991 252.668 192.604C252.828 192.216 252.911 191.802 252.911 191.383V143.205C252.912 142.786 252.83 142.37 252.67 141.982C252.51 141.594 252.275 141.241 251.979 140.944C251.683 140.648 251.331 140.412 250.944 140.252C250.557 140.091 250.142 140.009 249.723 140.009Z" fill="#005734"/>
<path fill-rule="evenodd" clip-rule="evenodd" d="M190.115 89.4495C191.58 89.4504 192.984 90.0336 194.019 91.0708C195.054 92.1081 195.636 93.5144 195.636 94.9808C195.635 96.4466 195.053 97.852 194.018 98.8885C192.983 99.9249 191.579 100.508 190.115 100.509C188.651 100.509 187.246 99.9263 186.21 98.8898C185.175 97.8532 184.592 96.4472 184.591 94.9808C184.591 94.2544 184.734 93.5351 185.012 92.864C185.289 92.1929 185.696 91.5832 186.209 91.0695C186.722 90.5559 187.331 90.1485 188.001 89.8705C188.672 89.5925 189.39 89.4495 190.115 89.4495Z" fill="#343BAB"/>
<path fill-rule="evenodd" clip-rule="evenodd" d="M202.059 93.1189H234.363C234.528 93.1189 234.686 93.1844 234.802 93.301C234.919 93.4176 234.984 93.5758 234.984 93.7408V96.633C234.984 96.7979 234.919 96.9561 234.802 97.0727C234.686 97.1893 234.528 97.2548 234.363 97.2548H202.059C201.894 97.2548 201.736 97.1894 201.619 97.0729C201.502 96.9564 201.436 96.7982 201.435 96.633V93.7408C201.436 93.5755 201.502 93.4173 201.619 93.3008C201.736 93.1843 201.894 93.1189 202.059 93.1189Z" fill="#343BAB"/>
<path d="M11.7601 107.541C11.944 107.879 12.1683 108.194 12.428 108.478C12.3225 108.578 12.2003 108.659 12.067 108.716L10.2075 108.409C9.55931 108.278 8.88799 108.32 8.26141 108.532C7.63224 108.743 7.07028 109.117 6.63303 109.617C6.19284 110.115 5.8915 110.721 5.75928 111.374C5.62573 112.026 5.66555 112.701 5.8748 113.333C6.17087 114.342 6.66915 115.318 7.06631 116.312L30.1741 169.569C30.3674 169.988 30.4684 170.445 30.4701 170.907C30.4741 171.37 30.3806 171.83 30.1957 172.255C27.1051 179.634 24.0577 186.955 20.9995 194.341C20.6542 194.888 20.4347 195.506 20.3569 196.148C20.2835 196.798 20.3576 197.455 20.5735 198.072C20.7884 198.688 21.1402 199.246 21.6025 199.706C22.0658 200.164 22.6261 200.511 23.2417 200.722C29.9404 204.355 37.0018 207.272 44.3095 209.427C57.008 213.556 70.4153 215.042 83.7082 213.795C99.4301 212.32 114.235 205.724 125.855 195.017C133.229 188.255 139.431 180.314 144.207 171.518C146.673 167.118 148.825 162.436 151.085 157.902C151.213 157.513 151.467 157.177 151.807 156.948C152.148 156.722 152.556 156.619 152.963 156.655C158.068 156.467 163.224 156.355 168.304 156.098C170.564 156.014 172.813 155.741 175.027 155.281C175.843 155.151 176.608 154.804 177.244 154.276C177.883 153.746 178.37 153.057 178.656 152.277C178.942 151.497 179.017 150.655 178.872 149.837C178.727 149.02 178.368 148.257 177.833 147.624C175.868 145.138 173.558 142.946 170.972 141.117C168.571 139.309 166.261 137.14 163.809 135.198C163.477 134.952 163.232 134.606 163.109 134.211C162.98 133.817 162.98 133.391 163.109 132.997C165.696 120.948 164.516 108.393 159.729 97.039C156.027 88.37 149.919 80.946 142.131 75.6474C139.403 73.7463 136.511 72.0947 133.487 70.7125C133.049 70.4595 132.587 70.25 132.108 70.087C123.346 66.168 113.67 64.7577 104.155 66.0126C93.8258 67.3356 84.1263 71.7164 76.2993 78.5938C72.4916 81.7641 69.1298 85.4356 66.3052 89.5084C65.6697 90.3652 65.0884 90.5026 64.0666 90.1013C51.6318 84.8049 39.0922 79.7254 26.6032 74.3531C25.9461 74.147 25.3756 73.818 24.7329 73.7131C24.113 73.5398 23.4591 73.5286 22.8337 73.6806C22.2077 73.8358 21.6321 74.1495 21.162 74.5917C20.6923 75.0347 20.3442 75.5912 20.1511 76.2077C19.9559 76.824 19.9236 77.4804 20.0572 78.113C20.2305 79.071 20.5879 79.8917 20.8371 80.7955L24.7365 92.5416C24.834 92.9537 24.9929 93.3767 25.2095 94.0781C24.6993 93.9495 24.1976 93.7889 23.7075 93.5972C19.1943 91.7896 14.7027 89.859 10.1281 88.0478C9.12081 87.5999 8.01567 87.4182 6.91826 87.5199C6.33085 87.6475 5.78394 87.9182 5.326 88.3081C4.86379 88.6968 4.50419 89.1934 4.27893 89.7542C4.05138 90.3139 3.96101 90.9201 4.01536 91.522C4.07337 92.1228 4.27525 92.7008 4.60389 93.2068C6.01202 96.2545 7.52846 99.2551 8.93659 102.274C9.81757 104.136 10.8285 105.994 11.7601 107.541ZM61.1059 97.4584C61.0944 97.6441 61.0641 97.8282 61.0157 98.0079C59.7484 100.9 58.3799 103.839 57.109 106.746C56.7696 107.617 56.2822 107.173 55.6648 107.071L35.6694 98.6731C35.1167 98.4002 34.6882 97.9272 34.4706 97.3499C33.6441 95.3962 32.9505 93.3887 32.3946 91.3413C31.788 89.0203 31.0225 86.8728 30.2499 84.3602L61.1059 97.4584ZM29.4375 193.625C32.4632 186.434 35.4419 179.135 38.464 171.912C47.5747 150.143 56.6481 128.33 65.6842 106.475C67.7667 101.342 70.5531 96.5248 73.9632 92.162C78.5553 86.2246 84.4377 81.4127 91.1641 78.0913C98.6947 74.2768 107.164 72.7166 115.557 73.5975C123.592 74.4232 131.275 77.3219 137.856 82.0103C146.055 87.7017 152.026 96.0663 154.75 105.676C155.43 107.836 155.937 110.047 156.267 112.288C157.292 119.248 156.966 126.341 155.306 133.177C155.151 133.612 155.075 134.071 155.082 134.533C155.002 135.531 155.166 136.534 155.559 137.454C155.956 138.377 156.576 139.186 157.364 139.808C159.744 141.977 162.21 143.987 164.697 146.088L167.192 148.156C167.186 148.278 167.167 148.399 167.134 148.517C165.788 148.495 164.499 148.517 163.137 148.589C158.92 148.788 154.58 148.951 150.345 149.265C149.027 149.33 147.759 149.794 146.709 150.596C145.661 151.403 144.88 152.508 144.467 153.766C142.057 159.817 139.063 165.618 135.527 171.087L135.069 171.875C131.183 177.881 126.563 183.377 121.316 188.235C117.489 191.862 113.247 195.025 108.679 197.656C103.196 200.886 97.2534 203.259 91.0558 204.695C78.0344 207.449 64.5462 207.069 51.7004 203.585C44.3256 201.768 37.1669 199.163 30.3474 195.816C28.9609 195.122 28.9609 195.122 29.4375 193.625ZM16.5441 100.289C16.3282 99.8489 16.0871 99.4217 15.822 99.0093C16.2247 99.1168 16.6202 99.2497 17.0062 99.407C28.8803 104.389 40.7699 109.341 52.6752 114.262C53.5021 114.624 53.6645 115.054 53.2962 115.889C47.2232 130.531 41.1478 145.196 35.07 159.884C34.8864 160.252 34.6739 160.605 34.4345 160.939C28.5312 147.143 22.646 133.644 16.768 120.115C16.8694 120.036 16.9531 119.936 17.0135 119.823C17.384 120.029 17.7764 120.194 18.1833 120.314C19.1512 120.524 20.1479 120.564 21.1295 120.434C21.7059 120.271 22.2347 119.972 22.6713 119.562C23.112 119.154 23.4487 118.645 23.6533 118.08C23.8579 117.515 23.926 116.909 23.8519 116.312C23.7794 115.716 23.5665 115.146 23.2309 114.649C20.9634 109.801 18.7177 105.022 16.4033 100.267L16.5441 100.289Z" fill="#343BAB"/>
<path d="M61.1061 97.4582C61.0942 97.644 61.064 97.828 61.0158 98.0078C59.7485 100.9 58.3801 103.839 57.1092 106.746C56.7698 107.617 56.2823 107.173 55.6649 107.071L35.6695 98.673C35.1168 98.4001 34.6883 97.9271 34.4708 97.3498C33.6448 95.3958 32.9512 93.3884 32.3947 91.3412C31.7881 89.0201 31.0227 86.8727 30.25 84.3564L61.1061 97.4582Z" fill="#80A4FF"/>
<path d="M15.7246 99.6527C15.5476 99.2912 15.3635 98.8863 15.1396 98.2717C15.555 98.3794 15.9627 98.5147 16.36 98.6766C28.5566 103.772 40.7688 108.833 52.9966 113.861C53.8487 114.222 54.0148 114.671 53.6357 115.52C47.4183 130.463 41.1972 145.418 34.9726 160.382C34.7868 160.762 34.5681 161.125 34.3191 161.467C28.2461 147.367 22.1875 133.608 16.1362 119.797C16.2409 119.718 16.3271 119.617 16.3889 119.501C16.7695 119.713 17.1728 119.882 17.5912 120.003C18.5837 120.22 19.6062 120.263 20.6133 120.13C21.204 119.964 21.7471 119.66 22.1983 119.244C22.6479 118.827 22.9919 118.309 23.2021 117.733C23.4127 117.155 23.4832 116.536 23.4079 115.925C23.3313 115.316 23.111 114.733 22.7652 114.226C20.4183 109.389 18.1075 104.508 15.7246 99.6527Z" fill="#80A4FF"/>
<path d="M29.4376 193.625C32.4633 186.434 35.442 179.135 38.4641 171.911C47.5748 150.143 56.6482 128.33 65.6843 106.475C67.7661 101.342 70.5526 96.5242 73.9633 92.1618C78.5562 86.2243 84.4383 81.4113 91.1642 78.0875C98.6957 74.2759 107.164 72.717 115.557 73.5973C123.592 74.4237 131.275 77.3223 137.856 82.0101C146.055 87.7002 152.026 96.0636 154.75 105.672C155.43 107.834 155.937 110.046 156.267 112.288C157.293 119.247 156.966 126.339 155.306 133.174C155.151 133.609 155.076 134.068 155.082 134.529C155.002 135.529 155.165 136.532 155.559 137.454C155.957 138.376 156.577 139.185 157.364 139.808C159.744 141.977 162.21 143.987 164.697 146.087L167.192 148.155C167.186 148.278 167.167 148.399 167.135 148.517C165.788 148.495 164.499 148.517 163.138 148.589C158.92 148.788 154.58 148.951 150.345 149.265C149.027 149.33 147.759 149.794 146.709 150.596C145.66 151.402 144.879 152.507 144.467 153.766C142.057 159.817 139.063 165.618 135.527 171.087L135.069 171.875C131.182 177.88 126.562 183.376 121.316 188.234C117.488 191.855 113.246 195.01 108.679 197.634C103.197 200.867 97.2542 203.242 91.0559 204.677C78.0344 207.429 64.5466 207.049 51.7005 203.567C44.3264 201.755 37.1677 199.157 30.3475 195.816C28.961 195.122 28.961 195.122 29.4376 193.625Z" fill="#80A4FF"/>
<path d="M142.55 119.765C142.946 117.385 142.871 114.951 142.328 112.6C141.785 110.25 140.784 108.03 139.384 106.067C137.984 104.103 136.212 102.435 134.168 101.158C132.124 99.8808 129.849 99.0192 127.472 98.6224C122.671 97.8442 117.758 99.0064 113.812 101.854C109.867 104.701 107.211 109 106.43 113.807C105.63 118.612 106.768 123.538 109.594 127.503C112.42 131.468 116.702 134.148 121.5 134.952C123.878 135.34 126.309 135.254 128.655 134.7C131 134.147 133.213 133.136 135.168 131.725C137.122 130.315 138.78 128.533 140.047 126.48C141.314 124.428 142.164 122.146 142.55 119.765Z" fill="#E2ED4C"/>
<path d="M113.785 134.352C111.522 132.942 109.559 131.099 108.008 128.929C104.86 124.521 103.581 119.044 104.451 113.695C104.881 111.049 105.827 108.515 107.235 106.236C108.641 103.962 110.481 101.989 112.651 100.43C114.804 98.8484 117.25 97.7127 119.847 97.0895C122.443 96.4716 125.137 96.3806 127.768 96.822C130.398 97.2582 132.915 98.2095 135.177 99.6214C137.438 101.033 139.399 102.878 140.947 105.05C144.077 109.448 145.347 114.905 144.482 120.235C144.059 122.879 143.119 125.413 141.716 127.693C140.312 129.97 138.471 131.946 136.3 133.506C134.137 135.083 131.682 136.214 129.079 136.832C126.486 137.451 123.795 137.547 121.165 137.114C118.547 136.689 116.039 135.75 113.785 134.352ZM126.992 100.6C124.879 100.256 122.719 100.336 120.638 100.835C118.555 101.336 116.592 102.244 114.861 103.507C113.112 104.75 111.63 106.332 110.503 108.16C109.377 109.991 108.629 112.031 108.304 114.157C107.939 116.31 108.011 118.515 108.517 120.639C109.025 122.761 109.954 124.757 111.25 126.511C112.495 128.249 114.07 129.723 115.886 130.849C117.7 131.977 119.718 132.735 121.825 133.08C123.936 133.438 126.097 133.368 128.18 132.874C130.264 132.38 132.229 131.472 133.957 130.206C135.697 128.954 137.174 127.372 138.304 125.549C139.435 123.722 140.197 121.69 140.546 119.569C141.248 115.294 140.233 110.915 137.723 107.386C136.483 105.644 134.912 104.165 133.1 103.033C131.287 101.902 129.269 101.14 127.162 100.792L126.992 100.6Z" fill="#343BAB"/>
<path d="M139.005 173.04C141.597 173.105 141.138 169.084 138.611 169.034C107.57 168.334 77.591 157.582 53.1665 138.387C51.1301 136.76 48.5738 139.887 50.5849 141.478C75.8297 161.38 106.857 172.515 138.979 173.202L139.005 173.04Z" fill="#343BAB"/>
<path d="M115.196 199.941C117.789 200.006 117.33 195.986 114.803 195.931C85.2784 195.379 56.8192 184.79 34.099 165.903C33.687 165.625 33.1868 165.509 32.6945 165.577C32.2005 165.647 31.7501 165.899 31.4308 166.282C31.1085 166.666 30.9399 167.155 30.9578 167.656C30.9732 168.155 31.1726 168.63 31.5175 168.99C55.1175 188.59 84.7008 199.521 115.359 199.97L115.196 199.941Z" fill="#343BAB"/>
<path d="M136.044 157.175C136.108 156.799 136.098 156.414 136.013 156.041C135.928 155.669 135.77 155.317 135.548 155.006C135.327 154.695 135.046 154.431 134.722 154.23C134.398 154.028 134.037 153.893 133.661 153.831C133.285 153.769 132.9 153.782 132.529 153.869C132.157 153.956 131.807 154.116 131.498 154.34C131.189 154.563 130.927 154.846 130.727 155.171C130.528 155.497 130.395 155.858 130.335 156.235C130.271 156.612 130.282 156.997 130.368 157.369C130.453 157.741 130.611 158.092 130.832 158.402C131.054 158.713 131.335 158.977 131.658 159.178C131.982 159.379 132.342 159.515 132.718 159.576C133.094 159.638 133.479 159.626 133.85 159.539C134.221 159.452 134.571 159.292 134.88 159.069C135.189 158.846 135.451 158.564 135.651 158.239C135.851 157.914 135.984 157.552 136.044 157.175Z" fill="#343BAB"/>
<path d="M110.983 154.142C111.047 153.766 111.037 153.381 110.952 153.009C110.867 152.637 110.71 152.285 110.489 151.974C110.267 151.663 109.987 151.399 109.663 151.198C109.34 150.996 108.98 150.86 108.603 150.798C108.227 150.735 107.842 150.748 107.47 150.835C107.099 150.922 106.748 151.082 106.438 151.305C106.129 151.529 105.867 151.812 105.667 152.137C105.467 152.463 105.334 152.825 105.274 153.202C105.21 153.579 105.221 153.964 105.307 154.336C105.392 154.708 105.55 155.059 105.771 155.369C105.993 155.68 106.274 155.943 106.597 156.145C106.921 156.346 107.281 156.482 107.657 156.543C108.033 156.605 108.418 156.593 108.789 156.506C109.16 156.419 109.51 156.259 109.819 156.036C110.128 155.813 110.39 155.53 110.59 155.205C110.79 154.881 110.923 154.519 110.983 154.142Z" fill="#343BAB"/>
<path d="M88.3373 145.043C88.4018 144.666 88.3913 144.281 88.3062 143.908C88.2212 143.536 88.0633 143.184 87.8418 142.873C87.6202 142.562 87.3394 142.299 87.0154 142.097C86.6914 141.895 86.3308 141.76 85.9543 141.699C85.5781 141.636 85.1933 141.649 84.8221 141.736C84.4509 141.824 84.1006 141.984 83.7915 142.207C83.4823 142.431 83.2205 142.713 83.0209 143.038C82.8214 143.364 82.6882 143.726 82.6289 144.103C82.5649 144.479 82.5759 144.864 82.6612 145.236C82.7465 145.608 82.9044 145.959 83.1259 146.27C83.3474 146.58 83.6281 146.844 83.9518 147.045C84.2755 147.247 84.6358 147.382 85.0119 147.443C85.3879 147.506 85.7724 147.493 86.1434 147.406C86.5144 147.319 86.8646 147.159 87.1736 146.936C87.4827 146.713 87.7447 146.431 87.9444 146.106C88.1441 145.781 88.2776 145.42 88.3373 145.043Z" fill="#343BAB"/>
<path d="M70.5297 131.934C70.5937 131.557 70.5828 131.172 70.4975 130.8C70.4122 130.429 70.2542 130.077 70.0327 129.767C69.8112 129.456 69.5305 129.193 69.2068 128.991C68.8831 128.79 68.5228 128.655 68.1467 128.593C67.7708 128.531 67.3862 128.543 67.0152 128.63C66.6442 128.718 66.2941 128.877 65.985 129.1C65.6759 129.323 65.4139 129.606 65.2142 129.931C65.0145 130.256 64.881 130.617 64.8213 130.994C64.7573 131.37 64.7683 131.755 64.8535 132.127C64.9388 132.499 65.0968 132.85 65.3183 133.161C65.5398 133.471 65.8205 133.735 66.1442 133.936C66.4679 134.138 66.8282 134.273 67.2043 134.334C67.5803 134.397 67.9648 134.384 68.3358 134.297C68.7068 134.21 69.0569 134.05 69.366 133.827C69.6751 133.604 69.9371 133.322 70.1368 132.997C70.3365 132.672 70.47 132.311 70.5297 131.934Z" fill="#343BAB"/>
<path d="M127.169 71.1823L136.603 76.2437L149.865 51.244L140.431 46.1826L127.169 71.1823Z" fill="#343BAB"/>
<path d="M159.607 45.2825C159.879 43.6555 159.828 41.9907 159.457 40.3833C159.086 38.7759 158.403 37.2574 157.446 35.9145C156.489 34.5716 155.277 33.4306 153.88 32.5567C152.483 31.6828 150.927 31.0932 149.302 30.8214C147.676 30.5575 146.014 30.617 144.411 30.9964C142.807 31.3758 141.295 32.0677 139.959 33.0325C138.623 33.9974 137.489 35.2163 136.624 36.6197C135.758 38.0231 135.177 39.5835 134.914 41.2117C134.366 44.4976 135.143 47.867 137.075 50.5788C139.008 53.2907 141.937 55.1231 145.218 55.6729C146.844 55.9367 148.507 55.8772 150.11 55.4978C151.713 55.1184 153.226 54.4265 154.562 53.4617C155.898 52.4968 157.031 51.2779 157.897 49.8745C158.762 48.4711 159.343 46.9108 159.607 45.2825Z" fill="#80A4FF"/>
<path d="M139.232 56.244C137.535 55.1892 136.063 53.8096 134.899 52.1841C133.737 50.5543 132.907 48.7117 132.455 46.7611C132.002 44.8093 131.936 42.7877 132.26 40.8104C132.58 38.8326 133.286 36.9372 134.336 35.232C135.384 33.5285 136.757 32.0482 138.376 30.8755C139.993 29.7045 141.825 28.8653 143.767 28.4063C145.705 27.9461 147.715 27.876 149.681 28.2002C151.647 28.5159 153.531 29.22 155.223 30.2718C156.922 31.324 158.395 32.7041 159.556 34.3318C160.724 35.9594 161.558 37.8025 162.011 39.7547C162.465 41.7077 162.529 43.7313 162.199 45.7091C161.884 47.687 161.18 49.5828 160.13 51.2875C159.081 52.9855 157.708 54.4597 156.09 55.6258C154.474 56.8005 152.642 57.6423 150.699 58.1023C148.759 58.5613 146.748 58.6301 144.781 58.3047C142.814 57.9904 140.928 57.2901 139.232 56.244ZM148.854 33.6702C147.589 33.4641 146.297 33.5096 145.049 33.8043C143.802 34.099 142.625 34.637 141.586 35.3874C139.479 36.9132 138.061 39.2128 137.643 41.7829C137.223 44.3478 137.831 46.9754 139.337 49.093C140.082 50.1372 141.026 51.0241 142.113 51.7028C143.201 52.3814 144.412 52.8386 145.677 53.0481C146.948 53.2575 148.248 53.2108 149.501 52.9107C150.754 52.61 151.936 52.0631 152.978 51.3019C154.034 50.5473 154.93 49.59 155.613 48.4856C156.298 47.3815 156.758 46.1529 156.967 44.8703C157.179 43.5865 157.138 42.2733 156.844 41.0056C156.549 39.7397 156.005 38.5453 155.245 37.4915C154.495 36.4385 153.544 35.5451 152.447 34.8632C151.345 34.1793 150.117 33.7232 148.836 33.5219L148.854 33.6702Z" fill="#343BAB"/>
<path d="M129.916 117.704C130.157 116.262 129.815 114.783 128.967 113.592C128.118 112.402 126.833 111.597 125.392 111.356C123.954 111.122 122.482 111.468 121.298 112.319C120.114 113.17 119.316 114.457 119.077 115.896C118.837 117.338 119.179 118.817 120.027 120.007C120.876 121.197 122.161 122 123.602 122.241C125.04 122.476 126.512 122.13 127.696 121.28C128.88 120.429 129.678 119.143 129.916 117.704Z" fill="#343BAB"/>
<path d="M281.192 120.696H271.549C269.59 120.696 268.003 122.286 268.003 124.247V184.09C268.003 186.051 269.59 187.641 271.549 187.641H281.192C283.151 187.641 284.738 186.051 284.738 184.09V124.247C284.738 122.286 283.151 120.696 281.192 120.696Z" fill="#343BAB"/>
<path d="M253.077 136.817H242.386C240.717 136.817 239.364 138.172 239.364 139.843V194.737C239.364 196.409 240.717 197.763 242.386 197.763H253.077C254.746 197.763 256.099 196.409 256.099 194.737V139.843C256.099 138.172 254.746 136.817 253.077 136.817Z" fill="#343BAB"/>
<path d="M225.127 157.496H213.057C211.769 157.496 210.725 158.542 210.725 159.832V205.554C210.725 206.844 211.769 207.89 213.057 207.89H225.127C226.415 207.89 227.46 206.844 227.46 205.554V159.832C227.46 158.542 226.415 157.496 225.127 157.496Z" fill="#343BAB"/>
<path d="M197.636 187.745H183.27C182.616 187.745 182.085 188.276 182.085 188.931V216.83C182.085 217.485 182.616 218.016 183.27 218.016H197.636C198.29 218.016 198.821 217.485 198.821 216.83V188.931C198.821 188.276 198.29 187.745 197.636 187.745Z" fill="#343BAB"/>
<path d="M167.203 180.508H156.418C154.775 180.508 153.443 181.841 153.443 183.487V225.16C153.443 226.805 154.775 228.139 156.418 228.139H167.203C168.846 228.139 170.178 226.805 170.178 225.16V183.487C170.178 181.841 168.846 180.508 167.203 180.508Z" fill="#343BAB"/>
<path d="M138.513 203.537H127.829C126.158 203.537 124.804 204.893 124.804 206.566V235.232C124.804 236.905 126.158 238.262 127.829 238.262H138.513C140.184 238.262 141.539 236.905 141.539 235.232V206.566C141.539 204.893 140.184 203.537 138.513 203.537Z" fill="#343BAB"/>
</g>
<defs>
<clipPath id="clip0_8114_3295">
<rect width="355" height="315" fill="white"/>
</clipPath>
</defs>
</svg>
