<svg width="85" height="85" viewBox="0 0 85 85" fill="none" xmlns="http://www.w3.org/2000/svg">
<path fill-rule="evenodd" clip-rule="evenodd" d="M35.5178 17.7764C35.1056 17.943 34.8906 18.3959 35.0232 18.8189L35.5888 20.9066C22.8598 24.7049 15.1779 37.7354 17.2653 51.2317C17.3271 51.6063 17.6307 51.8964 18.0096 51.9433C18.389 51.9895 18.7529 51.7821 18.9024 51.4329C20.0911 48.5516 22.4893 46.311 25.6183 45.4818C28.6096 44.689 31.6429 45.3687 34.081 47.1063C34.2914 47.2608 34.5604 47.3116 34.8125 47.2448C35.0646 47.178 35.2719 47.001 35.376 46.7631C36.4938 44.2922 38.5146 42.3237 41.1397 41.3961L47.5634 65.1074C47.9744 66.6245 47.1442 68.0912 45.8029 68.4467C44.4616 68.8022 43.0012 67.9425 42.5902 66.4254C42.5338 66.2036 42.3901 66.0142 42.1919 65.8978C41.9933 65.7821 41.7565 65.7499 41.5351 65.8085C41.3131 65.8674 41.1243 66.0124 41.0113 66.2106C40.898 66.4096 40.8699 66.6446 40.9326 66.8647C41.5718 69.2241 43.9441 70.7071 46.2497 70.0961C48.5553 69.485 49.86 67.0274 49.2209 64.6682L42.8044 40.9833C45.4965 40.5344 48.1854 41.2147 50.3657 42.7642C50.574 42.9088 50.835 42.9549 51.0801 42.8899C51.3247 42.8251 51.528 42.656 51.6347 42.4279C53.1892 39.0285 56.4464 36.6663 60.3364 36.5307C62.8098 36.4456 65.1199 37.2527 67.0069 38.7128C67.3089 38.9355 67.721 38.9379 68.0245 38.7181C68.3275 38.4984 68.451 38.1081 68.3298 37.7542C63.3415 25.0528 50.1601 17.5362 37.2458 20.4678L36.6802 18.38C36.6261 18.1508 36.4784 17.9531 36.2729 17.835C36.0674 17.7168 35.8224 17.6886 35.5953 17.7562C35.569 17.7619 35.543 17.7688 35.5173 17.7769L35.5178 17.7764ZM36.8058 22.3248C48.2721 19.286 60.1685 25.1924 65.6343 35.8997C63.9906 35.1459 62.1556 34.7449 60.2593 34.8102C56.0488 34.9568 52.4818 37.3666 50.5388 40.8393C47.8702 39.2461 44.6335 38.6751 41.4635 39.5152C38.2872 40.357 35.7518 42.444 34.2474 45.1568C31.5681 43.5535 28.3415 42.9928 25.1721 43.8328C22.4664 44.5498 20.2294 46.1669 18.6955 48.3116C18.0272 36.3429 25.3434 25.3616 36.806 22.3238L36.8058 22.3248Z" fill="#F1F2F0"/>
<path d="M42.3045 29.3427L44.1944 28.7204L44.3478 29.3593C44.6266 30.5566 44.591 31.8044 44.2445 32.9839C44.0663 33.5916 43.8166 34.1764 43.5003 34.7262C43.1748 35.2894 42.7877 35.8155 42.346 36.2949L41.7095 36.9892C41.5968 37.1097 41.4548 37.1997 41.2971 37.2506C41.135 37.3048 40.9613 37.3162 40.7933 37.2837L39.875 37.1085C38.5982 36.8744 37.3927 36.3524 36.352 35.5829C35.3585 34.8456 34.5735 33.8675 34.0725 32.7429L33.8081 32.1406L35.6948 31.5193L35.9211 32.0193C36.3054 32.8512 36.8943 33.5745 37.6337 34.1232C38.4392 34.716 39.37 35.1204 40.3559 35.3057L40.6617 35.363L40.8717 35.1358C41.5477 34.4044 42.047 33.5303 42.3318 32.5797C42.5921 31.7011 42.6247 30.7717 42.4264 29.8771L42.3045 29.3427Z" fill="#F1F2F0"/>
<path d="M41.4312 37.6516C41.1914 37.7314 40.9342 37.7453 40.687 37.692L39.7807 37.5201C38.4387 37.2727 37.1714 36.7246 36.0759 35.9178C35.0249 35.1377 34.1945 34.1029 33.6648 32.913L33.2197 31.8926L35.9387 30.9972L36.325 31.843C36.6799 32.6136 37.2246 33.2837 37.9092 33.7917C38.6633 34.3439 39.5337 34.7201 40.4552 34.8922L40.5085 34.8998L40.5488 34.8578C41.1838 34.1761 41.6531 33.3596 41.9207 32.4707C42.1614 31.6583 42.1913 30.7989 42.0077 29.9717L41.8043 29.0657L44.5298 28.1681L44.7898 29.253C45.0782 30.5173 45.0344 31.8335 44.6626 33.0758C44.4749 33.7153 44.2123 34.3307 43.8803 34.9097C43.5388 35.5006 43.1323 36.0523 42.6683 36.5548L42.0318 37.2491C41.87 37.4322 41.6631 37.5709 41.4312 37.6516ZM34.3981 32.3878L34.4612 32.5753C34.933 33.6361 35.6731 34.5585 36.6101 35.2536C37.5991 35.9822 38.7432 36.4775 39.9547 36.7015L40.8687 36.8745C40.958 36.891 41.0501 36.8847 41.1363 36.8563C41.2225 36.828 41.3 36.7784 41.3616 36.7122L42.0013 36.0168C42.4202 35.5612 42.7869 35.0611 43.0947 34.5257C43.394 33.9994 43.6292 33.4399 43.7954 32.8587C44.1233 31.7479 44.157 30.572 43.8933 29.4441L43.8291 29.2534L42.7781 29.5995L42.8314 29.7579C43.0403 30.7214 43.0029 31.7211 42.7226 32.6662C42.4201 33.6787 41.8892 34.6098 41.17 35.3893L40.7838 35.8037L40.2311 35.7021C39.1787 35.5048 38.1853 35.0731 37.326 34.4398C36.5268 33.8515 35.8905 33.0729 35.4763 32.1764L35.423 32.018L34.3981 32.3878Z" fill="#F1F2F0"/>
<path d="M42.9877 25.0962L32.5786 28.5239L33.2097 30.3987L43.6188 26.9709L42.9877 25.0962Z" fill="#F1F2F0"/>
<path d="M44.1766 27.2474L32.9253 30.9525L32.02 28.2632L43.2647 24.5603L44.1766 27.2474ZM33.4878 29.8444L43.0581 26.6929L42.7066 25.6489L33.1363 28.8004L33.4878 29.8444Z" fill="#F1F2F0"/>
</svg>
