<svg width="85" height="85" viewBox="0 0 85 85" fill="none" xmlns="http://www.w3.org/2000/svg">
<path fill-rule="evenodd" clip-rule="evenodd" d="M39.7175 22.6035L33.3525 23.991L35.0721 31.4396C32.9117 32.4847 30.9864 33.983 29.4409 35.8502C28.3196 37.2724 27.5465 38.9316 27.1822 40.698C26.6159 44.2542 27.38 47.8924 29.3314 50.9324C30.3584 52.3794 31.7062 53.5757 33.2721 54.4301C35.6521 55.6779 38.3191 56.2362 40.971 56.0713L42.2295 61.1568L48.6906 59.8643L47.3684 54.4369C48.9076 53.657 50.277 52.5614 51.3775 51.2078L51.8302 53.2169L58.9205 51.625L55.6347 36.4598L40.2102 39.9105L39.3048 46.0521L49.0409 43.8879V44.4182C48.9736 44.9496 48.794 45.4612 48.5139 45.9198C48.2355 46.3761 47.8621 46.7687 47.4186 47.0717C46.3931 47.8685 45.1912 48.4141 43.9112 48.6636C43.0824 48.8488 42.2326 48.9256 41.3835 48.8921C40.5504 48.8511 39.7322 48.6582 38.9701 48.3234C38.1464 47.9886 37.431 47.4377 36.9012 46.7303C36.2988 45.8879 35.8752 44.9337 35.6562 43.9252C35.4288 43.0825 35.3819 42.2022 35.5182 41.3406C35.6547 40.4789 35.9715 39.6549 36.4485 38.921C37.522 37.4979 39.0966 36.524 40.8614 36.1916C42.1002 35.8883 43.3953 35.8883 44.6341 36.1916C45.0873 36.2838 45.5157 36.4694 45.8912 36.7364C46.2689 37.0054 46.5859 37.3488 46.8223 37.7451L50.4051 35.3572L54.1779 32.8552H54.1827C52.4184 31.3057 50.2241 30.3151 47.8835 30.0116C45.7346 29.529 43.5219 29.4211 41.3445 29.6878L39.7175 22.6035Z" fill="#F1F2F0"/>
<path d="M71.8446 42.5C71.8446 40.4138 75.3647 38.0147 74.969 36.0429C74.5582 34.0103 70.3677 33.1196 69.5804 31.25C68.7797 29.348 71.0964 25.7991 69.9473 24.1087C68.7982 22.4183 64.5698 23.1612 63.1031 21.7168C61.6364 20.2723 62.4052 16.1171 60.6744 14.9763C58.9436 13.8355 55.3545 16.1262 53.4232 15.3377C51.5248 14.5623 50.6203 10.4324 48.5565 10.0306C46.5543 9.64085 44.1195 13.1077 42.0001 13.1077C39.8808 13.1077 37.4459 9.64085 35.4437 10.0306C33.3809 10.4354 32.4753 14.5623 30.577 15.3377C28.6458 16.1262 25.0423 13.8447 23.3258 14.9773C21.6094 16.11 22.3638 20.2723 20.8971 21.7168C19.4304 23.1612 15.2123 22.4051 14.0539 24.1087C12.8956 25.8123 15.2205 29.348 14.4198 31.25C13.6325 33.1196 9.44008 34.0114 9.03102 36.0429C8.63531 38.0147 12.1566 40.4138 12.1566 42.5C12.1566 44.5861 8.63531 46.9852 9.03102 48.957C9.44214 50.9885 13.6325 51.8803 14.4198 53.7499C15.2205 55.6519 12.9048 59.2008 14.0539 60.8912C15.203 62.5817 19.4304 61.8387 20.8971 63.2831C22.3638 64.7276 21.596 68.8818 23.3258 70.0226C25.0556 71.1633 28.6458 68.8737 30.577 69.6622C32.4753 70.4376 33.3809 74.5675 35.4437 74.9695C37.4469 75.3591 39.8818 71.8922 42.0001 71.8922C44.1184 71.8922 46.5543 75.3591 48.5565 74.9695C50.6203 74.5643 51.5248 70.4376 53.4232 69.6622C55.3554 68.8737 58.958 71.1542 60.6754 70.0226C62.3929 68.8909 61.6364 64.7276 63.1031 63.2831C64.5698 61.8387 68.7889 62.5948 69.9473 60.8912C71.1057 59.1876 68.7797 55.6519 69.5814 53.7499C70.3677 51.8803 74.5608 50.9885 74.969 48.957C75.3647 46.9852 71.8446 44.5861 71.8446 42.5Z" stroke="#F1F2F0" stroke-width="1.2" stroke-miterlimit="10"/>
<path d="M49.1046 19.8071C49.0241 19.8432 48.9558 19.9013 48.9075 19.9743C48.8598 20.0474 48.8345 20.1326 48.8345 20.2196C48.8345 20.3066 48.8598 20.3917 48.9075 20.4648C48.9558 20.5379 49.0241 20.5959 49.1046 20.632L50.5321 21.2176C51.5747 21.6103 52.5215 22.2163 53.3106 22.9958C54.0995 23.7753 54.713 24.7107 55.1105 25.7407C55.3259 26.2999 55.5413 26.7795 55.73 27.1511C55.7657 27.231 55.8242 27.299 55.8983 27.3466C55.9724 27.3943 56.059 27.4197 56.1474 27.4197C56.2358 27.4197 56.3224 27.3943 56.3965 27.3466C56.4706 27.299 56.5291 27.231 56.5649 27.1511C56.7267 26.7795 56.9421 26.2999 57.1575 25.7407C57.5641 24.7157 58.1807 23.7847 58.9688 23.0062C59.757 22.2278 60.6994 21.6189 61.7371 21.2176L63.1647 20.632C63.2448 20.5958 63.3128 20.5377 63.3606 20.4647C63.4085 20.3916 63.4342 20.3066 63.4349 20.2196C63.434 20.134 63.4083 20.0505 63.3606 19.9791C63.313 19.9059 63.245 19.8478 63.1647 19.812C62.7874 19.6256 62.303 19.4128 61.7371 19.2C60.6943 18.807 59.7473 18.2008 58.9581 17.4211C58.1689 16.6414 57.5553 15.7058 57.1575 14.6756C56.9421 14.1177 56.7267 13.6379 56.5649 13.2652C56.5283 13.1861 56.4695 13.1191 56.3955 13.072C56.3215 13.0251 56.2354 13.0001 56.1474 13C56.0594 13.0001 55.9732 13.0251 55.8992 13.072C55.8252 13.1191 55.7664 13.1861 55.73 13.2652C55.5413 13.6379 55.3259 14.1177 55.1105 14.6756C54.7132 15.7058 54.0999 16.6416 53.3109 17.4213C52.5218 18.201 51.5749 18.8072 50.5321 19.2C49.9662 19.4044 49.4819 19.6208 49.1046 19.8071Z" fill="white"/>
</svg>
