<svg width="85" height="85" viewBox="0 0 85 85" fill="none" xmlns="http://www.w3.org/2000/svg">
<path d="M24.5806 28C21.6761 28.0038 18.8387 28.869 16.4311 30.4848C14.0236 32.1006 12.1552 34.3936 11.0649 37.0708C10.3592 38.8025 9.99758 40.6538 10 42.5223C9.9975 44.1013 10.2571 45.67 10.7684 47.165C11.2995 48.7297 12.0958 50.1926 13.1228 51.4904C13.4026 50.4854 14.0057 49.5993 14.8399 48.9674C15.674 48.3356 16.6933 47.9928 17.7419 47.9916H27.6899C28.1282 46.992 28.8509 46.1417 29.769 45.5454C30.6872 44.9492 31.7606 44.633 32.8572 44.6358C33.9742 44.6357 35.0659 44.9669 35.9927 45.5869C36.9196 46.2069 37.6394 47.0877 38.0603 48.1167C38.8044 46.3445 39.1863 44.4428 39.1837 42.5223C39.1837 38.6707 37.6451 34.9769 34.9065 32.2535C32.1679 29.53 28.4536 28 24.5806 28ZM24.4458 46.0791C22.41 46.0768 20.4582 45.2715 19.0186 43.8398C17.579 42.4082 16.7692 40.4672 16.7668 38.4426C16.7645 36.4145 17.572 34.4685 19.012 33.0323C20.4519 31.5961 22.4064 30.7874 24.4458 30.7838C26.4829 30.7862 28.4358 31.592 29.8762 33.0244C31.3166 34.4568 32.1269 36.399 32.1293 38.4248C32.1304 40.4529 31.3218 42.3984 29.881 43.8338C28.4402 45.2691 26.4852 46.0768 24.4458 46.0791Z" stroke="#F1F2F0" stroke-miterlimit="10"/>
<path d="M38.4735 50.2218C38.4735 51.7031 37.8817 53.1238 36.8284 54.1713C35.7751 55.2188 34.3465 55.8072 32.8569 55.8072C32.246 55.8114 31.6387 55.7148 31.0596 55.5213C29.9451 55.1469 28.977 54.434 28.2917 53.4832C27.6065 52.5324 27.2387 51.3916 27.2404 50.2218C27.2352 49.4543 27.3881 48.694 27.6897 47.9876C28.1286 46.9888 28.8516 46.1394 29.7697 45.544C30.6878 44.9485 31.7609 44.633 32.8569 44.6363C33.974 44.6361 35.0656 44.9673 35.9925 45.5873C36.9193 46.2074 37.6392 47.0882 38.0601 48.1171C38.3327 48.7857 38.4731 49.5003 38.4735 50.2218Z" stroke="#F1F2F0" stroke-miterlimit="10"/>
<path d="M32.129 38.443C32.1255 40.468 31.3147 42.409 29.8744 43.8405C28.4341 45.272 26.4818 46.0771 24.4456 46.0795C22.4097 46.0771 20.4579 45.2718 19.0184 43.8402C17.5788 42.4086 16.769 40.4676 16.7666 38.443C16.7642 36.4149 17.5718 34.4689 19.0117 33.0327C20.4517 31.5965 22.4062 30.7877 24.4456 30.7842C25.4558 30.7854 26.4558 30.9844 27.3886 31.3699C28.3215 31.7554 29.1688 32.3199 29.8823 33.0311C30.5958 33.7423 31.1614 34.5863 31.5469 35.5148C31.9324 36.4434 32.1302 37.4384 32.129 38.443Z" fill="#F1F2F0" stroke="#F1F2F0" stroke-miterlimit="10"/>
<path d="M31.0821 55.5213C30.9203 55.6062 30.7586 55.6822 30.5923 55.7581H30.5564C30.3497 55.8475 30.143 55.9324 29.9363 56.0128L29.6622 56.1201C28.7894 56.4449 27.8863 56.6829 26.9663 56.8305L26.6877 56.8752L26.4046 56.911L26.0901 56.9467H25.8429L25.5284 56.9735C25.2289 56.9914 24.9188 57.0003 24.5983 57.0003C24.4096 57.0003 24.2209 57.0003 24.0321 57.0003C23.9333 57.0003 23.83 57.0003 23.7311 57.0003L23.3042 56.9691H23.0571L22.783 56.9378L22.455 56.8931L22.0776 56.8305H22.0012L21.6238 56.7546L21.2149 56.6652L20.8105 56.5624L20.4106 56.4507L20.0152 56.3256C19.8864 56.2869 19.7561 56.2422 19.6243 56.1915L19.2469 56.0486C19.0896 55.9905 18.9323 55.9234 18.7975 55.8564L18.5055 55.7224C18.2583 55.6107 18.0157 55.49 17.7731 55.3604L17.4361 55.1772C16.5923 54.7041 15.7989 54.1472 15.0681 53.515C14.9064 53.372 14.7401 53.2245 14.5829 53.0681C14.4256 52.9117 14.1335 52.6213 13.9358 52.4158L13.7157 52.1789C13.6078 52.0583 13.5045 51.9376 13.4011 51.8125L13.145 51.4997C13.4248 50.4948 14.0279 49.6086 14.8621 48.9768C15.6962 48.345 16.7155 48.0022 17.7641 48.001H27.6897C27.3881 48.7074 27.2352 49.4677 27.2403 50.2352C27.2431 51.4054 27.6154 52.5453 28.3048 53.4938C28.9941 54.4423 29.9656 55.1515 31.0821 55.5213Z" fill="#F1F2F0" stroke="#F1F2F0" stroke-miterlimit="10"/>
<path fill-rule="evenodd" clip-rule="evenodd" d="M30.8351 50.2438L32.0573 51.6514L35.6519 47.4287C35.7012 47.3761 35.7683 47.3432 35.8403 47.3363C35.9124 47.3294 35.9845 47.349 36.043 47.3913C36.1016 47.4336 36.1426 47.4957 36.1583 47.566C36.174 47.6363 36.1633 47.7098 36.1282 47.7728L32.6099 53.1349C32.5632 53.2153 32.4968 53.2827 32.4168 53.3307C32.3368 53.3787 32.2459 53.4057 32.1526 53.4093C32.0592 53.4128 31.9665 53.3928 31.883 53.3511C31.7996 53.3094 31.7281 53.2473 31.6753 53.1706L29.878 51.0616C29.5366 50.5656 30.4127 49.864 30.8351 50.2617V50.2438Z" fill="#F1F2F0"/>
<path d="M60.397 28C57.4925 28.0038 54.6551 28.869 52.2475 30.4848C49.84 32.1006 47.9716 34.3936 46.8813 37.0708C46.1756 38.8025 45.814 40.6538 45.8164 42.5223C45.8139 44.1013 46.0735 45.67 46.5848 47.165C47.1159 48.7297 47.9122 50.1926 48.9392 51.4904C49.219 50.4854 49.8221 49.5993 50.6563 48.9674C51.4904 48.3356 52.5097 47.9928 53.5583 47.9916H63.5063C63.9446 46.992 64.6673 46.1417 65.5854 45.5454C66.5036 44.9492 67.577 44.633 68.6736 44.6358C69.7906 44.6357 70.8823 44.9669 71.8091 45.5869C72.736 46.2069 73.4559 47.0877 73.8768 48.1167C74.6208 46.3445 75.0027 44.4428 75.0001 42.5223C75.0001 38.6707 73.4615 34.9769 70.7229 32.2535C67.9843 29.53 64.27 28 60.397 28ZM60.2622 46.0791C58.2264 46.0768 56.2746 45.2715 54.835 43.8398C53.3954 42.4082 52.5856 40.4672 52.5833 38.4426C52.5809 36.4145 53.3884 34.4685 54.8284 33.0323C56.2683 31.5961 58.2228 30.7874 60.2622 30.7838C62.2993 30.7862 64.2522 31.592 65.6926 33.0244C67.133 34.4568 67.9433 36.399 67.9457 38.4248C67.9469 40.4529 67.1382 42.3984 65.6974 43.8338C64.2566 45.2691 62.3016 46.0768 60.2622 46.0791Z" stroke="#F1F2F0" stroke-miterlimit="10"/>
<path d="M74.2899 50.2218C74.2899 51.7031 73.6981 53.1238 72.6448 54.1713C71.5915 55.2188 70.1629 55.8072 68.6733 55.8072C68.0624 55.8114 67.4551 55.7148 66.876 55.5213C65.7616 55.1469 64.7934 54.434 64.1081 53.4832C63.4229 52.5324 63.0551 51.3916 63.0568 50.2218C63.0516 49.4543 63.2045 48.694 63.5061 47.9876C63.945 46.9888 64.668 46.1394 65.5861 45.544C66.5042 44.9485 67.5773 44.633 68.6733 44.6363C69.7904 44.6361 70.8821 44.9673 71.8089 45.5873C72.7357 46.2074 73.4556 47.0882 73.8765 48.1171C74.1492 48.7857 74.2895 49.5003 74.2899 50.2218Z" stroke="#F1F2F0" stroke-miterlimit="10"/>
<path d="M67.9454 38.443C67.9419 40.468 67.1311 42.409 65.6908 43.8405C64.2505 45.272 62.2983 46.0771 60.262 46.0795C58.2261 46.0771 56.2743 45.2718 54.8348 43.8402C53.3952 42.4086 52.5854 40.4676 52.583 38.443C52.5806 36.4149 53.3882 34.4689 54.8281 33.0327C56.2681 31.5965 58.2226 30.7877 60.262 30.7842C61.2722 30.7854 62.2722 30.9844 63.2051 31.3699C64.1379 31.7554 64.9852 32.3199 65.6987 33.0311C66.4122 33.7423 66.9778 34.5863 67.3633 35.5148C67.7488 36.4434 67.9466 37.4384 67.9454 38.443Z" fill="#F1F2F0" stroke="#F1F2F0" stroke-miterlimit="10"/>
<path d="M66.8989 55.5213C66.7372 55.6062 66.5754 55.6822 66.4092 55.7581H66.3732C66.1666 55.8475 65.9599 55.9324 65.7532 56.0128L65.4791 56.1201C64.6063 56.4449 63.7032 56.6829 62.7831 56.8305L62.5046 56.8752L62.2215 56.911L61.907 56.9467H61.6598L61.3453 56.9735C61.0458 56.9914 60.7357 57.0003 60.4152 57.0003C60.2265 57.0003 60.0378 57.0003 59.849 57.0003C59.7502 57.0003 59.6469 57.0003 59.548 57.0003L59.1211 56.9691H58.874L58.5999 56.9378L58.2719 56.8931L57.8945 56.8305H57.8181L57.4407 56.7546L57.0318 56.6652L56.6274 56.5624L56.2275 56.4507L55.8321 56.3256C55.7033 56.2869 55.573 56.2422 55.4412 56.1915L55.0638 56.0486C54.9065 55.9905 54.7492 55.9234 54.6144 55.8564L54.3224 55.7224C54.0752 55.6107 53.8326 55.49 53.59 55.3604L53.253 55.1772C52.4092 54.7041 51.6158 54.1472 50.885 53.515C50.7233 53.372 50.557 53.2245 50.3998 53.0681C50.2425 52.9117 49.9504 52.6213 49.7527 52.4158L49.5326 52.1789C49.4247 52.0583 49.3214 51.9376 49.218 51.8125L48.9619 51.4997C49.2417 50.4948 49.8448 49.6086 50.679 48.9768C51.5131 48.345 52.5324 48.0022 53.581 48.001H63.5066C63.205 48.7074 63.0521 49.4677 63.0572 50.2352C63.06 51.4054 63.4323 52.5453 64.1217 53.4938C64.811 54.4423 65.7825 55.1515 66.8989 55.5213Z" fill="#F1F2F0" stroke="#F1F2F0" stroke-miterlimit="10"/>
<path fill-rule="evenodd" clip-rule="evenodd" d="M66.6515 50.2438L67.8737 51.6514L71.4683 47.4287C71.5176 47.3761 71.5847 47.3432 71.6567 47.3363C71.7288 47.3294 71.8009 47.349 71.8594 47.3913C71.918 47.4336 71.959 47.4957 71.9747 47.566C71.9904 47.6363 71.9797 47.7098 71.9446 47.7728L68.4264 53.1349C68.3796 53.2153 68.3132 53.2827 68.2332 53.3307C68.1532 53.3787 68.0623 53.4057 67.969 53.4093C67.8756 53.4128 67.7829 53.3928 67.6994 53.3511C67.616 53.3094 67.5445 53.2473 67.4918 53.1706L65.6945 51.0616C65.353 50.5656 66.2292 49.864 66.6515 50.2617V50.2438Z" fill="#F1F2F0"/>
</svg>
