<svg width="85" height="85" viewBox="0 0 85 85" fill="none" xmlns="http://www.w3.org/2000/svg">
<path d="M48.7159 15.5714L56.1989 11.7238C56.3851 11.6289 56.459 11.398 56.364 11.2092C56.269 11.0214 56.0415 10.9449 55.8544 11.0427L47.4956 15.3405C47.3247 15.3506 47.174 15.4693 47.1424 15.6464C47.1361 15.676 47.1424 15.7045 47.1443 15.7341C47.139 15.8023 47.1462 15.8711 47.1774 15.933L51.5166 24.5179C51.5823 24.6505 51.7157 24.727 51.8544 24.727C51.912 24.727 51.9705 24.713 52.0262 24.6854C52.2133 24.5895 52.2873 24.3586 52.1922 24.1698L48.1947 16.2621C61.0108 18.9697 70.2419 30.3552 70.2419 43.6576C70.2419 57.2166 60.6589 68.8063 47.4552 71.2167C47.2488 71.2554 47.112 71.4534 47.1495 71.6616C47.1821 71.8475 47.3429 71.9767 47.5219 71.9767C47.5454 71.9767 47.5674 71.9748 47.5905 71.9705C61.1547 69.4924 71.0001 57.5849 71.0001 43.6579C71.0006 30.1175 61.6965 18.4893 48.7158 15.5721" fill="#F1F2F0"/>
<path d="M48.7159 15.5714L56.1989 11.7238C56.3851 11.6289 56.459 11.398 56.364 11.2092C56.269 11.0214 56.0415 10.9449 55.8544 11.0427L47.4956 15.3405C47.3247 15.3506 47.174 15.4693 47.1424 15.6464C47.1361 15.676 47.1424 15.7045 47.1443 15.7341C47.139 15.8023 47.1462 15.8711 47.1774 15.933L51.5166 24.5179C51.5823 24.6505 51.7157 24.727 51.8544 24.727C51.912 24.727 51.9705 24.713 52.0262 24.6854C52.2133 24.5895 52.2873 24.3586 52.1922 24.1698L48.1947 16.2621C61.0108 18.9697 70.2419 30.3552 70.2419 43.6576C70.2419 57.2166 60.6589 68.8063 47.4552 71.2167C47.2488 71.2554 47.112 71.4534 47.1495 71.6616C47.1821 71.8475 47.3429 71.9767 47.5219 71.9767C47.5454 71.9767 47.5674 71.9748 47.5905 71.9705C61.1547 69.4924 71.0001 57.5849 71.0001 43.6579C71.0006 30.1175 61.6965 18.4893 48.7158 15.5721" stroke="#F1F2F0" stroke-width="0.5"/>
<path d="M37.8181 71.0185L33.4811 62.43C33.387 62.2411 33.1582 62.1665 32.9711 62.2624C32.784 62.3583 32.7101 62.5893 32.8051 62.7782L36.8154 70.7207C23.9954 68.0212 14.7592 56.6277 14.7592 43.3158C14.7592 29.746 24.3441 18.1475 37.5487 15.7361C37.755 15.6983 37.8917 15.4993 37.8543 15.291C37.8178 15.0828 37.6197 14.9457 37.4134 14.9825C23.8466 17.4597 14 29.3756 14 43.316C14 56.8474 23.2845 68.4706 36.2417 71.4003L28.8004 75.2302C28.6133 75.3252 28.5394 75.5562 28.6344 75.7451C28.7011 75.8778 28.8345 75.9533 28.9731 75.9533C29.0307 75.9533 29.0897 75.9402 29.1449 75.9117L37.4391 71.644C37.4502 71.6449 37.4612 71.6469 37.4722 71.6469C37.6512 71.6469 37.8119 71.5171 37.8445 71.3326C37.8474 71.3171 37.8426 71.303 37.8436 71.2885C37.8671 71.2003 37.8623 71.1049 37.8186 71.0182" fill="#F1F2F0"/>
<path d="M37.8181 71.0185L33.4811 62.43C33.387 62.2411 33.1582 62.1665 32.9711 62.2624C32.784 62.3583 32.7101 62.5893 32.8051 62.7782L36.8154 70.7207C23.9954 68.0212 14.7592 56.6277 14.7592 43.3158C14.7592 29.746 24.3441 18.1475 37.5487 15.7361C37.755 15.6983 37.8917 15.4993 37.8543 15.291C37.8178 15.0828 37.6197 14.9457 37.4134 14.9825C23.8466 17.4597 14 29.3756 14 43.316C14 56.8474 23.2845 68.4706 36.2417 71.4003L28.8004 75.2302C28.6133 75.3252 28.5394 75.5562 28.6344 75.7451C28.7011 75.8778 28.8345 75.9533 28.9731 75.9533C29.0307 75.9533 29.0897 75.9402 29.1449 75.9117L37.4391 71.644C37.4502 71.6449 37.4612 71.6469 37.4722 71.6469C37.6512 71.6469 37.8119 71.5171 37.8445 71.3326C37.8474 71.3171 37.8426 71.303 37.8436 71.2885C37.8671 71.2003 37.8623 71.1049 37.8186 71.0182" stroke="#F1F2F0" stroke-width="0.5"/>
<path d="M60.3956 43.4768C60.3956 32.8778 52.0699 24.2559 41.8374 24.2559C31.6046 24.2559 23.2793 32.8784 23.2793 43.4768C23.2793 54.0751 31.605 62.6977 41.8374 62.6977C52.0703 62.6977 60.3956 54.0762 60.3956 43.4768ZM41.8374 58.9456C33.6005 58.9456 26.9005 52.0063 26.9005 43.4768C26.9005 34.9451 33.601 28.0054 41.8374 28.0054C50.0738 28.0054 56.7743 34.9457 56.7743 43.4768C56.7743 52.006 50.0734 58.9456 41.8374 58.9456Z" fill="#F1F2F0"/>
<path d="M42.509 30.8837C42.8804 30.8837 43.163 30.7036 43.163 30.4913V29.5687C42.9509 29.5581 42.7211 29.5581 42.509 29.5581C42.2793 29.5581 42.0495 29.5581 41.8374 29.5687V30.4913C41.8374 30.7031 42.1376 30.8837 42.509 30.8837Z" fill="#F1F2F0"/>
<path d="M51.2352 34.1816C51.0765 34.3406 51.0765 34.5951 51.2352 34.7435C51.309 34.818 51.415 34.8602 51.5104 34.8602C51.6163 34.8602 51.7223 34.818 51.7961 34.7435L52.4418 34.0966C52.262 33.9059 52.0712 33.7148 51.8809 33.5347L51.2352 34.1816Z" fill="#F1F2F0"/>
<path d="M33.2038 52.2126L32.5581 52.8581C32.7379 53.0484 32.9287 53.2391 33.119 53.4188L33.7647 52.7733C33.9234 52.6147 33.9234 52.3712 33.7647 52.2126C33.606 52.0535 33.3625 52.0535 33.2038 52.2126Z" fill="#F1F2F0"/>
<path d="M56.4083 42.814H55.4857C55.2734 42.814 55.0933 43.0965 55.0933 43.468C55.0933 43.8394 55.2734 44.1395 55.4857 44.1395H56.4083C56.4188 43.9274 56.4188 43.6977 56.4188 43.468C56.4188 43.2558 56.4188 43.0261 56.4083 42.814Z" fill="#F1F2F0"/>
<path d="M29.5042 42.814H28.5921C28.5815 43.0261 28.5815 43.2558 28.5815 43.468C28.5815 43.6977 28.5815 43.9274 28.5921 44.1395H29.5042C29.727 44.1395 29.9071 43.8394 29.9071 43.468C29.9071 43.0974 29.727 42.814 29.5042 42.814Z" fill="#F1F2F0"/>
<path d="M51.2352 52.2126C51.0765 52.3712 51.0765 52.6147 51.2352 52.7733L51.8809 53.4188C52.0712 53.2391 52.262 53.0484 52.4418 52.8581L51.7961 52.2126C51.6374 52.0535 51.3939 52.0535 51.2352 52.2126Z" fill="#F1F2F0"/>
<path d="M33.119 33.5347C32.9282 33.7148 32.7379 33.9059 32.5581 34.0966L33.2038 34.7435C33.2781 34.818 33.3836 34.8602 33.479 34.8602C33.5849 34.8602 33.6909 34.818 33.7647 34.7435C33.9234 34.5951 33.9234 34.3406 33.7647 34.1816L33.119 33.5347Z" fill="#F1F2F0"/>
<path d="M35.6179 42.814C35.392 42.814 35.2095 43.1141 35.2095 43.4856C35.2095 43.857 35.392 44.1395 35.6179 44.1395H39.1862C39.1648 43.9274 39.1541 43.7153 39.1541 43.4856C39.1541 43.2558 39.1648 43.0261 39.1862 42.814H35.6179Z" fill="#F1F2F0"/>
<path d="M43.163 40.1626V33.9085C43.163 33.7062 42.8628 33.5347 42.509 33.5347C42.1376 33.5347 41.8374 33.7062 41.8374 33.9085V40.1626C42.0495 40.1424 42.2617 40.1324 42.4914 40.1324C42.7211 40.1319 42.9509 40.142 43.163 40.1626Z" fill="#F1F2F0"/>
<path d="M42.5001 41.4883C41.4028 41.4968 40.5117 42.3884 40.5117 43.4767C40.5117 44.5739 41.4033 45.465 42.5001 45.465C43.5969 45.465 44.4885 44.5735 44.4885 43.4767C44.4885 42.3794 43.5969 41.4883 42.5001 41.4883Z" fill="#F1F2F0"/>
</svg>
