<svg width="85" height="85" viewBox="0 0 85 85" fill="none" xmlns="http://www.w3.org/2000/svg">
<g clip-path="url(#clip0_8421_4072)">
<path d="M41.8597 74.9519L15.8054 65.0208C15.5822 64.947 15.4314 64.7384 15.4314 64.5033V47.3115L6.73475 43.16L6.07572 42.8511L6.56108 42.2997L15.231 32.7568L6.54328 22.2036L6.53044 22.1886C6.27942 21.8951 6.4105 21.4405 6.77927 21.3257L35.1803 12.2725L35.4029 12.5725L41.9889 20.9551L48.5659 12.5725L48.793 12.2593L77.2029 21.308C77.5826 21.4256 77.7261 21.8888 77.4835 22.2036L68.7957 32.7568L77.4835 42.3041C77.7228 42.5763 77.6376 43.0053 77.3098 43.16L68.5775 47.3115V64.4995C68.5775 64.7239 68.4341 64.9231 68.2213 64.9943L42.1759 74.9166L42.1225 74.9411C42.0397 74.9791 41.9453 74.983 41.8597 74.9519ZM42.5722 73.668L67.5088 64.1561V47.8322L52.272 55.0899C52.0426 55.1991 51.7684 55.1412 51.6028 54.9485L42.59 44.2144L42.5722 73.668ZM16.5446 64.1561L41.4813 73.668V44.1968L32.464 54.9308L32.1879 55.2573L16.5624 47.8145L16.5446 64.1561ZM42.9374 42.9262L52.1906 53.9205L76.1476 42.4938L67.8472 33.3965L42.9374 42.9262ZM7.87471 42.5159L31.845 53.9205L41.0983 42.9262L16.1617 33.4186L7.87471 42.5159ZM17.4575 32.7524L42.0156 42.132L66.5737 32.7524L41.9978 22.4507L17.4575 32.7524ZM42.875 21.6301L67.8695 32.1215L76.0941 22.1595L49.2116 13.5873L42.875 21.6301ZM7.94151 22.1595L16.1661 32.1215L41.1606 21.6301L34.8241 13.5873L7.94151 22.1595Z" fill="#F1F2F0"/>
<path d="M58.3978 10H26.9866C25.0855 10 23.5444 11.5269 23.5444 13.4104V26.443C23.5444 28.3265 25.0855 29.8534 26.9866 29.8534H58.3978C60.2988 29.8534 61.8399 28.3265 61.8399 26.443V13.4104C61.8399 11.5269 60.2988 10 58.3978 10Z" fill="#272828"/>
<path d="M32.0829 19.07C32.901 19.07 33.6147 19.1285 34.2241 19.2453C34.8418 19.3538 35.3552 19.5918 35.7643 19.9591C36.1817 20.3264 36.3904 20.8606 36.3904 21.5619C36.3904 22.8558 35.8144 23.7323 34.6624 24.1914C33.5187 24.6422 32.2332 24.8676 30.8057 24.8676C29.3865 24.8676 28.0718 24.638 26.8613 24.1789C25.6509 23.7114 25.0457 22.8265 25.0457 21.5243L28.2387 21.5118C28.2387 22.0878 28.4975 22.4551 29.0151 22.6137C29.541 22.7639 30.1545 22.8391 30.8558 22.8391C31.5152 22.8391 32.0787 22.7431 32.5462 22.5511C33.022 22.3591 33.2599 22.046 33.2599 21.6119V21.5994C33.2599 21.3573 33.1138 21.1778 32.8217 21.061C32.5295 20.9441 32.2165 20.8732 31.8825 20.8481C31.5486 20.8231 31.1479 20.8064 30.6805 20.798H29.7413C28.8398 20.798 28.0551 20.7438 27.3872 20.6352C26.7278 20.5184 26.1726 20.2679 25.7218 19.8839C25.2711 19.4999 25.0457 18.9323 25.0457 18.181C25.0457 16.8787 25.63 16.0314 26.7987 15.6391C27.9758 15.2384 29.3114 15.038 30.8057 15.038C32.2081 15.038 33.4895 15.2676 34.6498 15.7267C35.8102 16.1858 36.3904 17.0707 36.3904 18.3813H33.2474C33.2474 17.9639 33.0095 17.6551 32.5337 17.4547C32.0662 17.246 31.4944 17.1292 30.8182 17.1041C30.0919 17.1041 29.4784 17.1876 28.9775 17.3545C28.4766 17.5215 28.2262 17.7845 28.2262 18.1434C28.2262 18.5191 28.4808 18.7695 28.99 18.8947C29.4992 19.0199 30.0752 19.0825 30.718 19.0825L32.0829 19.07ZM47.7631 19.9591C47.7631 20.8356 47.5294 21.6245 47.0619 22.3257C46.6028 23.0269 45.9475 23.5779 45.096 23.9785C44.2445 24.3792 43.2553 24.5796 42.1284 24.5796V24.5921H39.6365V24.5796H37.1697V15.3135H42.1158C43.2428 15.3135 44.232 15.5138 45.0835 15.9145C45.9433 16.3152 46.6028 16.8662 47.0619 17.5674C47.5294 18.2686 47.7631 19.0658 47.7631 19.9591ZM42.191 22.1003C42.9172 22.1003 43.5183 21.925 43.9941 21.5744C44.4783 21.2154 44.7204 20.677 44.7204 19.9591C44.7204 19.5584 44.6035 19.1952 44.3698 18.8697C44.136 18.5358 43.823 18.277 43.4306 18.0933C43.0466 17.9013 42.6334 17.8053 42.191 17.8053H40.2626V22.1003H42.191ZM54.1393 19.5584L59.1855 24.5796H55.3914L51.6349 20.6979V24.5796H48.542V15.3135H51.6349V18.5316L55.166 15.3135H58.9977L54.1393 19.5584Z" fill="#F1F2F0"/>
</g>
<defs>
<clipPath id="clip0_8421_4072">
<rect width="72" height="65" fill="white" transform="translate(6 10)"/>
</clipPath>
</defs>
</svg>
