<svg width="85" height="85" viewBox="0 0 85 85" fill="none" xmlns="http://www.w3.org/2000/svg">
<path d="M42.4796 17C37.2048 17.007 32.0518 18.5794 27.6795 21.5164C23.3072 24.4533 19.9141 28.6212 17.934 33.4874C16.6524 36.635 15.9956 39.9999 16 43.3961C15.9955 46.2663 16.4669 49.1175 17.3954 51.8348C18.3599 54.6789 19.8061 57.3379 21.6713 59.6967C22.1795 57.8701 23.2747 56.2594 24.7896 55.111C26.3045 53.9626 28.1556 53.3396 30.0599 53.3373H48.1264C48.9223 51.5204 50.2348 49.9749 51.9022 48.8911C53.5696 47.8073 55.5191 47.2326 57.5105 47.2378C59.5392 47.2376 61.5218 47.8394 63.205 48.9664C64.8882 50.0935 66.1956 51.6944 66.96 53.5647C68.3113 50.3435 69.0047 46.8868 69 43.3961C69 36.3954 66.2059 29.6815 61.2323 24.7312C56.2588 19.781 49.5132 17 42.4796 17ZM42.2348 49.8611C38.5375 49.8568 34.9929 48.3931 32.3785 45.791C29.7642 43.1888 28.2935 39.6608 28.2892 35.9808C28.2848 32.2945 29.7514 28.7573 32.3665 26.1469C34.9816 23.5364 38.5311 22.0664 42.2348 22.0599C45.9343 22.0642 49.4809 23.5288 52.0968 26.1325C54.7127 28.7362 56.1843 32.2662 56.1886 35.9484C56.1908 39.6347 54.7221 43.171 52.1055 45.78C49.4889 48.3889 45.9385 49.8568 42.2348 49.8611Z" stroke="#F1F2F0" stroke-width="1.3" stroke-miterlimit="10"/>
<path d="M67.7106 57.3907C67.7106 60.0833 66.6359 62.6655 64.723 64.5695C62.8101 66.4734 60.2157 67.543 57.5104 67.543C56.401 67.5507 55.298 67.375 54.2464 67.0232C52.2224 66.3428 50.4641 65.0471 49.2197 63.3188C47.9752 61.5905 47.3073 59.517 47.3103 57.3907C47.3009 55.9958 47.5786 54.6138 48.1263 53.3297C48.9235 51.5143 50.2365 49.9705 51.9038 48.8882C53.5711 47.806 55.5199 47.2325 57.5104 47.2383C59.5391 47.2381 61.5217 47.84 63.2049 48.967C64.8881 50.094 66.1955 51.695 66.9599 53.5653C67.455 54.7805 67.7099 56.0794 67.7106 57.3907Z" stroke="#F1F2F0" stroke-width="1.3" stroke-miterlimit="10"/>
<path d="M56.1885 35.981C56.182 39.6617 54.7096 43.1897 52.0939 45.7916C49.4782 48.3935 45.9328 49.857 42.2347 49.8613C38.5374 49.857 34.9928 48.3932 32.3784 45.7911C29.7641 43.189 28.2934 39.6609 28.2891 35.981C28.2847 32.2946 29.7513 28.7574 32.3664 26.147C34.9815 23.5365 38.531 22.0665 42.2347 22.0601C44.0693 22.0622 45.8855 22.424 47.5796 23.1247C49.2737 23.8255 50.8126 24.8515 52.1083 26.1441C53.404 27.4368 54.4312 28.9708 55.1313 30.6586C55.8314 32.3465 56.1906 34.155 56.1885 35.981Z" fill="#F1F2F0" stroke="#F1F2F0" stroke-width="1.3" stroke-miterlimit="10"/>
<path d="M54.2871 67.0231C53.9933 67.1775 53.6996 67.3155 53.3976 67.4536H53.3324C52.957 67.616 52.5816 67.7704 52.2063 67.9166L51.7085 68.1115C50.1234 68.7019 48.4833 69.1345 46.8124 69.4028L46.3065 69.4841L45.7924 69.549L45.2212 69.614H44.7724L44.2012 69.6628C43.6572 69.6952 43.0941 69.7115 42.512 69.7115C42.1693 69.7115 41.8266 69.7115 41.4839 69.7115C41.3043 69.7115 41.1167 69.7115 40.9371 69.7115L40.1619 69.6546H39.7131L39.2154 69.5978L38.6196 69.5166L37.9342 69.4028H37.7955L37.11 69.2648L36.3675 69.1023L35.6331 68.9155L34.9068 68.7125L34.1887 68.4851C33.9548 68.4147 33.7181 68.3335 33.4788 68.2414L32.7934 67.9815C32.5078 67.8759 32.2222 67.7541 31.9774 67.6323L31.4469 67.3886C30.9981 67.1856 30.5575 66.9663 30.1168 66.7308L29.5048 66.3977C27.9725 65.5378 26.5316 64.5256 25.2044 63.3764C24.9107 63.1165 24.6088 62.8485 24.3232 62.5642C24.0376 62.28 23.5071 61.752 23.1481 61.3784L22.7483 60.948C22.5524 60.7287 22.3647 60.5094 22.177 60.282L21.7119 59.7134C22.2201 57.8868 23.3153 56.2761 24.8302 55.1277C26.3451 53.9792 28.1962 53.3563 30.1005 53.354H48.1262C47.5785 54.638 47.3008 56.02 47.3102 57.4149C47.3152 59.5421 47.9914 61.6139 49.2433 63.3379C50.4951 65.0619 52.2594 66.351 54.2871 67.0231Z" fill="#F1F2F0" stroke="#F1F2F0" stroke-width="1.3" stroke-miterlimit="10"/>
<path fill-rule="evenodd" clip-rule="evenodd" d="M53.8384 57.4308L56.0579 59.9892L62.586 52.314C62.6757 52.2183 62.7974 52.1586 62.9283 52.146C63.0591 52.1335 63.1901 52.169 63.2964 52.2459C63.4028 52.3228 63.4772 52.4358 63.5057 52.5635C63.5342 52.6913 63.5147 52.825 63.451 52.9394L57.0616 62.6857C56.9768 62.8319 56.8561 62.9543 56.7109 63.0416C56.5656 63.1288 56.4005 63.1779 56.231 63.1844C56.0615 63.1909 55.8931 63.1545 55.7415 63.0787C55.5899 63.0028 55.4602 62.89 55.3643 62.7507L52.1003 58.9171C51.4801 58.0156 53.0713 56.7405 53.8384 57.4633V57.4308Z" fill="#F1F2F0"/>
</svg>
