<svg width="169" height="60" viewBox="0 0 169 60" fill="none" xmlns="http://www.w3.org/2000/svg">
<g filter="url(#filter0_d_7666_18339)">
<path d="M116.794 42.1088C118.025 42.0972 119.254 42.1924 120.468 42.3934C121.46 42.545 122.389 42.9702 123.15 43.621C123.517 43.9731 123.802 44.4007 123.986 44.8739C124.169 45.3471 124.247 45.8545 124.213 46.3606C124.281 47.3214 124.028 48.2775 123.495 49.0814C122.962 49.8852 122.178 50.492 121.264 50.8081C119.154 51.6134 116.909 52.0089 114.649 51.9733C112.343 51.9969 110.052 51.5958 107.892 50.7903C106.941 50.4905 106.118 49.8829 105.554 49.064C104.991 48.2452 104.719 47.2622 104.781 46.2717H110.251C110.217 46.6904 110.333 47.1077 110.579 47.4496C110.824 47.7915 111.183 48.036 111.592 48.1396C112.614 48.4201 113.67 48.5519 114.73 48.531C115.721 48.5574 116.708 48.3912 117.635 48.0418C117.985 47.943 118.293 47.7332 118.513 47.4442C118.732 47.1552 118.851 46.8029 118.85 46.4407C118.837 46.232 118.757 46.0331 118.622 45.873C118.487 45.713 118.304 45.6002 118.1 45.5512C117.586 45.3465 117.043 45.2234 116.491 45.1865C115.918 45.142 115.23 45.1153 114.435 45.0975H112.826C111.479 45.1108 110.134 45.0156 108.803 44.8129C107.749 44.656 106.757 44.2163 105.934 43.5409C105.536 43.174 105.226 42.7231 105.027 42.2213C104.827 41.7194 104.743 41.1795 104.781 40.6412C104.698 39.681 104.953 38.722 105.503 37.9284C106.053 37.1349 106.862 36.5562 107.793 36.2915C110.008 35.5841 112.324 35.2415 114.649 35.2775C116.9 35.2503 119.136 35.6488 121.237 36.4516C122.164 36.7756 122.959 37.3947 123.497 38.2132C124.035 39.0316 124.287 40.0038 124.213 40.9791H118.85C118.842 40.6203 118.719 40.2733 118.501 39.9875C118.283 39.7017 117.98 39.4916 117.635 39.387C116.696 39.0125 115.696 38.8134 114.685 38.7999C113.617 38.775 112.552 38.9191 111.53 39.2268C110.636 39.5115 110.243 39.9651 110.243 40.57C110.243 41.1748 110.68 41.6374 111.556 41.8509C112.526 42.0754 113.52 42.1829 114.515 42.1711L116.794 42.1088Z" fill="#8ABD1F"/>
<path d="M142.457 47.6593C141.621 48.9085 140.451 49.9005 139.078 50.5235C137.48 51.2358 135.743 51.5852 133.992 51.5464H129.729H125.501V35.7044H133.974C135.728 35.6667 137.468 36.016 139.069 36.7273C140.441 37.3343 141.614 38.3111 142.457 39.5471C143.234 40.7588 143.646 42.166 143.646 43.6032C143.646 45.0403 143.234 46.4476 142.457 47.6593ZM134.099 47.2768C135.203 47.3246 136.292 47.0123 137.201 46.3873C137.859 45.83 138.287 45.0512 138.404 44.1996C138.521 43.348 138.319 42.4833 137.836 41.7708C137.425 41.2025 136.874 40.7491 136.236 40.4543C135.57 40.1334 134.839 39.9691 134.099 39.974H130.801V47.2946L134.099 47.2768Z" fill="#8ABD1F"/>
<path d="M154.569 42.945L163.212 51.5019H156.714L150.278 44.8841V51.5019H144.978V35.7045H150.278V41.1927L156.33 35.7045H162.891L154.569 42.945Z" fill="#8ABD1F"/>
<path d="M54.7699 10.1403C56.5982 10.9268 58.1793 12.1898 59.3464 13.7961C60.4228 15.3299 60.9999 17.1556 60.9999 19.0264C60.9999 20.8971 60.4228 22.7228 59.3464 24.2566C58.1846 25.8679 56.602 27.1321 54.7699 27.9124C52.6943 28.8164 50.4475 29.2654 48.1822 29.2289C45.9198 29.2447 43.679 28.7903 41.6033 27.8947C39.6869 27.1025 38.0044 25.8383 36.7139 24.221C35.5273 22.7472 34.8807 20.9149 34.8807 19.0264C34.8807 17.1378 35.5273 15.3056 36.7139 13.8317C38.0044 12.2144 39.6869 10.9502 41.6033 10.1581C43.679 9.26245 45.9198 8.80801 48.1822 8.82383C50.4475 8.78738 52.6943 9.23637 54.7699 10.1403ZM52.4637 23.376C53.6047 22.2129 54.2435 20.6519 54.2435 19.0264C54.2435 17.4009 53.6047 15.8398 52.4637 14.6767C51.2669 13.6775 49.7438 13.149 48.1822 13.1913C47.1236 13.1898 46.0763 13.4079 45.1073 13.8317C44.1315 14.2452 43.2921 14.9233 42.6849 15.7886C42.0345 16.7479 41.7059 17.8876 41.7464 19.0441C41.7079 20.1894 42.0367 21.3171 42.6849 22.2641C43.2921 23.1295 44.1315 23.8075 45.1073 24.221C46.0763 24.6448 47.1236 24.863 48.1822 24.8615C49.7438 24.9037 51.2669 24.3753 52.4637 23.376Z" fill="white"/>
<path d="M69.5274 28.4994H62.743V2.86414H69.5274V28.4994Z" fill="white"/>
<path d="M89.0223 9.60657H95.8067V28.4906H89.0223V26.0712C87.2346 28.0992 84.4935 29.1162 80.7989 29.1221C79.591 29.1889 78.3839 28.9781 77.271 28.5061C76.158 28.0341 75.1692 27.3136 74.381 26.4003C72.8555 24.5857 72.0928 21.5881 72.0928 17.4074V9.60657H78.886V17.3007C78.8688 18.5494 78.9676 19.7971 79.181 21.0277C79.3521 22.0115 79.8344 22.9152 80.5576 23.6072C81.4562 24.3649 82.619 24.7389 83.7933 24.648C85.8849 24.648 87.2793 23.9601 87.9765 22.5843C88.7349 20.9097 89.0929 19.0829 89.0223 17.2473V9.60657Z" fill="white"/>
<path d="M134.01 10.1403C135.277 11.0438 136.192 12.3535 136.602 13.8495C137.256 16.0754 137.558 18.3892 137.496 20.7075V28.4995H130.703V20.8143C130.774 18.9841 130.435 17.161 129.711 15.4773C129.049 14.0956 127.78 13.4077 125.903 13.4136C124.81 13.3336 123.729 13.6815 122.891 14.3832C122.189 15.0575 121.719 15.9356 121.55 16.8916C121.319 18.1441 121.214 19.4165 121.237 20.6897V28.4817H114.408V20.8143C114.477 18.9933 114.173 17.1774 113.514 15.4773C112.918 14.1252 111.676 13.4492 109.787 13.4492C108.584 13.3461 107.389 13.7201 106.461 14.4899C105.743 15.2144 105.279 16.1503 105.139 17.1584C104.942 18.6742 104.855 20.2022 104.879 21.7304V28.4817H98.0861V9.60659H103.941L104.701 12.0705C105.653 11.0154 106.859 10.2168 108.204 9.74891C109.837 9.20432 111.552 8.94548 113.273 8.98393C114.749 8.92493 116.215 9.25968 117.518 9.95351C118.691 10.6993 119.583 11.8092 120.057 13.1112C120.804 11.675 122.04 10.5496 123.543 9.9357C125.447 9.23881 127.469 8.91559 129.496 8.98393C131.082 8.92241 132.651 9.32442 134.01 10.1403Z" fill="white"/>
<path d="M165 19.6668H146.059C146.143 21.1736 146.779 22.5976 147.847 23.6695C148.45 24.2136 149.155 24.6329 149.923 24.9032C150.69 25.1735 151.504 25.2893 152.316 25.2439C153.291 25.2502 154.258 25.0752 155.168 24.728C156.005 24.4217 156.75 23.9072 157.331 23.2336C157.864 22.6185 158.153 21.831 158.144 21.0188H164.937C164.954 22.5664 164.419 24.0699 163.427 25.2617C162.263 26.605 160.751 27.6049 159.056 28.1526C156.87 28.8917 154.571 29.2439 152.263 29.1933C149.981 29.2189 147.719 28.7832 145.612 27.9124C143.723 27.1584 142.076 25.9069 140.848 24.2922C139.714 22.7296 139.104 20.8513 139.104 18.924C139.104 16.9968 139.714 15.1185 140.848 13.5559C142.064 11.9457 143.699 10.6969 145.577 9.94456C147.698 9.08222 149.971 8.65268 152.263 8.68146C154.53 8.63648 156.783 9.06052 158.877 9.92675C160.674 10.6703 162.223 11.9036 163.346 13.4847C164.421 15.0574 164.986 16.92 164.964 18.8217V18.9907L165 19.6668ZM146.408 16.5802H157.965C157.369 13.888 155.501 12.5389 152.361 12.533C149.22 12.5271 147.224 13.8761 146.372 16.5802H146.408Z" fill="white"/>
<path d="M28.1061 10.4961H32.9777L32.8347 12.1061C32.5477 15.115 31.4888 18.0002 29.7598 20.4852C28.8736 21.7697 27.8352 22.9434 26.6671 23.9809C25.4706 25.0474 24.1608 25.981 22.7609 26.765L20.7408 27.8947C20.3808 28.0872 19.9786 28.188 19.5699 28.1882C19.1515 28.193 18.7399 28.0821 18.381 27.868L16.3877 26.765C13.6036 25.2308 11.2095 23.0827 9.38888 20.4852C7.65618 18.0021 6.59699 15.1159 6.31396 12.1061L6.17102 10.4961H11.0425L11.1766 11.8392C11.4186 14.0763 12.2208 16.2171 13.5095 18.0657C14.9062 20.0641 16.7398 21.7215 18.8727 22.9135L19.5341 23.2782L20.2045 22.9135C22.335 21.7183 24.1679 20.0615 25.5676 18.0657C26.8536 16.2164 27.6526 14.0755 27.8916 11.8392L28.1061 10.4961Z" fill="white"/>
<path d="M19.5699 29.1755C18.9419 29.1836 18.3237 29.0206 17.7822 28.704L15.8156 27.6099C12.8886 25.9986 10.3719 23.7407 8.4592 21.0099C6.6251 18.3729 5.50735 15.3087 5.2145 12.1149L4.97314 9.38416H11.9988L12.2312 11.6613C12.4538 13.7316 13.1945 15.7133 14.3855 17.4252C15.7004 19.2974 17.4278 20.846 19.4358 21.9528L19.552 22.015L19.6771 21.9438C21.6749 20.8371 23.3929 19.2918 24.7006 17.4252C25.9003 15.7171 26.6445 13.7338 26.8636 11.6613L27.0961 9.38416H34.1307L33.8805 12.1149C33.5864 15.3084 32.4688 18.3723 30.6358 21.0099C29.7006 22.3605 28.6085 23.5965 27.3821 24.6924C26.1275 25.8133 24.7514 26.7919 23.2793 27.6099L21.2592 28.7396C20.742 29.0244 20.1609 29.1743 19.5699 29.1755ZM7.35083 11.4834V11.9726C7.61625 14.8126 8.61378 17.5363 10.2469 19.8802C11.9735 22.3415 14.2459 24.3745 16.8883 25.8221L18.8816 26.9339C19.0743 27.0406 19.2912 27.0967 19.5117 27.0967C19.7323 27.0967 19.9491 27.0406 20.1418 26.9339L22.1798 25.7954C23.5084 25.0401 24.752 24.1455 25.8894 23.1269C26.992 22.1397 27.9731 21.026 28.8123 19.8091C30.4465 17.469 31.4442 14.7478 31.7084 11.9103V11.4211H29.0268V11.8303C28.7686 14.2402 27.9047 16.5467 26.515 18.5371C25.0183 20.6684 23.0566 22.4351 20.7765 23.7051L19.5609 24.3722L18.3541 23.7051C16.0599 22.4407 14.0876 20.6697 12.5888 18.5282C11.2057 16.5385 10.3452 14.2358 10.086 11.8303V11.4211L7.35083 11.4834Z" fill="white"/>
<path d="M33.0045 1.07629H6.14417V5.94184H33.0045V1.07629Z" fill="white"/>
<path d="M34.086 7.00921H5.07141V0H34.086V7.00921ZM7.27037 4.85665H31.9676V2.14366H7.27037V4.85665Z" fill="white"/>
</g>
<defs>
<filter id="filter0_d_7666_18339" x="0.973145" y="0" width="168.027" height="60" filterUnits="userSpaceOnUse" color-interpolation-filters="sRGB">
<feFlood flood-opacity="0" result="BackgroundImageFix"/>
<feColorMatrix in="SourceAlpha" type="matrix" values="0 0 0 0 0 0 0 0 0 0 0 0 0 0 0 0 0 0 127 0" result="hardAlpha"/>
<feOffset dy="4"/>
<feGaussianBlur stdDeviation="2"/>
<feComposite in2="hardAlpha" operator="out"/>
<feColorMatrix type="matrix" values="0 0 0 0 0 0 0 0 0 0 0 0 0 0 0 0 0 0 0.25 0"/>
<feBlend mode="normal" in2="BackgroundImageFix" result="effect1_dropShadow_7666_18339"/>
<feBlend mode="normal" in="SourceGraphic" in2="effect1_dropShadow_7666_18339" result="shape"/>
</filter>
</defs>
</svg>
