<svg width="85" height="85" viewBox="0 0 85 85" fill="none" xmlns="http://www.w3.org/2000/svg">
<mask id="path-1-inside-1_8421_4053" fill="white">
<path fill-rule="evenodd" clip-rule="evenodd" d="M41.951 10.0023C41.9697 10.0157 41.9871 10.0361 42.0086 10.0416C43.602 10.4224 45.1969 10.8008 46.7904 11.1825C48.5114 11.5943 50.2314 12.0088 51.9519 12.4215C53.0466 12.6843 54.1407 12.9457 55.2358 13.2057C55.6793 13.3116 55.8663 13.6253 55.9085 13.945C55.9254 14.0755 55.8978 14.2022 55.8668 14.3276C55.7665 14.7426 55.661 15.1571 55.5588 15.5717C54.8458 18.4692 54.1332 21.3664 53.4197 24.2635C52.7924 26.8085 52.1657 29.3531 51.5384 31.8981C51.1296 33.5581 50.7213 35.2185 50.312 36.8785C50.2951 36.9475 50.2712 37.0159 50.2923 37.1038C50.3912 37.1052 50.4887 37.108 50.5853 37.108H56.1021C56.1753 37.108 56.2494 37.1085 56.3225 37.108C56.592 37.1048 56.8391 37.1709 57.0604 37.3282C57.5437 37.6724 58.0383 38.0028 58.5108 38.3609C60.0808 39.548 61.6452 40.7421 63.1721 41.982C63.6639 42.3817 64.1486 42.7911 64.6386 43.1932C64.7909 43.3182 64.918 43.4597 65 43.6383V52.6891C64.9892 52.7011 64.9723 52.7108 64.9691 52.7247C64.8945 53.0518 64.662 53.2221 64.361 53.3262C64.2274 53.3724 64.0896 53.3794 63.9513 53.3798C63.6489 53.3812 63.3465 53.3794 63.0442 53.3812C62.9729 53.3817 62.9012 53.3914 62.8243 53.396C62.7906 53.5112 62.8037 53.6158 62.8037 53.7185C62.8032 60.369 62.8032 67.0203 62.8032 73.6717C62.8032 73.7601 62.8018 73.8489 62.8032 73.9368C62.8074 74.3731 62.513 74.7909 62.0363 74.9112C61.9598 74.9306 61.8872 74.9695 61.8131 75H22.1874C22.1311 74.9325 22.0449 74.9297 21.9698 74.9033C21.6107 74.7761 21.3829 74.5286 21.3032 74.1617C21.2709 74.0136 21.2671 73.8577 21.2671 73.7055C21.2652 67.0623 21.2657 60.4203 21.2657 53.7771C21.2657 53.6962 21.2676 53.6161 21.2643 53.5356C21.2624 53.4898 21.2507 53.445 21.2427 53.3899C21.1471 53.3867 21.0674 53.3806 20.9872 53.3797C20.652 53.3783 20.3173 53.3862 19.9826 53.3769C19.5574 53.3649 19.2546 53.166 19.1003 52.7681C19.0788 52.7126 19.0567 52.6654 19 52.6395V43.734C19.0281 43.7053 19.067 43.6817 19.0811 43.647C19.1458 43.4944 19.255 43.3764 19.3708 43.2617C19.8565 42.7814 20.3778 42.3396 20.9099 41.9125C22.2276 40.854 23.5445 39.7936 24.8703 38.7443C25.475 38.2655 26.1014 37.8116 26.7182 37.3481C26.7834 37.2995 26.8514 37.2537 26.9217 37.2134C27.0431 37.1431 27.1744 37.1019 27.3183 37.1066C27.391 37.1093 27.4655 37.107 27.5386 37.107H40.9956H41.3214C41.2488 37.0385 41.1831 37.0339 41.1264 37.021C40.096 36.773 39.0651 36.5273 38.0342 36.2807C37.2339 36.0892 36.4332 35.8949 35.632 35.7043C35.4773 35.6673 35.339 35.6043 35.2256 35.4947C35.0244 35.3022 34.9377 35.0654 34.9724 34.7929C34.9907 34.6494 35.0301 34.5088 35.0652 34.3677C35.7595 31.5414 36.4543 28.7155 37.1504 25.8887C37.7768 23.3447 38.404 20.8 39.0303 18.256C39.6459 15.7586 40.2609 13.2617 40.876 10.7638C40.8779 10.756 40.8793 10.7486 40.8807 10.7398C40.9491 10.3632 41.1582 10.1124 41.5422 10.0167C41.5487 10.0153 41.5534 10.0056 41.559 10C41.6884 10.0023 41.8192 10.0023 41.951 10.0023ZM62.0291 53.4039C61.9226 53.3659 61.8167 53.3812 61.7117 53.3812C48.5943 53.3807 35.4769 53.3807 22.3584 53.3807C22.3012 53.3807 22.244 53.378 22.1868 53.3821C22.1404 53.3854 22.0935 53.3974 22.0344 53.408C22.0326 53.5043 22.0298 53.5917 22.0298 53.6791C22.0293 60.3653 22.0293 67.052 22.0293 73.739C22.0293 73.8033 22.0279 73.8676 22.0326 73.9328C22.0448 74.0998 22.1024 74.1683 22.267 74.1882C22.3884 74.203 22.5117 74.2021 22.634 74.2021C35.3842 74.2021 48.1343 74.2021 60.8832 74.2025C61.1036 74.2025 61.3239 74.2113 61.5447 74.2099C61.6422 74.2095 61.7411 74.2035 61.8363 74.1836C61.9727 74.1549 62.0304 74.0859 62.044 73.9499C62.0519 73.8703 62.0482 73.7889 62.0482 73.7084V53.7208C62.0482 53.6487 62.0496 53.5756 62.0468 53.5034C62.0449 53.4729 62.0361 53.4427 62.0291 53.4039ZM19.8195 44.1638C19.8148 44.2591 19.8082 44.3308 19.8082 44.4021C19.8077 47.0147 19.8077 49.6291 19.8082 52.2416C19.8082 52.3138 19.811 52.3873 19.8218 52.4586C19.8391 52.5775 19.8926 52.6256 20.0168 52.6344C20.1068 52.6404 20.1968 52.6372 20.2864 52.6372H63.2449C63.4572 52.6372 63.6701 52.6436 63.882 52.6423C63.9626 52.6423 64.046 52.6362 64.1239 52.6191C64.2218 52.5974 64.257 52.5469 64.2631 52.4466C64.2673 52.3818 64.2645 52.317 64.2645 52.2527V48.7195C64.2645 47.2922 64.265 45.864 64.264 44.4367C64.264 44.3498 64.28 44.2605 64.2439 44.1754C64.2162 44.1652 64.1942 44.1508 64.1721 44.1508C49.4358 44.149 34.6995 44.1476 19.9643 44.1467C19.924 44.1471 19.8841 44.1559 19.8195 44.1638ZM55.1415 13.9704C55.0722 13.9501 55.0192 13.9306 54.9648 13.9181C53.158 13.4837 51.3504 13.0493 49.5431 12.6153C47.696 12.1721 45.849 11.7298 44.0019 11.2875C43.2964 11.1182 42.5913 10.9466 41.8857 10.7786C41.6794 10.7296 41.6644 10.7407 41.6162 10.9382C41.514 11.3528 41.4132 11.7687 41.3119 12.1832C40.7132 14.6108 40.115 17.0368 39.5169 19.4645C38.9388 21.8138 38.3608 24.1622 37.7828 26.5115C37.2202 28.798 36.6572 31.0838 36.0938 33.3703C35.9761 33.8477 35.8565 34.3247 35.7407 34.8031C35.7131 34.9151 35.7347 34.947 35.8429 34.9808C35.8819 34.9933 35.9208 35.0058 35.9606 35.0155C37.1898 35.3093 38.419 35.6026 39.6478 35.8968C41.5033 36.3419 43.3573 36.7883 45.2124 37.2334C46.4804 37.5373 47.7496 37.8404 49.0181 38.1425C49.0711 38.155 49.1264 38.1582 49.178 38.1656C49.1986 38.1346 49.2197 38.1166 49.2244 38.0948C51.1975 30.0938 53.1688 22.0927 55.1406 14.0922C55.1477 14.0612 55.1415 14.0273 55.1415 13.9704ZM20.3871 43.349C20.3937 43.3642 20.4012 43.38 20.4073 43.3952C34.7956 43.3952 49.1851 43.3952 63.5758 43.3938C63.5959 43.3938 63.6175 43.3818 63.6583 43.3693C63.6208 43.33 63.5964 43.3008 63.5683 43.2772C63.4431 43.1722 63.3184 43.0691 63.1928 42.9654C61.7034 41.7431 60.1799 40.5639 58.6431 39.4002C58.0205 38.9292 57.3788 38.4842 56.7492 38.0234C56.5926 37.9086 56.4299 37.8522 56.2298 37.8582C55.7961 37.8721 55.3634 37.8624 54.9298 37.8624C53.4095 37.8624 51.8901 37.8624 50.3698 37.8628C50.2732 37.8628 50.1748 37.849 50.0702 37.8878C50.0304 38.0345 49.9976 38.183 49.9511 38.3283C49.84 38.6785 49.5574 38.8945 49.1898 38.9038C49.0684 38.9066 48.9446 38.8927 48.826 38.864C47.541 38.5591 46.2575 38.2505 44.9739 37.9406C44.7587 37.8883 44.543 37.8605 44.3199 37.8605C38.7627 37.8633 33.2061 37.8624 27.649 37.8624C27.5997 37.8624 27.551 37.8656 27.5017 37.8619C27.3742 37.8517 27.2641 37.8869 27.1595 37.9646C26.9317 38.1349 26.6949 38.2936 26.468 38.4643C25.0761 39.5089 23.7171 40.5952 22.3699 41.6954C21.8162 42.1483 21.2635 42.6022 20.7118 43.0579C20.6011 43.1518 20.4966 43.2522 20.3883 43.3489L20.3871 43.349Z"/>
</mask>
<path fill-rule="evenodd" clip-rule="evenodd" d="M41.951 10.0023C41.9697 10.0157 41.9871 10.0361 42.0086 10.0416C43.602 10.4224 45.1969 10.8008 46.7904 11.1825C48.5114 11.5943 50.2314 12.0088 51.9519 12.4215C53.0466 12.6843 54.1407 12.9457 55.2358 13.2057C55.6793 13.3116 55.8663 13.6253 55.9085 13.945C55.9254 14.0755 55.8978 14.2022 55.8668 14.3276C55.7665 14.7426 55.661 15.1571 55.5588 15.5717C54.8458 18.4692 54.1332 21.3664 53.4197 24.2635C52.7924 26.8085 52.1657 29.3531 51.5384 31.8981C51.1296 33.5581 50.7213 35.2185 50.312 36.8785C50.2951 36.9475 50.2712 37.0159 50.2923 37.1038C50.3912 37.1052 50.4887 37.108 50.5853 37.108H56.1021C56.1753 37.108 56.2494 37.1085 56.3225 37.108C56.592 37.1048 56.8391 37.1709 57.0604 37.3282C57.5437 37.6724 58.0383 38.0028 58.5108 38.3609C60.0808 39.548 61.6452 40.7421 63.1721 41.982C63.6639 42.3817 64.1486 42.7911 64.6386 43.1932C64.7909 43.3182 64.918 43.4597 65 43.6383V52.6891C64.9892 52.7011 64.9723 52.7108 64.9691 52.7247C64.8945 53.0518 64.662 53.2221 64.361 53.3262C64.2274 53.3724 64.0896 53.3794 63.9513 53.3798C63.6489 53.3812 63.3465 53.3794 63.0442 53.3812C62.9729 53.3817 62.9012 53.3914 62.8243 53.396C62.7906 53.5112 62.8037 53.6158 62.8037 53.7185C62.8032 60.369 62.8032 67.0203 62.8032 73.6717C62.8032 73.7601 62.8018 73.8489 62.8032 73.9368C62.8074 74.3731 62.513 74.7909 62.0363 74.9112C61.9598 74.9306 61.8872 74.9695 61.8131 75H22.1874C22.1311 74.9325 22.0449 74.9297 21.9698 74.9033C21.6107 74.7761 21.3829 74.5286 21.3032 74.1617C21.2709 74.0136 21.2671 73.8577 21.2671 73.7055C21.2652 67.0623 21.2657 60.4203 21.2657 53.7771C21.2657 53.6962 21.2676 53.6161 21.2643 53.5356C21.2624 53.4898 21.2507 53.445 21.2427 53.3899C21.1471 53.3867 21.0674 53.3806 20.9872 53.3797C20.652 53.3783 20.3173 53.3862 19.9826 53.3769C19.5574 53.3649 19.2546 53.166 19.1003 52.7681C19.0788 52.7126 19.0567 52.6654 19 52.6395V43.734C19.0281 43.7053 19.067 43.6817 19.0811 43.647C19.1458 43.4944 19.255 43.3764 19.3708 43.2617C19.8565 42.7814 20.3778 42.3396 20.9099 41.9125C22.2276 40.854 23.5445 39.7936 24.8703 38.7443C25.475 38.2655 26.1014 37.8116 26.7182 37.3481C26.7834 37.2995 26.8514 37.2537 26.9217 37.2134C27.0431 37.1431 27.1744 37.1019 27.3183 37.1066C27.391 37.1093 27.4655 37.107 27.5386 37.107H40.9956H41.3214C41.2488 37.0385 41.1831 37.0339 41.1264 37.021C40.096 36.773 39.0651 36.5273 38.0342 36.2807C37.2339 36.0892 36.4332 35.8949 35.632 35.7043C35.4773 35.6673 35.339 35.6043 35.2256 35.4947C35.0244 35.3022 34.9377 35.0654 34.9724 34.7929C34.9907 34.6494 35.0301 34.5088 35.0652 34.3677C35.7595 31.5414 36.4543 28.7155 37.1504 25.8887C37.7768 23.3447 38.404 20.8 39.0303 18.256C39.6459 15.7586 40.2609 13.2617 40.876 10.7638C40.8779 10.756 40.8793 10.7486 40.8807 10.7398C40.9491 10.3632 41.1582 10.1124 41.5422 10.0167C41.5487 10.0153 41.5534 10.0056 41.559 10C41.6884 10.0023 41.8192 10.0023 41.951 10.0023ZM62.0291 53.4039C61.9226 53.3659 61.8167 53.3812 61.7117 53.3812C48.5943 53.3807 35.4769 53.3807 22.3584 53.3807C22.3012 53.3807 22.244 53.378 22.1868 53.3821C22.1404 53.3854 22.0935 53.3974 22.0344 53.408C22.0326 53.5043 22.0298 53.5917 22.0298 53.6791C22.0293 60.3653 22.0293 67.052 22.0293 73.739C22.0293 73.8033 22.0279 73.8676 22.0326 73.9328C22.0448 74.0998 22.1024 74.1683 22.267 74.1882C22.3884 74.203 22.5117 74.2021 22.634 74.2021C35.3842 74.2021 48.1343 74.2021 60.8832 74.2025C61.1036 74.2025 61.3239 74.2113 61.5447 74.2099C61.6422 74.2095 61.7411 74.2035 61.8363 74.1836C61.9727 74.1549 62.0304 74.0859 62.044 73.9499C62.0519 73.8703 62.0482 73.7889 62.0482 73.7084V53.7208C62.0482 53.6487 62.0496 53.5756 62.0468 53.5034C62.0449 53.4729 62.0361 53.4427 62.0291 53.4039ZM19.8195 44.1638C19.8148 44.2591 19.8082 44.3308 19.8082 44.4021C19.8077 47.0147 19.8077 49.6291 19.8082 52.2416C19.8082 52.3138 19.811 52.3873 19.8218 52.4586C19.8391 52.5775 19.8926 52.6256 20.0168 52.6344C20.1068 52.6404 20.1968 52.6372 20.2864 52.6372H63.2449C63.4572 52.6372 63.6701 52.6436 63.882 52.6423C63.9626 52.6423 64.046 52.6362 64.1239 52.6191C64.2218 52.5974 64.257 52.5469 64.2631 52.4466C64.2673 52.3818 64.2645 52.317 64.2645 52.2527V48.7195C64.2645 47.2922 64.265 45.864 64.264 44.4367C64.264 44.3498 64.28 44.2605 64.2439 44.1754C64.2162 44.1652 64.1942 44.1508 64.1721 44.1508C49.4358 44.149 34.6995 44.1476 19.9643 44.1467C19.924 44.1471 19.8841 44.1559 19.8195 44.1638ZM55.1415 13.9704C55.0722 13.9501 55.0192 13.9306 54.9648 13.9181C53.158 13.4837 51.3504 13.0493 49.5431 12.6153C47.696 12.1721 45.849 11.7298 44.0019 11.2875C43.2964 11.1182 42.5913 10.9466 41.8857 10.7786C41.6794 10.7296 41.6644 10.7407 41.6162 10.9382C41.514 11.3528 41.4132 11.7687 41.3119 12.1832C40.7132 14.6108 40.115 17.0368 39.5169 19.4645C38.9388 21.8138 38.3608 24.1622 37.7828 26.5115C37.2202 28.798 36.6572 31.0838 36.0938 33.3703C35.9761 33.8477 35.8565 34.3247 35.7407 34.8031C35.7131 34.9151 35.7347 34.947 35.8429 34.9808C35.8819 34.9933 35.9208 35.0058 35.9606 35.0155C37.1898 35.3093 38.419 35.6026 39.6478 35.8968C41.5033 36.3419 43.3573 36.7883 45.2124 37.2334C46.4804 37.5373 47.7496 37.8404 49.0181 38.1425C49.0711 38.155 49.1264 38.1582 49.178 38.1656C49.1986 38.1346 49.2197 38.1166 49.2244 38.0948C51.1975 30.0938 53.1688 22.0927 55.1406 14.0922C55.1477 14.0612 55.1415 14.0273 55.1415 13.9704ZM20.3871 43.349C20.3937 43.3642 20.4012 43.38 20.4073 43.3952C34.7956 43.3952 49.1851 43.3952 63.5758 43.3938C63.5959 43.3938 63.6175 43.3818 63.6583 43.3693C63.6208 43.33 63.5964 43.3008 63.5683 43.2772C63.4431 43.1722 63.3184 43.0691 63.1928 42.9654C61.7034 41.7431 60.1799 40.5639 58.6431 39.4002C58.0205 38.9292 57.3788 38.4842 56.7492 38.0234C56.5926 37.9086 56.4299 37.8522 56.2298 37.8582C55.7961 37.8721 55.3634 37.8624 54.9298 37.8624C53.4095 37.8624 51.8901 37.8624 50.3698 37.8628C50.2732 37.8628 50.1748 37.849 50.0702 37.8878C50.0304 38.0345 49.9976 38.183 49.9511 38.3283C49.84 38.6785 49.5574 38.8945 49.1898 38.9038C49.0684 38.9066 48.9446 38.8927 48.826 38.864C47.541 38.5591 46.2575 38.2505 44.9739 37.9406C44.7587 37.8883 44.543 37.8605 44.3199 37.8605C38.7627 37.8633 33.2061 37.8624 27.649 37.8624C27.5997 37.8624 27.551 37.8656 27.5017 37.8619C27.3742 37.8517 27.2641 37.8869 27.1595 37.9646C26.9317 38.1349 26.6949 38.2936 26.468 38.4643C25.0761 39.5089 23.7171 40.5952 22.3699 41.6954C21.8162 42.1483 21.2635 42.6022 20.7118 43.0579C20.6011 43.1518 20.4966 43.2522 20.3883 43.3489L20.3871 43.349Z" fill="#F1F2F0" stroke="#F1F2F0" stroke-width="3" mask="url(#path-1-inside-1_8421_4053)"/>
<line x1="36.5" y1="40.5" x2="50.5" y2="40.5" stroke="#F1F2F0" stroke-linecap="round"/>
</svg>
