<svg width="83" height="84" viewBox="0 0 83 84" fill="none" xmlns="http://www.w3.org/2000/svg">
<path d="M79.5331 10.2732C79.5331 11.2306 80.308 12.0066 81.2666 12.0066C82.224 12.0066 83 11.2318 83 10.2732C83 4.88435 78.6157 0.5 73.2268 0.5H9.77319C4.38435 0.5 0 4.88435 0 10.2732V73.7268C0 79.1157 4.38435 83.5 9.77319 83.5H73.2268C78.6157 83.5 83 79.1157 83 73.7268V16.193C83 15.2357 82.2252 14.4596 81.2666 14.4596L10.5315 14.4608C9.57409 14.4608 8.79804 15.2357 8.79804 16.1943C8.79804 17.1516 9.57288 17.9277 10.5315 17.9277H79.5336V73.7285C79.5336 77.2062 76.7038 80.0361 73.226 80.0361L9.77239 80.0349C6.29474 80.0349 3.46478 77.2051 3.46478 73.7273V10.2737C3.46478 6.79603 6.29458 3.96607 9.77239 3.96607H73.226C76.7037 3.96607 79.5336 6.79588 79.5336 10.2737L79.5331 10.2732Z" fill="#80A4FF"/>
<path d="M10.5279 7.54662C9.57048 7.54662 8.79443 8.32146 8.79443 9.28006C8.79443 10.2375 9.56927 11.0135 10.5279 11.0135L14.2871 11.0123C15.2445 11.0123 16.0206 10.2374 16.0206 9.27885C16.0206 8.32146 15.2457 7.54541 14.2871 7.54541L10.5279 7.54662Z" fill="#80A4FF"/>
<path d="M20.9008 7.54688C19.9434 7.54688 19.1674 8.32172 19.1674 9.28032C19.1674 10.2377 19.9422 11.0138 20.9008 11.0138H24.6591C25.6165 11.0138 26.3926 10.2389 26.3926 9.28032C26.3926 8.32293 25.6177 7.54688 24.6591 7.54688H20.9008Z" fill="#80A4FF"/>
<path d="M71.2648 7.54688C70.3074 7.54688 69.5314 8.32172 69.5314 9.28032C69.5314 10.2377 70.3062 11.0138 71.2648 11.0138H75.0231C75.9805 11.0138 76.7566 10.2389 76.7566 9.28032C76.7566 8.32293 75.9817 7.54688 75.0231 7.54688H71.2648Z" fill="#80A4FF"/>
<path d="M73.1433 37.8701C74.1007 37.8701 74.8768 37.0953 74.8768 36.1367V30.0819C74.8768 26.2561 71.7631 23.1421 67.9345 23.1421H15.7388C11.9106 23.1421 8.79651 26.2558 8.79651 30.0819V66.9596C8.79651 70.7879 11.9102 73.9019 15.7388 73.9019H67.9345C71.7627 73.9019 74.8768 70.7882 74.8768 66.9596V43.3587C74.8768 42.4014 74.1019 41.6253 73.1433 41.6253C72.186 41.6253 71.4099 42.4002 71.4099 43.3587V66.9596C71.4099 68.8768 69.8517 70.436 67.9335 70.436H15.7378C13.8207 70.436 12.2614 68.8778 12.2614 66.9596V30.0819C12.2614 28.166 13.8196 26.6077 15.7378 26.6077H67.9335C69.8507 26.6077 71.4099 28.1658 71.4099 30.0819V36.1367C71.4087 37.0953 72.1847 37.8701 73.1421 37.8701H73.1433Z" fill="#80A4FF"/>
<path d="M54.7433 46.981C55.0442 46.4666 55.363 45.9568 55.6635 45.4366C55.7301 45.3519 55.7753 45.2522 55.7951 45.146C55.8149 45.0398 55.8087 44.9304 55.7771 44.8272C55.7455 44.7239 55.6894 44.6299 55.6136 44.5532C55.5378 44.4765 55.4446 44.4195 55.3421 44.387C55.1482 44.3515 54.9485 44.366 54.7618 44.4293C53.9165 44.6784 53.0845 44.95 52.2509 45.1983C52.1604 45.2244 52.0684 45.2448 51.9753 45.2594C52.0249 45.1385 52.0604 45.0656 52.0843 44.9935L52.9693 42.965C53.0279 42.8083 53.1051 42.6678 53.1513 42.5003C53.1851 42.3897 53.19 42.2722 53.1654 42.1591C53.1408 42.046 53.0876 41.9412 53.0109 41.8549C52.9342 41.7685 52.8367 41.7034 52.7277 41.666C52.6187 41.6285 52.5019 41.62 52.3887 41.6412C52.2727 41.6496 52.1654 41.6985 52.0448 41.7249C49.7312 42.4795 47.4138 43.1817 45.1109 43.9238C44.9224 43.9786 44.8208 43.9449 44.7214 43.7822C44.2834 43.0107 43.7432 42.3025 43.1156 41.677C41.8289 40.3244 40.1704 39.3878 38.352 38.9866C36.6754 38.6097 34.9282 38.7044 33.3024 39.2603C33.2145 39.2819 33.1287 39.3117 33.0463 39.3493C32.4854 39.5469 31.9431 39.7943 31.4259 40.0887C29.9532 40.9046 28.7444 42.128 27.9429 43.6136C26.9065 45.5558 26.4933 47.773 26.7598 49.9613C26.7768 50.0336 26.7706 50.1094 26.742 50.1779C26.7134 50.2463 26.664 50.3039 26.6008 50.3423C26.1329 50.646 25.6857 50.9952 25.2281 51.2806C24.7373 51.5637 24.2895 51.9162 23.8984 52.3271C23.7926 52.4309 23.7162 52.561 23.6772 52.7043C23.6381 52.8476 23.6378 52.9987 23.6761 53.1422C23.7145 53.2857 23.7902 53.4164 23.8955 53.5208C24.0008 53.6252 24.1318 53.6995 24.2751 53.7361C24.6625 53.8535 25.0589 53.9384 25.4603 53.9899C26.3622 54.1178 27.2798 54.221 28.1866 54.3368C28.2598 54.3371 28.3308 54.3622 28.3881 54.408C28.4454 54.4539 28.4857 54.5177 28.5025 54.5894C28.8322 55.4331 29.1405 56.3018 29.5096 57.1251C30.2195 58.7693 31.1972 60.2834 32.4024 61.6049C34.3053 63.7013 36.8381 65.1148 39.6142 65.6297C41.9647 66.0663 44.3786 66.0183 46.7094 65.4886C48.0467 65.2226 49.3526 64.8172 50.6059 64.2787C50.719 64.2514 50.8245 64.1986 50.9143 64.1244C51.0042 64.0501 51.0761 63.9563 51.1245 63.85C51.173 63.7437 51.1967 63.6277 51.194 63.5107C51.1913 63.3938 51.1622 63.279 51.1089 63.175C50.6829 61.8106 50.2578 60.4579 49.826 59.094C49.7997 59.0154 49.7902 58.9322 49.7983 58.8497C49.8064 58.7673 49.8318 58.6875 49.8729 58.6157L54.8512 49.5059C54.938 49.3354 55.0426 49.1695 55.1115 48.9945C55.1589 48.8855 55.177 48.7658 55.1638 48.6475C55.1506 48.5292 55.1067 48.4165 55.0365 48.3206C54.9663 48.2247 54.8722 48.1491 54.7637 48.1013C54.6552 48.0534 54.5361 48.0352 54.4184 48.0482C54.3082 48.0563 54.1921 48.0647 54.0818 48.0727C54.0587 48.0602 54.0378 48.0439 54.02 48.0245C54.0709 47.9779 54.116 47.9254 54.1545 47.8681C54.3456 47.608 54.556 47.2936 54.7433 46.981ZM51.2306 43.4433C51.0522 43.8784 50.8808 44.2485 50.7352 44.6519C50.5895 45.0554 50.4416 45.3475 50.2681 45.6885C50.2197 45.7879 50.1357 45.8652 50.033 45.9049L46.3322 47.0772C46.2219 47.0852 46.1279 47.1565 46.0812 46.9957C45.9021 46.4577 45.7051 45.915 45.5259 45.377C45.5202 45.3442 45.5178 45.311 45.5187 45.2778L51.2306 43.4433ZM49.4136 63.2867C48.1452 63.7714 46.8289 64.1188 45.487 64.3229C43.1417 64.7351 40.7322 64.585 38.4546 63.8848C37.3733 63.5294 36.352 63.0106 35.4258 62.3464C34.6536 61.8046 33.9477 61.1731 33.3229 60.465C32.4661 59.5155 31.731 58.4621 31.1345 57.3293L31.0655 57.1819C30.5237 56.1512 30.0836 55.0698 29.7513 53.9532C29.6982 53.7221 29.5766 53.5126 29.4024 53.3525C29.2282 53.1924 29.0097 53.0893 28.776 53.0568C28.0258 52.9297 27.2546 52.8333 26.5062 52.7295C26.2644 52.6943 26.0351 52.67 25.7947 52.6523C25.7905 52.6312 25.7889 52.6096 25.79 52.5882L26.2678 52.2602C26.7452 51.9265 27.2177 51.6048 27.6769 51.2607C27.8258 51.162 27.9482 51.0279 28.0334 50.8704C28.1186 50.7129 28.1639 50.5367 28.1653 50.3574C28.1743 50.2754 28.1682 50.1924 28.1475 50.1125C27.9618 48.8682 28.0181 47.5998 28.3132 46.3775C28.4083 45.9836 28.5344 45.5981 28.6902 45.2243C29.3331 43.5551 30.5328 42.1622 32.0845 41.2837C33.3344 40.5548 34.7508 40.1629 36.1962 40.1461C37.7049 40.1235 39.1887 40.5364 40.4715 41.3359C41.6158 42.0351 42.5869 42.987 43.3109 44.1193C43.8483 44.9509 44.2674 45.8538 44.5562 46.8019C45.8147 50.8417 47.0803 54.8731 48.3532 58.8963C48.7771 60.2315 49.1902 61.5792 49.6136 62.9086C49.6746 63.1856 49.6746 63.1856 49.4136 63.2867ZM53.442 46.4953C52.9525 47.3048 52.4751 48.1193 51.9927 48.9459C51.9249 49.029 51.8777 49.1271 51.855 49.2322C51.8323 49.3373 51.8349 49.4463 51.8624 49.5503C51.8899 49.6542 51.9416 49.7501 52.0132 49.83C52.0848 49.91 52.1744 49.9717 52.2743 50.01C52.4472 50.0491 52.6255 50.058 52.8013 50.0362C52.8758 50.0215 52.9485 49.9985 53.018 49.9676C53.0268 49.9889 53.0401 50.0079 53.057 50.0234C51.7904 52.3377 50.5232 54.6461 49.2483 57.0078C49.2109 56.9445 49.1787 56.8782 49.1522 56.8096C48.3053 54.0961 47.4586 51.3865 46.6122 48.6808C46.5601 48.5263 46.5957 48.4533 46.7494 48.4011C48.9514 47.7171 51.1511 47.0274 53.3485 46.332C53.42 46.3104 53.4928 46.2933 53.5664 46.281C53.4911 46.3686 53.456 46.4473 53.4188 46.4969L53.442 46.4953Z" fill="#80A4FF"/>
<path d="M51.2311 43.4434C51.0528 43.8785 50.8814 44.2486 50.7357 44.652C50.5901 45.0554 50.4422 45.3476 50.2686 45.6886C50.2203 45.788 50.1363 45.8653 50.0335 45.905L46.3327 47.0772C46.2224 47.0852 46.1285 47.1566 46.0818 46.9958C45.9026 46.4577 45.7056 45.9151 45.5264 45.377C45.5208 45.3443 45.5184 45.3111 45.5192 45.2779L51.2311 43.4434Z" fill="#80A4FF"/>
<path d="M52.083 48.8823C52.0133 48.9671 51.9648 49.0673 51.9414 49.1745C51.9181 49.2817 51.9206 49.3929 51.9488 49.4989C51.977 49.6049 52.0301 49.7027 52.1036 49.7842C52.1771 49.8657 52.269 49.9286 52.3717 49.9676C52.5491 50.0074 52.7322 50.0163 52.9128 49.9941C52.9893 49.9791 53.064 49.9556 53.1353 49.924C53.1444 49.9457 53.158 49.9651 53.1754 49.9809C51.8735 52.3421 50.5712 54.6974 49.2608 57.107C49.2224 57.0425 49.1894 56.9749 49.1622 56.9049C48.2939 54.1375 47.4258 51.3741 46.558 48.6146C46.5046 48.4571 46.5411 48.3826 46.699 48.3293C48.9606 47.6305 51.2197 46.9259 53.4765 46.2155C53.5499 46.1933 53.6247 46.1759 53.7003 46.1633C53.6481 46.2688 53.6111 46.3372 53.5738 46.3998C53.0707 47.2257 52.5801 48.0568 52.083 48.8823Z" fill="#80A4FF"/>
<path d="M49.4133 63.2868C48.145 63.7716 46.8287 64.1189 45.4868 64.323C43.1414 64.7352 40.7319 64.5851 38.4544 63.885C37.373 63.5295 36.3517 63.0108 35.4255 62.3465C34.6533 61.8047 33.9475 61.1732 33.3226 60.4651C32.4659 59.5157 31.7307 58.4622 31.1343 57.3294L31.0652 57.182C30.5235 56.1513 30.0833 55.07 29.751 53.9534C29.698 53.7223 29.5763 53.5128 29.4021 53.3527C29.2279 53.1926 29.0095 53.0894 28.7757 53.0569C28.0256 52.9298 27.2544 52.8335 26.5059 52.7296C26.2642 52.6945 26.0349 52.6701 25.7944 52.6524C25.7902 52.6313 25.7887 52.6098 25.7897 52.5883L26.2676 52.2604C26.745 51.9266 27.2174 51.6049 27.6766 51.2608C27.8255 51.1621 27.948 51.0281 28.0331 50.8706C28.1183 50.713 28.1636 50.5369 28.1651 50.3575C28.174 50.2755 28.168 50.1925 28.1473 50.1126C27.9616 48.8684 28.0178 47.5999 28.313 46.3776C28.4081 45.9838 28.5341 45.5982 28.6899 45.2245C29.3329 43.5552 30.5326 42.1624 32.0843 41.2838C33.3342 40.5549 34.7505 40.1631 36.196 40.1462C37.7047 40.1236 39.1885 40.5365 40.4712 41.336C41.6156 42.0352 42.5866 42.9871 43.3106 44.1194C43.848 44.951 44.2672 45.854 44.5559 46.802C45.8144 50.8418 47.0801 54.8733 48.3529 58.8964C48.7768 60.2316 49.1899 61.5794 49.6133 62.9087C49.6743 63.1857 49.6743 63.1857 49.4133 63.2868Z" fill="#80A4FF"/>
<path d="M34.1439 50.9776C35.9483 50.8462 37.3041 49.2698 37.1721 47.4564C37.0401 45.643 35.4704 44.2794 33.666 44.4107C31.8617 44.542 30.5059 46.1185 30.6379 47.9319C30.7698 49.7453 32.3395 51.1089 34.1439 50.9776Z" fill="#272828"/>
<path d="M34.166 51.3688C33.6901 51.4033 33.212 51.3426 32.7593 51.1904C32.3067 51.0382 31.8885 50.7974 31.5288 50.4819C31.1677 50.1692 30.8719 49.7877 30.6584 49.3594C30.445 48.9311 30.3183 48.4646 30.2855 47.9869C30.2168 47.022 30.5315 46.0695 31.1607 45.338C31.7898 44.6064 32.682 44.1556 33.6418 44.0842C34.1178 44.048 34.5964 44.1079 35.0493 44.2602C35.5021 44.4125 35.9202 44.6542 36.279 44.971C36.6409 45.2833 36.9376 45.6646 37.152 46.0928C37.3664 46.521 37.4942 46.9876 37.5281 47.4657C37.5965 48.4333 37.28 49.3884 36.6479 50.1211C36.3364 50.4831 35.9568 50.7796 35.5309 50.9937C35.105 51.2078 34.6412 51.3353 34.166 51.3688ZM33.6882 44.8019C32.9186 44.8579 32.203 45.2188 31.6986 45.8053C31.1943 46.3918 30.9426 47.1557 30.9989 47.9291C31.0268 48.3127 31.1299 48.687 31.302 49.0306C31.4742 49.3742 31.7121 49.6804 32.0021 49.9315C32.2903 50.1853 32.626 50.3786 32.9895 50.5001C33.353 50.6217 33.737 50.669 34.1188 50.6394C34.5001 50.6123 34.8724 50.51 35.2142 50.3382C35.5561 50.1665 35.8608 49.9286 36.1111 49.6384C36.3703 49.3477 36.5682 49.0071 36.6927 48.6373C36.8172 48.2675 36.8657 47.8761 36.8354 47.4868C36.8118 47.1027 36.7112 46.7274 36.5398 46.3833C36.3684 46.0391 36.1297 45.7332 35.8379 45.4839C35.5491 45.2307 35.2134 45.0374 34.8501 44.9149C34.4868 44.7924 34.103 44.7433 33.7209 44.7702L33.6882 44.8019Z" fill="#80A4FF"/>
<path d="M30.4122 57.5052C36.149 57.902 41.8579 56.421 46.6846 53.284C47.0689 53.0333 46.6637 52.4354 46.274 52.6925C41.6053 55.7167 36.0893 57.1461 30.5453 56.7685C30.0938 56.7369 29.947 57.4453 30.4101 57.4761L30.4122 57.5052Z" fill="#80A4FF"/>
<path d="M34.1935 62.6528C39.665 63.0689 45.1132 61.6014 49.6419 58.4916C49.7092 58.433 49.7525 58.3514 49.7634 58.2626C49.7744 58.1737 49.7522 58.0839 49.7013 58.0105C49.6503 57.937 49.5741 57.8851 49.4873 57.8647C49.4005 57.8443 49.3094 57.8569 49.2313 57.9C44.8711 60.897 39.6289 62.322 34.3578 61.9432C33.9063 61.9116 33.7595 62.6199 34.2226 62.6507L34.1935 62.6528Z" fill="#80A4FF"/>
<path d="M31.7477 55.1802C32.0329 55.1594 32.2472 54.9102 32.2264 54.6236C32.2055 54.3369 31.9573 54.1213 31.6721 54.1421C31.3869 54.1629 31.1726 54.4121 31.1934 54.6987C31.2143 54.9854 31.4624 55.201 31.7477 55.1802Z" fill="#80A4FF"/>
<path d="M36.2655 55.0445C36.5507 55.0237 36.765 54.7745 36.7442 54.4878C36.7233 54.2012 36.4752 53.9856 36.1899 54.0064C35.9047 54.0271 35.6904 54.2763 35.7112 54.563C35.7321 54.8497 35.9802 55.0652 36.2655 55.0445Z" fill="#80A4FF"/>
<path d="M40.4505 53.7901C40.7358 53.7693 40.9501 53.5201 40.9292 53.2334C40.9084 52.9468 40.6602 52.7312 40.375 52.752C40.0898 52.7727 39.8754 53.0219 39.8963 53.3086C39.9172 53.5953 40.1653 53.8108 40.4505 53.7901Z" fill="#80A4FF"/>
<path d="M43.8366 51.7437C44.1219 51.7229 44.3362 51.4737 44.3153 51.187C44.2945 50.9004 44.0463 50.6848 43.7611 50.7056C43.4759 50.7263 43.2615 50.9755 43.2824 51.2622C43.3033 51.5489 43.5514 51.7644 43.8366 51.7437Z" fill="#80A4FF"/>
<path d="M32.2016 34.8634L30.4382 35.6108L32.3992 40.2768L34.1626 39.5294L32.2016 34.8634Z" fill="#80A4FF"/>
<path d="M31.1971 36.4765C32.431 36.3867 33.3581 35.3087 33.2678 34.0686C33.1776 32.8285 32.1042 31.8961 30.8703 31.9859C29.6364 32.0756 28.7093 33.1537 28.7995 34.3938C28.8897 35.6338 29.9632 36.5663 31.1971 36.4765Z" fill="#80A4FF"/>
<path d="M31.2324 36.9545C30.8766 36.981 30.519 36.9364 30.1803 36.8231C29.8416 36.7099 29.5286 36.5304 29.2593 36.2949C28.9894 36.0606 28.7684 35.775 28.6089 35.4545C28.4494 35.1341 28.3546 34.7851 28.33 34.4277C28.3034 34.0701 28.3475 33.7107 28.4599 33.3705C28.5724 33.0302 28.7508 32.7157 28.985 32.4453C29.2177 32.174 29.5017 31.952 29.8205 31.7919C30.1393 31.6318 30.4866 31.5369 30.8422 31.5128C31.1979 31.4869 31.5551 31.5318 31.8935 31.6448C32.232 31.7578 32.5449 31.9368 32.8145 32.1715C33.0841 32.4062 33.3051 32.692 33.4647 33.0126C33.6243 33.3331 33.7194 33.6821 33.7447 34.0395C33.7707 34.3969 33.7263 34.7559 33.614 35.0959C33.5018 35.436 33.3239 35.7504 33.0906 36.0211C32.8572 36.2919 32.573 36.5137 32.2541 36.6738C31.9353 36.834 31.5881 36.9294 31.2324 36.9545ZM30.906 32.4697C30.6755 32.4851 30.4503 32.5464 30.2435 32.65C30.0367 32.7536 29.8525 32.8975 29.7016 33.0732C29.5493 33.2484 29.4332 33.4523 29.3602 33.673C29.2871 33.8937 29.2584 34.1269 29.2759 34.3589C29.2922 34.591 29.3543 34.8175 29.4586 35.0253C29.5628 35.2332 29.7072 35.4181 29.8832 35.5693C30.0569 35.7218 30.2588 35.8383 30.4775 35.9119C30.6961 35.9856 30.9271 36.015 31.157 35.9985C31.6187 35.9649 32.0481 35.7483 32.3507 35.3964C32.6533 35.0445 32.8044 34.5862 32.7706 34.1222C32.7368 33.6581 32.521 33.2265 32.1707 32.9221C31.8203 32.6177 31.3641 32.4656 30.9024 32.4992L30.906 32.4697Z" fill="#80A4FF"/>
<path d="M33.9767 48.6796C34.5183 48.6402 34.9253 48.167 34.8857 47.6227C34.8461 47.0783 34.3749 46.669 33.8333 46.7084C33.2916 46.7478 32.8847 47.2211 32.9243 47.7654C32.9639 48.3097 33.4351 48.7191 33.9767 48.6796Z" fill="#80A4FF"/>
</svg>
