<svg width="84" height="82" viewBox="0 0 84 82" fill="none" xmlns="http://www.w3.org/2000/svg">
<g clip-path="url(#clip0_8073_42110)">
<path d="M79.1532 43.391C79.1532 40.913 83.3226 38.0646 82.8541 35.7212C82.3677 33.3081 77.4057 32.2489 76.4734 30.0281C75.5254 27.7689 78.2673 23.5535 76.9067 21.5456C75.5461 19.5376 70.5406 20.4202 68.8039 18.7044C67.0672 16.9887 67.9763 12.0542 65.9281 10.6993C63.8799 9.34418 59.6289 12.0639 57.3421 11.1273C55.0943 10.2063 54.0221 5.30188 51.5796 4.82455C49.2076 4.36045 46.3245 8.47966 43.8163 8.47966C41.308 8.47966 38.4237 4.36045 36.0517 4.82455C33.608 5.30549 32.537 10.2063 30.2892 11.1273C28.0012 12.0639 23.7356 9.35499 21.7021 10.6993C19.6684 12.0434 20.5641 16.9887 18.8275 18.7044C17.0907 20.4202 12.0949 19.522 10.7234 21.5456C9.35181 23.5691 12.1059 27.7689 11.1566 30.0281C10.2269 32.2489 5.26145 33.3081 4.77465 35.7212C4.3061 38.0646 8.47433 40.913 8.47433 43.391C8.47433 45.869 4.3061 48.7186 4.77465 51.0607C5.26145 53.475 10.2232 54.5331 11.1554 56.7538C12.1035 59.0143 9.36034 63.2284 10.7209 65.2376C12.0816 67.2467 17.0883 66.3618 18.825 68.0775C20.5617 69.7933 19.6513 74.7289 21.7008 76.0839C23.7502 77.4393 28 74.7181 30.2868 75.6559C32.5346 76.5769 33.6056 81.481 36.0493 81.9585C38.42 82.4229 41.3032 78.3037 43.8126 78.3037C46.3221 78.3037 49.2052 82.4229 51.5759 81.9585C54.0185 81.478 55.0906 76.5769 57.3385 75.6559C59.6252 74.7181 63.892 77.4278 65.9245 76.0839C67.9568 74.7397 67.0636 69.7933 68.8002 68.0775C70.5369 66.3618 75.5315 67.2612 76.903 65.2376C78.2743 63.214 75.5217 59.0143 76.4698 56.7538C77.402 54.5331 82.3661 53.475 82.851 51.0607C83.3226 48.7186 79.1532 45.8654 79.1532 43.391Z" fill="#2C2C2C"/>
<path d="M75.7957 39.8686C75.7957 37.3906 79.9637 34.5409 79.4952 32.1988C79.0089 29.7845 74.0469 28.7265 73.1147 26.5057C72.1666 24.2465 74.9097 20.0311 73.5492 18.0232C72.1885 16.0152 67.1817 16.8978 65.4451 15.182C63.7085 13.4663 64.6187 8.53062 62.5693 7.1756C60.5199 5.82055 56.2701 8.54143 53.9833 7.60483C51.7355 6.68384 50.6645 1.77827 48.2208 1.30094C45.85 0.83804 42.967 4.95607 40.4575 4.95607C37.9481 4.95607 35.0649 0.83804 32.6942 1.30094C30.2517 1.78188 29.1795 6.68384 26.9317 7.60483C24.6449 8.54143 20.3781 5.83138 18.3457 7.1768C16.3133 8.52219 17.2066 13.4663 15.4699 15.182C13.7332 16.8978 8.73865 15.9996 7.36705 18.0232C5.99548 20.0467 8.74835 24.2465 7.80031 26.5057C6.86808 28.7265 1.9039 29.7857 1.41954 32.1988C0.950992 34.5409 5.12046 37.3906 5.12046 39.8686C5.12046 42.3466 0.950992 45.1962 1.41954 47.5383C1.90634 49.9514 6.86808 51.0107 7.80031 53.2314C8.74835 55.4906 6.00644 59.7061 7.36705 61.714C8.72763 63.7219 13.7332 62.8394 15.4699 64.5551C17.2066 66.2709 16.2975 71.2053 18.3457 72.5604C20.3939 73.9154 24.6449 71.1956 26.9317 72.1323C29.1795 73.0533 30.2517 77.9589 32.6942 78.4363C35.0662 78.8992 37.9492 74.7811 40.4575 74.7811C42.9658 74.7811 45.85 78.8992 48.2208 78.4363C50.6645 77.955 51.7355 73.0533 53.9833 72.1323C56.2713 71.1956 60.5369 73.9045 62.5705 72.5604C64.6042 71.2161 63.7085 66.2709 65.4451 64.5551C67.1817 62.8394 72.1776 63.7375 73.5492 61.714C74.9208 59.6904 72.1666 55.4906 73.1159 53.2314C74.0469 51.0107 79.012 49.9514 79.4952 47.5383C79.9637 45.1962 75.7957 42.3466 75.7957 39.8686Z" fill="#80A4FF" stroke="#2C2C2C" stroke-width="2.66654" stroke-miterlimit="10"/>
<path d="M41.5856 73.0753C59.7467 73.0753 74.4691 58.5302 74.4691 40.588C74.4691 22.6457 59.7467 8.10059 41.5856 8.10059C23.4245 8.10059 8.70203 22.6457 8.70203 40.588C8.70203 58.5302 23.4245 73.0753 41.5856 73.0753Z" fill="#272828"/>
<path d="M30.0649 8.82197C38.5733 5.97173 47.8787 6.53645 55.9677 10.394C59.9736 12.3093 63.5538 14.9889 66.501 18.2773C69.4482 21.5658 71.7036 25.3979 73.1366 29.5515C75.3197 35.7959 75.5734 42.5381 73.8658 48.9247C72.1581 55.3113 68.5658 61.0553 63.5436 65.4295C58.5213 69.8039 52.2948 72.6119 45.6521 73.4983C39.0094 74.3846 32.2491 73.3095 26.2269 70.409C22.2144 68.4987 18.6273 65.8216 15.6744 62.5332C12.7215 59.2447 10.4617 55.4106 9.02647 51.2538C7.57692 47.1069 6.97139 42.719 7.24444 38.3413C7.5175 33.9635 8.66379 29.6817 10.6178 25.7409C12.5717 21.8 15.295 18.2772 18.632 15.3741C21.9689 12.471 25.8539 10.2446 30.0649 8.82197ZM52.8546 16.6101C49.2844 14.912 45.3772 14.0132 41.413 13.978C37.4488 13.9428 33.5258 14.7721 29.9252 16.4065C26.3245 18.0409 23.1354 20.4399 20.5865 23.4314C18.0376 26.4229 16.1921 29.933 15.182 33.7101C14.172 37.4871 14.0226 41.4375 14.7445 45.2781C15.4663 49.1187 17.0416 52.7544 19.3574 55.9246C21.6732 59.0948 24.6722 61.721 28.1393 63.6149C31.6065 65.5088 35.456 66.6235 39.4118 66.8791C42.9398 67.0983 46.4768 66.6217 49.8155 65.4773C54.8404 63.769 59.2392 60.6329 62.4571 56.4644C65.6751 52.296 67.568 47.2819 67.8971 42.0548C68.2262 36.8276 66.9768 31.6215 64.3064 27.0932C61.636 22.5648 57.6642 18.9171 52.8922 16.6101H52.8546Z" fill="#80A4FF"/>
<path d="M51.851 31.6618L48.0782 34.1639L44.4954 36.5518C44.259 36.1555 43.942 35.812 43.5643 35.543C43.1888 35.276 42.7604 35.0904 42.3072 34.9983C41.0684 34.695 39.7733 34.695 38.5344 34.9983C36.7697 35.3307 35.1951 36.3045 34.1216 37.7277C33.6446 38.4615 33.3278 39.2856 33.1913 40.1472C33.055 41.0088 33.1019 41.8891 33.3293 42.7318C33.5483 43.7403 33.9719 44.6945 34.5743 45.5369C35.1041 46.2443 35.8195 46.7953 36.6432 47.13C37.4053 47.4649 38.2235 47.6577 39.0566 47.6987C39.9057 47.7323 40.7555 47.6555 41.5843 47.4703C42.8643 47.2207 44.0662 46.6752 45.0917 45.8783C45.5352 45.5754 45.9086 45.1828 46.187 44.7265C46.4671 44.2679 46.6467 43.7563 46.714 43.2248V42.6946L36.9779 44.8587L37.8833 38.7172L53.3077 35.2664L56.5936 50.4316L49.5033 52.0236L49.0506 50.0144C47.1609 52.3387 44.4783 53.9024 41.5051 54.4126C37.9615 55.3567 34.1872 54.9365 30.9452 53.2367C29.3793 52.3824 28.0315 51.1861 27.0045 49.7391C25.0531 46.699 24.289 43.0609 24.8553 39.5047C25.2196 37.7382 25.9927 36.079 27.114 34.6569C29.6492 31.5938 33.2064 29.5238 37.1471 28.8182C39.915 28.1967 42.7887 28.1967 45.5566 28.8182C47.8972 29.1217 50.0915 30.1123 51.8558 31.6618H51.851Z" fill="#80A4FF"/>
<path d="M37.3907 21.4102L31.0258 22.7976L33.6241 34.0528L39.9842 32.7026L37.3907 21.4102Z" fill="#80A4FF"/>
<path d="M37.4064 49.877L39.9025 59.9635L46.3635 58.6709L43.9064 48.5845L37.4064 49.877Z" fill="#80A4FF"/>
<path d="M46.7774 18.6138C46.697 18.6499 46.6286 18.7079 46.5803 18.7809C46.5326 18.854 46.5073 18.9393 46.5073 19.0262C46.5073 19.1132 46.5326 19.1984 46.5803 19.2715C46.6286 19.3445 46.697 19.4025 46.7774 19.4386L48.2049 20.0242C49.2476 20.4169 50.1944 21.0229 50.9834 21.8024C51.7724 22.5819 52.3858 23.5173 52.7834 24.5474C52.9988 25.1065 53.2142 25.5862 53.4028 25.9577C53.4386 26.0376 53.4971 26.1056 53.5712 26.1533C53.6452 26.2009 53.7318 26.2264 53.8202 26.2264C53.9087 26.2264 53.9952 26.2009 54.0693 26.1533C54.1435 26.1056 54.202 26.0376 54.2377 25.9577C54.3995 25.5862 54.6149 25.1065 54.8304 24.5474C55.2369 23.5223 55.8536 22.5913 56.6417 21.8129C57.4298 21.0345 58.3723 20.4255 59.4099 20.0242L60.8375 19.4386C60.9177 19.4024 60.9856 19.3444 61.0335 19.2713C61.0813 19.1983 61.1071 19.1132 61.1077 19.0262C61.1069 18.9406 61.0811 18.8572 61.0335 18.7858C60.9859 18.7125 60.9178 18.6545 60.8375 18.6186C60.4602 18.4322 59.9759 18.2194 59.4099 18.0066C58.3672 17.6136 57.4201 17.0074 56.6309 16.2277C55.8417 15.4481 55.2281 14.5124 54.8304 13.4822C54.6149 12.9243 54.3995 12.4446 54.2377 12.0719C54.2012 11.9928 54.1424 11.9257 54.0684 11.8787C53.9944 11.8317 53.9083 11.8067 53.8202 11.8066C53.7323 11.8067 53.6461 11.8317 53.5721 11.8787C53.4981 11.9257 53.4393 11.9928 53.4028 12.0719C53.2142 12.4446 52.9988 12.9243 52.7834 13.4822C52.386 14.5125 51.7728 15.4482 50.9837 16.228C50.1947 17.0077 49.2478 17.6139 48.2049 18.0066C47.6391 18.211 47.1547 18.4274 46.7774 18.6138Z" fill="white"/>
</g>
<defs>
<clipPath id="clip0_8073_42110">
<rect width="83" height="82" fill="white" transform="translate(0.166626)"/>
</clipPath>
</defs>
</svg>
