<svg width="83" height="83" viewBox="0 0 83 83" fill="none" xmlns="http://www.w3.org/2000/svg">
<g clip-path="url(#clip0_8073_42215)">
<path d="M78.9866 43.891C78.9866 41.413 83.156 38.5646 82.6874 36.2212C82.2011 33.8081 77.2391 32.7489 76.3068 30.5281C75.3588 28.2689 78.1007 24.0535 76.7401 22.0456C75.3795 20.0376 70.374 20.9202 68.6372 19.2044C66.9006 17.4887 67.8097 12.5542 65.7615 11.1993C63.7132 9.84418 59.4622 12.5639 57.1755 11.6273C54.9277 10.7063 53.8555 5.80188 51.4129 5.32455C49.041 4.86045 46.1579 8.97966 43.6497 8.97966C41.1413 8.97966 38.2571 4.86045 35.8851 5.32455C33.4414 5.80549 32.3704 10.7063 30.1226 11.6273C27.8346 12.5639 23.569 9.85499 21.5354 11.1993C19.5018 12.5434 20.3975 17.4887 18.6608 19.2044C16.9241 20.9202 11.9283 20.022 10.5568 22.0456C9.18518 24.0691 11.9393 28.2689 10.99 30.5281C10.0602 32.7489 5.09483 33.8081 4.60803 36.2212C4.13947 38.5646 8.30771 41.413 8.30771 43.891C8.30771 46.369 4.13947 49.2186 4.60803 51.5607C5.09483 53.975 10.0566 55.0331 10.9888 57.2538C11.9368 59.5143 9.19371 63.7284 10.5543 65.7376C11.915 67.7467 16.9217 66.8618 18.6584 68.5775C20.3951 70.2933 19.4847 75.2289 21.5342 76.5839C23.5836 77.9393 27.8334 75.2181 30.1202 76.1559C32.3679 77.0769 33.4389 81.981 35.8827 82.4585C38.2534 82.9229 41.1365 78.8037 43.646 78.8037C46.1555 78.8037 49.0385 82.9229 51.4093 82.4585C53.8518 81.978 54.924 77.0769 57.1718 76.1559C59.4586 75.2181 63.7254 77.9278 65.7578 76.5839C67.7902 75.2397 66.8969 70.2933 68.6336 68.5775C70.3702 66.8618 75.3649 67.7612 76.7364 65.7376C78.1077 63.714 75.3551 59.5143 76.3032 57.2538C77.2354 55.0331 82.1995 53.975 82.6843 51.5607C83.156 49.2186 78.9866 46.3654 78.9866 43.891Z" fill="#2C2C2C"/>
<path d="M75.6291 40.3686C75.6291 37.8906 79.7971 35.0409 79.3286 32.6988C78.8422 30.2845 73.8803 29.2265 72.9481 27.0057C72 24.7465 74.7431 20.5311 73.3825 18.5232C72.0219 16.5152 67.0151 17.3978 65.2785 15.682C63.5418 13.9663 64.4521 9.03062 62.4027 7.6756C60.3532 6.32055 56.1035 9.04143 53.8167 8.10483C51.5689 7.18384 50.4979 2.27827 48.0542 1.80094C45.6834 1.33804 42.8004 5.45607 40.2909 5.45607C37.7814 5.45607 34.8983 1.33804 32.5276 1.80094C30.0851 2.28188 29.0128 7.18384 26.7651 8.10483C24.4783 9.04143 20.2115 6.33138 18.1791 7.6768C16.1467 9.02219 17.04 13.9663 15.3032 15.682C13.5666 17.3978 8.57202 16.4996 7.20043 18.5232C5.82886 20.5467 8.58172 24.7465 7.63368 27.0057C6.70145 29.2265 1.73728 30.2857 1.25291 32.6988C0.784366 35.0409 4.95384 37.8906 4.95384 40.3686C4.95384 42.8466 0.784366 45.6962 1.25291 48.0383C1.73971 50.4514 6.70145 51.5107 7.63368 53.7314C8.58172 55.9906 5.83981 60.2061 7.20043 62.214C8.56101 64.2219 13.5666 63.3394 15.3032 65.0551C17.04 66.7709 16.1308 71.7053 18.1791 73.0604C20.2273 74.4154 24.4783 71.6956 26.7651 72.6323C29.0128 73.5533 30.0851 78.4589 32.5276 78.9363C34.8995 79.3992 37.7826 75.2811 40.2909 75.2811C42.7991 75.2811 45.6834 79.3992 48.0542 78.9363C50.4979 78.455 51.5689 73.5533 53.8167 72.6323C56.1046 71.6956 60.3703 74.4045 62.4039 73.0604C64.4375 71.7161 63.5418 66.7709 65.2785 65.0551C67.0151 63.3394 72.0109 64.2375 73.3825 62.214C74.7541 60.1904 72 55.9906 72.9493 53.7314C73.8803 51.5107 78.8453 50.4514 79.3286 48.0383C79.7971 45.6962 75.6291 42.8466 75.6291 40.3686Z" fill="#80A4FF" stroke="#2C2C2C" stroke-width="2.66654" stroke-miterlimit="10"/>
<path d="M41.419 73.5753C59.5801 73.5753 74.3025 59.0302 74.3025 41.088C74.3025 23.1457 59.5801 8.60059 41.419 8.60059C23.2579 8.60059 8.5354 23.1457 8.5354 41.088C8.5354 59.0302 23.2579 73.5753 41.419 73.5753Z" fill="#272828"/>
<path d="M54.2168 26.7335C54.9104 26.5607 55.6906 26.9062 55.8642 27.5965C56.0378 28.1141 55.8642 28.7183 55.4306 29.0631C46.6739 37.8635 37.9168 46.5773 29.1599 55.3775C28.8998 55.6363 28.6398 55.8951 28.2926 55.9817C27.6854 56.1544 26.9923 55.8957 26.7323 55.2914C26.4722 54.7739 26.5587 54.0836 26.9923 53.652C35.8361 44.7655 44.6796 35.879 53.5232 26.9925C53.6103 26.9053 53.8703 26.8192 54.2169 26.7331L54.2168 26.7335Z" fill="#80A4FF"/>
<path d="M29.8983 9.32197C38.4067 6.47173 47.712 7.03645 55.8011 10.894C59.807 12.8093 63.3872 15.4889 66.3344 18.7773C69.2815 22.0658 71.537 25.8979 72.97 30.0515C75.1531 36.2959 75.4068 43.0381 73.6992 49.4247C71.9915 55.8113 68.3992 61.5553 63.377 65.9295C58.3547 70.3039 52.1282 73.1119 45.4855 73.9983C38.8428 74.8846 32.0825 73.8095 26.0603 70.909C22.0477 68.9987 18.4606 66.3216 15.5077 63.0332C12.5548 59.7447 10.2951 55.9106 8.85985 51.7538C7.41029 47.6069 6.80476 43.219 7.07781 38.8413C7.35087 34.4635 8.49717 30.1817 10.4512 26.2409C12.4051 22.3 15.1284 18.7772 18.4654 15.8741C21.8023 12.971 25.6873 10.7446 29.8983 9.32197ZM52.6879 17.1101C49.1178 15.412 45.2106 14.5132 41.2464 14.478C37.2822 14.4428 33.3591 15.2721 29.7586 16.9065C26.1579 18.5409 22.9688 20.9399 20.4199 23.9314C17.871 26.9229 16.0254 30.433 15.0154 34.2101C14.0054 37.9871 13.856 41.9375 14.5778 45.7781C15.2997 49.6187 16.875 53.2544 19.1908 56.4246C21.5065 59.5948 24.5056 62.221 27.9727 64.1149C31.4399 66.0088 35.2893 67.1235 39.2452 67.3791C42.7732 67.5983 46.3102 67.1217 49.6489 65.9773C54.6738 64.2691 59.0726 61.1329 62.2905 56.9644C65.5085 52.796 67.4014 47.7819 67.7304 42.5548C68.0596 37.3276 66.8101 32.1215 64.1398 27.5932C61.4693 23.0648 57.4976 19.4171 52.7256 17.1101H52.6879Z" fill="#80A4FF"/>
<circle cx="51" cy="50.1035" r="6" fill="#80A4FF"/>
<circle cx="31" cy="31.1035" r="6" fill="#80A4FF"/>
</g>
<defs>
<clipPath id="clip0_8073_42215">
<rect width="83" height="82" fill="white" transform="translate(0 0.5)"/>
</clipPath>
</defs>
</svg>
