<svg width="60" height="83" viewBox="0 0 60 83" fill="none" xmlns="http://www.w3.org/2000/svg">
<g clip-path="url(#clip0_8089_3206)">
<path d="M31.3225 74.9403L31.6844 75.2973L32.1861 75.2153L36.5313 74.505L40.8729 79.1773L41.6384 81.9934L3.19121 81.9996L4.9861 70.5647L12.2009 65.8242L18.33 72.3374L18.6603 72.6884L19.1406 72.6487L28.2369 71.8964L31.3225 74.9403Z" stroke="#80A4FF" stroke-width="2"/>
<path d="M12.6084 51.3204L16.0948 60.1649C16.239 60.5152 16.5177 60.7944 16.8697 60.9413C17.2217 61.0882 17.6182 61.0908 17.972 60.9484C18.3267 60.7995 18.6103 60.5219 18.7649 60.1725C18.9195 59.8231 18.9332 59.4284 18.8034 59.0693L15.3237 50.2381C15.1767 49.8901 14.8977 49.6131 14.5467 49.4666C14.1957 49.3201 13.8007 49.3158 13.4465 49.4546C13.0915 49.6047 12.8082 49.8839 12.6548 50.2347C12.5014 50.5855 12.4896 50.9812 12.6218 51.3403L12.6084 51.3204Z" fill="#80A4FF"/>
<path d="M25.8297 49.541C25.85 49.1561 25.7164 48.7787 25.458 48.4904C25.1996 48.2022 24.837 48.0262 24.4486 48.0006C24.0618 47.9861 23.6847 48.1228 23.3987 48.3811C23.1127 48.6395 22.9408 48.9989 22.92 49.3817L22.4842 57.5422C22.464 57.9265 22.5977 58.3032 22.8563 58.5904C23.1149 58.8776 23.4775 59.0521 23.8653 59.0761C24.2526 59.0923 24.6306 58.9562 24.917 58.6975C25.2034 58.4388 25.3748 58.0784 25.3939 57.695L25.8297 49.541Z" fill="#80A4FF"/>
<path d="M49.1548 69.6271C49.5383 69.5725 49.8851 69.3721 50.1217 69.0683C50.3584 68.7646 50.4661 68.3814 50.422 68.0003C50.3895 67.6165 50.2047 67.2612 49.9081 67.0123C49.6115 66.7633 49.2273 66.641 48.8397 66.6723L38.1862 67.8343C37.8034 67.8919 37.4582 68.0944 37.2231 68.399C36.988 68.7037 36.8814 69.0868 36.9257 69.4677C36.9582 69.8502 37.1421 70.2045 37.4372 70.4532C37.7324 70.702 38.1149 70.8251 38.5013 70.7957L49.1548 69.6271Z" fill="#80A4FF"/>
<path d="M53.3118 22.3633C52.9642 22.3791 52.6334 22.5155 52.3772 22.7486C52.121 22.9817 51.9558 23.2966 51.9105 23.6382C50.7858 31.993 47.8454 40.007 43.292 47.1279C38.7385 54.2488 32.6803 60.3073 25.5348 64.8859C24.0263 65.8288 25.1661 68.2059 26.8221 67.5419C34.9528 64.3932 42.1778 59.3142 47.8618 52.7517C53.5458 46.1892 57.5147 38.3442 59.4196 29.9064C59.5362 29.4168 59.5267 28.9061 59.392 28.4211C59.2573 27.9361 59.0017 27.4924 58.6486 27.1309L54.3912 22.8016C54.252 22.6581 54.0841 22.5449 53.8982 22.4695C53.7124 22.394 53.5126 22.3579 53.3118 22.3633Z" fill="#80A4FF"/>
<path d="M56.9389 51.8115L54.3643 48.9696L44.6964 38.3456L11.0262 1.31434C10.6581 0.906575 10.2092 0.578242 9.70746 0.349769C9.2057 0.121296 8.66182 -0.00242344 8.10969 -0.0136601C7.55614 -0.0222967 7.00662 0.0810175 6.49477 0.289951C5.98292 0.498884 5.51951 0.809053 5.13287 1.20147L1.70014 4.69411C1.30783 5.09373 0.999688 5.56664 0.793654 6.08531C0.587621 6.60399 0.487806 7.15806 0.500024 7.7153C0.514403 8.27324 0.640305 8.82283 0.870464 9.33228C1.10062 9.84173 1.43047 10.301 1.84093 10.6834L49.4432 55.4038L51.5216 57.3493C51.794 57.6054 52.115 57.8054 52.466 57.9376C52.8171 58.0698 53.1911 58.1317 53.5665 58.1195C53.944 58.111 54.3161 58.0286 54.6613 57.877C55.0065 57.7254 55.318 57.5077 55.5779 57.2364L56.9188 55.9084C57.4519 55.3595 57.756 54.6314 57.7702 53.87C57.7706 53.1035 57.4729 52.3663 56.9389 51.8115ZM53.486 55.1315L51.3339 53.1395L3.79196 8.49218C3.67534 8.38244 3.58204 8.25073 3.51756 8.10477C3.45308 7.95881 3.41873 7.80156 3.41651 7.64226C3.41331 7.48317 3.44186 7.32503 3.50054 7.17689C3.55921 7.02876 3.64685 6.89357 3.75842 6.77907L7.19786 3.28642C7.30463 3.16944 7.43497 3.07591 7.58047 3.01187C7.72597 2.94782 7.88341 2.91469 8.04264 2.91458C8.20186 2.91469 8.3593 2.94782 8.5048 3.01187C8.6503 3.07591 8.78064 3.16944 8.88742 3.28642L43.322 41.1344L52.6346 51.3932L54.8001 53.7703L53.486 55.1315Z" fill="#80A4FF"/>
</g>
<defs>
<clipPath id="clip0_8089_3206">
<rect width="59" height="83" fill="white" transform="translate(0.5)"/>
</clipPath>
</defs>
</svg>
