<svg width="84" height="78" viewBox="0 0 84 78" fill="none" xmlns="http://www.w3.org/2000/svg">
<g clip-path="url(#clip0_8073_42125)">
<path d="M81.838 58.3262L73.7514 60.1921C73.5758 60.2166 73.3977 60.2166 73.2221 60.1921C72.7788 60.1919 72.3444 60.0671 71.9679 59.832C71.4433 59.4936 71.0719 58.9616 70.9337 58.3507L69.0769 50.2242C69.0075 49.9202 68.9984 49.6054 69.0501 49.2979C69.1018 48.9904 69.2133 48.6961 69.3783 48.4319C69.7112 47.8979 70.2413 47.5183 70.8523 47.3762C71.1555 47.3061 71.4695 47.2968 71.7763 47.349C72.0831 47.4012 72.3766 47.5138 72.64 47.6804C72.9033 47.8469 73.1313 48.0641 73.3109 48.3195C73.4904 48.5749 73.618 48.8634 73.6862 49.1685L74.1586 51.2144C75.8286 46.7993 76.5728 42.085 76.3444 37.3672C76.116 32.6494 74.9199 28.03 72.8312 23.7986C70.7455 19.5696 67.8127 15.8194 64.2167 12.7831C60.6208 9.7468 56.4393 7.49003 51.9346 6.15431C47.4279 4.81832 42.6954 4.43183 38.0332 5.01906C33.3711 5.60629 28.8798 7.15458 24.8407 9.56696L22.3976 5.47505C29.4378 1.25947 37.6242 -0.611033 45.7861 0.131018C53.9507 0.873944 61.6711 4.19738 67.8391 9.62425C74.0233 15.0483 78.337 22.303 80.1604 30.3457C81.9795 38.3751 81.2241 46.7771 78.0024 54.3488L80.8038 53.7105C81.1146 53.6175 81.4409 53.5891 81.7629 53.6271C82.085 53.6651 82.3959 53.7687 82.6768 53.9315C82.9573 54.0941 83.2012 54.3132 83.3932 54.5752C83.5852 54.8372 83.7211 55.1363 83.7925 55.4536C83.8668 55.7788 83.8719 56.116 83.8073 56.4432C83.7428 56.7705 83.61 57.0803 83.4179 57.3523C83.2332 57.6275 82.9925 57.8602 82.7118 58.0352C82.431 58.2101 82.1166 58.3232 81.7892 58.3671L81.838 58.3262Z" fill="#80A4FF"/>
<path d="M61.8861 72.6726C54.8291 76.8184 46.6489 78.6171 38.5138 77.812C30.381 77.0065 22.7088 73.6412 16.5912 68.196C10.4739 62.7653 6.21652 55.5344 4.42457 47.5319C2.64159 39.5156 3.42248 31.1382 6.65592 23.5942L3.72422 24.2734C3.11411 24.4129 2.47384 24.3034 1.94402 23.9689C1.4142 23.6344 1.03814 23.1023 0.89838 22.4894C0.828456 22.1852 0.818925 21.8702 0.870346 21.5623C0.921767 21.2544 1.03311 20.9598 1.19803 20.6952C1.36294 20.4307 1.57817 20.2014 1.83139 20.0206C2.08461 19.8398 2.37084 19.7109 2.67369 19.6414L10.7603 17.7837C11.0653 17.7063 11.3827 17.6917 11.6934 17.741C12.0041 17.7902 12.3017 17.9022 12.5682 18.0701C13.0942 18.4105 13.4702 18.9407 13.6187 19.5514L15.4755 27.6943C15.6116 28.3074 15.5003 28.9497 15.166 29.4805C14.8317 30.0112 14.3017 30.3872 13.692 30.5259C13.5164 30.5504 13.3383 30.5504 13.1627 30.5259C12.6284 30.5316 12.1079 30.355 11.6863 30.025C11.2648 29.695 10.967 29.2311 10.8418 28.7091L10.3857 26.9168C8.7273 31.3155 7.98785 36.0103 8.21342 40.7086C8.43899 45.407 9.62474 50.0084 11.6968 54.2262C13.7768 58.4366 16.6956 62.1724 20.272 65.202C23.8485 68.2316 28.0063 70.4902 32.4875 71.8378C36.9727 73.1837 41.6854 73.5877 46.3326 73.0245C50.9797 72.4613 55.4619 70.9431 59.5 68.5643L61.8861 72.6726Z" fill="#80A4FF"/>
<path d="M42.3332 17.6524C39.5445 17.6459 36.7819 18.1932 34.2042 19.2627C31.6265 20.3322 29.2844 21.9028 27.3124 23.8845C25.3405 25.8662 23.7775 28.2199 22.7132 30.8103C21.649 33.4007 21.1045 36.1769 21.1109 38.9795C21.1055 41.7832 21.6506 44.5605 22.7148 47.1523C23.779 49.7441 25.3416 52.0994 27.3129 54.0835C29.2842 56.0676 31.6256 57.6414 34.203 58.7149C36.7804 59.7883 39.5432 60.3403 42.3332 60.3392C45.1239 60.3414 47.8876 59.7902 50.466 58.7172C53.0443 57.6443 55.3867 56.0706 57.3589 54.0864C59.3311 52.1022 60.8943 49.7465 61.959 47.1542C63.0238 44.5619 63.5691 41.7839 63.5637 38.9795C63.5702 36.1762 63.0253 33.3994 61.9606 30.8084C60.8959 28.2174 59.3321 25.8634 57.3593 23.8816C55.3865 21.8998 53.0435 20.3293 50.4648 19.2603C47.8861 18.1913 45.1227 17.6449 42.3332 17.6524ZM52.1463 51.3288C51.7045 51.6773 51.1438 51.8367 50.5858 51.7723C50.0278 51.708 49.5175 51.4251 49.1658 50.9851L40.6801 40.3462C40.368 39.9662 40.1981 39.4885 40.1996 38.9958V24.0522C40.1995 23.7695 40.2549 23.4896 40.3625 23.2284C40.4701 22.9672 40.6278 22.7299 40.8267 22.53C41.024 22.3308 41.2588 22.1731 41.5175 22.0663C41.7762 21.9595 42.0536 21.9057 42.3332 21.908C42.6132 21.9038 42.891 21.9568 43.15 22.0637C43.409 22.1706 43.6436 22.3292 43.8398 22.53C44.0373 22.7241 44.1945 22.9558 44.3021 23.2115C44.4098 23.4672 44.4658 23.7418 44.4669 24.0194V38.2593L52.4721 48.3499C52.8177 48.7901 52.9772 49.3491 52.9163 49.9064C52.8553 50.4637 52.5788 50.9746 52.1463 51.3288Z" fill="#80A4FF"/>
</g>
<defs>
<clipPath id="clip0_8073_42125">
<rect width="83" height="78" fill="white" transform="translate(0.833252)"/>
</clipPath>
</defs>
</svg>
