<svg width="83" height="88" viewBox="0 0 83 88" fill="none" xmlns="http://www.w3.org/2000/svg">
<path d="M68.7344 56.4149C68.7344 57.1654 69.318 57.7795 70.0312 57.7795H71.3281C72.0414 57.7795 72.625 57.1654 72.625 56.4149C72.625 55.6644 72.0414 55.0503 71.3281 55.0503H70.0312C69.318 55.0503 68.7344 55.6644 68.7344 56.4149Z" fill="#80A4FF"/>
<path d="M75.1532 56.4149C75.1532 57.1654 75.7368 57.7795 76.4501 57.7795H78.9789C79.6922 57.7795 80.2758 57.1654 80.2758 56.4149C80.2758 55.6644 79.6922 55.0503 78.9789 55.0503H76.4501C75.7368 55.0503 75.1532 55.6644 75.1532 56.4149Z" fill="#80A4FF"/>
<path d="M2.075 56.0734C1.94532 56.824 2.33438 57.5063 3.04766 57.7109C3.30703 57.7792 3.63125 57.7792 3.89063 57.7792H5.90071C6.61399 57.7792 7.19758 57.1651 7.19758 56.4146C7.19758 55.664 6.61399 55.05 5.90071 55.05H3.89063H3.63125C2.91797 54.8453 2.20469 55.3229 2.075 56.0734Z" fill="#80A4FF"/>
<path d="M81.703 48.6377C80.9897 48.6377 80.4061 49.2518 80.4061 50.0023V52.6632C80.4061 53.4137 80.9897 54.0278 81.703 54.0278C82.4163 54.0278 82.9999 53.4137 82.9999 52.6632V50.0023C82.9999 49.2518 82.4163 48.6377 81.703 48.6377Z" fill="#80A4FF"/>
<path d="M1.29687 53.3442C2.01016 53.3442 2.59375 52.7301 2.59375 51.9796V49.3187C2.59375 48.5682 2.01016 47.9541 1.29687 47.9541C0.583594 47.9541 0 48.5682 0 49.3187V51.9796C0 52.7301 0.583594 53.3442 1.29687 53.3442Z" fill="#80A4FF"/>
<path d="M81.703 40.5859C80.9897 40.5859 80.4061 41.2 80.4061 41.9505V44.6114C80.4061 45.362 80.9897 45.976 81.703 45.976C82.4163 45.976 82.9999 45.362 82.9999 44.6114V41.9505C82.9999 41.2 82.4163 40.5859 81.703 40.5859Z" fill="#80A4FF"/>
<path d="M1.29687 45.2939C2.01016 45.2939 2.59375 44.6798 2.59375 43.9293V41.2684C2.59375 40.5179 2.01016 39.9038 1.29687 39.9038C0.583594 39.9038 0 40.5179 0 41.2684V43.9293C0 44.6798 0.583594 45.2939 1.29687 45.2939Z" fill="#80A4FF"/>
<path d="M81.703 32.5337C80.9897 32.5337 80.4061 33.1478 80.4061 33.8983V36.5592C80.4061 37.3097 80.9897 37.9238 81.703 37.9238C82.4163 37.9238 82.9999 37.3097 82.9999 36.5592V33.8983C82.9999 33.1478 82.4163 32.5337 81.703 32.5337Z" fill="#80A4FF"/>
<path d="M1.29687 37.2421C2.01016 37.2421 2.59375 36.6281 2.59375 35.8775V33.2166C2.59375 32.4661 2.01016 31.8521 1.29687 31.8521C0.583594 31.8521 0 32.4661 0 33.2166V35.8775C0 36.6281 0.583594 37.2421 1.29687 37.2421Z" fill="#80A4FF"/>
<path d="M81.703 24.415C80.9897 24.415 80.4061 25.0291 80.4061 25.7796V28.4405C80.4061 29.1911 80.9897 29.8051 81.703 29.8051C82.4163 29.8051 82.9999 29.1911 82.9999 28.4405V25.7796C82.9999 25.0291 82.4163 24.415 81.703 24.415Z" fill="#80A4FF"/>
<path d="M1.29687 29.123C2.01016 29.123 2.59375 28.5089 2.59375 27.7584V25.0975C2.59375 24.347 2.01016 23.7329 1.29687 23.7329C0.583594 23.7329 0 24.347 0 25.0975V27.7584C0 28.5089 0.583594 29.123 1.29687 29.123Z" fill="#80A4FF"/>
<path d="M82.9348 17.5251C82.8051 16.7745 82.1567 16.2969 81.4435 16.4334C80.7303 16.5699 80.2763 17.2521 80.406 18.0026V18.2073V20.459C80.406 21.2095 80.9896 21.8236 81.7029 21.8236C82.4161 21.8236 82.9997 21.2095 82.9997 20.459V18.2073C82.9997 18.0026 82.9997 17.7298 82.9348 17.5251Z" fill="#80A4FF"/>
<path d="M1.2968 21.0715C2.01008 21.0715 2.59368 20.4574 2.59368 19.7069V18.2058C2.59368 18.0012 2.65852 17.7965 2.72336 17.66C3.04758 16.9777 2.72336 16.159 2.07493 15.8179C1.42649 15.4768 0.648363 15.8179 0.324219 16.5002C0.129688 17.046 0 17.5919 0 18.206V19.7071C0 20.4576 0.583594 21.0717 1.29688 21.0717L1.2968 21.0715Z" fill="#80A4FF"/>
<path d="M75.0875 16.842H77.6164C78.3296 16.842 78.9132 16.2279 78.9132 15.4774C78.9132 14.7269 78.3296 14.1128 77.6164 14.1128H75.0875C74.3742 14.1128 73.7906 14.7269 73.7906 15.4774C73.7906 16.2279 74.3742 16.842 75.0875 16.842Z" fill="#80A4FF"/>
<path d="M29.0496 16.842H31.5784C32.2917 16.842 32.8753 16.2279 32.8753 15.4774C32.8753 14.7269 32.2917 14.1128 31.5784 14.1128H29.0496C28.3363 14.1128 27.7527 14.7269 27.7527 15.4774C27.7527 16.2279 28.3363 16.842 29.0496 16.842Z" fill="#80A4FF"/>
<path d="M21.3994 16.842H23.9282C24.6415 16.842 25.2251 16.2279 25.2251 15.4774C25.2251 14.7269 24.6415 14.1128 23.9282 14.1128H21.3994C20.6861 14.1128 20.1025 14.7269 20.1025 15.4774C20.1025 16.2279 20.6861 16.842 21.3994 16.842Z" fill="#80A4FF"/>
<path d="M13.7472 16.842H16.276C16.9893 16.842 17.5729 16.2279 17.5729 15.4774C17.5729 14.7269 16.9893 14.1128 16.276 14.1128H13.7472C13.0339 14.1128 12.4503 14.7269 12.4503 15.4774C12.4503 16.2279 13.0339 16.842 13.7472 16.842Z" fill="#80A4FF"/>
<path d="M6.03088 16.842H8.55972C9.273 16.842 9.85659 16.2279 9.85659 15.4774C9.85659 14.7269 9.273 14.1128 8.55972 14.1128H6.03088C5.3176 14.1128 4.73401 14.7269 4.73401 15.4774C4.73401 16.2279 5.3176 16.842 6.03088 16.842Z" fill="#80A4FF"/>
<path d="M11.0242 57.7795H12.321C13.0343 57.7795 13.6179 57.1654 13.6179 56.4149C13.6179 55.6644 13.0343 55.0503 12.321 55.0503H11.0242C10.3109 55.0503 9.72729 55.6644 9.72729 56.4149C9.72729 57.1654 10.3109 57.7795 11.0242 57.7795Z" fill="#80A4FF"/>
<path d="M69.9668 16.842C70.6801 16.842 71.2637 16.2279 71.2637 15.4774C71.2637 14.7269 70.6801 14.1128 69.9668 14.1128H69.902C70.0317 14.9998 70.0317 15.9549 69.8372 16.842H69.9668Z" fill="#80A4FF"/>
<path d="M79.1094 60.509H66.1406V46.1126C68.0212 45.7715 69.3828 44.0657 69.3828 42.0871V39.358C69.3828 37.1063 67.6321 35.2642 65.4922 35.2642H17.5078C15.3679 35.2642 13.6172 37.1063 13.6172 39.358V42.0871C13.6172 44.0659 14.9789 45.7716 16.8594 46.1126V60.509H3.89062C1.75071 60.509 0 62.3512 0 64.6028C0 66.8545 1.75071 68.6966 3.89062 68.6966H5.1875V86.4364C5.1875 87.1869 5.77109 87.801 6.48437 87.801C7.19766 87.801 7.78125 87.1869 7.78125 86.4364V68.6966H75.2187V86.4364C75.2187 87.1869 75.8023 87.801 76.5156 87.801C77.2289 87.801 77.8125 87.1869 77.8125 86.4364V68.6966H79.1094C81.2493 68.6966 83 66.8545 83 64.6028C83 62.3512 81.2493 60.509 79.1094 60.509ZM63.5469 60.509H19.4531V46.1808H63.5469V60.509Z" fill="#80A4FF"/>
<path d="M29.6341 29.4647L32.5521 32.5351H52.5892L66.2712 18.1387C67.7625 16.5695 67.7625 13.9766 66.2712 12.4074L56.0906 1.6271C54.5993 0.0578932 52.1351 0.0578932 50.6437 1.6271L29.6344 23.7336C28.143 25.3028 28.143 27.8957 29.6344 29.4649L29.6341 29.4647Z" fill="#80A4FF"/>
</svg>
