<svg width="144" height="95" viewBox="0 0 144 95" fill="none" xmlns="http://www.w3.org/2000/svg">
<path d="M141.29 12.9482C141.131 13.0757 141.036 13.2673 141.036 13.4581C140.052 23.5951 139.037 33.7319 138.149 43.8685C137.261 54.0055 136.435 64.1102 135.769 74.2481C135.42 79.6356 135.135 85.0223 134.881 90.4099L133.58 89.4534L133.389 89.3259C133.421 89.2618 133.421 89.1985 133.453 89.1031C134.214 82.9506 134.881 76.7671 135.42 70.5826C135.452 70.2002 135.103 69.8811 134.754 69.8811C134.373 69.8811 134.119 70.2002 134.088 70.5826C133.548 76.5434 132.914 82.5042 132.183 88.4658C131.866 88.2109 131.549 87.9559 131.231 87.701C131.199 87.6368 131.167 87.6056 131.104 87.5735C131.898 81.5173 132.659 75.4602 133.452 69.372C134.245 63.0921 135.071 56.7809 135.864 50.5012C136.118 48.6204 136.34 46.7396 136.594 44.8588C136.72 43.9344 136.847 42.9779 136.942 42.0536C137.672 36.4751 138.37 30.8647 138.847 25.2231C139.068 22.8957 139.259 20.537 139.481 18.2104C139.608 17.0311 139.703 15.8518 139.862 14.7037C139.926 14.1297 139.989 13.5565 140.052 12.9824C140.084 12.7275 140.433 11.4528 140.274 11.2611C140.719 11.8031 141.036 12.3451 141.29 12.9504L141.29 12.9482ZM136.182 91.3334C136.626 81.1964 137.293 71.0282 138.054 60.8922C138.847 50.7874 139.767 40.6504 140.72 30.5455C141.132 26.1786 141.545 21.7795 141.989 17.4126C141.989 18.2095 141.925 18.9743 141.894 19.7712C140.402 43.3922 138.879 67.0441 137.388 90.6959C137.356 91.2058 137.356 91.7157 137.419 92.2256C137.356 92.1935 137.293 92.1614 137.229 92.1302L136.182 91.3334ZM131.993 90.0899C117.269 90.3769 102.546 90.5365 87.8538 90.5998C73.0349 90.6639 58.2164 90.6319 43.3977 90.5044C39.3673 90.5044 35.3378 90.4403 31.3074 90.3769C29.3082 90.3769 27.2769 90.2815 25.2786 90.2494C23.3113 90.1853 21.3439 90.2494 19.3766 90.2174C18.869 90.2174 18.4245 90.0899 17.9169 90.0899H17.885C17.8211 90.0578 17.7262 90.0578 17.6312 90.0578H17.5043C17.2824 89.835 17.0286 89.6113 16.9017 89.6113C30.8954 89.7388 44.8904 89.7708 58.851 89.7388C74.1455 89.7067 89.4098 89.5792 104.672 89.3884C113.271 89.293 121.903 89.1655 130.503 89.006H130.535L130.726 89.1976L131.995 90.0899L131.993 90.0899ZM19.2788 91.5562C33.8439 91.8112 48.4095 91.9387 63.0055 91.9707C77.8244 92.0028 92.6429 91.9386 107.462 91.7791C115.807 91.715 124.185 91.5875 132.531 91.4288C132.626 91.4288 132.721 91.4288 132.784 91.3967H132.816C133.038 91.3646 133.292 91.3646 133.515 91.3326H133.673L134.34 91.8425C134.942 92.2569 135.546 92.7035 136.148 93.1493C136.307 93.2447 136.466 93.3409 136.593 93.4683C121.647 93.3088 106.702 93.1493 91.7547 92.9905C76.6181 92.831 61.5126 92.6714 46.3772 92.5127C45.0124 92.4806 43.6165 92.4806 42.2519 92.4486C39.2375 92.4165 36.2231 92.3844 33.2079 92.3532C30.2885 92.3211 27.3372 92.289 24.3865 92.2578H22.4192C21.7209 92.2257 20.4838 92.4806 19.8804 92.0662C19.6586 91.9387 19.4678 91.7471 19.2779 91.5563L19.2788 91.5562ZM135.166 65.577C134.786 65.6091 134.532 65.8961 134.5 66.2464C134.436 66.9792 134.405 67.7448 134.341 68.4776C134.309 68.8279 134.659 69.147 135.007 69.147C135.388 69.1149 135.642 68.8279 135.674 68.4776L135.833 66.2464C135.865 65.8961 135.515 65.577 135.166 65.577ZM116.666 28.8555H115.778L115.81 28.8234C115.842 28.6318 115.874 28.4731 115.905 28.2815C115.937 28.2173 115.937 28.1219 115.937 28.0265L116.762 28.0586C116.73 28.3135 116.698 28.5685 116.667 28.8555H116.666ZM114.413 28.8555H113.429C113.429 28.7913 113.461 28.7601 113.461 28.6959V27.9944H114.477L114.382 28.441C114.35 28.5364 114.35 28.6326 114.382 28.728C114.382 28.7601 114.382 28.8234 114.413 28.8555ZM112.002 28.8555H110.701C110.733 28.7913 110.733 28.7601 110.733 28.6959V27.9311L112.002 27.9632V28.6959V28.8555ZM109.304 28.8555H108.13V28.7913L108.098 27.899L109.272 27.9311V28.6959C109.272 28.7601 109.272 28.7913 109.304 28.8555ZM106.67 28.8555H105.591V28.7601L105.655 27.8678H106.639L106.671 28.7921V28.8563L106.67 28.8555ZM104.132 28.8555H102.704L102.768 28.0906C102.768 27.9952 102.736 27.899 102.704 27.8357H104.195L104.132 28.7601V28.8555ZM101.244 28.8555H99.975V28.7601C100.007 28.441 100.039 28.1548 100.039 27.8678V27.8036H101.372C101.308 27.899 101.308 27.9952 101.308 28.0906L101.244 28.8555ZM98.5154 28.8555H97.1507L97.2145 28.154C97.2145 28.0586 97.1826 27.9624 97.1507 27.867C97.1188 27.8349 97.1188 27.8028 97.0868 27.7716H98.5785V27.867C98.5785 28.154 98.5465 28.441 98.5146 28.7593V28.8547L98.5154 28.8555ZM95.691 28.8555H94.1363L94.2632 27.7395H95.8818L95.8498 27.7716C95.786 27.899 95.7549 28.0265 95.7549 28.154L95.691 28.8555ZM92.6766 28.8555H91.5976L91.7245 27.7395V27.7074H92.8035V27.7395L92.6766 28.8555ZM90.1378 28.8555H88.71L88.8369 27.6762L90.2647 27.7082V27.7403L90.1378 28.8563V28.8555ZM87.2503 28.8555H86.1082C86.0763 28.5685 86.1082 28.2815 86.1402 28.0265V27.9944C86.1721 27.899 86.1721 27.8028 86.1402 27.7074V27.6754H87.378L87.2511 28.8547L87.2503 28.8555ZM84.6486 28.8555H83.5065C83.5065 28.6005 83.5065 28.3456 83.5385 28.0906V28.0586C83.5704 27.9632 83.5704 27.867 83.5385 27.7716V27.6441L84.7125 27.6762C84.6486 28.0586 84.6175 28.4731 84.6486 28.8555ZM82.0469 28.8555H81.1586V27.867C81.1586 27.7716 81.1267 27.7074 81.1267 27.6441H82.1419V27.6762C82.078 28.0586 82.015 28.4731 82.0469 28.8555ZM79.6989 28.8555H78.588L78.6199 28.7913L78.7468 27.6441H79.7309C79.6989 27.7082 79.6989 27.7716 79.6989 27.867V28.8555ZM77.1602 28.8555H76.1761V28.7913C76.2081 28.4723 76.24 28.1219 76.303 27.8028C76.303 27.7387 76.303 27.6754 76.2711 27.6433H77.2863L77.1594 28.7905V28.8547L77.1602 28.8555ZM74.7164 28.8555H73.6055L73.7324 27.6441H74.8433V27.8036C74.7795 28.1227 74.7483 28.4731 74.7164 28.7922V28.8563V28.8555ZM72.1458 28.8555L71.0348 28.8876L71.1936 27.8036C71.1936 27.7395 71.2256 27.7082 71.2256 27.6441H72.2727L72.1458 28.8555ZM69.5751 28.8876H68.4961L68.623 27.8036C68.623 27.7395 68.623 27.6762 68.5911 27.6441H69.7331L69.6062 28.6006C69.5743 28.696 69.5424 28.7922 69.5743 28.8876L69.5751 28.8876ZM67.0363 28.8876H65.8304L65.9893 27.6762V27.6441H67.1632V27.8036L67.0363 28.8876ZM64.3707 28.8876H62.9748C63.0387 28.4731 63.1017 28.0586 63.1337 27.6441H64.5295V27.6762L64.3707 28.8876ZM61.4832 28.8876H59.9915C60.0234 28.8555 60.0234 28.7921 60.0554 28.7601C60.1192 28.4097 60.1823 28.0273 60.2142 27.6762H61.6739C61.642 27.8036 61.642 27.9632 61.61 28.0907C61.5781 28.2823 61.5462 28.4731 61.5151 28.6647C61.4831 28.7288 61.4832 28.7922 61.4832 28.8876ZM58.6588 28.8876H57.5797L57.7066 27.8036V27.6762H58.7537V27.7716C58.7218 27.9632 58.6899 28.1861 58.6268 28.3769C58.5949 28.5364 58.5949 28.7272 58.6588 28.8868L58.6588 28.8876ZM56.12 28.8876H55.0729C55.1367 28.5372 55.1998 28.2181 55.2947 27.8678C55.3267 27.8357 55.3267 27.7724 55.3267 27.7082H56.2469V27.8036L56.12 28.8876ZM53.6131 28.8876H52.2483C52.2803 28.7601 52.2803 28.6326 52.2803 28.5051C52.3122 28.3135 52.3752 28.1227 52.4072 27.9311C52.4391 27.867 52.4391 27.8036 52.4391 27.7395L53.8349 27.7074C53.74 28.0898 53.6761 28.4723 53.6131 28.8867V28.8876ZM50.7887 28.8876H48.8844L49.0113 27.9632C49.0113 27.899 49.0113 27.8357 48.9794 27.7716L50.9467 27.7395C50.8517 28.1219 50.8198 28.5043 50.7879 28.8867L50.7887 28.8876ZM47.4247 28.8876H46.1868L46.4087 28.1227C46.4406 28.0273 46.4406 27.8998 46.4087 27.8036L47.5827 27.7716C47.5508 27.8357 47.5508 27.899 47.5508 27.9632L47.4239 28.8875L47.4247 28.8876ZM44.6961 28.8876H43.4583L43.5532 28.2181C43.5852 28.1227 43.5852 28.0265 43.5852 27.9311C43.5852 27.899 43.5532 27.867 43.5532 27.8357L44.981 27.8036L44.6953 28.8876L44.6961 28.8876ZM41.9675 28.8876H40.8255L40.9204 28.0265C40.9204 27.9624 40.9204 27.9311 40.8885 27.867L42.1575 27.8349L41.9667 28.8547V28.8868L41.9675 28.8876ZM39.3658 28.8876H37.8431C37.8431 28.728 37.875 28.6005 37.875 28.441C37.9069 28.3456 37.9069 28.2181 37.9388 28.1219C37.9708 28.0578 37.9708 27.9624 37.9708 27.899H39.4624V28.0265L39.3674 28.8876L39.3658 28.8876ZM36.3833 28.8876H35.0824L35.1774 28.4097C35.2093 28.3143 35.2093 28.2181 35.1774 28.1227C35.1774 28.0586 35.1774 27.9953 35.1454 27.9632L36.4783 27.9311C36.4463 28.2502 36.3833 28.5685 36.3833 28.8876ZM33.5908 28.8876H32.6386L32.8605 27.9952H32.8924L33.7807 27.9632L33.7488 28.0273C33.7169 28.2823 33.6538 28.5693 33.59 28.8563V28.8884L33.5908 28.8876ZM118.347 27.7082C118.347 27.6128 118.347 27.5166 118.315 27.3891C118.157 26.2419 116.062 26.5602 115.301 26.5602C113.492 26.5281 111.683 26.496 109.875 26.4648C106.289 26.4006 102.671 26.3373 99.0852 26.3052C94.2616 26.2411 89.4386 26.2098 84.615 26.2098C73.5408 26.1457 62.4983 26.1777 51.4553 26.2739C46.8223 26.306 42.1894 26.3693 37.5566 26.4656C36.6045 26.4656 35.6524 26.4656 34.7009 26.4976C34.2253 26.4976 33.7807 26.4976 33.3051 26.5297C32.7975 26.5297 32.2899 26.3381 31.8454 26.6572C31.4966 26.9121 31.4647 27.4541 31.4008 27.8044C31.3059 28.2189 31.179 28.6334 31.0832 29.0158C31.0194 29.3349 30.8294 29.7173 31.0832 30.0043C31.337 30.2913 31.8127 30.2272 32.1622 30.2272C35.3035 30.3226 38.4137 30.3547 41.555 30.3547H48.8216H56.0881H62.0219H65.259H65.4809C76.4923 30.3226 87.5036 30.3226 98.514 30.3226H108.319H113.301H115.776C116.347 30.3226 117.33 30.5142 117.775 30.0997C118.251 29.6852 118.346 28.283 118.346 27.7091L118.347 27.7082ZM14.0422 88.1472H13.7885C13.6935 88.1472 13.6296 87.8602 13.5977 87.7969C13.5658 87.6694 13.5339 87.5099 13.5339 87.3824C13.5339 87.287 13.5339 87.0633 13.6288 87.0321C13.6927 87 13.8196 87.0321 13.8826 87.0321H14.1364H16.2306C17.6265 87.0641 19.0231 87.0641 20.419 87.0962C21.8149 87.0962 23.2115 87.0962 24.6074 87.1283H28.7647C30.1606 87.1603 31.5572 87.1603 32.9531 87.1603C34.349 87.1603 35.7456 87.1603 37.1415 87.1924H41.3299H45.4872H49.6756H53.864C55.2598 87.1603 56.6565 87.1603 58.0213 87.1603C59.4172 87.1603 60.8138 87.1603 62.2097 87.1283H66.3981C67.7939 87.0962 69.1906 87.0962 70.5864 87.0962C71.9823 87.0641 73.3471 87.0641 74.7438 87.0321C76.1396 87.0321 77.5363 87 78.9322 87C80.328 86.9679 81.7247 86.9679 83.1205 86.9359C84.5164 86.9359 85.9131 86.9038 87.2779 86.8717C88.6737 86.8717 90.0704 86.8397 91.4663 86.8076C92.8621 86.8076 94.2588 86.7755 95.6546 86.7434C97.0505 86.7114 98.4472 86.7114 99.843 86.6793C101.208 86.6472 102.604 86.6152 104 86.5839C105.396 86.5518 106.793 86.5518 108.189 86.5198C109.585 86.4877 110.981 86.4556 112.377 86.4244C113.742 86.3923 115.138 86.3602 116.534 86.2969C117.93 86.2648 119.327 86.2328 120.723 86.2015C122.119 86.1694 123.515 86.1373 124.911 86.1061C125.451 86.074 126.022 86.074 126.593 86.0419C127.037 86.0419 127.545 86.0099 127.894 85.6916C128.211 85.4046 128.306 84.9588 128.401 84.5123C130.052 76.0012 131.669 67.4901 133.32 59.0112C132.082 68.5108 130.876 78.0417 129.639 87.5416C91.1161 88.2431 52.5605 88.4339 14.0376 88.1469L14.0422 88.1472ZM10.837 85.5015C11.0278 84.8641 11.2177 84.2268 11.3765 83.5886C11.4715 83.2695 11.5984 83.3336 11.916 83.3336H12.9001C14.2329 83.3336 15.5338 83.3657 16.8666 83.3657C19.4683 83.3657 22.102 83.3978 24.7366 83.4298C27.3704 83.4619 29.9721 83.494 32.6067 83.5253C35.2405 83.5573 37.8741 83.5894 40.5078 83.5894H48.3779C51.0117 83.5573 53.6134 83.5253 56.248 83.494C58.8818 83.4298 61.4835 83.3665 64.1181 83.239C66.7519 83.1436 69.3536 83.0162 71.9561 82.8246C74.5899 82.665 77.1916 82.4421 79.8262 82.2193C82.1112 81.9964 84.3952 81.7414 86.6802 81.4544C95.819 80.3384 104.99 78.5858 113.271 74.6013C121.553 70.6167 128.948 64.1139 132.501 55.603L126.916 84.5788C88.234 85.6627 49.5517 85.981 10.8388 85.5032L10.837 85.5015ZM124.026 65.5146C120.345 68.8619 116.124 71.6029 111.618 73.7708C104.637 77.0858 96.9892 78.9346 89.3422 79.827C87.5018 80.0499 85.6295 80.2094 83.7572 80.3369C86.391 79.5079 88.9927 78.4882 91.5002 77.2448C97.0852 74.4716 102.162 70.2956 104.954 64.6217C108.858 66.6621 114.188 67.0123 118.441 66.7254C120.408 66.5979 122.28 66.1835 124.026 65.514L124.026 65.5146ZM4.52175 80.2102C10.2018 70.4244 13.5658 59.364 16.7071 48.5561C18.4525 42.5953 19.8802 36.5383 20.4828 30.3546C21.0853 24.2664 21.2441 18.1461 21.5299 12.0256C24.767 12.0577 28.0033 12.0898 31.2714 12.1211C31.4622 13.1729 31.8109 14.2248 32.3504 15.1492C32.9849 16.2331 33.9051 17.1254 34.9521 17.7627C34.8572 18.7512 35.079 19.771 35.8093 20.4725C36.7614 21.4289 38.2841 21.6197 39.4581 20.9824C40.6001 20.3771 41.2985 19.0061 41.1397 17.6993C40.8859 15.691 38.8546 14.0652 36.8555 14.8307C35.9672 14.3529 35.5865 13.0453 35.3638 12.1209C42.6624 12.1851 49.9929 12.1851 57.2905 12.1851C57.4174 12.6629 57.5443 13.1415 57.7351 13.5873C58.3065 14.9895 59.1948 16.2008 60.4007 17.1252C60.5915 17.2527 60.7495 17.3801 60.9402 17.4755C60.8452 18.3366 61.0352 19.1648 61.6066 19.8341C62.3999 20.8539 63.7646 21.173 64.9387 20.6952C65.5413 20.4723 66.1766 20.1212 66.4934 19.5159C66.7791 18.8785 66.8111 18.2091 66.7153 17.5396C66.6203 16.8069 66.3027 16.1054 65.8581 15.5313C65.3825 14.926 64.7161 14.8298 64.0808 14.5115C63.4144 14.1612 62.8118 13.7467 62.3354 13.1727C62.0816 12.8857 61.9228 12.5353 61.7639 12.1841C68.8086 12.1841 75.8534 12.1521 82.8979 12.0887C83.0248 12.5986 83.1836 13.1085 83.3735 13.5872C83.945 14.9894 84.8652 16.2007 86.0392 17.1251C86.2299 17.2525 86.388 17.38 86.5787 17.4754C86.4837 18.3365 86.7056 19.1646 87.2451 19.834C88.0384 20.8538 89.403 21.1729 90.5772 20.6951C91.2117 20.4722 91.8151 20.121 92.1319 19.5157C92.4496 18.8784 92.4807 18.2089 92.3857 17.5395C92.2588 16.8068 91.9412 16.1052 91.4974 15.5312C91.0529 14.9259 90.3865 14.8297 89.7201 14.5114C89.0856 14.1611 88.4511 13.7466 87.9746 13.1725C87.7209 12.8535 87.5301 12.471 87.3721 12.0566C94.6386 12.0245 101.937 11.9291 109.205 11.8337C109.332 12.439 109.522 13.013 109.744 13.5871C110.284 14.9892 111.204 16.2006 112.41 17.125C112.569 17.2524 112.759 17.3799 112.949 17.4753C112.854 18.3364 113.044 19.1645 113.616 19.8339C114.409 20.8537 115.774 21.1728 116.948 20.695C117.551 20.4721 118.186 20.1209 118.503 19.5156C118.788 18.8783 118.82 18.2088 118.725 17.5394C118.63 16.8066 118.312 16.1051 117.867 15.5311C117.392 14.9258 116.725 14.8296 116.09 14.5113C115.424 14.161 114.821 13.7465 114.345 13.1724C113.996 12.79 113.773 12.2801 113.615 11.7702C121.453 11.6428 129.322 11.5153 137.16 11.3237C137.065 24.3934 134.812 37.2722 131.416 49.8616C130.02 55.0254 128.275 60.8907 122.753 62.899C120.182 63.8555 117.39 63.9509 114.661 63.7601C112.694 63.6326 110.695 63.473 108.791 62.9631C107.49 62.6128 103.745 60.1899 102.857 62.1983C97.6523 74.1519 83.1511 78.4235 71.3458 79.954C57.1931 81.7707 42.6911 80.7509 28.4751 80.5593C20.4782 80.4318 12.5141 80.3364 4.51756 80.209L4.52175 80.2102ZM39.5857 18.6239C39.4268 19.3567 38.6655 19.9307 37.9041 19.8986C37.3646 19.8666 36.1267 19.1338 36.4124 18.4323C37.5234 18.6552 38.4748 18.8468 39.5857 18.6239ZM32.6679 8.71062C32.8898 7.46715 33.2704 6.28776 33.7469 5.14047C34.1595 4.18401 34.5721 3.13216 35.4285 2.46271C35.5873 2.33523 35.7772 2.23984 35.968 2.14362C35.7772 2.23902 35.5554 2.74891 35.4604 2.90847C35.2697 3.19547 35.1116 3.4825 34.9528 3.76951C34.6671 4.3748 34.4133 4.9809 34.1914 5.61827C33.7788 6.89299 33.5569 8.23179 33.5889 9.60279C33.5889 10.7821 33.7477 11.834 34.0965 12.9821C34.3503 13.8431 34.7309 14.7354 35.3343 15.4049C35.7788 15.9148 36.5402 16.2339 37.2066 16.2972C37.3016 16.2972 37.3974 16.2652 37.5243 16.2331C37.5562 16.201 37.5881 16.201 37.6512 16.201C37.5873 16.201 37.4923 16.2331 37.6192 16.201H37.7142C38.2857 16.201 38.7932 16.4239 39.1739 16.8384C39.1739 16.8705 39.2058 16.8705 39.2058 16.9025C39.2697 16.998 39.3647 17.1254 39.3966 17.2216L39.4285 17.2537C39.3016 17.2216 39.1747 17.2216 39.0478 17.2216C38.4764 17.317 37.8738 17.317 37.3024 17.1575C36.4771 17.0934 35.6838 16.5835 35.0813 16.0736C34.6057 15.7232 34.2242 15.3087 33.9073 14.8622C33.0821 13.6829 32.5745 12.089 32.5115 10.6228C32.4795 9.98539 32.5753 9.34804 32.6703 8.70987L32.6679 8.71062ZM37.7454 2.30324C38.8564 2.68566 39.4589 3.80165 39.8715 4.85355C40.4429 6.28782 40.7598 7.7542 40.7598 9.28467C38.8555 9.28467 36.952 9.31674 35.0479 9.31674C35.0479 9.02973 35.0479 8.77478 35.0798 8.48776C35.2705 6.22458 36.2218 4.0254 37.7454 2.30324ZM39.7127 1.66586C40.2842 1.79334 40.6329 2.20782 40.9506 2.65438C42.4103 4.56728 43.2035 6.89381 43.2675 9.28465H42.2204C42.2204 7.49923 41.8078 5.71451 41.1414 4.05658C40.7607 3.19554 40.2212 2.30321 39.5228 1.66595H39.7136L39.7127 1.66586ZM65.2251 18.5604C64.9394 19.1978 64.3368 19.6122 63.4797 19.3894C62.9082 19.2298 62.5275 18.752 62.4007 18.21C63.2889 18.5291 64.2411 18.6566 65.2251 18.5604ZM59.4182 4.82143C59.9896 3.6421 60.814 2.49401 61.9888 1.88875C61.3543 2.62152 60.8779 3.48256 60.561 4.43906C59.9585 6.00082 59.6727 7.7541 59.7677 9.41202C59.8627 11.0379 60.1803 12.8225 61.1955 14.0981C61.5762 14.5446 61.9888 14.9591 62.4645 15.2453C62.7183 15.3728 62.9721 15.5003 63.2258 15.6277C63.5116 15.7873 63.8284 15.9147 64.083 16.0743C64.4318 16.2972 64.8125 16.5521 64.9401 16.9666C64.9401 17.0308 64.9721 17.062 65.004 17.1262C64.2107 17.2216 63.4174 17.0941 62.6871 16.7758H62.719C62.6552 16.8399 62.0845 16.4888 62.0207 16.4567C60.7828 15.7552 59.7678 14.608 59.1963 13.3324C58.6249 12.0576 58.4668 10.5271 58.403 9.15614C58.308 7.62647 58.7517 6.19161 59.4182 4.82143ZM63.7653 2.2079C64.6855 2.84527 65.288 3.83379 65.6695 4.91768C66.1452 6.25654 66.3679 7.69088 66.304 9.1251C64.6224 9.1251 62.909 9.15717 61.2265 9.15717C61.1626 7.75497 61.4172 6.38397 61.861 5.04519C62.2417 3.96128 62.8451 2.90941 63.7653 2.2079ZM65.6057 1.698C66.4309 2.04835 67.0654 2.87733 67.5099 3.57884C68.0175 4.37575 68.3671 5.23679 68.6839 6.12915C69.0327 7.08561 69.3184 8.07333 69.2865 9.09384C68.7789 9.09384 68.2713 9.12591 67.7637 9.12591C67.8276 7.46796 67.5419 5.77865 66.9704 4.249C66.6217 3.26048 66.0502 2.3361 65.32 1.60325C65.415 1.63532 65.5107 1.66739 65.6057 1.69866V1.698ZM90.8647 18.5605C90.6109 19.1979 89.9764 19.6124 89.1193 19.3895C88.5478 19.2299 88.1671 18.7521 88.0403 18.2102C88.9286 18.5292 89.9126 18.6567 90.8647 18.5605ZM85.0578 4.82155C85.6603 3.64222 86.4856 2.49413 87.6595 1.88888C86.9931 2.62165 86.5485 3.48269 86.1998 4.43919C85.6283 6.00094 85.3115 7.75422 85.4065 9.41215C85.5014 11.038 85.8191 12.8226 86.8662 14.0982C87.2149 14.5447 87.6276 14.9592 88.1351 15.2454C88.3889 15.3729 88.6427 15.5004 88.8965 15.6279C89.1822 15.7874 89.468 15.9149 89.7537 16.0744C90.1024 16.2973 90.452 16.5522 90.5789 16.9667C90.6108 17.0309 90.6108 17.0621 90.6427 17.1263C89.8494 17.2217 89.0561 17.0942 88.3259 16.7759H88.3578C88.3259 16.8401 87.7233 16.4889 87.6594 16.4568C86.4535 15.7553 85.4384 14.6081 84.835 13.3325C84.2636 12.0578 84.1056 10.5273 84.0417 9.15626C83.9779 7.62659 84.4224 6.19157 85.0569 4.82139L85.0578 4.82155ZM89.4049 2.20803C90.357 2.8454 90.9596 3.83391 91.3091 4.91781C91.7537 6.22461 91.9756 7.59557 91.9436 8.96657C90.2621 8.96657 88.5486 8.99864 86.8661 8.99864C86.8342 7.65978 87.088 6.32088 87.5325 5.04613C87.8813 3.96222 88.4846 2.91041 89.4048 2.2089L89.4049 2.20803ZM91.2772 1.69813C92.0705 2.04847 92.705 2.87745 93.1496 3.57896C93.6572 4.37587 94.0067 5.23691 94.3236 6.12927C94.6412 7.0216 94.9261 7.97803 94.9581 8.93449C94.4505 8.93449 93.9429 8.93449 93.4034 8.96656C93.4672 7.37275 93.1815 5.74676 92.642 4.24851C92.2613 3.25999 91.7218 2.33561 90.9604 1.60276C91.0873 1.63483 91.1823 1.6669 91.278 1.69817L91.2772 1.69813ZM117.235 18.5606C116.949 19.198 116.347 19.6125 115.49 19.3896C114.887 19.2301 114.537 18.7522 114.411 18.2103C115.299 18.5294 116.251 18.6568 117.235 18.5606ZM111.428 4.82167C111.999 3.64234 112.824 2.49425 113.999 1.889C113.364 2.62177 112.888 3.48281 112.539 4.43931C111.968 6.00106 111.682 7.75434 111.778 9.41227C111.873 11.0382 112.19 12.8227 113.205 14.0983C113.586 14.5449 113.999 14.9593 114.474 15.2456C114.728 15.373 114.982 15.5005 115.236 15.628C115.521 15.7875 115.838 15.915 116.093 16.0745C116.442 16.2974 116.822 16.5524 116.95 16.9669C116.95 17.031 116.982 17.0623 117.014 17.1264C116.221 17.2218 115.427 17.0943 114.697 16.7761C114.665 16.8402 114.094 16.489 114.031 16.457C112.793 15.7555 111.778 14.6082 111.206 13.3326C110.635 12.0579 110.477 10.5274 110.413 9.15638C110.318 7.62671 110.762 6.19185 111.428 4.82167ZM115.775 2.20815C116.695 2.84552 117.298 3.83404 117.679 4.91793C118.092 6.16139 118.346 7.46824 118.314 8.80702C116.632 8.80702 114.919 8.80702 113.205 8.83909C113.205 7.53228 113.459 6.25676 113.872 5.04626C114.252 3.96234 114.856 2.91053 115.776 2.20902L115.775 2.20815ZM117.616 1.69825C118.441 2.04859 119.075 2.87758 119.52 3.57909C120.027 4.37599 120.377 5.23704 120.694 6.1294C120.98 6.99044 121.265 7.85068 121.296 8.77514H119.774C119.806 7.24547 119.52 5.683 118.98 4.24858C118.6 3.26006 118.06 2.33568 117.33 1.60283C117.425 1.6349 117.521 1.66698 117.616 1.69825ZM143.034 13.2695C143.002 13.2695 143.002 13.2374 143.002 13.2053C142.368 11.1336 140.813 9.2208 138.687 8.80622C138.084 8.67874 137.449 8.67875 136.814 8.67875L122.757 8.77415C122.725 7.69024 122.439 6.67044 122.058 5.64978C121.71 4.59793 121.265 3.54608 120.631 2.62168C119.901 1.50568 118.853 0.422531 117.458 0.166802C116.759 0.03933 115.966 0.134734 115.236 0.166802C114.443 0.198871 113.682 0.358412 113.015 0.772095C111.968 1.40947 111.143 2.33385 110.541 3.38562C109.588 5.01151 109.049 6.92354 108.986 8.83658C104.797 8.86865 100.608 8.90072 96.4199 8.93199C96.388 7.816 96.1023 6.70082 95.7216 5.64897C95.3409 4.59712 94.8963 3.54526 94.2938 2.62086C93.5324 1.50487 92.4853 0.421718 91.1206 0.16599C90.3912 0.0385173 89.5979 0.133921 88.8996 0.16599C88.1063 0.198058 87.3449 0.357599 86.6466 0.771283C85.6314 1.40865 84.8062 2.33303 84.1718 3.38481C83.2197 5.04275 82.649 7.01899 82.6171 9.02726C78.6506 9.05933 74.716 9.05933 70.7495 9.0914C70.7814 7.91207 70.4638 6.76398 70.0831 5.64891C69.7024 4.59706 69.2578 3.5452 68.6234 2.6208C67.8939 1.50481 66.846 0.421657 65.4821 0.165929C64.7526 0.0384562 63.9593 0.13386 63.261 0.165929C62.4358 0.197997 61.6744 0.357538 61.0081 0.771222C59.961 1.40859 59.1357 2.33297 58.5332 3.38475C57.5181 5.10603 56.9785 7.14638 56.9466 9.18605C52.8851 9.21812 48.8228 9.21812 44.7294 9.25019C44.6656 6.7319 43.8723 4.24583 42.4125 2.17352C42.0318 1.63157 41.6192 1.05753 41.0478 0.675108C39.7788 -0.249272 37.9696 -0.0897392 36.5417 0.356021C33.4954 1.2804 32.1306 4.59545 31.4642 7.43269C31.3053 8.07006 31.2104 8.70741 31.1465 9.34559L23.4991 9.40972C20.8974 9.40972 18.8662 9.0273 18.7074 11.96C18.5167 14.9247 18.5486 17.9208 18.3587 20.9177C17.9461 26.8785 17.1528 32.8081 16.0107 38.6734C13.7578 50.4041 10.045 61.847 4.99935 72.6858C3.69846 75.491 2.30183 78.2642 0.81097 81.0052C0.620227 81.3555 0.430277 81.7379 0.525261 82.1211C0.652157 82.8227 1.57236 82.9822 2.30261 83.0135C4.84138 83.1089 7.38016 83.173 9.91791 83.2363V83.3005C9.88598 83.3325 9.88598 83.3959 9.88598 83.46L9.18765 86.0423C9.06075 86.5202 9.40951 86.9667 9.88598 86.9667C10.6474 86.9988 11.4087 86.9988 12.1389 86.9988V87.0942C12.107 87.6682 12.1389 88.2414 12.107 88.8155C12.0751 89.23 12.3927 89.6124 12.8053 89.6124H13.8205C14.0743 89.6124 14.3281 89.5803 14.5819 89.6124C14.8357 89.6445 14.8996 89.804 15.0576 89.9627C15.1845 90.0902 15.3114 90.2177 15.4383 90.3131C15.6921 90.5359 15.9778 90.7596 16.2635 90.9825C16.803 91.397 17.3106 91.8115 17.8501 92.226C18.4215 92.6725 18.961 93.1183 19.5317 93.5648C19.8804 93.8518 20.3569 93.8198 20.7695 93.7564C21.5948 93.661 22.42 93.7244 23.2443 93.7244C24.736 93.7244 26.2269 93.7564 27.7184 93.7564C30.7009 93.7885 33.684 93.8206 36.6666 93.8518L54.5639 94.0435C58.5304 94.1076 62.465 94.1389 66.4004 94.1709C81.5052 94.3305 96.6426 94.49 111.747 94.6488C112.636 94.6808 113.556 94.6808 114.445 94.6808C116.571 94.7129 118.697 94.745 120.791 94.745C123.33 94.777 125.869 94.8091 128.406 94.8403C130.501 94.8724 132.627 94.8724 134.753 94.9045C135.641 94.9045 136.53 95.0961 137.418 94.9366C138.592 94.7137 138.656 93.7252 138.719 92.7054C138.751 92.1001 138.814 91.494 138.846 90.92C138.91 89.7086 139.005 88.4971 139.068 87.3178C139.227 84.895 139.386 82.5043 139.513 80.1135L140.433 65.705C140.75 60.9236 141.067 56.1101 141.353 51.3286L142.273 36.9202C142.591 32.1387 142.908 27.3252 143.193 22.5437L143.384 19.8028C143.511 17.6036 143.67 15.3716 143.035 13.2679L143.034 13.2695ZM33.6845 52.4785C32.1298 52.4464 30.6063 52.4464 29.0515 52.4464H26.7986H25.7195H25.18H25.1481C25.1481 52.4143 25.18 52.3823 25.18 52.351C25.212 52.1594 25.2439 52.0007 25.275 51.809C25.3389 51.3625 25.4338 50.9167 25.4969 50.4702C25.6557 49.6412 25.8145 48.781 25.9725 47.9199C26.0364 47.5374 25.8456 47.123 25.433 46.9955C25.0843 46.9001 24.6078 47.123 24.5447 47.5374C24.3229 48.8763 24.0691 50.2472 23.8464 51.5862C23.7195 52.1603 23.4338 52.9572 23.7514 53.4671C24.0691 54.0411 24.8935 53.9136 25.433 53.9136C28.1937 53.9136 30.9231 53.9136 33.6837 53.9457C34.6039 53.9457 34.6039 52.4793 33.6837 52.4793L33.6845 52.4785ZM95.7522 64.7512C94.1656 64.8466 92.6109 64.8787 91.0555 64.9107H88.7076C88.3269 64.9107 87.9781 64.9107 87.5966 64.8787C87.4059 64.8787 87.184 64.9107 86.9621 64.9107V64.6237V63.9222C86.9621 63.4444 86.9941 62.9978 87.0571 62.52C87.121 61.5636 87.279 60.6392 87.5017 59.7148C87.6924 58.8225 86.2957 58.408 86.0739 59.3324C85.7882 60.7346 85.5663 62.1376 85.5024 63.5718C85.4705 64.1771 85.3755 64.974 85.5343 65.5801C85.7562 66.2816 86.4545 66.345 87.0571 66.345C89.9446 66.4091 92.864 66.377 95.7516 66.2175C96.6718 66.1534 96.6718 64.6878 95.7516 64.7512L95.7522 64.7512ZM79.7912 65.4527C78.2365 65.5481 76.681 65.5802 75.0945 65.6122H72.7466C72.3978 65.6122 72.0171 65.6122 71.6675 65.5802C71.4768 65.5802 71.223 65.6122 71.0011 65.6122V65.3252V64.6237C71.0331 64.1459 71.065 63.6993 71.0961 63.2215C71.1911 62.2651 71.3499 61.3407 71.5407 60.4483C71.7314 59.524 70.3348 59.1095 70.1448 60.0338C69.8272 61.436 69.6372 62.8391 69.5734 64.2733C69.5414 64.8786 69.4145 65.6755 69.6053 66.2816C69.796 66.9831 70.4936 67.0464 71.128 67.0464C74.0156 67.1106 76.9031 67.0785 79.7913 66.919C80.7434 66.8548 80.7433 65.3894 79.7912 65.4527ZM63.9881 65.5168C61.5133 65.7085 59.0377 65.8672 56.5626 65.9313H55.6744H55.3567V65.7397C55.3886 65.5481 55.4206 65.3573 55.4206 65.1978L55.5155 64.3054C55.6744 63.062 55.8012 61.8194 55.9601 60.5758C55.992 60.1934 55.5794 59.8431 55.2306 59.8431C54.7861 59.8431 54.5323 60.1934 54.5012 60.5758C54.3423 62.0101 54.1835 63.4131 53.9936 64.8473C53.9297 65.4213 53.7398 66.122 53.9617 66.696C54.2474 67.3334 54.8499 67.4288 55.4844 67.3975C58.3088 67.3655 61.1645 67.2059 63.9889 66.9831C64.9091 66.8877 64.9091 65.4213 63.9889 65.5167L63.9881 65.5168ZM48.9155 65.5489L44.7902 65.581L42.791 65.613H41.7758C41.617 65.613 41.3951 65.6451 41.1733 65.6451C41.2052 65.613 41.2052 65.5497 41.2052 65.5176C41.2052 65.2948 41.2371 65.0711 41.269 64.8482C41.3009 64.4337 41.364 64.0192 41.3959 63.6047C41.5228 62.7758 41.6497 61.9155 41.8405 61.0865C41.9993 60.1621 40.6026 59.7797 40.4127 60.704C40.1589 61.9475 39.9681 63.2223 39.8412 64.4969C39.7774 65.0709 39.6194 65.7403 39.7463 66.3136C39.937 67.0151 40.5396 67.1105 41.174 67.1105C43.7758 67.0784 46.3464 67.0463 48.917 67.0151C49.8692 67.0151 49.8692 65.5487 48.917 65.5487L48.9155 65.5489ZM32.4461 65.6443C30.9234 65.6443 29.3998 65.6443 27.845 65.6122H25.5921H24.4812H23.9416C23.9416 65.5802 23.9736 65.5481 23.9736 65.5168C24.0055 65.3252 24.0374 65.1665 24.0685 64.9749C24.1324 64.5283 24.2274 64.1138 24.2904 63.6681C24.4492 62.807 24.608 61.9468 24.7349 61.0858C24.7988 60.7033 24.64 60.2889 24.2274 60.1934C23.8786 60.098 23.4021 60.2888 23.3391 60.7033C23.0853 62.0422 22.8634 63.4131 22.6096 64.7833C22.5146 65.3253 22.2289 66.1222 22.5146 66.632C22.8634 67.2061 23.6886 67.0786 24.2281 67.0786C26.9567 67.0786 29.7182 67.1107 32.447 67.1107C33.3991 67.1107 33.3991 65.6443 32.447 65.6443L32.4461 65.6443ZM95.4987 52.2877C93.944 52.3519 92.3574 52.4152 90.802 52.4473H88.454C88.0733 52.4473 87.7246 52.4152 87.375 52.4152C87.1532 52.4152 86.9305 52.4473 86.7086 52.4152V52.1602V51.4587C86.7405 50.9809 86.7725 50.5023 86.8036 50.0565C86.8986 49.1001 87.0254 48.1757 87.2481 47.2513C87.4389 46.3269 86.0422 45.9445 85.8203 46.8689C85.5346 48.2711 85.3447 49.6741 85.2808 51.1083C85.2489 51.7136 85.122 52.5105 85.3127 53.0846C85.5035 53.8173 86.201 53.8494 86.8355 53.8815C89.723 53.9456 92.6106 53.9135 95.4987 53.754C96.4189 53.6899 96.4508 52.2244 95.4987 52.2877ZM79.6645 52.3519C77.2208 52.5435 74.746 52.7022 72.2709 52.7663H71.3507H71.065V52.5435C71.0969 52.3839 71.0969 52.1931 71.1289 52.0336L71.2238 51.1413C71.3507 49.8978 71.5095 48.6552 71.6364 47.4116C71.7003 47.0292 71.2877 46.6789 70.907 46.6789C70.4944 46.6789 70.2406 47.0292 70.1775 47.4116L69.7019 51.6831C69.638 52.2571 69.4481 52.9578 69.67 53.4998C69.9238 54.1692 70.5582 54.2646 71.1927 54.2325C74.0171 54.2005 76.8409 54.0409 79.6653 53.8181C80.6174 53.7227 80.6174 52.2563 79.6653 52.3517L79.6645 52.3519ZM64.6238 52.3839L60.4985 52.416L58.4674 52.4481H57.4833C57.2926 52.4481 57.1026 52.4801 56.8808 52.4801V52.3206C56.9127 52.129 56.9446 51.9061 56.9446 51.6832C57.0084 51.2687 57.0396 50.8542 57.1034 50.4398C57.2303 49.6108 57.3572 48.7505 57.516 47.9215C57.7068 46.9971 56.3101 46.5826 56.1202 47.507C55.8664 48.7817 55.6756 50.0573 55.5487 51.332C55.4849 51.9061 55.2949 52.5755 55.4538 53.1175C55.6445 53.8502 56.2471 53.9464 56.8816 53.9144L64.6245 53.8502C65.5447 53.8502 65.5447 52.3839 64.6245 52.3839L64.6238 52.3839ZM48.1544 52.4793C46.6317 52.4473 45.0763 52.4473 43.5533 52.4473H41.2683H40.1893H39.6498V52.3519L39.7448 51.8099C39.8397 51.3633 39.9036 50.9176 39.9986 50.471C40.1574 49.6421 40.2843 48.7818 40.4431 47.9207C40.5069 47.5383 40.3481 47.1238 39.9355 46.9964C39.5867 46.9009 39.1103 47.1238 39.0472 47.5383C38.7934 48.8772 38.5716 50.2481 38.3178 51.5871C38.2228 52.1611 37.9052 52.958 38.2228 53.4679C38.5716 54.0419 39.3648 53.9145 39.9363 53.9145C42.6649 53.9145 45.4263 53.9145 48.1551 53.9465C49.1073 53.9465 49.1073 52.4802 48.1551 52.4802L48.1544 52.4793ZM113.747 39.6334C112.192 39.6975 110.605 39.7608 109.05 39.7929H106.702C106.353 39.7929 105.972 39.7608 105.623 39.7608C105.432 39.7608 105.178 39.7929 104.956 39.7608V39.5059V38.8044C104.988 38.3266 105.02 37.8479 105.051 37.4022C105.146 36.4457 105.305 35.5213 105.496 34.597C105.687 33.6726 104.29 33.2902 104.1 34.2145C103.782 35.6167 103.593 37.0198 103.529 38.454C103.497 39.0593 103.37 39.8562 103.561 40.4302C103.751 41.163 104.449 41.1951 105.083 41.2271C107.971 41.2913 110.858 41.2592 113.747 41.0996C114.699 41.0355 114.699 39.57 113.747 39.6334ZM97.9435 39.6975C95.4686 39.8891 92.993 40.0479 90.518 40.112H89.6297H89.312V39.8891C89.344 39.7296 89.344 39.5388 89.3759 39.3792L89.4709 38.4869C89.6297 37.2434 89.7566 36.0008 89.9154 34.7573C89.9473 34.3749 89.5347 34.0245 89.186 34.0245C88.7414 34.0245 88.4876 34.3749 88.4565 34.7573C88.2977 36.1595 88.1077 37.5945 87.9489 39.0287C87.8851 39.6028 87.6951 40.3035 87.917 40.8454C88.2027 41.5149 88.8053 41.6103 89.4397 41.5782C92.2641 41.5461 95.1198 41.3866 97.9442 41.1637C98.8644 41.0683 98.8644 39.602 97.9442 39.6974L97.9435 39.6975ZM82.8708 39.7296L78.7456 39.7616L76.7463 39.7937H75.7311C75.5723 39.7937 75.3504 39.8258 75.1286 39.8258C75.1286 39.7937 75.1605 39.7304 75.1605 39.6662C75.1605 39.4746 75.1924 39.2518 75.2244 39.0289C75.2563 38.6144 75.3193 38.1999 75.3513 37.7854C75.4781 36.9564 75.6051 36.0962 75.7958 35.2671C75.9546 34.3427 74.558 33.9283 74.368 34.8526C74.1142 36.1274 73.9235 37.4029 73.7966 38.6777C73.7327 39.2517 73.5428 39.9212 73.7016 40.4631C73.8923 41.1959 74.4949 41.2921 75.1294 41.26C77.7 41.26 80.3017 41.2279 82.8724 41.1959C83.8245 41.1959 83.8245 39.7295 82.8724 39.7295L82.8708 39.7296ZM66.4015 39.825C64.8787 39.7929 63.3233 39.7929 61.8004 39.7929H59.5474H58.4365H57.897C57.897 39.7608 57.9289 39.7288 57.9289 39.6975C57.9608 39.5059 57.9928 39.3472 58.0239 39.1556C58.0877 38.709 58.1827 38.2632 58.2457 37.8167C58.4046 36.9877 58.5634 36.1275 58.6903 35.2664C58.7541 34.884 58.5953 34.4695 58.1827 34.342C57.8339 34.2466 57.3575 34.4695 57.2944 34.884C57.0406 36.2228 56.8187 37.5937 56.565 38.9327C56.47 39.5068 56.1843 40.3037 56.47 40.8136C56.8187 41.3876 57.612 41.2601 58.1835 41.2601C60.9121 41.2601 63.6735 41.2601 66.4023 41.2922C67.3544 41.2922 67.3544 39.8259 66.4023 39.8259L66.4015 39.825ZM112.731 52.2886C111.176 52.3527 109.59 52.4161 108.034 52.4481H105.686C105.306 52.4481 104.957 52.4161 104.607 52.4161C104.417 52.4161 104.163 52.4481 103.941 52.4161V52.1611V51.4596C103.973 50.9818 104.005 50.5031 104.036 50.0574C104.131 49.1009 104.29 48.1766 104.481 47.2522C104.671 46.3278 103.275 45.9454 103.085 46.8698C102.767 48.272 102.577 49.675 102.513 51.1092C102.481 51.7145 102.354 52.5114 102.545 53.0854C102.736 53.8182 103.433 53.8503 104.068 53.8823C106.955 53.9465 109.843 53.9144 112.731 53.7549C113.651 53.6907 113.683 52.2252 112.731 52.2886Z" fill="#989898"/>
</svg>
