<svg width="20" height="20" viewBox="0 0 20 20" fill="none" xmlns="http://www.w3.org/2000/svg">
<g clip-path="url(#clip0_7631_17669)">
<path fill-rule="evenodd" clip-rule="evenodd" d="M10 0.833313C4.9374 0.833313 0.833344 4.93737 0.833344 9.99998C0.833344 15.0626 4.9374 19.1666 10 19.1666C15.0626 19.1666 19.1667 15.0626 19.1667 9.99998C19.1667 4.93737 15.0626 0.833313 10 0.833313ZM14.8801 8.20069C15.2671 7.80666 15.2614 7.17352 14.8674 6.78653C14.4734 6.39954 13.8402 6.40525 13.4532 6.79927L8.43751 11.9062L6.54679 9.98109C6.1598 9.58706 5.52666 9.58136 5.13264 9.96835C4.73861 10.3553 4.73291 10.9885 5.1199 11.3825L7.01061 13.3076C7.79447 14.1057 9.08055 14.1057 9.86441 13.3076L14.8801 8.20069Z" fill="#F1F2F0"/>
</g>
<defs>
<clipPath id="clip0_7631_17669">
<rect width="20" height="20" fill="white"/>
</clipPath>
</defs>
</svg>
