<svg width="20" height="21" viewBox="0 0 20 21" fill="none" xmlns="http://www.w3.org/2000/svg">
<path fill-rule="evenodd" clip-rule="evenodd" d="M10 1.02087C4.93739 1.02087 0.833336 5.12493 0.833336 10.1875C0.833336 15.2501 4.93739 19.3542 10 19.3542C15.0626 19.3542 19.1667 15.2501 19.1667 10.1875C19.1667 5.12493 15.0626 1.02087 10 1.02087ZM14.8801 8.38825C15.2671 7.99422 15.2614 7.36108 14.8674 6.97409C14.4734 6.5871 13.8402 6.59281 13.4532 6.98683L8.4375 12.0937L6.54678 10.1687C6.15979 9.77462 5.52665 9.76892 5.13263 10.1559C4.7386 10.5429 4.7329 11.176 5.11989 11.5701L7.01061 13.4952C7.79447 14.2933 9.08054 14.2933 9.8644 13.4952L14.8801 8.38825Z" fill="#82BB08"/>
</svg>
