<svg width="20" height="21" viewBox="0 0 20 21" fill="none" xmlns="http://www.w3.org/2000/svg">
<path fill-rule="evenodd" clip-rule="evenodd" d="M0.833344 10.1875C0.833344 5.12493 4.9374 1.02087 10 1.02087C15.0626 1.02087 19.1667 5.12493 19.1667 10.1875C19.1667 15.2501 15.0626 19.3542 10 19.3542C4.9374 19.3542 0.833344 15.2501 0.833344 10.1875Z" fill="#F1F2F0"/>
<path d="M6.91291 6.34418C6.70401 6.13527 6.36559 6.13527 6.15668 6.34418C5.94777 6.55309 5.94777 6.8915 6.15668 7.1L9.24417 10.1875L6.15668 13.275C5.94777 13.4835 5.94777 13.8223 6.15668 14.0308C6.36559 14.2397 6.70401 14.2397 6.91291 14.0308L10 10.9437L13.0875 14.0308C13.296 14.2397 13.6348 14.2397 13.8433 14.0308C14.0522 13.8223 14.0522 13.4835 13.8433 13.275L10.7562 10.1875L13.8433 7.1C14.0522 6.8915 14.0522 6.55309 13.8433 6.34418C13.6348 6.13527 13.2964 6.13527 13.0875 6.34418L10 9.43127L6.91291 6.34418Z" fill="#2C2C2C" stroke="#303030"/>
</svg>
