<svg width="1440" height="357" viewBox="0 0 1440 357" fill="none" xmlns="http://www.w3.org/2000/svg">
<g filter="url(#filter0_d_7734_1330)">
<rect x="137" y="234" width="120" height="120" rx="60" fill="#272828" shape-rendering="crispEdges"/>
<path d="M207.014 272.786L173.61 292.071V280.5L197 267L207.014 272.786Z" fill="#BABBBB"/>
<path d="M220.39 280.5V287.176L179.396 310.838L173.61 307.5V301.22L214.926 277.36L220.39 280.5Z" fill="#BABBBB"/>
<path d="M187.308 315.412L220.39 296.324V307.5L197 321L187.308 315.412Z" fill="#BABBBB"/>
<rect x="137.5" y="234.5" width="119" height="119" rx="59.5" stroke="#BABBBB" shape-rendering="crispEdges"/>
</g>
<g filter="url(#filter1_d_7734_1330)">
<rect x="389" y="73" width="120" height="120" rx="60" fill="#272828" shape-rendering="crispEdges"/>
<path d="M459.014 111.786L425.61 131.071V119.5L449 106L459.014 111.786Z" fill="#BABBBB"/>
<path d="M472.39 119.5V126.176L431.396 149.838L425.61 146.5V140.22L466.926 116.36L472.39 119.5Z" fill="#BABBBB"/>
<path d="M439.308 154.412L472.39 135.324V146.5L449 160L439.308 154.412Z" fill="#BABBBB"/>
<rect x="389.5" y="73.5" width="119" height="119" rx="59.5" stroke="#BABBBB" shape-rendering="crispEdges"/>
</g>
<g filter="url(#filter2_d_7734_1330)">
<rect x="85" y="3" width="120" height="120" rx="60" fill="#272828" shape-rendering="crispEdges"/>
<path d="M155.014 41.7857L121.61 61.0714V49.5L145 36L155.014 41.7857Z" fill="#BABBBB"/>
<path d="M168.39 49.5V56.1758L127.396 79.8379L121.61 76.5V70.2198L162.926 46.3599L168.39 49.5Z" fill="#BABBBB"/>
<path d="M135.308 84.4121L168.39 65.3242V76.5L145 90L135.308 84.4121Z" fill="#BABBBB"/>
<rect x="85.5" y="3.5" width="119" height="119" rx="59.5" stroke="#BABBBB" shape-rendering="crispEdges"/>
</g>
<g filter="url(#filter3_d_7734_1330)">
<rect x="214" y="109" width="88" height="88" rx="44" fill="#272828" shape-rendering="crispEdges"/>
<path d="M265.788 136.5L239.808 151.5V142.5L258 132L265.788 136.5Z" fill="#BABBBB"/>
<path d="M276.192 142.5V147.692L244.308 166.096L239.808 163.5V158.615L271.942 140.058L276.192 142.5Z" fill="#BABBBB"/>
<path d="M250.461 169.654L276.192 154.808V163.5L258 174L250.461 169.654Z" fill="#BABBBB"/>
<rect x="214.5" y="109.5" width="87" height="87" rx="43.5" stroke="#BABBBB" shape-rendering="crispEdges"/>
</g>
<g filter="url(#filter4_d_7734_1330)">
<rect x="20" y="146" width="88" height="88" rx="44" fill="#272828" shape-rendering="crispEdges"/>
<path d="M71.7884 173.5L45.8076 188.5V179.5L64 169L71.7884 173.5Z" fill="#BABBBB"/>
<path d="M82.1923 179.5V184.692L50.3076 203.096L45.8076 200.5V195.615L77.9423 177.058L82.1923 179.5Z" fill="#BABBBB"/>
<path d="M56.4615 206.654L82.1923 191.808V200.5L64 211L56.4615 206.654Z" fill="#BABBBB"/>
<rect x="20.5" y="146.5" width="87" height="87" rx="43.5" stroke="#BABBBB" shape-rendering="crispEdges"/>
</g>
<g filter="url(#filter5_d_7734_1330)">
<rect x="313" y="207" width="88" height="88" rx="44" fill="#272828" shape-rendering="crispEdges"/>
<path d="M364.788 234.5L338.808 249.5V240.5L357 230L364.788 234.5Z" fill="#BABBBB"/>
<path d="M375.192 240.5V245.692L343.308 264.096L338.808 261.5V256.615L370.942 238.058L375.192 240.5Z" fill="#BABBBB"/>
<path d="M349.461 267.654L375.192 252.808V261.5L357 272L349.461 267.654Z" fill="#BABBBB"/>
<rect x="313.5" y="207.5" width="87" height="87" rx="43.5" stroke="#BABBBB" shape-rendering="crispEdges"/>
</g>
<g filter="url(#filter6_d_7734_1330)">
<rect x="533" y="1" width="88" height="88" rx="44" fill="#272828" shape-rendering="crispEdges"/>
<path d="M584.788 28.5L558.808 43.5V34.5L577 24L584.788 28.5Z" fill="#BABBBB"/>
<path d="M595.192 34.5V39.6923L563.308 58.0962L558.808 55.5V50.6154L590.942 32.0577L595.192 34.5Z" fill="#BABBBB"/>
<path d="M569.461 61.6538L595.192 46.8077V55.5L577 66L569.461 61.6538Z" fill="#BABBBB"/>
<rect x="533.5" y="1.5" width="87" height="87" rx="43.5" stroke="#BABBBB" shape-rendering="crispEdges"/>
</g>
<g filter="url(#filter7_d_7734_1330)">
<rect x="827" y="235" width="88" height="88" rx="44" fill="#272828" shape-rendering="crispEdges"/>
<path d="M878.788 262.5L852.808 277.5V268.5L871 258L878.788 262.5Z" fill="#BABBBB"/>
<path d="M889.192 268.5V273.692L857.308 292.096L852.808 289.5V284.615L884.942 266.058L889.192 268.5Z" fill="#BABBBB"/>
<path d="M863.461 295.654L889.192 280.808V289.5L871 300L863.461 295.654Z" fill="#BABBBB"/>
<rect x="827.5" y="235.5" width="87" height="87" rx="43.5" stroke="#BABBBB" shape-rendering="crispEdges"/>
</g>
<g filter="url(#filter8_d_7734_1330)">
<rect x="889" y="121" width="88" height="88" rx="44" fill="#272828" shape-rendering="crispEdges"/>
<path d="M940.788 148.5L914.808 163.5V154.5L933 144L940.788 148.5Z" fill="#BABBBB"/>
<path d="M951.192 154.5V159.692L919.308 178.096L914.808 175.5V170.615L946.942 152.058L951.192 154.5Z" fill="#BABBBB"/>
<path d="M925.461 181.654L951.192 166.808V175.5L933 186L925.461 181.654Z" fill="#BABBBB"/>
<rect x="889.5" y="121.5" width="87" height="87" rx="43.5" stroke="#BABBBB" shape-rendering="crispEdges"/>
</g>
<g filter="url(#filter9_d_7734_1330)">
<rect x="585" y="123" width="64" height="64" rx="32" fill="#272828" shape-rendering="crispEdges"/>
<path d="M622.563 143.214L604.005 153.929V147.5L617 140L622.563 143.214Z" fill="#BABBBB"/>
<path d="M629.995 147.5V151.209L607.22 164.354L604.005 162.5V159.011L626.959 145.755L629.995 147.5Z" fill="#BABBBB"/>
<path d="M611.615 166.896L629.995 156.291V162.5L617 170L611.615 166.896Z" fill="#BABBBB"/>
<rect x="585.5" y="123.5" width="63" height="63" rx="31.5" stroke="#BABBBB" shape-rendering="crispEdges"/>
</g>
<g filter="url(#filter10_d_7734_1330)">
<rect x="1001" y="204" width="64" height="64" rx="32" fill="#272828" shape-rendering="crispEdges"/>
<path d="M1038.56 224.214L1020.01 234.929V228.5L1033 221L1038.56 224.214Z" fill="#BABBBB"/>
<path d="M1045.99 228.5V232.209L1023.22 245.354L1020.01 243.5V240.011L1042.96 226.755L1045.99 228.5Z" fill="#BABBBB"/>
<path d="M1027.62 247.896L1045.99 237.291V243.5L1033 251L1027.62 247.896Z" fill="#BABBBB"/>
<rect x="1001.5" y="204.5" width="63" height="63" rx="31.5" stroke="#BABBBB" shape-rendering="crispEdges"/>
</g>
<g filter="url(#filter11_d_7734_1330)">
<rect x="1141" y="24" width="64" height="64" rx="32" fill="#272828" shape-rendering="crispEdges"/>
<path d="M1178.56 44.2143L1160.01 54.9286V48.5L1173 41L1178.56 44.2143Z" fill="#BABBBB"/>
<path d="M1185.99 48.5V52.2088L1163.22 65.3544L1160.01 63.5V60.011L1182.96 46.7555L1185.99 48.5Z" fill="#BABBBB"/>
<path d="M1167.62 67.8956L1185.99 57.2912V63.5L1173 71L1167.62 67.8956Z" fill="#BABBBB"/>
<rect x="1141.5" y="24.5" width="63" height="63" rx="31.5" stroke="#BABBBB" shape-rendering="crispEdges"/>
</g>
<g filter="url(#filter12_d_7734_1330)">
<rect x="1253" y="246" width="64" height="64" rx="32" fill="#272828" shape-rendering="crispEdges"/>
<path d="M1290.56 266.214L1272.01 276.929V270.5L1285 263L1290.56 266.214Z" fill="#BABBBB"/>
<path d="M1297.99 270.5V274.209L1275.22 287.354L1272.01 285.5V282.011L1294.96 268.755L1297.99 270.5Z" fill="#BABBBB"/>
<path d="M1279.62 289.896L1297.99 279.291V285.5L1285 293L1279.62 289.896Z" fill="#BABBBB"/>
<rect x="1253.5" y="246.5" width="63" height="63" rx="31.5" stroke="#BABBBB" shape-rendering="crispEdges"/>
</g>
<g filter="url(#filter13_d_7734_1330)">
<rect x="297" y="24" width="64" height="64" rx="32" fill="#272828" shape-rendering="crispEdges"/>
<path d="M334.563 44.2143L316.005 54.9286V48.5L329 41L334.563 44.2143Z" fill="#BABBBB"/>
<path d="M341.995 48.5V52.2088L319.22 65.3544L316.005 63.5V60.011L338.959 46.7555L341.995 48.5Z" fill="#BABBBB"/>
<path d="M323.615 67.8956L341.995 57.2912V63.5L329 71L323.615 67.8956Z" fill="#BABBBB"/>
<rect x="297.5" y="24.5" width="63" height="63" rx="31.5" stroke="#BABBBB" shape-rendering="crispEdges"/>
</g>
<g filter="url(#filter14_d_7734_1330)">
<rect x="-42" y="74" width="64" height="64" rx="32" fill="#272828" shape-rendering="crispEdges"/>
<path d="M-4.43685 94.2143L-22.9945 104.929V98.5L-10 91L-4.43685 94.2143Z" fill="#BABBBB"/>
<path d="M2.99447 98.5V102.209L-19.7803 115.354L-22.9945 113.5V110.011L-0.0412426 96.7555L2.99447 98.5Z" fill="#BABBBB"/>
<path d="M-15.3846 117.896L2.99447 107.291V113.5L-10 121L-15.3846 117.896Z" fill="#BABBBB"/>
<rect x="-41.5" y="74.5" width="63" height="63" rx="31.5" stroke="#BABBBB" shape-rendering="crispEdges"/>
</g>
<g filter="url(#filter15_d_7734_1330)">
<rect x="-2" y="275" width="64" height="64" rx="32" fill="#272828" shape-rendering="crispEdges"/>
<path d="M35.5632 295.214L17.0055 305.929V299.5L30 292L35.5632 295.214Z" fill="#BABBBB"/>
<path d="M42.9945 299.5V303.209L20.2197 316.354L17.0055 314.5V311.011L39.9588 297.755L42.9945 299.5Z" fill="#BABBBB"/>
<path d="M24.6154 318.896L42.9945 308.291V314.5L30 322L24.6154 318.896Z" fill="#BABBBB"/>
<rect x="-1.5" y="275.5" width="63" height="63" rx="31.5" stroke="#BABBBB" shape-rendering="crispEdges"/>
</g>
<g filter="url(#filter16_d_7734_1330)">
<rect x="1125" y="188" width="88" height="88" rx="44" fill="#272828" shape-rendering="crispEdges"/>
<path d="M1176.79 215.5L1150.81 230.5V221.5L1169 211L1176.79 215.5Z" fill="#BABBBB"/>
<path d="M1187.19 221.5V226.692L1155.31 245.096L1150.81 242.5V237.615L1182.94 219.058L1187.19 221.5Z" fill="#BABBBB"/>
<path d="M1161.46 248.654L1187.19 233.808V242.5L1169 253L1161.46 248.654Z" fill="#BABBBB"/>
<rect x="1125.5" y="188.5" width="87" height="87" rx="43.5" stroke="#BABBBB" shape-rendering="crispEdges"/>
</g>
<g filter="url(#filter17_d_7734_1330)">
<rect x="1353" y="199" width="88" height="88" rx="44" fill="#272828" shape-rendering="crispEdges"/>
<path d="M1404.79 226.5L1378.81 241.5V232.5L1397 222L1404.79 226.5Z" fill="#BABBBB"/>
<path d="M1415.19 232.5V237.692L1383.31 256.096L1378.81 253.5V248.615L1410.94 230.058L1415.19 232.5Z" fill="#BABBBB"/>
<path d="M1389.46 259.654L1415.19 244.808V253.5L1397 264L1389.46 259.654Z" fill="#BABBBB"/>
<rect x="1353.5" y="199.5" width="87" height="87" rx="43.5" stroke="#BABBBB" shape-rendering="crispEdges"/>
</g>
<g filter="url(#filter18_d_7734_1330)">
<rect x="1369" y="13" width="88" height="88" rx="44" fill="#272828" shape-rendering="crispEdges"/>
<path d="M1420.79 40.5L1394.81 55.5V46.5L1413 36L1420.79 40.5Z" fill="#BABBBB"/>
<path d="M1431.19 46.5V51.6923L1399.31 70.0962L1394.81 67.5V62.6154L1426.94 44.0577L1431.19 46.5Z" fill="#BABBBB"/>
<path d="M1405.46 73.6538L1431.19 58.8077V67.5L1413 78L1405.46 73.6538Z" fill="#BABBBB"/>
<rect x="1369.5" y="13.5" width="87" height="87" rx="43.5" stroke="#BABBBB" shape-rendering="crispEdges"/>
</g>
<g filter="url(#filter19_d_7734_1330)">
<rect x="501" y="220" width="120" height="120" rx="60" fill="#272828" shape-rendering="crispEdges"/>
<path d="M571.014 258.786L537.61 278.071V266.5L561 253L571.014 258.786Z" fill="#BABBBB"/>
<path d="M584.39 266.5V273.176L543.396 296.838L537.61 293.5V287.22L578.926 263.36L584.39 266.5Z" fill="#BABBBB"/>
<path d="M551.308 301.412L584.39 282.324V293.5L561 307L551.308 301.412Z" fill="#BABBBB"/>
<rect x="501.5" y="220.5" width="119" height="119" rx="59.5" stroke="#BABBBB" shape-rendering="crispEdges"/>
</g>
<g filter="url(#filter20_d_7734_1330)">
<rect x="740" y="13" width="120" height="120" rx="60" fill="#272828" shape-rendering="crispEdges"/>
<path d="M810.014 51.7857L776.61 71.0714V59.5L800 46L810.014 51.7857Z" fill="#BABBBB"/>
<path d="M823.39 59.5V66.1758L782.396 89.8379L776.61 86.5V80.2198L817.926 56.3599L823.39 59.5Z" fill="#BABBBB"/>
<path d="M790.308 94.4121L823.39 75.3242V86.5L800 100L790.308 94.4121Z" fill="#BABBBB"/>
<rect x="740.5" y="13.5" width="119" height="119" rx="59.5" stroke="#BABBBB" shape-rendering="crispEdges"/>
</g>
<g filter="url(#filter21_d_7734_1330)">
<rect x="666" y="160" width="120" height="120" rx="60" fill="#272828" shape-rendering="crispEdges"/>
<path d="M736.014 198.786L702.61 218.071V206.5L726 193L736.014 198.786Z" fill="#BABBBB"/>
<path d="M749.39 206.5V213.176L708.396 236.838L702.61 233.5V227.22L743.926 203.36L749.39 206.5Z" fill="#BABBBB"/>
<path d="M716.308 241.412L749.39 222.324V233.5L726 247L716.308 241.412Z" fill="#BABBBB"/>
<rect x="666.5" y="160.5" width="119" height="119" rx="59.5" stroke="#BABBBB" shape-rendering="crispEdges"/>
</g>
<g filter="url(#filter22_d_7734_1330)">
<rect x="1225" y="81" width="120" height="120" rx="60" fill="#272828" shape-rendering="crispEdges"/>
<path d="M1295.01 119.786L1261.61 139.071V127.5L1285 114L1295.01 119.786Z" fill="#BABBBB"/>
<path d="M1308.39 127.5V134.176L1267.4 157.838L1261.61 154.5V148.22L1302.93 124.36L1308.39 127.5Z" fill="#BABBBB"/>
<path d="M1275.31 162.412L1308.39 143.324V154.5L1285 168L1275.31 162.412Z" fill="#BABBBB"/>
<rect x="1225.5" y="81.5" width="119" height="119" rx="59.5" stroke="#BABBBB" shape-rendering="crispEdges"/>
</g>
<g filter="url(#filter23_d_7734_1330)">
<rect x="986" y="24" width="120" height="120" rx="60" fill="#272828" shape-rendering="crispEdges"/>
<path d="M1056.01 62.7857L1022.61 82.0714V70.5L1046 57L1056.01 62.7857Z" fill="#BABBBB"/>
<path d="M1069.39 70.5V77.1758L1028.4 100.838L1022.61 97.5V91.2198L1063.93 67.3599L1069.39 70.5Z" fill="#BABBBB"/>
<path d="M1036.31 105.412L1069.39 86.3242V97.5L1046 111L1036.31 105.412Z" fill="#BABBBB"/>
<rect x="986.5" y="24.5" width="119" height="119" rx="59.5" stroke="#BABBBB" shape-rendering="crispEdges"/>
</g>
<defs>
<filter id="filter0_d_7734_1330" x="135" y="233" width="124" height="124" filterUnits="userSpaceOnUse" color-interpolation-filters="sRGB">
<feFlood flood-opacity="0" result="BackgroundImageFix"/>
<feColorMatrix in="SourceAlpha" type="matrix" values="0 0 0 0 0 0 0 0 0 0 0 0 0 0 0 0 0 0 127 0" result="hardAlpha"/>
<feOffset dy="1"/>
<feGaussianBlur stdDeviation="1"/>
<feComposite in2="hardAlpha" operator="out"/>
<feColorMatrix type="matrix" values="0 0 0 0 0.0627451 0 0 0 0 0.0941176 0 0 0 0 0.156863 0 0 0 0.05 0"/>
<feBlend mode="normal" in2="BackgroundImageFix" result="effect1_dropShadow_7734_1330"/>
<feBlend mode="normal" in="SourceGraphic" in2="effect1_dropShadow_7734_1330" result="shape"/>
</filter>
<filter id="filter1_d_7734_1330" x="387" y="72" width="124" height="124" filterUnits="userSpaceOnUse" color-interpolation-filters="sRGB">
<feFlood flood-opacity="0" result="BackgroundImageFix"/>
<feColorMatrix in="SourceAlpha" type="matrix" values="0 0 0 0 0 0 0 0 0 0 0 0 0 0 0 0 0 0 127 0" result="hardAlpha"/>
<feOffset dy="1"/>
<feGaussianBlur stdDeviation="1"/>
<feComposite in2="hardAlpha" operator="out"/>
<feColorMatrix type="matrix" values="0 0 0 0 0.0627451 0 0 0 0 0.0941176 0 0 0 0 0.156863 0 0 0 0.05 0"/>
<feBlend mode="normal" in2="BackgroundImageFix" result="effect1_dropShadow_7734_1330"/>
<feBlend mode="normal" in="SourceGraphic" in2="effect1_dropShadow_7734_1330" result="shape"/>
</filter>
<filter id="filter2_d_7734_1330" x="83" y="2" width="124" height="124" filterUnits="userSpaceOnUse" color-interpolation-filters="sRGB">
<feFlood flood-opacity="0" result="BackgroundImageFix"/>
<feColorMatrix in="SourceAlpha" type="matrix" values="0 0 0 0 0 0 0 0 0 0 0 0 0 0 0 0 0 0 127 0" result="hardAlpha"/>
<feOffset dy="1"/>
<feGaussianBlur stdDeviation="1"/>
<feComposite in2="hardAlpha" operator="out"/>
<feColorMatrix type="matrix" values="0 0 0 0 0.0627451 0 0 0 0 0.0941176 0 0 0 0 0.156863 0 0 0 0.05 0"/>
<feBlend mode="normal" in2="BackgroundImageFix" result="effect1_dropShadow_7734_1330"/>
<feBlend mode="normal" in="SourceGraphic" in2="effect1_dropShadow_7734_1330" result="shape"/>
</filter>
<filter id="filter3_d_7734_1330" x="212" y="108" width="92" height="92" filterUnits="userSpaceOnUse" color-interpolation-filters="sRGB">
<feFlood flood-opacity="0" result="BackgroundImageFix"/>
<feColorMatrix in="SourceAlpha" type="matrix" values="0 0 0 0 0 0 0 0 0 0 0 0 0 0 0 0 0 0 127 0" result="hardAlpha"/>
<feOffset dy="1"/>
<feGaussianBlur stdDeviation="1"/>
<feComposite in2="hardAlpha" operator="out"/>
<feColorMatrix type="matrix" values="0 0 0 0 0.0627451 0 0 0 0 0.0941176 0 0 0 0 0.156863 0 0 0 0.05 0"/>
<feBlend mode="normal" in2="BackgroundImageFix" result="effect1_dropShadow_7734_1330"/>
<feBlend mode="normal" in="SourceGraphic" in2="effect1_dropShadow_7734_1330" result="shape"/>
</filter>
<filter id="filter4_d_7734_1330" x="18" y="145" width="92" height="92" filterUnits="userSpaceOnUse" color-interpolation-filters="sRGB">
<feFlood flood-opacity="0" result="BackgroundImageFix"/>
<feColorMatrix in="SourceAlpha" type="matrix" values="0 0 0 0 0 0 0 0 0 0 0 0 0 0 0 0 0 0 127 0" result="hardAlpha"/>
<feOffset dy="1"/>
<feGaussianBlur stdDeviation="1"/>
<feComposite in2="hardAlpha" operator="out"/>
<feColorMatrix type="matrix" values="0 0 0 0 0.0627451 0 0 0 0 0.0941176 0 0 0 0 0.156863 0 0 0 0.05 0"/>
<feBlend mode="normal" in2="BackgroundImageFix" result="effect1_dropShadow_7734_1330"/>
<feBlend mode="normal" in="SourceGraphic" in2="effect1_dropShadow_7734_1330" result="shape"/>
</filter>
<filter id="filter5_d_7734_1330" x="311" y="206" width="92" height="92" filterUnits="userSpaceOnUse" color-interpolation-filters="sRGB">
<feFlood flood-opacity="0" result="BackgroundImageFix"/>
<feColorMatrix in="SourceAlpha" type="matrix" values="0 0 0 0 0 0 0 0 0 0 0 0 0 0 0 0 0 0 127 0" result="hardAlpha"/>
<feOffset dy="1"/>
<feGaussianBlur stdDeviation="1"/>
<feComposite in2="hardAlpha" operator="out"/>
<feColorMatrix type="matrix" values="0 0 0 0 0.0627451 0 0 0 0 0.0941176 0 0 0 0 0.156863 0 0 0 0.05 0"/>
<feBlend mode="normal" in2="BackgroundImageFix" result="effect1_dropShadow_7734_1330"/>
<feBlend mode="normal" in="SourceGraphic" in2="effect1_dropShadow_7734_1330" result="shape"/>
</filter>
<filter id="filter6_d_7734_1330" x="531" y="0" width="92" height="92" filterUnits="userSpaceOnUse" color-interpolation-filters="sRGB">
<feFlood flood-opacity="0" result="BackgroundImageFix"/>
<feColorMatrix in="SourceAlpha" type="matrix" values="0 0 0 0 0 0 0 0 0 0 0 0 0 0 0 0 0 0 127 0" result="hardAlpha"/>
<feOffset dy="1"/>
<feGaussianBlur stdDeviation="1"/>
<feComposite in2="hardAlpha" operator="out"/>
<feColorMatrix type="matrix" values="0 0 0 0 0.0627451 0 0 0 0 0.0941176 0 0 0 0 0.156863 0 0 0 0.05 0"/>
<feBlend mode="normal" in2="BackgroundImageFix" result="effect1_dropShadow_7734_1330"/>
<feBlend mode="normal" in="SourceGraphic" in2="effect1_dropShadow_7734_1330" result="shape"/>
</filter>
<filter id="filter7_d_7734_1330" x="825" y="234" width="92" height="92" filterUnits="userSpaceOnUse" color-interpolation-filters="sRGB">
<feFlood flood-opacity="0" result="BackgroundImageFix"/>
<feColorMatrix in="SourceAlpha" type="matrix" values="0 0 0 0 0 0 0 0 0 0 0 0 0 0 0 0 0 0 127 0" result="hardAlpha"/>
<feOffset dy="1"/>
<feGaussianBlur stdDeviation="1"/>
<feComposite in2="hardAlpha" operator="out"/>
<feColorMatrix type="matrix" values="0 0 0 0 0.0627451 0 0 0 0 0.0941176 0 0 0 0 0.156863 0 0 0 0.05 0"/>
<feBlend mode="normal" in2="BackgroundImageFix" result="effect1_dropShadow_7734_1330"/>
<feBlend mode="normal" in="SourceGraphic" in2="effect1_dropShadow_7734_1330" result="shape"/>
</filter>
<filter id="filter8_d_7734_1330" x="887" y="120" width="92" height="92" filterUnits="userSpaceOnUse" color-interpolation-filters="sRGB">
<feFlood flood-opacity="0" result="BackgroundImageFix"/>
<feColorMatrix in="SourceAlpha" type="matrix" values="0 0 0 0 0 0 0 0 0 0 0 0 0 0 0 0 0 0 127 0" result="hardAlpha"/>
<feOffset dy="1"/>
<feGaussianBlur stdDeviation="1"/>
<feComposite in2="hardAlpha" operator="out"/>
<feColorMatrix type="matrix" values="0 0 0 0 0.0627451 0 0 0 0 0.0941176 0 0 0 0 0.156863 0 0 0 0.05 0"/>
<feBlend mode="normal" in2="BackgroundImageFix" result="effect1_dropShadow_7734_1330"/>
<feBlend mode="normal" in="SourceGraphic" in2="effect1_dropShadow_7734_1330" result="shape"/>
</filter>
<filter id="filter9_d_7734_1330" x="583" y="122" width="68" height="68" filterUnits="userSpaceOnUse" color-interpolation-filters="sRGB">
<feFlood flood-opacity="0" result="BackgroundImageFix"/>
<feColorMatrix in="SourceAlpha" type="matrix" values="0 0 0 0 0 0 0 0 0 0 0 0 0 0 0 0 0 0 127 0" result="hardAlpha"/>
<feOffset dy="1"/>
<feGaussianBlur stdDeviation="1"/>
<feComposite in2="hardAlpha" operator="out"/>
<feColorMatrix type="matrix" values="0 0 0 0 0.0627451 0 0 0 0 0.0941176 0 0 0 0 0.156863 0 0 0 0.05 0"/>
<feBlend mode="normal" in2="BackgroundImageFix" result="effect1_dropShadow_7734_1330"/>
<feBlend mode="normal" in="SourceGraphic" in2="effect1_dropShadow_7734_1330" result="shape"/>
</filter>
<filter id="filter10_d_7734_1330" x="999" y="203" width="68" height="68" filterUnits="userSpaceOnUse" color-interpolation-filters="sRGB">
<feFlood flood-opacity="0" result="BackgroundImageFix"/>
<feColorMatrix in="SourceAlpha" type="matrix" values="0 0 0 0 0 0 0 0 0 0 0 0 0 0 0 0 0 0 127 0" result="hardAlpha"/>
<feOffset dy="1"/>
<feGaussianBlur stdDeviation="1"/>
<feComposite in2="hardAlpha" operator="out"/>
<feColorMatrix type="matrix" values="0 0 0 0 0.0627451 0 0 0 0 0.0941176 0 0 0 0 0.156863 0 0 0 0.05 0"/>
<feBlend mode="normal" in2="BackgroundImageFix" result="effect1_dropShadow_7734_1330"/>
<feBlend mode="normal" in="SourceGraphic" in2="effect1_dropShadow_7734_1330" result="shape"/>
</filter>
<filter id="filter11_d_7734_1330" x="1139" y="23" width="68" height="68" filterUnits="userSpaceOnUse" color-interpolation-filters="sRGB">
<feFlood flood-opacity="0" result="BackgroundImageFix"/>
<feColorMatrix in="SourceAlpha" type="matrix" values="0 0 0 0 0 0 0 0 0 0 0 0 0 0 0 0 0 0 127 0" result="hardAlpha"/>
<feOffset dy="1"/>
<feGaussianBlur stdDeviation="1"/>
<feComposite in2="hardAlpha" operator="out"/>
<feColorMatrix type="matrix" values="0 0 0 0 0.0627451 0 0 0 0 0.0941176 0 0 0 0 0.156863 0 0 0 0.05 0"/>
<feBlend mode="normal" in2="BackgroundImageFix" result="effect1_dropShadow_7734_1330"/>
<feBlend mode="normal" in="SourceGraphic" in2="effect1_dropShadow_7734_1330" result="shape"/>
</filter>
<filter id="filter12_d_7734_1330" x="1251" y="245" width="68" height="68" filterUnits="userSpaceOnUse" color-interpolation-filters="sRGB">
<feFlood flood-opacity="0" result="BackgroundImageFix"/>
<feColorMatrix in="SourceAlpha" type="matrix" values="0 0 0 0 0 0 0 0 0 0 0 0 0 0 0 0 0 0 127 0" result="hardAlpha"/>
<feOffset dy="1"/>
<feGaussianBlur stdDeviation="1"/>
<feComposite in2="hardAlpha" operator="out"/>
<feColorMatrix type="matrix" values="0 0 0 0 0.0627451 0 0 0 0 0.0941176 0 0 0 0 0.156863 0 0 0 0.05 0"/>
<feBlend mode="normal" in2="BackgroundImageFix" result="effect1_dropShadow_7734_1330"/>
<feBlend mode="normal" in="SourceGraphic" in2="effect1_dropShadow_7734_1330" result="shape"/>
</filter>
<filter id="filter13_d_7734_1330" x="295" y="23" width="68" height="68" filterUnits="userSpaceOnUse" color-interpolation-filters="sRGB">
<feFlood flood-opacity="0" result="BackgroundImageFix"/>
<feColorMatrix in="SourceAlpha" type="matrix" values="0 0 0 0 0 0 0 0 0 0 0 0 0 0 0 0 0 0 127 0" result="hardAlpha"/>
<feOffset dy="1"/>
<feGaussianBlur stdDeviation="1"/>
<feComposite in2="hardAlpha" operator="out"/>
<feColorMatrix type="matrix" values="0 0 0 0 0.0627451 0 0 0 0 0.0941176 0 0 0 0 0.156863 0 0 0 0.05 0"/>
<feBlend mode="normal" in2="BackgroundImageFix" result="effect1_dropShadow_7734_1330"/>
<feBlend mode="normal" in="SourceGraphic" in2="effect1_dropShadow_7734_1330" result="shape"/>
</filter>
<filter id="filter14_d_7734_1330" x="-44" y="73" width="68" height="68" filterUnits="userSpaceOnUse" color-interpolation-filters="sRGB">
<feFlood flood-opacity="0" result="BackgroundImageFix"/>
<feColorMatrix in="SourceAlpha" type="matrix" values="0 0 0 0 0 0 0 0 0 0 0 0 0 0 0 0 0 0 127 0" result="hardAlpha"/>
<feOffset dy="1"/>
<feGaussianBlur stdDeviation="1"/>
<feComposite in2="hardAlpha" operator="out"/>
<feColorMatrix type="matrix" values="0 0 0 0 0.0627451 0 0 0 0 0.0941176 0 0 0 0 0.156863 0 0 0 0.05 0"/>
<feBlend mode="normal" in2="BackgroundImageFix" result="effect1_dropShadow_7734_1330"/>
<feBlend mode="normal" in="SourceGraphic" in2="effect1_dropShadow_7734_1330" result="shape"/>
</filter>
<filter id="filter15_d_7734_1330" x="-4" y="274" width="68" height="68" filterUnits="userSpaceOnUse" color-interpolation-filters="sRGB">
<feFlood flood-opacity="0" result="BackgroundImageFix"/>
<feColorMatrix in="SourceAlpha" type="matrix" values="0 0 0 0 0 0 0 0 0 0 0 0 0 0 0 0 0 0 127 0" result="hardAlpha"/>
<feOffset dy="1"/>
<feGaussianBlur stdDeviation="1"/>
<feComposite in2="hardAlpha" operator="out"/>
<feColorMatrix type="matrix" values="0 0 0 0 0.0627451 0 0 0 0 0.0941176 0 0 0 0 0.156863 0 0 0 0.05 0"/>
<feBlend mode="normal" in2="BackgroundImageFix" result="effect1_dropShadow_7734_1330"/>
<feBlend mode="normal" in="SourceGraphic" in2="effect1_dropShadow_7734_1330" result="shape"/>
</filter>
<filter id="filter16_d_7734_1330" x="1123" y="187" width="92" height="92" filterUnits="userSpaceOnUse" color-interpolation-filters="sRGB">
<feFlood flood-opacity="0" result="BackgroundImageFix"/>
<feColorMatrix in="SourceAlpha" type="matrix" values="0 0 0 0 0 0 0 0 0 0 0 0 0 0 0 0 0 0 127 0" result="hardAlpha"/>
<feOffset dy="1"/>
<feGaussianBlur stdDeviation="1"/>
<feComposite in2="hardAlpha" operator="out"/>
<feColorMatrix type="matrix" values="0 0 0 0 0.0627451 0 0 0 0 0.0941176 0 0 0 0 0.156863 0 0 0 0.05 0"/>
<feBlend mode="normal" in2="BackgroundImageFix" result="effect1_dropShadow_7734_1330"/>
<feBlend mode="normal" in="SourceGraphic" in2="effect1_dropShadow_7734_1330" result="shape"/>
</filter>
<filter id="filter17_d_7734_1330" x="1351" y="198" width="92" height="92" filterUnits="userSpaceOnUse" color-interpolation-filters="sRGB">
<feFlood flood-opacity="0" result="BackgroundImageFix"/>
<feColorMatrix in="SourceAlpha" type="matrix" values="0 0 0 0 0 0 0 0 0 0 0 0 0 0 0 0 0 0 127 0" result="hardAlpha"/>
<feOffset dy="1"/>
<feGaussianBlur stdDeviation="1"/>
<feComposite in2="hardAlpha" operator="out"/>
<feColorMatrix type="matrix" values="0 0 0 0 0.0627451 0 0 0 0 0.0941176 0 0 0 0 0.156863 0 0 0 0.05 0"/>
<feBlend mode="normal" in2="BackgroundImageFix" result="effect1_dropShadow_7734_1330"/>
<feBlend mode="normal" in="SourceGraphic" in2="effect1_dropShadow_7734_1330" result="shape"/>
</filter>
<filter id="filter18_d_7734_1330" x="1367" y="12" width="92" height="92" filterUnits="userSpaceOnUse" color-interpolation-filters="sRGB">
<feFlood flood-opacity="0" result="BackgroundImageFix"/>
<feColorMatrix in="SourceAlpha" type="matrix" values="0 0 0 0 0 0 0 0 0 0 0 0 0 0 0 0 0 0 127 0" result="hardAlpha"/>
<feOffset dy="1"/>
<feGaussianBlur stdDeviation="1"/>
<feComposite in2="hardAlpha" operator="out"/>
<feColorMatrix type="matrix" values="0 0 0 0 0.0627451 0 0 0 0 0.0941176 0 0 0 0 0.156863 0 0 0 0.05 0"/>
<feBlend mode="normal" in2="BackgroundImageFix" result="effect1_dropShadow_7734_1330"/>
<feBlend mode="normal" in="SourceGraphic" in2="effect1_dropShadow_7734_1330" result="shape"/>
</filter>
<filter id="filter19_d_7734_1330" x="499" y="219" width="124" height="124" filterUnits="userSpaceOnUse" color-interpolation-filters="sRGB">
<feFlood flood-opacity="0" result="BackgroundImageFix"/>
<feColorMatrix in="SourceAlpha" type="matrix" values="0 0 0 0 0 0 0 0 0 0 0 0 0 0 0 0 0 0 127 0" result="hardAlpha"/>
<feOffset dy="1"/>
<feGaussianBlur stdDeviation="1"/>
<feComposite in2="hardAlpha" operator="out"/>
<feColorMatrix type="matrix" values="0 0 0 0 0.0627451 0 0 0 0 0.0941176 0 0 0 0 0.156863 0 0 0 0.05 0"/>
<feBlend mode="normal" in2="BackgroundImageFix" result="effect1_dropShadow_7734_1330"/>
<feBlend mode="normal" in="SourceGraphic" in2="effect1_dropShadow_7734_1330" result="shape"/>
</filter>
<filter id="filter20_d_7734_1330" x="738" y="12" width="124" height="124" filterUnits="userSpaceOnUse" color-interpolation-filters="sRGB">
<feFlood flood-opacity="0" result="BackgroundImageFix"/>
<feColorMatrix in="SourceAlpha" type="matrix" values="0 0 0 0 0 0 0 0 0 0 0 0 0 0 0 0 0 0 127 0" result="hardAlpha"/>
<feOffset dy="1"/>
<feGaussianBlur stdDeviation="1"/>
<feComposite in2="hardAlpha" operator="out"/>
<feColorMatrix type="matrix" values="0 0 0 0 0.0627451 0 0 0 0 0.0941176 0 0 0 0 0.156863 0 0 0 0.05 0"/>
<feBlend mode="normal" in2="BackgroundImageFix" result="effect1_dropShadow_7734_1330"/>
<feBlend mode="normal" in="SourceGraphic" in2="effect1_dropShadow_7734_1330" result="shape"/>
</filter>
<filter id="filter21_d_7734_1330" x="664" y="159" width="124" height="124" filterUnits="userSpaceOnUse" color-interpolation-filters="sRGB">
<feFlood flood-opacity="0" result="BackgroundImageFix"/>
<feColorMatrix in="SourceAlpha" type="matrix" values="0 0 0 0 0 0 0 0 0 0 0 0 0 0 0 0 0 0 127 0" result="hardAlpha"/>
<feOffset dy="1"/>
<feGaussianBlur stdDeviation="1"/>
<feComposite in2="hardAlpha" operator="out"/>
<feColorMatrix type="matrix" values="0 0 0 0 0.0627451 0 0 0 0 0.0941176 0 0 0 0 0.156863 0 0 0 0.05 0"/>
<feBlend mode="normal" in2="BackgroundImageFix" result="effect1_dropShadow_7734_1330"/>
<feBlend mode="normal" in="SourceGraphic" in2="effect1_dropShadow_7734_1330" result="shape"/>
</filter>
<filter id="filter22_d_7734_1330" x="1223" y="80" width="124" height="124" filterUnits="userSpaceOnUse" color-interpolation-filters="sRGB">
<feFlood flood-opacity="0" result="BackgroundImageFix"/>
<feColorMatrix in="SourceAlpha" type="matrix" values="0 0 0 0 0 0 0 0 0 0 0 0 0 0 0 0 0 0 127 0" result="hardAlpha"/>
<feOffset dy="1"/>
<feGaussianBlur stdDeviation="1"/>
<feComposite in2="hardAlpha" operator="out"/>
<feColorMatrix type="matrix" values="0 0 0 0 0.0627451 0 0 0 0 0.0941176 0 0 0 0 0.156863 0 0 0 0.05 0"/>
<feBlend mode="normal" in2="BackgroundImageFix" result="effect1_dropShadow_7734_1330"/>
<feBlend mode="normal" in="SourceGraphic" in2="effect1_dropShadow_7734_1330" result="shape"/>
</filter>
<filter id="filter23_d_7734_1330" x="984" y="23" width="124" height="124" filterUnits="userSpaceOnUse" color-interpolation-filters="sRGB">
<feFlood flood-opacity="0" result="BackgroundImageFix"/>
<feColorMatrix in="SourceAlpha" type="matrix" values="0 0 0 0 0 0 0 0 0 0 0 0 0 0 0 0 0 0 127 0" result="hardAlpha"/>
<feOffset dy="1"/>
<feGaussianBlur stdDeviation="1"/>
<feComposite in2="hardAlpha" operator="out"/>
<feColorMatrix type="matrix" values="0 0 0 0 0.0627451 0 0 0 0 0.0941176 0 0 0 0 0.156863 0 0 0 0.05 0"/>
<feBlend mode="normal" in2="BackgroundImageFix" result="effect1_dropShadow_7734_1330"/>
<feBlend mode="normal" in="SourceGraphic" in2="effect1_dropShadow_7734_1330" result="shape"/>
</filter>
</defs>
</svg>
