<svg id="799826028" viewBox="0 0 70.08333333333333 70.08333333333333" xmlns="http://www.w3.org/2000/svg" xmlns:xlink="http://www.w3.org/1999/xlink"><g transform="matrix(1,0,0,1,0,0)"><g id="799826028" opacity="1" style="mix-blend-mode:normal"><g><g><g transform="matrix(1,0,0,1,5,5)"><g id="799826029" opacity="1" style="mix-blend-mode:normal"><g><g><g style="mix-blend-mode:NORMAL"><path id="799826029_stroke_path" d="M48,24c0,2.5176 -0.396,5.0208 -1.1736,7.416c-0.7776,2.3952 -1.9296,4.6536 -3.4104,6.6912c-1.4808,2.0376 -3.2712,3.828 -5.3088,5.3088c-2.0376,1.4808 -4.296,2.6328 -6.6912,3.4104c-2.3952,0.7776 -4.8984,1.1736 -7.416,1.1736c-2.5176,0 -5.0208,-0.396 -7.416,-1.1736c-2.3952,-0.7776 -4.6536,-1.9296 -6.6912,-3.4104c-2.0376,-1.4808 -3.828,-3.2712 -5.3088,-5.3088c-1.4808,-2.0376 -2.6328,-4.296 -3.4104,-6.6912c-0.7776,-2.3952 -1.1736,-4.8984 -1.1736,-7.416c0,-2.5176 0.396,-5.0208 1.1736,-7.416c0.7776,-2.3952 1.9296,-4.6536 3.4104,-6.6912c1.4808,-2.0376 3.2712,-3.828 5.3088,-5.3088c2.0376,-1.4808 4.296,-2.6328 6.6912,-3.4104c2.3952,-0.7776 4.8984,-1.1736 7.416,-1.1736c2.5176,0 5.0208,0.396 7.416,1.1736c2.3952,0.7776 4.6536,1.9296 6.6912,3.4104c2.0376,1.4808 3.828,3.2712 5.3088,5.3088c1.4808,2.0376 2.6328,4.296 3.4104,6.6912c0.7776,2.3952 1.1736,4.8984 1.1736,7.416zM48,24c0,2.5176 -0.396,5.0208 -1.1736,7.416c-0.7776,2.3952 -1.9296,4.6536 -3.4104,6.6912c-1.4808,2.0376 -3.2712,3.828 -5.3088,5.3088c-2.0376,1.4808 -4.296,2.6328 -6.6912,3.4104c-2.3952,0.7776 -4.8984,1.1736 -7.416,1.1736c-2.5176,0 -5.0208,-0.396 -7.416,-1.1736c-2.3952,-0.7776 -4.6536,-1.9296 -6.6912,-3.4104c-2.0376,-1.4808 -3.828,-3.2712 -5.3088,-5.3088c-1.4808,-2.0376 -2.6328,-4.296 -3.4104,-6.6912c-0.7776,-2.3952 -1.1736,-4.8984 -1.1736,-7.416c0,-2.5176 0.396,-5.0208 1.1736,-7.416c0.7776,-2.3952 1.9296,-4.6536 3.4104,-6.6912c1.4808,-2.0376 3.2712,-3.828 5.3088,-5.3088c2.0376,-1.4808 4.296,-2.6328 6.6912,-3.4104c2.3952,-0.7776 4.8984,-1.1736 7.416,-1.1736c2.5176,0 5.0208,0.396 7.416,1.1736c2.3952,0.7776 4.6536,1.9296 6.6912,3.4104c2.0376,1.4808 3.828,3.2712 5.3088,5.3088c1.4808,2.0376 2.6328,4.296 3.4104,6.6912c0.7776,2.3952 1.1736,4.8984 1.1736,7.416z" fill="none" stroke="rgb(57, 115, 252)" stroke-width="8" stroke-linecap="butt" stroke-linejoin="miter" stroke-dasharray="0 0" stroke-opacity="1"></path></g></g></g></g></g><g transform="matrix(1,0,0,1,5,5)"><g id="799826030" opacity="1" style="mix-blend-mode:normal"><g><g><g style="mix-blend-mode:NORMAL"><path id="799826030_stroke_path" d="M48,24c0,0.5208 -0.0144,0.9864 -0.048,1.5072c-0.0336,0.5208 -0.0768,0.984 -0.1416,1.5c-0.0648,0.516 -0.1368,0.9792 -0.2352,1.4904c-0.0984,0.5112 -0.1992,0.9672 -0.3288,1.4712c-0.1296,0.504 -0.2592,0.9528 -0.42,1.4472" fill="none" stroke="rgb(10, 57, 169)" stroke-width="8" stroke-linecap="round" stroke-linejoin="miter" stroke-dasharray="0 0" stroke-opacity="1"></path></g></g></g></g></g></g></g></g></g><animateTransform href="#799826029" attributeName="transform" type="rotate" values="0 24 24;360 24 24" dur="5s" repeatCount="indefinite" calcMode="spline" keyTimes="0;1" keySplines="0.5 0.25 0.5 0.75" additive="sum" fill="freeze"></animateTransform><animateTransform href="#799826030" attributeName="transform" type="rotate" values="0 24 24;360 24 24" dur="5s" repeatCount="indefinite" calcMode="spline" keyTimes="0;1" keySplines="0.5 0.25 0.5 0.75" additive="sum" fill="freeze"></animateTransform></svg>