<svg width="159" height="122" viewBox="0 0 159 122" fill="none" xmlns="http://www.w3.org/2000/svg">
<path d="M146.767 53.989C148.111 51.6257 149.535 49.2835 150.878 46.8933C151.176 46.5044 151.377 46.0461 151.465 45.558C151.553 45.0698 151.524 44.5665 151.381 44.0912C151.239 43.616 150.987 43.1831 150.646 42.8298C150.306 42.4765 149.888 42.2134 149.428 42.0632C148.559 41.8981 147.664 41.9632 146.828 42.2524C143.042 43.391 139.316 44.6331 135.582 45.7678C135.177 45.8872 134.765 45.9803 134.348 46.0465C134.569 45.491 134.728 45.1558 134.834 44.8244L138.782 35.5019C139.044 34.7817 139.389 34.1362 139.594 33.3661C139.745 32.8577 139.766 32.3172 139.654 31.7969C139.543 31.2766 139.304 30.7941 138.959 30.396C138.615 29.998 138.177 29.6979 137.688 29.5248C137.2 29.3517 136.676 29.3115 136.169 29.4079C135.649 29.4458 135.169 29.6695 134.629 29.7897C124.267 33.2408 113.888 36.4505 103.574 39.8441C102.73 40.0944 102.274 39.9388 101.828 39.1891C99.8579 35.637 97.4308 32.3749 94.6132 29.4923C88.8349 23.2601 81.3945 18.9375 73.2422 17.0768C65.7255 15.3285 57.8964 15.7489 50.6152 18.2918C50.2213 18.3904 49.8374 18.5267 49.4685 18.6989C46.9562 19.6029 44.528 20.7363 42.2128 22.0858C35.6202 25.8261 30.2139 31.4424 26.6349 38.269C22.0071 47.1933 20.1743 57.3876 21.3875 67.4555C21.4644 67.788 21.4372 68.1366 21.3098 68.4512C21.1824 68.7658 20.9613 69.0301 20.6784 69.2062C18.584 70.5993 16.5833 72.2013 14.5351 73.5101C12.3381 74.8083 10.3343 76.4255 8.58483 78.3123C8.11173 78.7885 7.7707 79.3866 7.59691 80.0452C7.42312 80.7038 7.42281 81.3991 7.59599 82.0594C7.76918 82.7198 8.10965 83.3215 8.58231 83.8025C9.05497 84.2836 9.64277 84.6266 10.2853 84.7963C12.0225 85.3396 13.7998 85.7335 15.5989 85.9739C19.6417 86.5698 23.7546 87.0526 27.8195 87.5929C28.1476 87.5951 28.4659 87.7111 28.7231 87.9224C28.9803 88.1336 29.1614 88.4277 29.2373 88.7573C30.7223 92.6409 32.1112 96.6394 33.7724 100.429C36.9682 107.998 41.3628 114.971 46.7753 121.059C55.3208 130.719 66.6836 137.242 79.1288 139.634C89.6662 141.663 100.484 141.463 110.924 139.046C116.915 137.835 122.763 135.981 128.375 133.515C128.882 133.391 129.354 133.149 129.756 132.808C130.158 132.467 130.48 132.036 130.696 131.548C130.912 131.059 131.018 130.526 131.005 129.988C130.991 129.45 130.86 128.922 130.62 128.443C128.699 122.164 126.782 115.938 124.836 109.661C124.717 109.3 124.674 108.917 124.709 108.537C124.745 108.158 124.858 107.791 125.042 107.461L147.273 65.6035C147.66 64.8201 148.127 64.0579 148.435 63.2534C148.646 62.7524 148.726 62.2021 148.666 61.6579C148.606 61.1137 148.408 60.5948 148.093 60.1531C147.777 59.7115 147.355 59.3627 146.868 59.1419C146.382 58.9211 145.848 58.8359 145.321 58.895C144.827 58.931 144.307 58.9688 143.813 59.0048C143.709 58.9468 143.615 58.8716 143.535 58.7823C143.763 58.5687 143.964 58.3276 144.136 58.0642C144.99 56.8693 145.931 55.4254 146.767 53.989ZM130.995 37.6869C130.199 39.6866 129.434 41.3875 128.785 43.2418C128.136 45.096 127.476 46.4387 126.701 48.0054C126.485 48.4622 126.109 48.8171 125.649 48.999L109.074 54.3586C108.58 54.3946 108.16 54.7218 107.949 53.982C107.142 51.5055 106.254 49.0079 105.446 46.5315C105.421 46.3809 105.41 46.2281 105.413 46.0754L130.995 37.6869ZM123.024 128.942C117.344 131.161 111.448 132.747 105.436 133.674C94.9291 135.55 84.13 134.839 73.9173 131.599C69.0683 129.954 64.4869 127.559 60.3305 124.496C56.8653 121.998 53.6966 119.087 50.8903 115.824C47.0426 111.45 43.739 106.598 41.0564 101.383L40.7456 100.704C38.3089 95.9586 36.327 90.9811 34.8282 85.8422C34.5885 84.7788 34.0414 83.8142 33.2594 83.0763C32.4775 82.3384 31.4976 81.8622 30.4497 81.7107C27.0869 81.1193 23.63 80.6697 20.275 80.1856C19.1913 80.0217 18.1635 79.9077 17.0857 79.8243C17.0669 79.7272 17.0597 79.6281 17.0642 79.5292L19.2028 78.0251C21.3395 76.4941 23.4539 75.0187 25.5086 73.4397C26.1751 72.987 26.7227 72.3716 27.103 71.6478C27.4834 70.9241 27.685 70.1141 27.6899 69.2893C27.7292 68.912 27.7014 68.5302 27.6079 68.1625C26.7649 62.438 27.0062 56.6042 28.3183 50.9845C28.741 49.174 29.3026 47.4016 29.9976 45.684C32.8644 38.0116 38.2288 31.6156 45.1749 27.588C50.77 24.2462 57.1138 22.4561 63.5913 22.391C70.3522 22.3 77.0053 24.2122 82.7606 27.9005C87.895 31.1266 92.2549 35.5133 95.5092 40.7277C97.9248 44.5573 99.811 48.714 101.113 53.077C106.788 71.6693 112.495 90.2233 118.234 108.739C120.145 114.884 122.008 121.087 123.917 127.205C124.192 128.479 124.192 128.479 123.024 128.942ZM140.932 51.7436C138.745 55.4628 136.612 59.2051 134.458 63.0029C134.155 63.3846 133.944 63.8356 133.843 64.3187C133.743 64.8019 133.755 65.3033 133.879 65.7816C134.003 66.2599 134.236 66.7015 134.557 67.0698C134.879 67.4381 135.281 67.7227 135.729 67.9C136.504 68.0812 137.303 68.1234 138.091 68.0248C138.425 67.9581 138.75 67.8529 139.061 67.7114C139.101 67.8091 139.161 67.8968 139.237 67.9684C133.58 78.6018 127.922 89.2085 122.229 100.06C122.06 99.7691 121.916 99.4638 121.796 99.1479C117.977 86.6597 114.16 74.1895 110.343 61.7371C110.109 61.026 110.267 60.6908 110.956 60.4519C120.818 57.3248 130.67 54.1715 140.511 50.9921C140.831 50.893 141.157 50.8152 141.487 50.7592C141.151 51.1613 140.994 51.5233 140.827 51.7512L140.932 51.7436Z" fill="#343BAB"/>
<path d="M130.995 37.6864C130.2 39.6862 129.435 41.3871 128.785 43.2414C128.136 45.0956 127.476 46.4383 126.701 48.005C126.485 48.4618 126.11 48.8167 125.649 48.9985L109.075 54.3582C108.581 54.3941 108.16 54.7214 107.949 53.9816C107.142 51.5051 106.254 49.0075 105.447 46.531C105.421 46.3804 105.41 46.2277 105.414 46.0749L130.995 37.6864Z" fill="#80A4FF"/>
<path d="M134.867 62.7111C134.555 63.1006 134.339 63.5607 134.235 64.0535C134.131 64.5464 134.144 65.0578 134.271 65.5457C134.398 66.0335 134.637 66.4838 134.967 66.8594C135.297 67.2349 135.71 67.5249 136.17 67.7055C136.966 67.89 137.786 67.9327 138.595 67.8317C138.938 67.7634 139.272 67.6561 139.592 67.5115C139.633 67.6112 139.694 67.7006 139.772 67.7735C133.958 78.6227 128.142 89.4446 122.291 100.517C122.118 100.22 121.97 99.9083 121.847 99.5861C117.932 86.8498 114.018 74.1318 110.105 61.432C109.864 60.7068 110.027 60.3648 110.734 60.1208C120.863 56.9261 130.981 53.7048 141.089 50.4567C141.418 50.3555 141.752 50.2759 142.091 50.2187C141.858 50.7033 141.693 51.0179 141.526 51.3052C139.279 55.1 137.087 58.9182 134.867 62.7111Z" fill="#80A4FF"/>
<path d="M123.023 128.942C117.343 131.161 111.447 132.747 105.436 133.674C94.9286 135.55 84.1295 134.839 73.9168 131.599C69.0678 129.954 64.4863 127.559 60.33 124.496C56.8648 121.998 53.696 119.087 50.8898 115.824C47.0421 111.45 43.7385 106.598 41.0559 101.382L40.7451 100.704C38.3084 95.9586 36.3265 90.9811 34.8277 85.8422C34.588 84.7788 34.0409 83.8142 33.2589 83.0763C32.477 82.3384 31.4971 81.8622 30.4492 81.7107C27.0864 81.1193 23.6294 80.6697 20.2745 80.1856C19.1908 80.0217 18.163 79.9077 17.0852 79.8243C17.0664 79.7272 17.0592 79.6281 17.0637 79.5292L19.2023 78.0251C21.3389 76.4941 23.4534 75.0187 25.5081 73.4397C26.1746 72.987 26.7221 72.3716 27.1025 71.6478C27.4829 70.9241 27.6844 70.1141 27.6894 69.2893C27.7287 68.912 27.7009 68.5302 27.6074 68.1625C26.7644 62.438 27.0057 56.6042 28.3178 50.9845C28.7405 49.174 29.3021 47.4016 29.9971 45.684C32.8638 38.0116 38.2283 31.6156 45.1744 27.588C50.7695 24.2462 57.1132 22.4561 63.5908 22.391C70.3517 22.3 77.0048 24.2122 82.7601 27.9005C87.8945 31.1266 92.2543 35.5133 95.5087 40.7277C97.9242 44.5573 99.8105 48.714 101.113 53.077C106.787 71.6693 112.494 90.2233 118.233 108.739C120.144 114.884 122.007 121.087 123.916 127.205C124.192 128.479 124.192 128.479 123.023 128.942Z" fill="#80A4FF"/>
<path d="M54.4865 72.1933C62.5715 71.605 68.6336 64.3655 68.0265 56.0236C67.4194 47.6816 60.3731 41.3961 52.2881 41.9845C44.2031 42.5728 38.141 49.8123 38.7481 58.1542C39.3552 66.4962 46.4015 72.7817 54.4865 72.1933Z" fill="#E2ED4C"/>
<path d="M54.5906 73.9943C52.458 74.1487 50.3149 73.8657 48.2851 73.1617C46.2553 72.4576 44.3789 71.3464 42.7645 69.8923C41.1435 68.451 39.8144 66.6935 38.8543 64.7217C37.8941 62.75 37.322 60.603 37.1711 58.4053C36.855 53.967 38.2571 49.5885 41.0701 46.2291C43.8831 42.8698 47.8776 40.8037 52.1782 40.4836C54.3113 40.3217 56.4563 40.6011 58.4872 41.3055C60.518 42.0099 62.3937 43.1251 64.0042 44.5856C65.6287 46.0253 66.9618 47.7816 67.9263 49.753C68.8909 51.7244 69.4678 53.8717 69.6237 56.0707C69.9386 60.522 68.5282 64.9122 65.7022 68.277C64.3094 69.9391 62.6108 71.2996 60.704 72.2807C58.7972 73.2618 56.7197 73.8441 54.5906 73.9943ZM52.3923 43.7854C48.9442 44.0363 45.7402 45.6903 43.4851 48.3834C41.23 51.0764 40.1085 54.5881 40.3674 58.1458C40.4962 59.9104 40.9611 61.633 41.7356 63.215C42.5101 64.797 43.5789 66.2072 44.8809 67.3649C46.1746 68.5343 47.6807 69.4264 49.3106 69.9886C50.9406 70.5508 52.6617 70.7719 54.3726 70.6388C56.0813 70.5176 57.7485 70.0502 59.279 69.2631C60.8095 68.4761 62.1733 67.3849 63.2923 66.052C64.4514 64.7171 65.3351 63.1524 65.8898 61.4524C66.4445 59.7525 66.6588 57.9527 66.5197 56.1617C66.4102 54.3952 65.9564 52.668 65.1853 51.0835C64.4143 49.4991 63.3418 48.09 62.0322 46.9407C60.7356 45.7738 59.2294 44.8815 57.6002 44.3151C55.971 43.7487 54.2509 43.5192 52.5385 43.6399L52.3923 43.7854Z" fill="#343BAB"/>
<path d="M37.8204 102.184C63.5325 104.059 89.1039 97.2965 110.707 82.9095C112.427 81.7595 110.606 79.0061 108.862 80.1849C87.9655 94.0546 63.2584 100.582 38.4104 98.7971C36.3868 98.6477 35.735 101.905 37.8106 102.05L37.8204 102.184Z" fill="#343BAB"/>
<path d="M54.8119 125.896C79.3354 127.857 103.738 121.154 124.006 106.889C124.307 106.62 124.501 106.245 124.549 105.837C124.597 105.428 124.497 105.015 124.268 104.677C124.039 104.338 123.697 104.099 123.308 104.004C122.919 103.91 122.511 103.967 122.161 104.165C102.647 117.912 79.167 124.421 55.5417 122.633C53.5181 122.484 52.8663 125.741 54.942 125.886L54.8119 125.896Z" fill="#343BAB"/>
<path d="M43.7887 91.5018C45.0668 91.4088 46.0251 90.2644 45.9291 88.9457C45.8331 87.627 44.7192 86.6334 43.4411 86.7264C42.163 86.8194 41.2047 87.9638 41.3007 89.2825C41.3967 90.6012 42.5106 91.5948 43.7887 91.5018Z" fill="#343BAB"/>
<path d="M64.0299 90.9181C65.308 90.8251 66.2663 89.6807 66.1703 88.3619C66.0743 87.0432 64.9604 86.0496 63.6823 86.1426C62.4043 86.2356 61.446 87.3801 61.5419 88.6988C61.6379 90.0175 62.7518 91.0111 64.0299 90.9181Z" fill="#343BAB"/>
<path d="M82.7721 85.1842C84.0502 85.0912 85.0084 83.9468 84.9125 82.6281C84.8165 81.3094 83.7026 80.3157 82.4245 80.4087C81.1464 80.5017 80.1881 81.6462 80.2841 82.9649C80.3801 84.2836 81.494 85.2772 82.7721 85.1842Z" fill="#343BAB"/>
<path d="M97.9317 75.8019C99.2098 75.7089 100.168 74.5644 100.072 73.2457C99.9762 71.927 98.8623 70.9334 97.5842 71.0264C96.3061 71.1194 95.3478 72.2638 95.4438 73.5825C95.5397 74.9013 96.6536 75.8949 97.9317 75.8019Z" fill="#343BAB"/>
<path d="M45.6504 -1.94149L37.7544 1.48096L46.5827 22.9594L54.4787 19.537L45.6504 -1.94149Z" fill="#343BAB"/>
<path d="M41.1611 5.46774C46.6899 5.0654 50.8354 0.114803 50.4202 -5.58973C50.0051 -11.2943 45.1866 -15.5925 39.6578 -15.1902C34.1289 -14.7878 29.9835 -9.83723 30.3986 -4.13271C30.8138 1.57182 35.6323 5.87009 41.1611 5.46774Z" fill="#80A4FF"/>
<path d="M41.3205 7.66715C39.726 7.78607 38.1231 7.57764 36.6043 7.05394C35.0856 6.53024 33.6812 5.70164 32.4724 4.61607C31.2611 3.53628 30.2681 2.22073 29.5505 0.74536C28.833 -0.730013 28.4052 -2.33602 28.2917 -3.97998C28.1692 -5.62518 28.364 -7.27761 28.8649 -8.84175C29.3658 -10.4059 30.1628 -11.8507 31.2098 -13.0926C32.2503 -14.3382 33.521 -15.3573 34.9483 -16.0908C36.3757 -16.8243 37.9313 -17.2576 39.525 -17.3657C41.1184 -17.4817 42.7197 -17.2722 44.2374 -16.7494C45.755 -16.2265 47.1591 -15.4005 48.3693 -14.3186C49.5795 -13.2368 50.5721 -11.9203 51.2901 -10.4446C52.0081 -8.96889 52.4375 -7.36291 52.5537 -5.71861C52.6734 -4.07455 52.4775 -2.42376 51.9775 -0.860753C51.4774 0.702251 50.683 2.14677 49.6396 3.39013C48.5962 4.63349 47.3242 5.65125 45.8968 6.38516C44.4693 7.11907 42.9142 7.55472 41.3205 7.66715ZM39.8191 -12.964C38.7859 -12.8949 37.7772 -12.6149 36.8515 -12.1401C35.9258 -11.6653 35.1015 -11.0052 34.4265 -10.1981C33.7457 -9.39379 33.2274 -8.45706 32.9018 -7.44248C32.5762 -6.4279 32.4499 -5.35574 32.5301 -4.28842C32.6052 -3.22072 32.8855 -2.17814 33.3545 -1.22138C33.8236 -0.26463 34.472 0.587172 35.2621 1.28446C36.0417 1.98737 36.9479 2.52467 37.9283 2.86532C38.9087 3.20597 39.944 3.34323 40.9744 3.26917C43.0432 3.11861 44.9656 2.12624 46.3186 0.510388C47.6717 -1.10546 48.3446 -3.21244 48.1893 -5.34705C48.0339 -7.48165 47.0631 -9.46903 45.4903 -10.872C43.9176 -12.2749 41.8718 -12.9785 39.8029 -12.8279L39.8191 -12.964Z" fill="#343BAB"/>
<path d="M53.7169 61.6237C56.1438 61.4471 57.9635 59.274 57.7813 56.7699C57.599 54.2659 55.4839 52.3791 53.057 52.5557C50.63 52.7323 48.8103 54.9054 48.9925 57.4095C49.1748 59.9136 51.2899 61.8003 53.7169 61.6237Z" fill="#343BAB"/>
</svg>
