<svg width="1033" height="835" viewBox="0 0 1033 835" fill="none" xmlns="http://www.w3.org/2000/svg">
<g clip-path="url(#clip0_7630_11034)">
<g opacity="0.6">
<path d="M516.12 30.52C663.877 30.4753 810.618 54.9372 950.37 102.91C952.765 103.764 954.792 105.419 956.109 107.594C957.426 109.769 957.953 112.332 957.6 114.85L936.74 380.9C927.075 502.261 889.641 619.777 827.331 724.369C765.021 828.96 679.502 917.829 577.38 984.11L516.12 1023.65L454.85 984.12C352.713 917.833 267.184 828.951 204.871 724.342C142.559 619.733 105.131 502.198 95.48 380.82L74.57 114.12C74.3527 111.704 74.9531 109.284 76.275 107.25C77.5969 105.215 79.5637 103.683 81.86 102.9C221.612 54.9279 368.354 30.4693 516.11 30.52M516.11 -44C360.151 -43.9929 205.268 -18.1741 57.74 32.41C39.675 38.5858 24.2033 50.642 13.8 66.65C3.40687 82.6412 -1.335 101.651 0.329975 120.65L21.18 386.65C31.4082 519.546 72.2281 648.277 140.45 762.783C208.672 877.29 302.448 974.47 414.45 1046.73L499.95 1101.9C504.765 1105.01 510.374 1106.66 516.105 1106.66C521.836 1106.66 527.445 1105.01 532.26 1101.9L617.74 1046.72C729.752 974.468 823.538 877.292 891.769 762.787C960 648.282 1000.83 519.549 1011.06 386.65L1031.9 120.65C1033.57 101.652 1028.83 82.6422 1018.44 66.65C1008.05 50.6507 992.59 38.5983 974.54 32.42C826.996 -18.1672 672.096 -43.9861 516.12 -43.99L516.11 -44Z" fill="#303030"/>
<path d="M516.12 172.97C621.851 172.935 726.856 190.436 826.86 224.76C828.573 225.374 830.022 226.56 830.963 228.117C831.905 229.674 832.282 231.508 832.03 233.31L817.1 423.65C810.188 510.497 783.405 594.593 738.819 669.441C694.233 744.289 633.037 807.887 559.96 855.32L516.12 883.65L472.28 855.36C399.193 807.926 337.99 744.324 293.4 669.468C248.81 594.612 222.027 510.506 215.12 423.65L200.12 232.82C199.97 231.095 200.402 229.369 201.349 227.919C202.295 226.468 203.7 225.377 205.34 224.82C305.353 190.47 410.372 172.948 516.12 172.97ZM516.12 119.64C404.519 119.643 293.689 138.116 188.12 174.31C175.213 178.748 164.164 187.38 156.733 198.829C149.302 210.277 145.918 223.884 147.12 237.48L162.04 427.78C169.346 522.872 198.541 614.987 247.345 696.927C296.148 778.867 363.237 848.413 443.37 900.13L504.55 939.65C507.996 941.872 512.01 943.054 516.11 943.054C520.21 943.054 524.224 941.872 527.67 939.65L588.86 900.17C669.008 848.462 736.113 778.92 784.93 696.979C833.747 615.039 862.955 522.919 870.27 427.82L885.19 237.52C886.393 223.925 883.009 210.319 875.578 198.872C868.147 187.424 857.097 178.795 844.19 174.36C738.601 138.147 627.746 119.66 516.12 119.65V119.64Z" fill="#303030"/>
<path d="M516.12 308.7C581.789 308.681 647.007 319.552 709.12 340.87C710.182 341.254 711.081 341.99 711.665 342.957C712.249 343.923 712.484 345.061 712.33 346.18L703.11 464.45C698.818 518.408 682.179 570.657 654.48 617.16C626.78 663.664 588.761 703.178 543.36 732.65L516.12 750.22L488.88 732.65C443.476 703.181 405.455 663.668 377.755 617.163C350.056 570.659 333.419 518.409 329.13 464.45L319.83 345.9C319.731 344.824 319.997 343.746 320.585 342.839C321.172 341.933 322.048 341.25 323.07 340.9C385.198 319.575 450.434 308.704 516.12 308.73M516.12 275.6C446.779 275.61 377.918 287.099 312.33 309.6C304.31 312.357 297.444 317.718 292.823 324.829C288.202 331.94 286.092 340.392 286.83 348.84L296.1 467.07C300.658 526.138 318.81 583.353 349.137 634.246C379.465 685.139 421.148 728.331 470.93 760.45L508.93 784.97C511.07 786.351 513.563 787.086 516.11 787.086C518.657 787.086 521.15 786.351 523.29 784.97L561.29 760.44C611.085 728.32 652.778 685.12 683.111 634.215C713.443 583.311 731.592 526.081 736.14 467L745.41 348.77C746.145 340.323 744.035 331.874 739.414 324.765C734.793 317.656 727.928 312.297 719.91 309.54C654.321 287.043 585.46 275.554 516.12 275.54V275.6Z" fill="#303030"/>
</g>
</g>
<defs>
<clipPath id="clip0_7630_11034">
<rect width="1032.24" height="1150.65" fill="white" transform="translate(0 -44)"/>
</clipPath>
</defs>
</svg>
