<svg width="113" height="22" viewBox="0 0 113 22" fill="none" xmlns="http://www.w3.org/2000/svg">
<g clip-path="url(#clip0_7626_9263)">
<path d="M35.1476 7.78619C36.4376 8.3499 37.5523 9.2573 38.3729 10.4117C39.1335 11.5139 39.5414 12.8259 39.5414 14.1704C39.5414 15.5149 39.1335 16.8269 38.3729 17.9291C37.5501 19.0846 36.4325 19.9921 35.1396 20.5546C33.675 21.2035 32.0896 21.5259 30.4911 21.5001C28.8932 21.5125 27.3104 21.1863 25.8445 20.5424C24.491 19.9728 23.3021 19.0653 22.3887 17.9047C21.5529 16.8439 21.0978 15.5272 21.0978 14.1704C21.0978 12.8135 21.5529 11.4969 22.3887 10.436C23.3021 9.27547 24.491 8.36802 25.8445 7.79836C27.3104 7.1545 28.8932 6.82828 30.4911 6.84068C32.0923 6.81368 33.6805 7.13616 35.1476 7.78619ZM33.5239 17.294C34.3605 16.5825 34.7788 15.5457 34.7788 14.1836C34.7788 12.8215 34.3605 11.7758 33.5239 11.0468C32.6781 10.3289 31.6026 9.94798 30.4991 9.97546C29.7498 9.9748 29.0085 10.1316 28.3221 10.436C27.6353 10.7368 27.0442 11.2242 26.6143 11.8442C26.1808 12.5411 25.9508 13.3479 25.9508 14.1714C25.9508 14.9949 26.1808 15.8017 26.6143 16.4986C27.0449 17.1175 27.6359 17.604 28.3221 17.9047C29.0085 18.2091 29.7498 18.366 30.4991 18.3653C31.6026 18.3928 32.6781 18.0119 33.5239 17.294Z" fill="#F1F2F0"/>
<path d="M45.5732 20.9786H40.7784V2.56958H45.5732V20.9786Z" fill="#F1F2F0"/>
<path d="M59.3184 7.41284H64.1153V20.9786H59.3184V19.2357C58.0395 20.6966 56.1018 21.427 53.5052 21.427C51.5541 21.427 50.042 20.7757 48.969 19.4731C47.8959 18.1705 47.3613 16.0171 47.3653 13.0128V7.41284H52.1642V12.9378C52.1487 13.8342 52.2158 14.7302 52.3646 15.614C52.4865 16.3203 52.8262 16.9695 53.3348 17.4685C53.844 17.9663 54.6064 18.2152 55.622 18.2152C57.092 18.2152 58.0756 17.7214 58.5727 16.734C59.0698 15.7466 59.3157 14.4649 59.3104 12.8891L59.3184 7.41284Z" fill="#F1F2F0"/>
<path d="M91.1144 7.78608C91.935 8.3339 92.5457 9.22192 92.9466 10.4501C93.3475 11.6783 93.5479 13.3205 93.5479 15.3765V20.9785H88.7531V15.4516C88.7531 13.8933 88.5199 12.6198 88.0535 11.631C87.5871 10.6422 86.6891 10.1485 85.3594 10.1498C84.424 10.1498 83.715 10.3825 83.2326 10.8478C82.7382 11.3338 82.4072 11.9648 82.2864 12.6516C82.1251 13.5504 82.0513 14.4631 82.0659 15.3765V20.9785H77.245V15.4516C77.245 13.8582 77.0319 12.5765 76.6056 11.6067C76.1793 10.6368 75.3026 10.1512 73.9756 10.1498C72.9065 10.1498 72.1234 10.3987 71.6263 10.8965C71.1124 11.4222 70.7841 12.1046 70.6922 12.8382C70.5517 13.9279 70.49 15.0265 70.5078 16.1252V20.9785H65.7129V7.41274H69.8442L70.3835 9.17999C71.055 8.42356 71.9035 7.85006 72.8511 7.51216C74.0035 7.12136 75.2141 6.936 76.4292 6.96434C77.6599 6.96434 78.6622 7.197 79.436 7.66231C80.2097 8.12762 80.8077 8.88241 81.23 9.92666C81.7547 8.89351 82.6261 8.08348 83.6876 7.64202C84.7701 7.18753 86.1732 6.9596 87.8971 6.95825C89.2255 6.96231 90.2979 7.23825 91.1144 7.78608Z" fill="#F1F2F0"/>
<path d="M112.976 14.6299H99.5976C99.6621 15.7169 100.122 16.7411 100.889 17.505C101.652 18.2612 102.705 18.6392 104.05 18.6392C104.743 18.6435 105.431 18.5169 106.078 18.2659C106.668 18.0452 107.192 17.6766 107.602 17.1946C107.979 16.7522 108.185 16.1863 108.181 15.6018H112.976C112.986 16.7125 112.606 17.7907 111.906 18.6453C111.192 19.5327 110.163 20.2252 108.819 20.723C107.474 21.2208 105.876 21.4697 104.024 21.4697C102.413 21.4884 100.815 21.175 99.327 20.5485C97.9927 20.0058 96.8288 19.1068 95.9594 17.9473C95.1605 16.8246 94.7306 15.4759 94.7306 14.0923C94.7306 12.7086 95.1605 11.36 95.9594 10.2372C96.8235 9.08057 97.982 8.18354 99.311 7.64212C100.808 7.02024 102.414 6.71172 104.032 6.73517C105.632 6.707 107.22 7.01585 108.696 7.64212C109.955 8.17045 111.041 9.04653 111.831 10.1702C112.59 11.2954 112.989 12.6288 112.976 13.9908V14.1146V14.6299ZM99.8442 12.4163H108.009C107.565 10.4739 106.245 9.5027 104.05 9.5027C101.819 9.5027 100.417 10.4739 99.8442 12.4163Z" fill="#F1F2F0"/>
<path d="M16.323 8.01733H19.7648L19.6625 9.17588C19.4606 11.3374 18.7138 13.4102 17.4936 15.1959C16.8666 16.1176 16.1331 16.9601 15.3087 17.7057C14.4657 18.4719 13.5413 19.1408 12.5524 19.7002L11.1212 20.5118C10.8659 20.6548 10.5785 20.7289 10.2867 20.7267C9.99493 20.7246 9.70862 20.6464 9.45539 20.4996L8.05221 19.7002C6.08009 18.6031 4.38337 17.062 3.09298 15.1959C1.86983 13.4109 1.12212 11.3367 0.922065 9.17385L0.821838 8.01733H4.25963L4.35584 8.98313C4.52674 10.5908 5.09252 12.1295 6.00157 13.4591C6.99536 14.8962 8.29738 16.0871 9.8102 16.9428L10.2793 17.2066L10.7503 16.9408C12.2644 16.0887 13.5669 14.8987 14.559 13.4611C15.47 12.1317 16.0366 10.5919 16.2067 8.98313L16.323 8.01733Z" fill="#9ADF06"/>
<path d="M10.2933 21.4675C9.85611 21.4698 9.42627 21.3535 9.0485 21.1307L7.65734 20.3414C5.5904 19.1857 3.81343 17.5648 2.46358 15.6037C1.16967 13.7162 0.379729 11.5223 0.170387 9.23472L0 7.27675H4.96124L5.12361 8.91008C5.28172 10.397 5.8055 11.82 6.64706 13.0492C7.57822 14.3901 8.79743 15.5 10.2131 16.2956L10.2953 16.3402L10.3855 16.2895C11.7973 15.4947 13.0115 14.3844 13.9356 13.0431C14.7797 11.8136 15.3043 10.3887 15.461 8.89994L15.6254 7.2666H20.5906L20.4163 9.22863C20.2064 11.5173 19.418 13.7127 18.1271 15.6037C17.4655 16.5718 16.6931 17.4571 15.8258 18.2414C14.9411 19.0454 13.971 19.7477 12.9333 20.3353L11.5021 21.1469C11.1333 21.3576 10.7168 21.4681 10.2933 21.4675ZM1.65976 8.75994L1.68983 9.11095C1.87841 11.1515 2.58404 13.1083 3.73847 14.7921C4.95717 16.5606 6.56051 18.0224 8.42509 19.0652L9.82827 19.8625C9.96369 19.9418 10.1168 19.9849 10.2732 19.9877C10.4296 19.9905 10.5841 19.953 10.7223 19.8788L12.1575 19.0672C13.0973 18.5346 13.976 17.8984 14.7775 17.1701C15.5583 16.4632 16.2534 15.6649 16.8482 14.7921C17.9988 13.1067 18.7028 11.1506 18.8928 9.11095L18.9249 8.75791H17.0065L16.9765 9.05211C16.7937 10.7816 16.1851 12.4371 15.2064 13.8669C14.152 15.4015 12.7658 16.6728 11.1533 17.584L10.2953 18.0669L9.44339 17.584C7.82584 16.6729 6.43377 15.4019 5.37217 13.8669C4.39606 12.4399 3.7889 10.788 3.60617 9.06226L3.5761 8.76805L1.65976 8.75994Z" fill="#9ADF06"/>
<path d="M19.7788 1.27295H0.809814V4.76483H19.7788V1.27295Z" fill="#9ADF06"/>
<path d="M20.5425 5.53797H0.0480957V0.5H20.5425V5.53797ZM1.57355 3.98986H19.0131V2.04203H1.57355V3.98986Z" fill="#9ADF06"/>
</g>
<defs>
<clipPath id="clip0_7626_9263">
<rect width="113" height="21" fill="white" transform="translate(0 0.5)"/>
</clipPath>
</defs>
</svg>
