<svg id="Capa_1" data-name="Capa 1" xmlns="http://www.w3.org/2000/svg" viewBox="0 0 39 38"><defs><style>.cls-1{fill:#ef3333;fill-rule:evenodd;}</style></defs><path class="cls-1" d="M7.39,10c4.87-6.3,8.14-1.69,12.65,5.33,4-4.22,7.81-8.4,10.87-7.72-3,3.26-5.8,7.35-8.68,11.11a73.78,73.78,0,0,0,5.05,6.94L32.19,31c-7-3.48-10-5.9-12.77-8.82-2.64,3.05-5.45,5.55-8.69,6.7A2.52,2.52,0,0,1,8,26.46a2.87,2.87,0,0,1,2-3.31c2.11-.49,4.32-2.16,6.52-4.24-1.3-1.48-2.78-3.14-4.75-5.12A2.9,2.9,0,0,1,7.39,10Z"/></svg>