<svg width="81" height="81" viewBox="0 0 81 81" fill="none" xmlns="http://www.w3.org/2000/svg">
<path d="M70.3862 2.44397H10.6138C6.10173 2.44397 2.44397 6.10173 2.44397 10.6138V70.3862C2.44397 74.8983 6.10173 78.556 10.6138 78.556H70.3862C74.8983 78.556 78.556 74.8983 78.556 70.3862V10.6138C78.556 6.10173 74.8983 2.44397 70.3862 2.44397Z" fill="#3A3A3A"/>
<path d="M25.0332 51.9587C26.1016 52.6989 26.6043 54.0535 26.5485 55.7852C26.4298 59.4582 23.7135 64.1645 20.5782 66.1337C19.0769 67.0624 17.5686 67.2998 16.3397 66.6644C15.4973 66.2816 14.685 65.8357 13.9097 65.3307C12.988 64.5835 12.562 63.2358 12.6109 61.6298C12.7296 57.8312 15.404 53.1597 18.658 51.1557C20.0126 50.3177 21.3673 50.0175 22.4636 50.4155C23.3615 50.8576 24.221 51.3738 25.0332 51.9587ZM14.5591 63.0194C14.5711 63.049 14.5709 63.0822 14.5584 63.1117C14.546 63.1411 14.5224 63.1644 14.4927 63.1765C14.4631 63.1885 14.4299 63.1883 14.4004 63.1758C14.371 63.1634 14.3477 63.1398 14.3356 63.1101C13.8119 61.8882 14.1052 60.2193 14.5172 58.9973C14.5301 58.9694 14.5528 58.9473 14.5809 58.935C14.609 58.9227 14.6407 58.9212 14.6699 58.9306C14.6991 58.94 14.7238 58.9599 14.7394 58.9863C14.755 59.0127 14.7604 59.044 14.7546 59.0741C14.3566 60.2332 14.0563 61.8672 14.5591 63.0194ZM45.388 18.2808C45.3813 18.3083 45.3657 18.3327 45.3435 18.3501C45.3214 18.3676 45.294 18.3771 45.2658 18.3771C45.2375 18.3771 45.2101 18.3676 45.188 18.3501C45.1658 18.3327 45.1502 18.3083 45.1436 18.2808C45.4186 16.9715 46.1093 15.7861 47.1127 14.9012C47.1242 14.8902 47.1377 14.8815 47.1525 14.8758C47.1673 14.87 47.1831 14.8672 47.199 14.8675C47.2148 14.8678 47.2305 14.8713 47.2451 14.8776C47.2596 14.884 47.2728 14.8932 47.2838 14.9047C47.2948 14.9161 47.3034 14.9297 47.3092 14.9445C47.315 14.9593 47.3178 14.975 47.3175 14.9909C47.3171 15.0068 47.3137 15.0225 47.3073 15.037C47.3009 15.0516 47.2917 15.0647 47.2803 15.0758C46.3245 15.9155 45.6615 17.0383 45.388 18.2808ZM34.9138 52.252C34.9072 52.2794 34.8916 52.3038 34.8694 52.3213C34.8472 52.3387 34.8198 52.3482 34.7916 52.3482C34.7634 52.3482 34.736 52.3387 34.7138 52.3213C34.6917 52.3038 34.676 52.2794 34.6694 52.252C34.9969 50.7905 35.6643 49.4269 36.6176 48.2718C36.6394 48.2538 36.6665 48.2437 36.6947 48.243C36.7229 48.2423 36.7506 48.2512 36.7731 48.2681C36.7957 48.285 36.8119 48.3091 36.8192 48.3363C36.8264 48.3636 36.8243 48.3925 36.8131 48.4184C35.8881 49.5296 35.2375 50.8428 34.9138 52.252ZM65.2539 35.4235C65.2794 35.4085 65.3094 35.4029 65.3386 35.4078C65.3678 35.4127 65.3943 35.4277 65.4135 35.4502C65.4327 35.4728 65.4433 35.5014 65.4435 35.531C65.4437 35.5606 65.4334 35.5893 65.4145 35.612C64.1995 36.6804 62.0418 37.0086 60.4707 37.0086C60.4433 37.002 60.4189 36.9863 60.4014 36.9642C60.3839 36.942 60.3744 36.9146 60.3744 36.8864C60.3744 36.8582 60.3839 36.8308 60.4014 36.8086C60.4189 36.7864 60.4433 36.7708 60.4707 36.7642C61.979 36.7642 64.0878 36.443 65.2539 35.4095V35.4235ZM62.1466 48.0623C62.1466 48.0308 62.1591 48.0006 62.1813 47.9784C62.2036 47.9561 62.2338 47.9436 62.2653 47.9436C62.2974 47.9436 62.3284 47.9558 62.3518 47.9779C62.3752 48 62.3892 48.0302 62.391 48.0623V50.611C62.391 50.6275 62.3877 50.6439 62.3814 50.6591C62.3751 50.6744 62.3658 50.6882 62.3542 50.6999C62.3425 50.7116 62.3286 50.7208 62.3134 50.7271C62.2981 50.7334 62.2818 50.7367 62.2653 50.7367C62.2491 50.7367 62.2331 50.7334 62.2182 50.727C62.2033 50.7206 62.1899 50.7113 62.1788 50.6995C62.1677 50.6877 62.1591 50.6738 62.1535 50.6586C62.148 50.6434 62.1456 50.6272 62.1466 50.611V48.0623ZM63.3336 46.6658C63.3336 46.6496 63.3369 46.6335 63.3433 46.6187C63.3497 46.6038 63.3591 46.5904 63.3708 46.5792C63.3826 46.5681 63.3965 46.5595 63.4118 46.554C63.427 46.5485 63.4432 46.5461 63.4593 46.547C63.4903 46.5487 63.5195 46.5618 63.5414 46.5837C63.5633 46.6056 63.5764 46.6348 63.578 46.6658V51.9517C63.5781 51.9839 63.5658 52.0148 63.5437 52.0382C63.5216 52.0616 63.4914 52.0756 63.4593 52.0774C63.426 52.0774 63.394 52.0641 63.3705 52.0406C63.3469 52.017 63.3336 51.985 63.3336 51.9517V46.6658ZM19.3423 44.0263C19.3489 43.9988 19.3645 43.9744 19.3867 43.957C19.4088 43.9395 19.4362 43.93 19.4645 43.93C19.4927 43.93 19.5201 43.9395 19.5422 43.957C19.5644 43.9744 19.5801 43.9988 19.5867 44.0263V46.575C19.5801 46.6024 19.5644 46.6268 19.5422 46.6443C19.5201 46.6618 19.4927 46.6712 19.4645 46.6712C19.4362 46.6712 19.4088 46.6618 19.3867 46.6443C19.3645 46.6268 19.3489 46.6024 19.3423 46.575V44.0263ZM18.1482 42.6297C18.1548 42.6023 18.1705 42.5779 18.1926 42.5604C18.2148 42.5429 18.2422 42.5334 18.2704 42.5334C18.2986 42.5334 18.326 42.5429 18.3482 42.5604C18.3704 42.5779 18.386 42.6023 18.3926 42.6297V47.9715C18.3971 47.99 18.3973 48.0093 18.3932 48.0278C18.3891 48.0464 18.3809 48.0638 18.3691 48.0787C18.3574 48.0937 18.3424 48.1057 18.3253 48.114C18.3082 48.1223 18.2894 48.1266 18.2704 48.1266C18.2514 48.1266 18.2326 48.1223 18.2155 48.114C18.1984 48.1057 18.1834 48.0937 18.1717 48.0787C18.1599 48.0638 18.1517 48.0464 18.1476 48.0278C18.1436 48.0093 18.1438 47.99 18.1482 47.9715V42.6297ZM39.4107 36.848C39.4173 36.8206 39.433 36.7961 39.4551 36.7787C39.4773 36.7612 39.5047 36.7517 39.5329 36.7517C39.5611 36.7517 39.5885 36.7612 39.6107 36.7787C39.6329 36.7961 39.6485 36.8206 39.6551 36.848V39.4526C39.6485 39.48 39.6329 39.5044 39.6107 39.5219C39.5885 39.5393 39.5611 39.5488 39.5329 39.5488C39.5047 39.5488 39.4773 39.5393 39.4551 39.5219C39.433 39.5044 39.4173 39.48 39.4107 39.4526V36.848ZM38.2167 35.4514C38.2233 35.424 38.2389 35.3996 38.2611 35.3821C38.2832 35.3647 38.3106 35.3552 38.3389 35.3552C38.3671 35.3552 38.3945 35.3647 38.4166 35.3821C38.4388 35.3996 38.4545 35.424 38.4611 35.4514V40.7444C38.4545 40.7718 38.4388 40.7962 38.4166 40.8137C38.3945 40.8311 38.3671 40.8406 38.3389 40.8406C38.3106 40.8406 38.2832 40.8311 38.2611 40.8137C38.2389 40.7962 38.2233 40.7718 38.2167 40.7444V35.4514ZM59.1649 23.064C59.1715 23.0366 59.1872 23.0122 59.2094 22.9947C59.2315 22.9773 59.2589 22.9678 59.2871 22.9678C59.3154 22.9678 59.3428 22.9773 59.3649 22.9947C59.3871 23.0122 59.4027 23.0366 59.4093 23.064V25.6127C59.4027 25.6402 59.3871 25.6646 59.3649 25.682C59.3428 25.6995 59.3154 25.709 59.2871 25.709C59.2589 25.709 59.2315 25.6995 59.2094 25.682C59.1872 25.6646 59.1715 25.6402 59.1649 25.6127V23.064ZM60.352 21.6675C60.3586 21.64 60.3743 21.6156 60.3964 21.5982C60.4186 21.5807 60.446 21.5712 60.4742 21.5712C60.5024 21.5712 60.5298 21.5807 60.552 21.5982C60.5742 21.6156 60.5898 21.64 60.5964 21.6675V26.9534C60.5898 26.9809 60.5742 27.0053 60.552 27.0227C60.5298 27.0402 60.5024 27.0497 60.4742 27.0497C60.446 27.0497 60.4186 27.0402 60.3964 27.0227C60.3743 27.0053 60.3586 26.9809 60.352 26.9534V21.6675ZM19.8101 13.2114C19.8101 13.178 19.8234 13.146 19.8469 13.1225C19.8705 13.0989 19.9025 13.0857 19.9358 13.0857C19.9691 13.0857 20.0011 13.0989 20.0247 13.1225C20.0482 13.146 20.0615 13.178 20.0615 13.2114V15.7601C20.0615 15.7934 20.0482 15.8254 20.0247 15.8489C20.0011 15.8725 19.9691 15.8858 19.9358 15.8858C19.9025 15.8858 19.8705 15.8725 19.8469 15.8489C19.8234 15.8254 19.8101 15.7934 19.8101 15.7601V13.2114ZM18.623 11.8148C18.6372 11.793 18.6578 11.7761 18.682 11.7665C18.7062 11.7569 18.7327 11.755 18.758 11.7612C18.7833 11.7673 18.8061 11.7811 18.8232 11.8007C18.8403 11.8203 18.8509 11.8448 18.8535 11.8707V17.1566C18.8469 17.184 18.8312 17.2085 18.8091 17.2259C18.7869 17.2434 18.7595 17.2529 18.7313 17.2529C18.7031 17.2529 18.6757 17.2434 18.6535 17.2259C18.6313 17.2085 18.6157 17.184 18.6091 17.1566L18.623 11.8148ZM46.7845 41.4147L48.4255 43.0347C49.2424 43.8657 49.2075 45.3739 48.4883 47.1266C47.0149 50.7157 42.9021 54.8076 39.3269 56.274C37.6092 56.9723 36.1358 56.9723 35.263 56.1763L33.6569 54.661C33.3397 54.3454 33.1089 53.9537 32.9866 53.5233C32.8644 53.0929 32.8547 52.6383 32.9586 52.2031C33.2589 50.0524 34.9138 47.6992 36.3104 46.0862C38.0647 44.0232 40.257 42.3772 42.7275 41.2681C43.9146 40.8002 45.7511 40.4022 46.7775 41.3868L46.7845 41.4147ZM33.9572 54.3049C34.6555 54.8845 35.8984 54.8146 37.3787 54.2211C40.8701 52.8245 44.9411 48.8025 46.3795 45.3041C47.0149 43.74 47.0778 42.4412 46.3795 41.7569C45.5206 40.891 43.8308 41.3658 42.8881 41.7569C40.4877 42.8366 38.3576 44.4371 36.6525 46.4423C35.3188 47.9506 33.7267 50.2339 33.4335 52.2729C33.3401 52.6292 33.3391 53.0035 33.4308 53.3603C33.5224 53.7171 33.7036 54.0447 33.9572 54.3119V54.3049ZM34.9138 55.1638L35.6121 55.8132C36.3104 56.4695 37.6231 56.4346 39.1663 55.8132C42.6577 54.4166 46.6309 50.3945 48.0554 46.9381C48.6978 45.367 48.7536 44.0542 48.0973 43.3769L47.399 42.6786C47.4747 43.6381 47.299 44.6008 46.8892 45.4717C45.3391 49.1167 41.1983 53.2226 37.5603 54.675C36.7296 55.0461 35.8223 55.2137 34.9138 55.1638ZM35.3188 18.9372C36.0171 19.9358 36.1498 21.3742 35.6749 22.9593C35.0168 24.9112 33.8955 26.6746 32.407 28.0986C31.4321 29.0767 30.3251 29.9134 29.1181 30.5845C29.2245 30.8449 29.3178 31.1106 29.3974 31.3805C29.8513 32.8818 29.8024 34.2434 29.167 35.1931C28.8875 35.5529 28.5716 35.8828 28.2243 36.1776L27.4143 36.9388C27.226 37.1339 27.0204 37.3116 26.7999 37.4695C25.8083 38.1677 24.4117 38.2236 22.8755 37.7627C19.2934 36.6944 15.4948 32.8748 14.4055 29.3066C13.8817 27.5889 14.0284 26.0596 14.978 25.117C15.5157 24.5444 16.0604 23.9508 16.612 23.3992C17.5617 22.4495 19.1118 22.3029 20.8436 22.8266C21.067 22.8895 21.2905 22.9733 21.5418 23.057C22.2138 21.8428 23.0556 20.7307 24.0417 19.7542C25.4941 18.2439 27.2876 17.1041 29.2717 16.4304C30.3771 16.0164 31.5949 16.0164 32.7003 16.4304C33.6985 17.1139 34.5783 17.9559 35.3049 18.9233L35.3188 18.9372ZM28.9575 30.1096C30.0938 29.4597 31.1368 28.6587 32.0579 27.7285C33.4881 26.3591 34.5682 24.6659 35.2071 22.7917C35.4211 22.2363 35.5156 21.642 35.4843 21.0476C35.453 20.4532 35.2967 19.8721 35.0255 19.3422C34.819 19.0507 34.5852 18.7795 34.3273 18.5322C34.4684 19.4287 34.3918 20.346 34.1038 21.2066C33.418 23.2063 32.2585 25.0103 30.7242 26.4646C29.9241 27.2867 29.0313 28.0131 28.0637 28.6293C28.3855 29.1231 28.6725 29.6388 28.9226 30.1725L28.9575 30.1096ZM32.4489 16.8424C31.4735 16.5197 30.4176 16.5369 29.4533 16.8913C27.549 17.5424 25.8277 18.6388 24.4327 20.0894C23.4909 21.0236 22.6826 22.0833 22.0306 23.2386C24.3686 24.3522 26.3758 26.0562 27.8542 28.1824C28.7989 27.5879 29.6707 26.8848 30.4518 26.0876C31.9045 24.6942 33.0013 22.9724 33.6499 21.067C33.9956 20.1238 34.0202 19.0928 33.7198 18.1342C33.6109 17.839 33.4416 17.5699 33.2228 17.3438C33.0039 17.1178 32.7404 16.9399 32.4489 16.8214V16.8424ZM69.1992 62.9984C69.5343 62.0557 69.255 60.8547 68.5009 59.6327C66.5876 56.5464 62.0628 53.9278 58.4248 53.8161C56.9305 53.7672 55.7085 54.1582 55.08 54.9892C54.1792 56.1832 54.7588 57.7823 55.4641 58.9554C57.3773 62.0418 61.9022 64.6603 65.5402 64.772C66.9367 64.8139 68.1378 64.4648 68.7872 63.7107C68.9722 63.5083 69.1147 63.2709 69.2061 63.0124L69.1992 62.9984ZM68.3892 65.4145C68.296 65.5853 68.1934 65.7508 68.0819 65.9102C67.3836 66.8808 65.9871 67.3068 64.3461 67.3068C60.5755 67.1811 55.904 64.5137 53.872 61.2876C53.0341 59.947 52.7268 58.6132 53.1039 57.5309C53.5174 56.5837 54.0176 55.6767 54.5982 54.8216C55.2965 53.7951 56.693 53.3133 58.4178 53.3622C62.2164 53.4809 66.8879 56.1553 68.8919 59.4093C69.7578 60.8058 70.0441 62.2024 69.5902 63.3057C69.2295 64.0472 68.8189 64.7634 68.3612 65.4494L68.3892 65.4145ZM54.1304 56.6232C53.9035 56.97 53.7139 57.3398 53.5648 57.7264C53.4511 58.293 53.4589 58.8773 53.5877 59.4406C53.7165 60.0039 53.9633 60.5335 54.3119 60.9944C56.2322 64.0528 60.757 66.6644 64.3601 66.7831C65.8614 66.8389 67.0694 66.4479 67.6979 65.61C67.7956 65.4773 67.8724 65.3237 67.9562 65.184L68.2076 64.7581C67.3649 65.147 66.4385 65.3198 65.5123 65.2608C61.7136 65.1421 57.0422 62.4677 55.0381 59.2138C54.5248 58.4392 54.2128 57.5488 54.1304 56.6232ZM58.753 11.5006L59.8702 13.4767C60.5685 14.6358 60.2822 16.1511 59.3325 17.6664C57.3355 20.8714 52.657 23.5668 48.8584 23.7064C47.0499 23.7763 45.6044 23.2456 44.9341 22.1074L43.768 20.1243C42.923 18.7626 43.4886 17.0658 44.2637 15.8159C46.3027 12.5689 50.9742 9.90153 54.7728 9.77584C56.2392 9.72696 57.9918 10.0831 58.753 11.4936V11.5006ZM44.1799 19.8101C44.8782 20.9971 46.4144 21.2625 47.6713 21.2066C51.3093 21.0949 55.8342 18.4833 57.7474 15.39C58.6133 13.9934 58.8577 12.6527 58.2851 11.6612C57.7125 10.6696 56.4137 10.2018 54.7937 10.2646C51.1557 10.3833 46.6309 12.9949 44.6897 16.0603C43.8308 17.4569 43.5794 18.7976 44.152 19.7891L44.1799 19.8101ZM44.9969 21.2066L45.388 21.87C45.9605 22.8406 47.2523 23.2665 48.8793 23.2665C52.4894 23.1339 57.0142 20.5223 58.9205 17.4569C59.7794 16.0603 60.0238 14.7406 59.4512 13.756L59.0881 13.1066C59.0057 14.0322 58.6937 14.9226 58.1804 15.6972C56.1763 18.9302 51.4979 21.6256 47.7062 21.7443C46.7776 21.8044 45.8487 21.6316 45.0039 21.2415L44.9969 21.2066ZM16.9681 23.7414C15.9975 24.7539 16.1302 26.2482 16.5073 27.4981C17.5617 30.9895 21.2555 34.6694 24.733 35.7238C25.75 36.1207 26.8791 36.1207 27.8961 35.7238C28.2548 35.5374 28.5564 35.2575 28.769 34.9138C29.0352 34.3945 29.1873 33.8242 29.215 33.2413C29.2427 32.6584 29.1454 32.0763 28.9296 31.5341C27.8752 28.0427 24.1813 24.3558 20.7039 23.3084C19.1467 22.8406 17.7781 22.9453 16.9681 23.7483V23.7414ZM15.816 24.9424L15.3272 25.4591C14.3915 26.6252 14.4474 27.7774 14.8733 29.167C15.9137 32.5745 19.5867 36.3103 23.0431 37.2949C23.5961 37.508 24.1876 37.6025 24.7794 37.5725C25.3712 37.5424 25.9501 37.3883 26.4786 37.1203C26.6887 36.9811 26.883 36.8196 27.0582 36.6385L27.3026 36.4081C26.4061 36.5492 25.4888 36.4726 24.6282 36.1846C20.9483 35.0814 17.1357 31.2688 16.0604 27.6308C15.7723 26.7629 15.6956 25.8388 15.8369 24.9354L15.816 24.9424ZM68.5218 34.2714V36.2405C68.5218 37.5812 67.5163 38.7822 65.9033 39.6341C62.5865 41.3938 57.1958 41.4217 53.893 39.6341C52.3218 38.7822 51.3582 37.5812 51.3093 36.2265L51.2465 34.4389C51.2185 34.1113 51.2185 33.782 51.2465 33.4544C51.435 32.2813 52.3847 31.2478 53.8161 30.4867C57.1749 28.7061 62.5725 28.734 65.9103 30.5426C67.3767 31.3386 68.3193 32.4139 68.466 33.622C68.466 33.8314 68.466 34.0689 68.466 34.2783L68.5218 34.2714ZM51.8121 34.4599C52.0087 34.9858 52.3082 35.4673 52.6931 35.8761C53.0779 36.285 53.5405 36.613 54.0536 36.841C57.2517 38.5797 62.4748 38.6007 65.6868 36.8969C66.9926 36.1986 67.8515 35.2839 68.0051 34.2644C68.0366 34.0537 68.0366 33.8396 68.0051 33.6289C67.8655 32.6095 67.0136 31.6738 65.7148 30.9685C62.5167 29.2368 57.2936 29.2089 54.0815 30.9126C53.5442 31.1392 53.0617 31.4783 52.6666 31.9071C52.2715 32.3359 51.973 32.8445 51.7911 33.3985C51.7075 33.7474 51.7075 34.111 51.7911 34.4599H51.8121ZM51.8121 35.5562V36.2056C51.854 37.3717 52.7268 38.4261 54.1373 39.1942C57.3005 40.9189 62.5167 40.884 65.6868 39.1942C67.1392 38.4191 68.047 37.3717 68.054 36.2265V35.4794C67.5253 36.2615 66.8038 36.894 65.9592 37.3158C62.5586 39.1034 57.1609 39.1034 53.8161 37.2739C53.0169 36.8692 52.3253 36.2805 51.7981 35.5562H51.8121ZM24.0696 51.9238C24.4352 52.7483 24.5957 53.6492 24.5374 54.5493C24.4187 58.3479 21.7443 63.0194 18.4904 65.0234C17.7429 65.5189 16.8886 65.83 15.9975 65.9312L16.5631 66.2314C17.6315 66.7761 18.9652 66.5457 20.3199 65.7147C23.3155 63.8643 25.948 59.2766 26.0597 55.7643C26.1086 54.27 25.6966 53.062 24.8237 52.4126C24.5933 52.238 24.314 52.0774 24.0696 51.9238ZM18.232 64.6114C21.3254 62.6912 23.9369 58.1664 24.0486 54.5353C24.0905 53.1946 23.7763 51.4839 22.3937 50.9113C21.4301 50.5063 20.1872 50.7786 18.9024 51.5676C15.816 53.4809 13.2044 58.0057 13.0857 61.6438C13.0183 62.2208 13.0743 62.8056 13.2501 63.3594C13.4258 63.9132 13.7173 64.4233 14.1052 64.8558C15.2923 65.9382 17.024 65.3586 18.225 64.6114H18.232Z" fill="#F1F2F0"/>
</svg>
