<svg width="82" height="80" viewBox="0 0 82 80" fill="none" xmlns="http://www.w3.org/2000/svg">
<path d="M43.4665 56.3703C37.8157 56.3703 33.2126 51.7673 33.2126 46.1164C33.2126 40.4656 37.8156 35.8625 43.4665 35.8625C49.1173 35.8625 53.7204 40.4655 53.7204 46.1164C53.7204 51.7672 49.117 56.3703 43.4665 56.3703ZM43.4665 37.2404C38.5736 37.2404 34.5909 41.2236 34.5909 46.116C34.5909 51.009 38.574 54.9916 43.4665 54.9916C48.3595 54.9916 52.3421 51.0085 52.3421 46.116C52.3421 41.2236 48.359 37.2404 43.4665 37.2404Z" fill="#8ABD1F"/>
<path d="M43.5642 42.0513C43.1783 42.0513 42.875 41.7481 42.875 41.3622V39.6667C42.875 39.2808 43.1783 38.9775 43.5642 38.9775C43.9501 38.9775 44.2533 39.2808 44.2533 39.6667V41.3622C44.2529 41.7342 43.9501 42.0513 43.5642 42.0513Z" fill="#8ABD1F"/>
<path d="M43.3571 53.2692C42.9712 53.2692 42.668 52.9659 42.668 52.58V50.8845C42.668 50.4986 42.9712 50.1954 43.3571 50.1954C43.743 50.1954 44.0463 50.4986 44.0463 50.8845V52.58C44.0463 52.9663 43.743 53.2692 43.3571 53.2692Z" fill="#8ABD1F"/>
<path d="M43.2184 51.5748H43.0532C41.7852 51.506 40.3103 50.6516 40.338 48.4461C40.338 48.074 40.6551 47.7569 41.0272 47.7569C41.4131 47.7569 41.7164 48.074 41.7164 48.4461C41.7025 49.8244 42.4743 50.1549 43.1219 50.1826C43.9901 50.2242 45.0514 49.6864 45.1201 48.9146V48.887C45.2854 47.5779 43.5905 46.861 43.0665 46.6681C40.9303 45.8963 40.0481 44.7248 40.4478 43.2089C40.9717 41.1968 42.6529 40.4938 44.0035 40.7007C45.5748 40.9351 46.636 42.2303 46.5806 43.8566C46.5668 44.2425 46.2496 44.5319 45.8638 44.5181C45.4779 44.5042 45.1884 44.1871 45.2023 43.8012C45.2438 42.6712 44.472 42.1611 43.7967 42.0508C43.0665 41.9405 42.1151 42.2715 41.7846 43.5528C41.6332 44.1178 41.7431 44.7243 43.5489 45.372C44.3207 45.6476 46.7879 46.7364 46.4985 49.0519C46.3471 50.6101 44.7209 51.5748 43.2184 51.5748Z" fill="#8ABD1F"/>
<path d="M61.8796 69.6569C61.7554 69.6569 61.6451 69.6292 61.5352 69.5604C61.3284 69.4363 61.1909 69.2161 61.1909 68.9677V67.3553H43.6038C37.8426 67.3553 32.4125 65.1088 28.3469 61.0292C24.2673 56.9496 22.0208 51.5333 22.0208 45.7723C22.0208 40.0111 24.2673 34.581 28.3469 30.5154C32.4265 26.4497 37.8428 24.1893 43.6038 24.1893C49.3648 24.1893 54.7951 26.4358 58.8607 30.5154C62.0997 33.7544 64.2359 37.9715 64.9247 42.4642H66.7854C67.0333 42.4642 67.2539 42.6022 67.3781 42.8086C67.5022 43.0154 67.5022 43.2909 67.3781 43.4977L62.1408 52.5801C62.0167 52.7869 61.7965 52.9245 61.5481 52.9245C61.3003 52.9245 61.0796 52.7865 60.9555 52.5801L55.7182 43.4977C55.594 43.2909 55.594 43.0154 55.7182 42.8086C55.8424 42.6018 56.0626 42.4642 56.3109 42.4642H57.5373C56.9308 39.8871 55.6217 37.544 53.7333 35.6556C51.032 32.9543 47.4349 31.4658 43.6036 31.4658C39.7723 31.4658 36.189 32.9543 33.4738 35.6556C30.7725 38.3569 29.2839 41.9541 29.2839 45.7854C29.2839 49.6167 30.7725 53.2 33.4738 55.9151C36.1751 58.6302 39.7723 60.105 43.6036 60.105H61.1895V58.4926C61.1895 58.2447 61.3275 58.0241 61.5339 57.8999C61.7407 57.7757 62.0163 57.7757 62.2231 57.8999L71.3054 63.1371C71.5122 63.2613 71.6498 63.4815 71.6498 63.7298C71.6498 63.9777 71.5118 64.1984 71.3054 64.3225L68.0803 66.1832C67.9838 66.4311 67.7359 66.6107 67.4465 66.6107L67.3362 66.6111L62.2231 69.5607C62.1128 69.6295 62.0025 69.6567 61.8787 69.6567L61.8796 69.6569ZM43.6037 25.5674C38.2012 25.5674 33.1292 27.676 29.3114 31.48C25.4935 35.284 23.3988 40.3695 23.3988 45.7723C23.3988 51.1748 25.5074 56.2468 29.3114 60.0645C33.1293 63.8824 38.2008 65.9771 43.6037 65.9771H61.8785C62.2644 65.9771 62.5677 66.2804 62.5677 66.6663V67.769L66.8125 65.3157C66.8674 65.288 66.9089 65.2608 66.9639 65.2469C67.0054 65.2054 67.0465 65.1781 67.1019 65.1366L69.5825 63.7034L62.5671 59.6515V60.7542C62.5671 61.1401 62.2639 61.4434 61.878 61.4434L43.6031 61.4425C39.4133 61.4425 35.4717 59.8163 32.5082 56.8395C29.5452 53.8765 27.9052 49.9345 27.9052 45.7446C27.9052 41.5547 29.5315 37.6132 32.5082 34.6497C35.4851 31.6867 39.4133 30.0467 43.6031 30.0467C47.793 30.0467 51.7346 31.673 54.6981 34.6497C56.9857 36.9374 58.5021 39.832 59.0532 43.0018C59.0947 43.2086 59.0393 43.4154 58.9018 43.5668C58.7638 43.7182 58.5708 43.8147 58.3779 43.8147H57.4958L61.5477 50.83L65.5996 43.8147H64.3316C63.9872 43.8147 63.6978 43.553 63.6424 43.2082C63.0913 38.7981 61.0376 34.6221 57.8812 31.4654C54.0776 27.6761 48.9918 25.567 43.6033 25.567L43.6037 25.5674Z" fill="#8ABD1F"/>
<path d="M16.9365 39.7356C16.6886 39.7356 16.4679 39.5976 16.3438 39.3913L11.0931 30.3085C10.969 30.1017 10.969 29.8261 11.0931 29.6193C11.2173 29.4125 11.4375 29.2749 11.6858 29.2749H13.5465C14.2357 24.7818 16.3858 20.5647 19.6105 17.3261C23.6901 13.2466 29.1064 11 34.8674 11C40.6284 11 46.0587 13.2466 50.1243 17.3261C53.1704 20.3722 55.2102 24.1896 56.0369 28.3795C56.1057 28.7516 55.8717 29.1098 55.4996 29.1929C55.1275 29.2616 54.7693 29.0276 54.6863 28.6555C53.9145 24.7278 51.9988 21.1445 49.1458 18.3052C45.3279 14.4873 40.2563 12.3926 34.8535 12.3926C29.451 12.3926 24.379 14.5012 20.5613 18.3052C17.4053 21.4611 15.3517 25.6372 14.8001 30.048C14.7585 30.3924 14.4691 30.6545 14.1109 30.6545H12.8429L16.8948 37.6699L20.9467 30.6545H20.0646C19.8578 30.6545 19.6649 30.5581 19.5407 30.4066C19.4165 30.2552 19.3478 30.0484 19.3893 29.8416C19.9543 26.6719 21.4568 23.7776 23.7444 21.4895C26.7074 18.5265 30.6494 16.8866 34.8393 16.8866C39.0292 16.8866 42.9708 18.5128 45.9342 21.4895C46.9816 22.5369 47.8776 23.7223 48.5945 25.0313C48.7736 25.3623 48.6632 25.7893 48.3189 25.9684C47.9879 26.1475 47.5609 26.0372 47.3818 25.6928C46.7342 24.5074 45.9071 23.4185 44.9562 22.4676C42.2549 19.7663 38.6577 18.2778 34.8265 18.2778C30.9943 18.2778 27.4664 19.7521 24.7512 22.4672C22.8628 24.3556 21.5538 26.6982 20.9472 29.2758H22.1736C22.4215 29.2758 22.6421 29.4138 22.7663 29.6201C22.8905 29.8269 22.8905 30.1025 22.7663 30.3093L17.5291 39.3917C17.4049 39.5989 17.1847 39.7365 16.9364 39.7365L16.9365 39.7356Z" fill="#8ABD1F"/>
</svg>
