<svg width="81" height="81" viewBox="0 0 81 81" fill="none" xmlns="http://www.w3.org/2000/svg">
<path d="M70.456 2.90485H10.6836C6.17155 2.90485 2.51379 6.5626 2.51379 11.0747V70.8471C2.51379 75.3592 6.17155 79.0169 10.6836 79.0169H70.456C74.9681 79.0169 78.6259 75.3592 78.6259 70.8471V11.0747C78.6259 6.5626 74.9681 2.90485 70.456 2.90485Z" fill="#3A3A3A"/>
<path d="M38.1887 61.4483C38.1615 61.4573 38.1321 61.4573 38.1049 61.4483L23.9718 52.5103C23.938 52.4887 23.9136 52.4552 23.9032 52.4164C23.8929 52.3777 23.8974 52.3364 23.916 52.3009C24.1172 51.9174 24.2227 51.491 24.2232 51.0579C24.2279 50.7091 24.1627 50.3628 24.0313 50.0396C23.9 49.7164 23.7052 49.4228 23.4585 49.1761C23.2118 48.9294 22.9182 48.7347 22.595 48.6033C22.2718 48.472 21.9256 48.4068 21.5767 48.4115C21.5347 48.4097 21.4948 48.3923 21.4651 48.3625C21.4353 48.3328 21.4179 48.2929 21.4161 48.2509V31.7715C21.4161 31.729 21.4331 31.6881 21.4632 31.658C21.4933 31.6279 21.5341 31.6109 21.5767 31.6109C22.026 31.6105 22.4678 31.4962 22.8609 31.2789C23.2541 31.0615 23.5858 30.7482 23.8252 30.368C23.8469 30.3324 23.8817 30.3067 23.9221 30.2962C23.9625 30.2858 24.0054 30.2915 24.0417 30.3121L38.1817 39.1872C38.2149 39.2111 38.2387 39.2458 38.2489 39.2854C38.2591 39.3249 38.2551 39.3668 38.2376 39.4037C38.0295 39.7848 37.9214 40.2124 37.9234 40.6466C37.92 41.0516 38.0093 41.452 38.1845 41.8171C38.3597 42.1822 38.6162 42.5023 38.9343 42.753C39.2523 43.0037 39.6236 43.1782 40.0195 43.2633C40.4155 43.3483 40.8256 43.3416 41.2186 43.2437C41.6115 43.1457 41.9769 42.9591 42.2865 42.6981C42.5962 42.4372 42.8421 42.1088 43.0053 41.7381C43.1684 41.3675 43.2446 40.9644 43.2279 40.5598C43.2113 40.1551 43.1022 39.7597 42.9091 39.4037C42.8894 39.3679 42.8835 39.3261 42.8925 39.2862C42.9015 39.2464 42.9248 39.2112 42.9579 39.1872L56.8676 30.4658C56.8952 30.4597 56.9238 30.4597 56.9514 30.4658C56.9775 30.4657 57.0033 30.4721 57.0264 30.4843C57.0495 30.4964 57.0693 30.514 57.0841 30.5356C57.3288 30.8775 57.6516 31.156 58.0257 31.3479C58.3998 31.5398 58.8143 31.6396 59.2348 31.6389C59.3347 31.6463 59.4351 31.6463 59.535 31.6389C59.5735 31.6256 59.6153 31.6256 59.6537 31.6389C59.6711 31.6549 59.6849 31.6744 59.6946 31.696C59.7042 31.7176 59.7093 31.7409 59.7096 31.7646V48.0484C59.7096 48.0909 59.6927 48.1318 59.6625 48.1619C59.6324 48.192 59.5916 48.209 59.549 48.209C58.8471 48.209 58.174 48.4878 57.6776 48.9841C57.1813 49.4804 56.9025 50.1535 56.9025 50.8554C56.8961 51.3488 57.0318 51.8337 57.2936 52.252C57.3034 52.2715 57.3085 52.293 57.3085 52.3148C57.3085 52.3366 57.3034 52.3582 57.2936 52.3777C57.2895 52.398 57.2811 52.4172 57.2691 52.434C57.2571 52.4509 57.2416 52.465 57.2237 52.4754L43.0348 61.3854C43.0072 61.3915 42.9786 61.3915 42.951 61.3854C42.9233 61.3846 42.8961 61.3772 42.8719 61.3639C42.8476 61.3505 42.8268 61.3316 42.8113 61.3086C42.5772 60.9268 42.2485 60.6118 41.8571 60.3941C41.4657 60.1764 41.0247 60.0632 40.5768 60.0657C40.1272 60.0642 39.6847 60.1776 39.2912 60.3951C38.8977 60.6127 38.5663 60.9271 38.3284 61.3086C38.3252 61.3446 38.3095 61.3783 38.284 61.4039C38.2584 61.4294 38.2247 61.4451 38.1887 61.4483ZM40.5768 59.8073C40.9594 59.8201 41.3355 59.9102 41.6823 60.0722C42.0291 60.2342 42.3395 60.4648 42.5948 60.75L42.9021 61.0712L57.0073 52.224L56.8536 51.8051L56.7489 51.5258C56.6424 51.3071 56.5784 51.0701 56.5604 50.8275C56.5692 50.1538 56.8102 49.5039 57.2428 48.9874C57.6753 48.4709 58.2729 48.1195 58.9345 47.9925L59.3674 47.9017V31.8414L58.8856 31.7855C58.2813 31.7275 57.7112 31.478 57.2586 31.0733L56.9514 30.787L43.1954 39.4246L43.2931 39.8017C43.2931 39.8925 43.356 39.9763 43.3839 40.0671C43.4622 40.2414 43.5095 40.4281 43.5236 40.6187C43.4865 41.3818 43.1574 42.1014 42.6042 42.6284C42.0511 43.1553 41.3164 43.4493 40.5524 43.4493C39.7884 43.4493 39.0537 43.1553 38.5006 42.6284C37.9474 42.1014 37.6182 41.3818 37.5812 40.6187C37.5959 40.4267 37.6407 40.2382 37.7139 40.0601C37.7139 39.9763 37.7767 39.8855 37.8047 39.7947L37.9234 39.3967L23.9439 30.6334L23.6367 30.9546C23.2394 31.3632 22.7285 31.643 22.1703 31.7576L21.7373 31.8553V48.1252L22.1773 48.2229C22.8382 48.3501 23.4349 48.7018 23.8663 49.2184C24.2976 49.7351 24.5372 50.3849 24.5444 51.0579C24.533 51.2482 24.4881 51.4349 24.4117 51.6096L24.3279 51.8749L24.2023 52.2799L38.2027 61.0712L38.5169 60.75C38.7742 60.4537 39.09 60.2138 39.4445 60.0456C39.7991 59.8773 40.1846 59.7843 40.5768 59.7724V59.8073Z" fill="#F1F2F0"/>
<path d="M43.0487 39.4875H43.0068C42.9642 39.4746 42.9272 39.4475 42.9021 39.4107C42.6792 38.985 42.344 38.6284 41.9329 38.3795C41.5218 38.1307 41.0504 37.9992 40.5698 37.9992C40.0893 37.9992 39.6179 38.1307 39.2068 38.3795C38.7956 38.6284 38.4605 38.985 38.2376 39.4107C38.2124 39.4475 38.1755 39.4746 38.1328 39.4875C38.1033 39.4971 38.0716 39.4971 38.0421 39.4875L23.874 30.5845C23.8563 30.5738 23.8409 30.5596 23.8287 30.5428C23.8166 30.526 23.808 30.5069 23.8034 30.4867C23.7988 30.4665 23.7984 30.4455 23.8021 30.4252C23.8059 30.4048 23.8137 30.3853 23.8252 30.368C24.0828 29.9476 24.2204 29.4646 24.2232 28.9715C24.219 28.4786 24.0815 27.996 23.8252 27.5749C23.8137 27.5577 23.8059 27.5382 23.8021 27.5178C23.7984 27.4974 23.7988 27.4765 23.8034 27.4563C23.808 27.4361 23.8166 27.417 23.8287 27.4001C23.8409 27.3833 23.8563 27.3692 23.874 27.3585L38.1049 18.4205C38.1321 18.4115 38.1615 18.4115 38.1887 18.4205C38.2167 18.4201 38.2442 18.4269 38.2687 18.4404C38.2932 18.4539 38.3138 18.4735 38.3284 18.4974C38.5653 18.8784 38.8955 19.1927 39.2876 19.4107C39.6798 19.6286 40.1211 19.743 40.5698 19.743C41.0185 19.743 41.4598 19.6286 41.852 19.4107C42.2442 19.1927 42.5744 18.8784 42.8113 18.4974C42.8217 18.4795 42.8358 18.464 42.8527 18.452C42.8695 18.4399 42.8887 18.4316 42.909 18.4275C42.9387 18.4188 42.9702 18.4188 42.9998 18.4275L57.0352 27.1839C57.0546 27.1951 57.0714 27.2101 57.0846 27.2282C57.0979 27.2462 57.1072 27.2668 57.112 27.2887C57.1208 27.3084 57.1254 27.3298 57.1254 27.3515C57.1254 27.3732 57.1208 27.3946 57.112 27.4143C56.7855 27.864 56.6097 28.4054 56.6097 28.961C56.6097 29.5167 56.7855 30.0581 57.112 30.5077C57.1208 30.5275 57.1254 30.5489 57.1254 30.5705C57.1254 30.5922 57.1208 30.6136 57.112 30.6334C57.0996 30.6763 57.0724 30.7134 57.0352 30.7381L43.1325 39.4596C43.1086 39.4782 43.079 39.4881 43.0487 39.4875ZM40.5698 37.7069C40.9872 37.7256 41.3957 37.8345 41.767 38.0261C42.1382 38.2178 42.4636 38.4877 42.7205 38.8172L43.0347 39.1803L56.8257 30.4937L56.6371 30.0259L56.5184 29.7605C56.3726 29.5083 56.2844 29.2269 56.2601 28.9366C56.2864 28.6466 56.3745 28.3657 56.5184 28.1126L56.6441 27.8403L56.8257 27.4074L42.93 18.6789L42.6228 19.0001C42.3746 19.3052 42.0616 19.5511 41.7065 19.72C41.3513 19.8888 40.9631 19.9765 40.5698 19.9765C40.1766 19.9765 39.7883 19.8888 39.4332 19.72C39.0781 19.5511 38.765 19.3052 38.5169 19.0001L38.2027 18.6789L24.0975 27.568L24.2441 27.9869C24.279 28.0777 24.314 28.1755 24.3559 28.2662C24.4635 28.4845 24.5276 28.7217 24.5444 28.9645C24.5267 29.2072 24.4627 29.4442 24.3559 29.6628C24.3209 29.7536 24.279 29.8443 24.2511 29.9351L24.0975 30.3541L38.1049 39.1524L38.4121 38.7893C38.6738 38.4654 39.0017 38.2013 39.3739 38.0146C39.746 37.8279 40.1538 37.723 40.5698 37.7069Z" fill="#F1F2F0"/>
<path d="M51.8331 42.4272C51.791 42.4255 51.7511 42.4081 51.7214 42.3783C51.7057 42.3643 51.6932 42.3471 51.6847 42.3278C51.6763 42.3085 51.6721 42.2877 51.6725 42.2666V41.5683C51.6725 41.5257 51.6894 41.4849 51.7195 41.4548C51.7496 41.4247 51.7905 41.4077 51.8331 41.4077C51.8751 41.4094 51.915 41.4269 51.9448 41.4566C51.9609 41.4703 51.9736 41.4875 51.9821 41.5069C51.9905 41.5262 51.9945 41.5472 51.9937 41.5683V42.2666C51.994 42.2877 51.9898 42.3085 51.9814 42.3278C51.973 42.3471 51.9605 42.3643 51.9448 42.3783C51.915 42.4081 51.8751 42.4255 51.8331 42.4272ZM51.8331 38.3563C51.791 38.3546 51.7511 38.3371 51.7214 38.3074C51.7053 38.2937 51.6925 38.2765 51.6841 38.2571C51.6756 38.2378 51.6716 38.2168 51.6725 38.1957V37.4974C51.6725 37.4548 51.6894 37.4139 51.7195 37.3838C51.7496 37.3537 51.7905 37.3368 51.8331 37.3368C51.8751 37.3385 51.915 37.356 51.9447 37.3857C51.9745 37.4155 51.992 37.4554 51.9937 37.4974V38.1957C51.9945 38.2168 51.9905 38.2378 51.9821 38.2571C51.9736 38.2765 51.9609 38.2937 51.9448 38.3074C51.915 38.3371 51.8751 38.3546 51.8331 38.3563Z" fill="#F1F2F0"/>
<path d="M51.4979 46.3585C51.4568 46.3461 51.4203 46.3218 51.3931 46.2887C51.373 46.2518 51.3669 46.2089 51.3759 46.1678C51.3848 46.1268 51.4083 46.0904 51.442 46.0652L51.6724 45.9186V45.6393C51.6734 45.6106 51.6827 45.5828 51.6993 45.5593C51.7159 45.5359 51.7391 45.5178 51.7658 45.5074C51.7926 45.497 51.8219 45.4947 51.8499 45.5007C51.878 45.5068 51.9037 45.521 51.9238 45.5415C51.9399 45.5552 51.9526 45.5724 51.9611 45.5918C51.9695 45.6111 51.9735 45.6321 51.9727 45.6533V46.0094C51.9731 46.0373 51.9663 46.0649 51.9528 46.0894C51.9394 46.1139 51.9197 46.1344 51.8959 46.149L51.5956 46.3376C51.568 46.3438 51.5394 46.3438 51.5118 46.3376L51.4979 46.3585Z" fill="#F1F2F0"/>
<path d="M43.9914 51.0789C43.9698 51.0757 43.9492 51.0678 43.9311 51.0558C43.913 51.0437 43.8978 51.0277 43.8866 51.009C43.8728 50.9707 43.8728 50.9287 43.8866 50.8903C43.8961 50.848 43.921 50.8106 43.9564 50.7856L44.5849 50.3946C44.6125 50.3885 44.6411 50.3885 44.6687 50.3946C44.6964 50.3954 44.7235 50.4027 44.7478 50.4161C44.7721 50.4295 44.7928 50.4484 44.8083 50.4714C44.8222 50.5121 44.8222 50.5563 44.8083 50.5971C44.8031 50.6178 44.7935 50.6372 44.7803 50.6541C44.767 50.6709 44.7504 50.6848 44.7315 50.6948L44.1101 51.0859C44.0829 51.0949 44.0535 51.0949 44.0263 51.0859L43.9914 51.0789ZM47.7481 48.7187C47.7278 48.7146 47.7086 48.7063 47.6917 48.6943C47.6749 48.6822 47.6608 48.6668 47.6503 48.6489C47.6399 48.6308 47.6344 48.6104 47.6344 48.5895C47.6344 48.5687 47.6399 48.5482 47.6503 48.5302C47.6543 48.5089 47.6626 48.4887 47.6746 48.4707C47.6865 48.4527 47.7021 48.4373 47.7202 48.4254L48.3486 48.0344C48.3762 48.0283 48.4048 48.0283 48.4324 48.0344C48.4597 48.0371 48.4861 48.0453 48.5101 48.0585C48.5341 48.0717 48.5552 48.0896 48.5721 48.1112C48.5809 48.131 48.5855 48.1524 48.5855 48.174C48.5855 48.1957 48.5809 48.2171 48.5721 48.2369C48.5684 48.2574 48.5603 48.2767 48.5482 48.2937C48.5361 48.3106 48.5204 48.3246 48.5022 48.3346L47.8738 48.7257C47.8468 48.7359 47.817 48.7359 47.79 48.7257L47.7481 48.7187Z" fill="#F1F2F0"/>
<path d="M37.1343 51.0859C37.1073 51.0961 37.0775 51.0961 37.0505 51.0859L36.4221 50.6948C36.4042 50.6844 36.3887 50.6703 36.3767 50.6534C36.3647 50.6366 36.3563 50.6174 36.3523 50.5971C36.3384 50.5563 36.3384 50.5121 36.3523 50.4714C36.3627 50.4535 36.3768 50.438 36.3937 50.426C36.4105 50.414 36.4297 50.4056 36.45 50.4016H36.4849C36.5146 50.3928 36.5461 50.3928 36.5757 50.4016L37.1972 50.7926C37.2333 50.8157 37.2592 50.8517 37.2696 50.8932C37.28 50.9348 37.2741 50.9787 37.253 51.016C37.228 51.0515 37.1907 51.0764 37.1483 51.0859H37.1343ZM33.3706 48.7257C33.3434 48.7348 33.314 48.7348 33.2868 48.7257L32.6584 48.3347C32.6254 48.3102 32.601 48.276 32.5886 48.2369C32.5747 48.1962 32.5747 48.152 32.5886 48.1112C32.6123 48.0775 32.6468 48.0529 32.6863 48.0414C32.716 48.0327 32.7475 48.0327 32.7771 48.0414L33.4055 48.4324C33.4401 48.4553 33.465 48.4901 33.4754 48.5302C33.4897 48.5709 33.4897 48.6152 33.4754 48.6559C33.4635 48.674 33.4481 48.6895 33.4301 48.7015C33.4121 48.7135 33.3919 48.7217 33.3706 48.7257Z" fill="#F1F2F0"/>
<path d="M29.3276 42.4272C29.2834 42.4259 29.2412 42.4086 29.2089 42.3784C29.1802 42.3479 29.1629 42.3084 29.16 42.2666V41.5684C29.1618 41.5251 29.1802 41.4843 29.2115 41.4544C29.2427 41.4244 29.2843 41.4077 29.3276 41.4078C29.3693 41.4107 29.4088 41.428 29.4393 41.4566C29.469 41.4864 29.4865 41.5263 29.4882 41.5684V42.2666C29.4864 42.3087 29.469 42.3485 29.4392 42.3783C29.4095 42.4081 29.3696 42.4255 29.3276 42.4272ZM29.3276 38.3563C29.2834 38.355 29.2412 38.3376 29.2089 38.3074C29.1791 38.2776 29.1617 38.2377 29.16 38.1957V37.4974C29.1652 37.4573 29.1854 37.4207 29.2164 37.3948C29.2475 37.3689 29.2872 37.3557 29.3276 37.3578C29.3686 37.3582 29.4081 37.373 29.4393 37.3997C29.4685 37.4326 29.4857 37.4744 29.4882 37.5184V38.2166C29.4865 38.2587 29.469 38.2986 29.4393 38.3284C29.4061 38.3496 29.3668 38.3594 29.3276 38.3563Z" fill="#F1F2F0"/>
<path d="M32.7142 31.7646C32.6927 31.7614 32.6721 31.7535 32.654 31.7414C32.6358 31.7294 32.6206 31.7134 32.6095 31.6947C32.5956 31.6564 32.5956 31.6144 32.6095 31.576C32.6189 31.5336 32.6438 31.4963 32.6793 31.4713L33.3077 31.0802H33.3915C33.4188 31.079 33.446 31.0848 33.4704 31.097C33.4949 31.1093 33.5158 31.1275 33.5312 31.1501C33.5445 31.1909 33.5445 31.2349 33.5312 31.2758C33.5259 31.2965 33.5163 31.3159 33.5031 31.3328C33.4899 31.3496 33.4733 31.3635 33.4544 31.3735L32.8329 31.7646C32.8057 31.7736 32.7763 31.7736 32.7491 31.7646H32.7142ZM36.4709 29.4044C36.4506 29.4003 36.4314 29.392 36.4146 29.3799C36.3977 29.3679 36.3836 29.3524 36.3732 29.3345C36.3627 29.3165 36.3573 29.296 36.3573 29.2752C36.3573 29.2544 36.3627 29.2339 36.3732 29.2158C36.3826 29.1735 36.4075 29.1361 36.443 29.1111L37.0714 28.7201C37.099 28.7133 37.1277 28.7133 37.1552 28.7201C37.1825 28.7228 37.2089 28.731 37.2329 28.7442C37.2569 28.7574 37.278 28.7753 37.2949 28.7969C37.3087 28.8376 37.3087 28.8818 37.2949 28.9226C37.2896 28.9433 37.28 28.9627 37.2668 28.9796C37.2536 28.9964 37.237 29.0103 37.2181 29.0203L36.5966 29.4114C36.567 29.4205 36.5354 29.4205 36.5058 29.4114L36.4709 29.4044Z" fill="#F1F2F0"/>
<path d="M40.9049 27.0023H40.8281L40.5698 26.8626L40.3114 27.0023H40.2416C40.2161 27.0031 40.1907 26.9979 40.1676 26.9869C40.1446 26.976 40.1244 26.9597 40.1089 26.9395C40.1029 26.9119 40.1029 26.8833 40.1089 26.8557C40.1129 26.8344 40.1211 26.8142 40.1331 26.7962C40.1451 26.7782 40.1606 26.7628 40.1787 26.7509L40.4999 26.5345H40.5837C40.6136 26.5273 40.6447 26.5273 40.6745 26.5345L40.9748 26.723C40.9929 26.7348 41.0084 26.7502 41.0204 26.7682C41.0324 26.7862 41.0406 26.8065 41.0446 26.8277C41.0585 26.8661 41.0585 26.9081 41.0446 26.9464C41.0066 26.9817 40.9568 27.0016 40.9049 27.0023Z" fill="#F1F2F0"/>
<path d="M48.3975 31.7716C48.3703 31.7806 48.3409 31.7806 48.3137 31.7716L47.6853 31.3805C47.6674 31.3701 47.6519 31.356 47.6399 31.3391C47.6279 31.3223 47.6195 31.3031 47.6155 31.2828C47.605 31.2647 47.5995 31.2442 47.5995 31.2234C47.5995 31.2026 47.605 31.1821 47.6155 31.1641C47.6242 31.1442 47.6377 31.1269 47.6548 31.1135C47.6718 31.1001 47.6919 31.0911 47.7132 31.0872C47.7404 31.0782 47.7698 31.0782 47.797 31.0872L48.4254 31.4783C48.4609 31.5033 48.4858 31.5406 48.4953 31.583C48.504 31.6016 48.5085 31.6219 48.5085 31.6424C48.5085 31.6629 48.504 31.6832 48.4953 31.7017C48.4724 31.7363 48.4376 31.7612 48.3975 31.7716ZM44.6338 29.4114C44.6066 29.4204 44.5772 29.4204 44.55 29.4114L43.9216 29.0203C43.9036 29.009 43.888 28.9942 43.8758 28.9767C43.8636 28.9593 43.8549 28.9396 43.8504 28.9188C43.8458 28.8981 43.8455 28.8766 43.8493 28.8556C43.8531 28.8347 43.8611 28.8147 43.8727 28.7969C43.8831 28.779 43.8972 28.7635 43.9141 28.7515C43.9309 28.7395 43.9501 28.7311 43.9705 28.7271H43.9914C44.021 28.7183 44.0525 28.7183 44.0822 28.7271L44.7106 29.1181C44.7438 29.1453 44.7681 29.1818 44.7804 29.2228C44.7943 29.2612 44.7943 29.3032 44.7804 29.3416C44.7686 29.3596 44.7532 29.3752 44.7352 29.3872C44.7172 29.3992 44.697 29.4074 44.6757 29.4114H44.6338Z" fill="#F1F2F0"/>
<path d="M40.5698 60.0936C40.5277 60.0919 40.4879 60.0744 40.4581 60.0447C40.4284 60.0149 40.4109 59.975 40.4092 59.933V43.4537C40.4092 43.4111 40.4261 43.3702 40.4562 43.3401C40.4863 43.31 40.5272 43.2931 40.5698 43.2931C40.6133 43.2911 40.6559 43.3061 40.6885 43.335C40.7167 43.368 40.7317 43.4103 40.7304 43.4537V59.933C40.7313 59.9742 40.7163 60.0142 40.6885 60.0447C40.6562 60.0749 40.614 60.0923 40.5698 60.0936Z" fill="#F1F2F0"/>
<path d="M40.5698 20.0056C39.9829 20.0056 39.4091 19.8315 38.9211 19.5055C38.4331 19.1794 38.0527 18.7159 37.8281 18.1736C37.6035 17.6313 37.5447 17.0346 37.6592 16.459C37.7737 15.8833 38.0563 15.3545 38.4714 14.9395C38.8864 14.5244 39.4152 14.2418 39.9909 14.1273C40.5666 14.0128 41.1633 14.0715 41.7055 14.2962C42.2478 14.5208 42.7113 14.9011 43.0374 15.3892C43.3635 15.8772 43.5375 16.451 43.5375 17.0379C43.5375 17.825 43.2249 18.5798 42.6683 19.1364C42.1118 19.6929 41.3569 20.0056 40.5698 20.0056ZM40.5698 14.4194C40.0464 14.4194 39.5348 14.5746 39.0995 14.8654C38.6643 15.1562 38.3251 15.5695 38.1248 16.0531C37.9245 16.5367 37.8721 17.0688 37.9742 17.5822C38.0763 18.0955 38.3284 18.5671 38.6985 18.9372C39.0686 19.3073 39.5402 19.5594 40.0535 19.6615C40.5669 19.7636 41.099 19.7112 41.5826 19.5109C42.0662 19.3106 42.4795 18.9714 42.7703 18.5362C43.0611 18.1009 43.2163 17.5893 43.2163 17.0659C43.2163 16.7183 43.1479 16.3742 43.0149 16.0531C42.8819 15.732 42.6869 15.4403 42.4412 15.1945C42.1954 14.9488 41.9037 14.7538 41.5826 14.6208C41.2615 14.4878 40.9174 14.4194 40.5698 14.4194Z" fill="#F1F2F0"/>
<path d="M21.5767 31.9322C20.9884 31.9322 20.4133 31.7577 19.9241 31.4308C19.4349 31.104 19.0536 30.6394 18.8285 30.0959C18.6033 29.5523 18.5444 28.9542 18.6592 28.3772C18.774 27.8002 19.0573 27.2701 19.4733 26.8541C19.8893 26.4381 20.4194 26.1548 20.9964 26.04C21.5734 25.9252 22.1715 25.9841 22.7151 26.2093C23.2586 26.4344 23.7232 26.8157 24.05 27.3049C24.3769 27.7941 24.5514 28.3692 24.5514 28.9575C24.5514 29.7464 24.238 30.503 23.6801 31.0609C23.1222 31.6188 22.3656 31.9322 21.5767 31.9322ZM21.5767 26.346C21.0516 26.346 20.5383 26.5018 20.1018 26.7936C19.6653 27.0855 19.3252 27.5003 19.1246 27.9856C18.924 28.4709 18.8718 29.0047 18.9748 29.5196C19.0777 30.0345 19.3311 30.5073 19.7029 30.8781C20.0747 31.249 20.5482 31.5011 21.0633 31.6027C21.5785 31.7043 22.1123 31.6508 22.597 31.4489C23.0817 31.247 23.4956 30.9058 23.7864 30.4685C24.0771 30.0312 24.2315 29.5175 24.2302 28.9924C24.2348 28.6414 24.1695 28.2929 24.0382 27.9673C23.9068 27.6417 23.712 27.3455 23.465 27.096C23.2181 26.8464 22.9239 26.6485 22.5997 26.5138C22.2756 26.379 21.9278 26.3101 21.5767 26.311V26.346Z" fill="#F1F2F0"/>
<path d="M59.2347 31.9322C58.6461 31.9335 58.0703 31.7602 57.5802 31.4342C57.0901 31.1082 56.7077 30.6441 56.4815 30.1007C56.2553 29.5573 56.1954 28.9589 56.3094 28.3815C56.4233 27.804 56.7061 27.2733 57.1218 26.8566C57.5376 26.4399 58.0676 26.1559 58.6448 26.0405C59.222 25.9252 59.8205 25.9837 60.3644 26.2086C60.9084 26.4335 61.3734 26.8148 61.7006 27.3041C62.0277 27.7935 62.2024 28.3689 62.2024 28.9575C62.2033 29.3478 62.1272 29.7345 61.9785 30.0953C61.8297 30.4562 61.6113 30.7842 61.3356 31.0605C61.06 31.3368 60.7325 31.556 60.372 31.7056C60.0115 31.8552 59.625 31.9322 59.2347 31.9322ZM59.2347 26.3459C58.7093 26.3446 58.1953 26.4992 57.7579 26.7902C57.3205 27.0813 56.9793 27.4956 56.7776 27.9807C56.5759 28.4659 56.5228 29 56.6249 29.5153C56.7271 30.0307 56.9799 30.5041 57.3514 30.8757C57.723 31.2472 58.1964 31.5 58.7118 31.6022C59.2271 31.7043 59.7612 31.6512 60.2464 31.4495C60.7315 31.2478 61.1458 30.9066 61.4369 30.4692C61.7279 30.0318 61.8825 29.5178 61.8812 28.9924C61.8858 28.6419 61.8207 28.2941 61.6898 27.9689C61.5589 27.6438 61.3647 27.3479 61.1185 27.0985C60.8723 26.849 60.579 26.6509 60.2556 26.5158C59.9322 26.3806 59.5852 26.311 59.2347 26.311V26.3459Z" fill="#F1F2F0"/>
<path d="M21.5767 54.0256C20.9901 54.0242 20.417 53.849 19.9299 53.5221C19.4428 53.1951 19.0635 52.7312 18.8399 52.1888C18.6164 51.6464 18.5586 51.0499 18.6739 50.4747C18.7892 49.8995 19.0724 49.3714 19.4877 48.957C19.903 48.5427 20.4318 48.2607 21.0073 48.1468C21.5828 48.0328 22.1791 48.092 22.721 48.3168C23.2629 48.5417 23.7259 48.922 24.0517 49.4099C24.3775 49.8978 24.5514 50.4713 24.5514 51.0579C24.5495 51.8457 24.2353 52.6005 23.6777 53.1568C23.12 53.7132 22.3644 54.0256 21.5767 54.0256ZM21.5767 48.4394C21.0536 48.4408 20.5426 48.5972 20.1083 48.8888C19.674 49.1804 19.3359 49.5942 19.1367 50.0779C18.9375 50.5616 18.886 51.0935 18.9889 51.6064C19.0918 52.1193 19.3444 52.5902 19.7148 52.9597C20.0852 53.3291 20.5568 53.5804 21.07 53.682C21.5831 53.7835 22.1149 53.7307 22.5981 53.5302C23.0812 53.3297 23.4941 52.9905 23.7846 52.5554C24.0751 52.1204 24.2302 51.609 24.2302 51.0859C24.2339 50.7354 24.1679 50.3877 24.0361 50.0629C23.9044 49.7381 23.7094 49.4428 23.4625 49.194C23.2157 48.9452 22.9218 48.7479 22.5981 48.6135C22.2744 48.4792 21.9272 48.4105 21.5767 48.4115V48.4394Z" fill="#F1F2F0"/>
<path d="M40.5698 65.7077C39.9829 65.7077 39.4091 65.5337 38.9211 65.2076C38.4331 64.8815 38.0527 64.418 37.8281 63.8758C37.6035 63.3335 37.5447 62.7368 37.6592 62.1611C37.7737 61.5854 38.0563 61.0566 38.4714 60.6416C38.8864 60.2266 39.4152 59.9439 39.9909 59.8294C40.5666 59.7149 41.1633 59.7737 41.7055 59.9983C42.2478 60.2229 42.7113 60.6033 43.0374 61.0913C43.3635 61.5794 43.5375 62.1531 43.5375 62.7401C43.5375 63.5271 43.2249 64.282 42.6683 64.8385C42.1118 65.3951 41.3569 65.7077 40.5698 65.7077ZM40.5698 60.1215C40.0464 60.1215 39.5348 60.2768 39.0995 60.5675C38.6643 60.8583 38.3251 61.2717 38.1248 61.7552C37.9245 62.2388 37.8721 62.7709 37.9742 63.2843C38.0763 63.7977 38.3284 64.2692 38.6985 64.6393C39.0686 65.0094 39.5402 65.2615 40.0535 65.3636C40.5669 65.4657 41.099 65.4133 41.5826 65.213C42.0662 65.0127 42.4795 64.6735 42.7703 64.2383C43.0611 63.8031 43.2163 63.2914 43.2163 62.768C43.22 62.4181 43.1543 62.071 43.0229 61.7467C42.8916 61.4224 42.6972 61.1273 42.4511 60.8786C42.205 60.6299 41.912 60.4324 41.5891 60.2977C41.2662 60.163 40.9197 60.0936 40.5698 60.0936V60.1215Z" fill="#F1F2F0"/>
<path d="M59.5629 53.8301C58.974 53.8315 58.3979 53.658 57.9077 53.3317C57.4174 53.0054 57.0351 52.5409 56.8091 51.997C56.5831 51.4532 56.5236 50.8545 56.6381 50.2768C56.7527 49.6992 57.0361 49.1685 57.4526 48.7521C57.869 48.3356 58.3997 48.0522 58.9773 47.9376C59.555 47.8231 60.1537 47.8826 60.6975 48.1086C61.2414 48.3346 61.7059 48.7169 62.0322 49.2072C62.3585 49.6974 62.532 50.2735 62.5306 50.8624C62.5288 51.6489 62.2155 52.4027 61.6594 52.9589C61.1032 53.515 60.3494 53.8283 59.5629 53.8301ZM59.5629 48.2439C59.0378 48.2425 58.5241 48.397 58.0869 48.6877C57.6496 48.9784 57.3084 49.3923 57.1065 49.8771C56.9046 50.3618 56.851 50.8955 56.9526 51.4107C57.0542 51.9259 57.3064 52.3993 57.6772 52.7711C58.048 53.1429 58.5208 53.3963 59.0357 53.4993C59.5506 53.6022 60.0845 53.5501 60.5698 53.3495C61.055 53.1488 61.4698 52.8088 61.7617 52.3722C62.0536 51.9357 62.2094 51.4224 62.2094 50.8973C62.2178 50.5442 62.1555 50.193 62.0264 49.8642C61.8972 49.5355 61.7037 49.2358 61.4572 48.9828C61.2107 48.7298 60.9162 48.5286 60.5909 48.3909C60.2656 48.2532 59.9162 48.1819 59.5629 48.181V48.2439Z" fill="#F1F2F0"/>
<path d="M62.7401 18.9512C62.6981 18.9495 62.6582 18.932 62.6284 18.9022C62.5987 18.8725 62.5812 18.8326 62.5795 18.7906C62.5781 18.7694 62.5818 18.7482 62.5903 18.7288C62.5989 18.7093 62.6119 18.6922 62.6284 18.6789L64.1436 17.1566C64.1742 17.1261 64.2156 17.1089 64.2589 17.1089C64.3021 17.1089 64.3435 17.1261 64.3741 17.1566C64.4046 17.1872 64.4218 17.2286 64.4218 17.2718C64.4218 17.315 64.4046 17.3565 64.3741 17.387L62.8448 18.9023C62.8176 18.9316 62.7801 18.9491 62.7401 18.9512Z" fill="#F1F2F0"/>
<path d="M16.8843 64.807C16.8531 64.8063 16.8227 64.7965 16.797 64.7788C16.7712 64.7611 16.7512 64.7363 16.7393 64.7074C16.7275 64.6785 16.7243 64.6467 16.7302 64.6161C16.7361 64.5854 16.7508 64.5571 16.7726 64.5346L18.2878 63.0194C18.3015 63.0033 18.3187 62.9906 18.3381 62.9821C18.3574 62.9736 18.3784 62.9697 18.3995 62.9705C18.4314 62.9698 18.4627 62.9786 18.4895 62.9958C18.5163 63.013 18.5374 63.0377 18.5501 63.0669C18.5629 63.0961 18.5666 63.1284 18.5609 63.1597C18.5553 63.191 18.5404 63.22 18.5183 63.2428L16.996 64.7581C16.9817 64.7734 16.9644 64.7857 16.9452 64.7941C16.926 64.8025 16.9053 64.8069 16.8843 64.807Z" fill="#F1F2F0"/>
<path d="M71.9224 41.1215C71.8804 41.1198 71.8405 41.1023 71.8108 41.0725C71.781 41.0428 71.7636 41.0029 71.7618 40.9609C71.7618 40.9183 71.7788 40.8774 71.8089 40.8473C71.839 40.8172 71.8799 40.8003 71.9224 40.8003H74.0731C74.1144 40.7994 74.1544 40.8144 74.1849 40.8422C74.214 40.8751 74.2313 40.9169 74.2337 40.9609C74.232 41.0029 74.2145 41.0428 74.1848 41.0725C74.155 41.1023 74.1152 41.1198 74.0731 41.1215H71.9224Z" fill="#F1F2F0"/>
<path d="M7.07355 41.1215C7.0315 41.1198 6.99161 41.1023 6.96183 41.0726C6.94576 41.0589 6.93302 41.0417 6.92455 41.0224C6.91608 41.003 6.91212 40.982 6.91295 40.9609C6.91295 40.9183 6.92987 40.8774 6.95999 40.8473C6.99011 40.8172 7.03096 40.8003 7.07355 40.8003H9.21726C9.2585 40.7994 9.29851 40.8144 9.32898 40.8422C9.34486 40.8575 9.35739 40.876 9.3658 40.8964C9.37421 40.9168 9.37832 40.9388 9.37786 40.9609C9.3787 40.982 9.37473 41.003 9.36626 41.0224C9.3578 41.0417 9.34505 41.0589 9.32898 41.0726C9.2992 41.1023 9.25932 41.1198 9.21726 41.1215H7.07355Z" fill="#F1F2F0"/>
<path d="M40.5698 9.77588C40.5277 9.77419 40.4878 9.75674 40.4581 9.727C40.4294 9.69651 40.4121 9.65704 40.4092 9.61527V7.4576C40.4109 7.41556 40.4284 7.3757 40.4581 7.34594C40.4879 7.31619 40.5277 7.29872 40.5698 7.297C40.6124 7.297 40.6532 7.31392 40.6833 7.34404C40.7135 7.37416 40.7304 7.41501 40.7304 7.4576V9.60829C40.7307 9.62933 40.7265 9.6502 40.7181 9.66947C40.7097 9.68875 40.6972 9.70599 40.6815 9.72001C40.6529 9.75234 40.6128 9.77235 40.5698 9.77588Z" fill="#F1F2F0"/>
<path d="M40.5698 74.6177C40.5487 74.6186 40.5277 74.6146 40.5083 74.6061C40.489 74.5977 40.4718 74.5849 40.4581 74.5689C40.4284 74.5391 40.4109 74.4992 40.4092 74.4571V72.3134C40.4085 72.2807 40.4178 72.2486 40.4358 72.2213C40.4538 72.194 40.4798 72.1729 40.5101 72.1607C40.5405 72.1486 40.5739 72.146 40.6057 72.1533C40.6376 72.1606 40.6665 72.1775 40.6885 72.2017C40.7163 72.2322 40.7313 72.2722 40.7304 72.3134V74.4571C40.7326 74.4788 40.73 74.5006 40.7227 74.5211C40.7154 74.5416 40.7036 74.5602 40.6882 74.5755C40.6728 74.5909 40.6542 74.6027 40.6338 74.61C40.6133 74.6173 40.5915 74.6199 40.5698 74.6177Z" fill="#F1F2F0"/>
<path d="M64.2414 64.807C64.2192 64.8079 64.1971 64.804 64.1767 64.7956C64.1562 64.7871 64.1377 64.7743 64.1227 64.7581L62.6074 63.2429C62.5921 63.2286 62.5798 63.2113 62.5714 63.1921C62.563 63.1728 62.5586 63.1521 62.5585 63.1311C62.5571 63.11 62.5609 63.0888 62.5694 63.0693C62.5779 63.0499 62.5909 63.0328 62.6074 63.0194C62.6217 63.0041 62.639 62.9918 62.6582 62.9834C62.6774 62.975 62.6981 62.9706 62.7191 62.9705C62.7625 62.9693 62.8048 62.9842 62.8378 63.0124L64.3531 64.5347C64.3834 64.564 64.401 64.6042 64.402 64.6464C64.3996 64.6883 64.3823 64.728 64.3531 64.7581C64.3388 64.7735 64.3215 64.7857 64.3023 64.7941C64.2831 64.8025 64.2623 64.8069 64.2414 64.807Z" fill="#F1F2F0"/>
<path d="M18.3996 18.9512C18.3786 18.9511 18.3578 18.9468 18.3386 18.9383C18.3194 18.9299 18.3021 18.9177 18.2878 18.9023L16.7586 17.3871C16.7425 17.3726 16.7296 17.3551 16.7204 17.3355C16.7113 17.316 16.7062 17.2947 16.7055 17.2732C16.7047 17.2516 16.7084 17.2301 16.7161 17.2099C16.7239 17.1897 16.7357 17.1714 16.7507 17.1559C16.7657 17.1403 16.7837 17.128 16.8036 17.1197C16.8235 17.1113 16.8449 17.107 16.8665 17.1071C16.8881 17.1071 16.9095 17.1116 16.9294 17.1201C16.9492 17.1286 16.9671 17.141 16.9821 17.1567L18.5043 18.6719C18.5325 18.7049 18.5475 18.7472 18.5462 18.7906C18.5458 18.8316 18.5309 18.8712 18.5043 18.9023C18.4771 18.9317 18.4395 18.9492 18.3996 18.9512Z" fill="#F1F2F0"/>
</svg>
