<svg width="81" height="81" viewBox="0 0 81 81" fill="none" xmlns="http://www.w3.org/2000/svg">
<g clip-path="url(#clip0_7912_1696)">
<path d="M36.883 66.7853C36.8474 66.7972 36.809 66.7972 36.7735 66.7853L18.299 55.1019C18.2548 55.0736 18.2228 55.0298 18.2093 54.9791C18.1958 54.9284 18.2017 54.8745 18.226 54.828C18.4891 54.3268 18.6269 53.7694 18.6276 53.2033C18.6337 52.7473 18.5484 52.2947 18.3768 51.8722C18.2051 51.4497 17.9505 51.0659 17.628 50.7435C17.3056 50.421 16.9218 50.1664 16.4993 49.9947C16.0768 49.823 15.6242 49.7378 15.1682 49.7439C15.1132 49.7417 15.0611 49.7188 15.0222 49.6799C14.9833 49.641 14.9605 49.5889 14.9583 49.534V27.9926C14.9583 27.9369 14.9804 27.8835 15.0197 27.8441C15.0591 27.8048 15.1125 27.7827 15.1682 27.7827C15.7554 27.782 16.3329 27.6327 16.8469 27.3486C17.3608 27.0645 17.7944 26.6549 18.1073 26.1579C18.1357 26.1114 18.1812 26.0777 18.234 26.0641C18.2868 26.0505 18.3429 26.0579 18.3903 26.0849L36.8739 37.6862C36.9172 37.7174 36.9483 37.7628 36.9616 37.8145C36.975 37.8662 36.9697 37.9209 36.9469 37.9692C36.6749 38.4673 36.5336 39.0263 36.5361 39.5939C36.5317 40.1233 36.6484 40.6466 36.8775 41.1239C37.1065 41.6011 37.4418 42.0196 37.8576 42.3473C38.2733 42.675 38.7586 42.9032 39.2762 43.0143C39.7938 43.1255 40.3299 43.1167 40.8436 42.9887C41.3572 42.8606 41.8348 42.6167 42.2396 42.2756C42.6444 41.9344 42.9658 41.5052 43.1791 41.0207C43.3924 40.5362 43.4919 40.0093 43.4701 39.4803C43.4483 38.9514 43.3058 38.4345 43.0533 37.9692C43.0276 37.9223 43.02 37.8677 43.0317 37.8156C43.0435 37.7635 43.0739 37.7175 43.1172 37.6862L61.2996 26.2857C61.3357 26.2778 61.373 26.2778 61.4091 26.2857C61.4433 26.2857 61.4769 26.294 61.5071 26.3099C61.5374 26.3258 61.5633 26.3488 61.5826 26.377C61.9024 26.8239 62.3244 27.1879 62.8134 27.4388C63.3024 27.6897 63.8443 27.8201 64.3939 27.8192C64.5245 27.8289 64.6557 27.8289 64.7864 27.8192C64.8366 27.8018 64.8913 27.8018 64.9415 27.8192C64.9642 27.8402 64.9824 27.8656 64.9949 27.8938C65.0075 27.9221 65.0142 27.9526 65.0146 27.9835V49.2693C65.0146 49.3249 64.9925 49.3783 64.9531 49.4177C64.9137 49.4571 64.8603 49.4792 64.8046 49.4792C63.8871 49.4792 63.0072 49.8437 62.3585 50.4924C61.7097 51.1412 61.3452 52.0211 61.3452 52.9386C61.3368 53.5836 61.5143 54.2173 61.8564 54.7641C61.8692 54.7896 61.8759 54.8178 61.8759 54.8463C61.8759 54.8748 61.8692 54.903 61.8564 54.9284C61.8511 54.955 61.8402 54.9801 61.8244 55.0021C61.8087 55.0241 61.7885 55.0426 61.7651 55.0562L43.2176 66.7032C43.1815 66.7111 43.1442 66.7111 43.1081 66.7032C43.0719 66.7021 43.0364 66.6925 43.0047 66.675C42.9729 66.6576 42.9458 66.6328 42.9255 66.6028C42.6195 66.1037 42.1898 65.6919 41.6782 65.4073C41.1665 65.1227 40.5901 64.9748 40.0047 64.978C39.4169 64.9761 38.8385 65.1243 38.3241 65.4087C37.8097 65.693 37.3765 66.104 37.0655 66.6028C37.0614 66.6498 37.0409 66.6939 37.0075 66.7273C36.9741 66.7607 36.93 66.7812 36.883 66.7853ZM40.0047 64.6403C40.5048 64.657 40.9963 64.7747 41.4497 64.9865C41.9031 65.1983 42.3088 65.4997 42.6426 65.8726L43.0442 66.2924L61.4821 54.7276L61.2813 54.18L61.1444 53.8149C61.0052 53.529 60.9216 53.2192 60.898 52.9021C60.9095 52.0215 61.2246 51.1719 61.79 50.4967C62.3554 49.8216 63.1365 49.3622 64.0014 49.1962L64.5673 49.0776V28.0839L63.9375 28.0108C63.1475 27.935 62.4023 27.6088 61.8107 27.0798L61.4091 26.7056L43.4276 37.9965L43.5553 38.4894C43.5553 38.6081 43.6375 38.7176 43.674 38.8363C43.7764 39.0642 43.8382 39.3082 43.8566 39.5574C43.8082 40.5549 43.3779 41.4955 42.6548 42.1844C41.9318 42.8732 40.9714 43.2574 39.9727 43.2574C38.9741 43.2574 38.0137 42.8732 37.2906 42.1844C36.5676 41.4955 36.1373 40.5549 36.0889 39.5574C36.108 39.3064 36.1666 39.06 36.2623 38.8272C36.2623 38.7176 36.3445 38.599 36.381 38.4803L36.5361 37.96L18.2625 26.5048L17.8609 26.9246C17.3416 27.4588 16.6738 27.8245 15.944 27.9743L15.3781 28.1021V49.3697L15.9532 49.4974C16.8171 49.6637 17.5971 50.1234 18.161 50.7987C18.7249 51.4741 19.0381 52.3235 19.0475 53.2033C19.0325 53.452 18.9738 53.6961 18.874 53.9244L18.7645 54.2712L18.6002 54.8006L36.9012 66.2924L37.312 65.8726C37.6483 65.4852 38.0611 65.1717 38.5246 64.9517C38.988 64.7318 39.4919 64.6102 40.0047 64.5947V64.6403Z" fill="#8ABD1F" stroke="#8ABD1F"/>
<path d="M43.2359 38.0786H43.1812C43.1254 38.0618 43.0771 38.0263 43.0442 37.9782C42.7529 37.4217 42.3148 36.9556 41.7774 36.6303C41.24 36.305 40.6238 36.1331 39.9956 36.1331C39.3674 36.1331 38.7512 36.305 38.2138 36.6303C37.6764 36.9556 37.2383 37.4217 36.9469 37.9782C36.9141 38.0263 36.8658 38.0618 36.81 38.0786C36.7715 38.0912 36.7299 38.0912 36.6914 38.0786L18.1713 26.4408C18.148 26.4269 18.1279 26.4083 18.112 26.3864C18.0961 26.3644 18.0849 26.3394 18.0789 26.313C18.0729 26.2865 18.0724 26.2592 18.0773 26.2325C18.0822 26.2059 18.0924 26.1805 18.1074 26.1579C18.4441 25.6082 18.624 24.9769 18.6276 24.3323C18.6222 23.688 18.4424 23.0572 18.1074 22.5068C18.0924 22.4842 18.0822 22.4588 18.0773 22.4321C18.0724 22.4055 18.0729 22.3781 18.0789 22.3517C18.0849 22.3252 18.0961 22.3003 18.112 22.2783C18.1279 22.2563 18.148 22.2378 18.1713 22.2238L36.7735 10.5404C36.8091 10.5285 36.8475 10.5285 36.883 10.5404C36.9196 10.5398 36.9556 10.5487 36.9877 10.5663C37.0197 10.5839 37.0465 10.6096 37.0656 10.6408C37.3753 11.1388 37.8069 11.5498 38.3196 11.8347C38.8322 12.1196 39.4091 12.2691 39.9956 12.2691C40.5821 12.2691 41.159 12.1196 41.6716 11.8347C42.1843 11.5498 42.6159 11.1388 42.9256 10.6408C42.9392 10.6174 42.9577 10.5972 42.9797 10.5814C43.0017 10.5657 43.0268 10.5548 43.0534 10.5495C43.0921 10.5381 43.1333 10.5381 43.172 10.5495L61.5187 21.9956C61.5441 22.0102 61.5661 22.0299 61.5834 22.0535C61.6007 22.0771 61.6128 22.104 61.6191 22.1326C61.6307 22.1584 61.6367 22.1864 61.6367 22.2147C61.6367 22.243 61.6307 22.271 61.6191 22.2968C61.1924 22.8846 60.9626 23.5923 60.9626 24.3186C60.9626 25.045 61.1924 25.7527 61.6191 26.3404C61.6307 26.3663 61.6367 26.3943 61.6367 26.4226C61.6367 26.4509 61.6307 26.4789 61.6191 26.5047C61.6029 26.5608 61.5673 26.6093 61.5187 26.6416L43.3455 38.0421C43.3142 38.0665 43.2755 38.0793 43.2359 38.0786ZM39.9956 35.7511C40.5412 35.7754 41.0751 35.9178 41.5605 36.1683C42.0458 36.4189 42.4711 36.7717 42.8069 37.2024L43.2177 37.677L61.2449 26.3222L60.9984 25.7106L60.8433 25.3638C60.6527 25.034 60.5373 24.6662 60.5055 24.2867C60.5399 23.9077 60.6551 23.5404 60.8433 23.2096L61.0076 22.8536L61.2449 22.2877L43.0808 10.8781L42.6791 11.298C42.3548 11.6967 41.9456 12.0182 41.4814 12.2389C41.0172 12.4597 40.5096 12.5742 39.9956 12.5742C39.4816 12.5742 38.974 12.4597 38.5098 12.2389C38.0456 12.0182 37.6364 11.6967 37.3121 11.298L36.9013 10.8781L18.4633 22.4977L18.655 23.0453C18.7007 23.164 18.7463 23.2918 18.8011 23.4104C18.9418 23.6958 19.0255 24.0058 19.0475 24.3232C19.0244 24.6404 18.9407 24.9502 18.8011 25.236C18.7554 25.3546 18.7007 25.4733 18.6642 25.5919L18.4633 26.1396L36.7735 37.6405L37.1751 37.1659C37.5172 36.7425 37.9458 36.3973 38.4323 36.1532C38.9187 35.9092 39.4518 35.7721 39.9956 35.7511Z" fill="#8ABD1F" stroke="#8ABD1F"/>
<path d="M54.7186 41.9215C54.6636 41.9193 54.6115 41.8965 54.5726 41.8576C54.5521 41.8393 54.5358 41.8167 54.5247 41.7915C54.5137 41.7663 54.5082 41.7391 54.5087 41.7115V40.7988C54.5087 40.7431 54.5308 40.6897 54.5702 40.6503C54.6095 40.611 54.6629 40.5888 54.7186 40.5888C54.7736 40.591 54.8257 40.6139 54.8647 40.6527C54.8857 40.6707 54.9023 40.6931 54.9134 40.7184C54.9245 40.7437 54.9296 40.7712 54.9286 40.7988V41.7115C54.929 41.7391 54.9235 41.7663 54.9125 41.7915C54.9015 41.8167 54.8852 41.8393 54.8647 41.8576C54.8257 41.8965 54.7736 41.9193 54.7186 41.9215ZM54.7186 36.6C54.6636 36.5978 54.6115 36.575 54.5726 36.5361C54.5516 36.5182 54.5349 36.4958 54.5239 36.4705C54.5128 36.4452 54.5076 36.4177 54.5087 36.3901V35.4773C54.5087 35.4217 54.5308 35.3683 54.5702 35.3289C54.6095 35.2895 54.6629 35.2674 54.7186 35.2674C54.7736 35.2696 54.8257 35.2925 54.8646 35.3314C54.9035 35.3703 54.9263 35.4224 54.9286 35.4773V36.3901C54.9296 36.4177 54.9245 36.4452 54.9134 36.4705C54.9023 36.4958 54.8857 36.5182 54.8647 36.5361C54.8257 36.575 54.7736 36.5978 54.7186 36.6Z" fill="#8ABD1F" stroke="#8ABD1F"/>
<path d="M54.2805 47.0603C54.2268 47.0441 54.1791 47.0123 54.1435 46.969C54.1173 46.9208 54.1093 46.8647 54.121 46.811C54.1327 46.7574 54.1634 46.7098 54.2074 46.6769L54.5087 46.4852V46.1201C54.5099 46.0826 54.5221 46.0462 54.5438 46.0156C54.5655 45.9849 54.5958 45.9613 54.6308 45.9477C54.6658 45.9341 54.704 45.9311 54.7407 45.939C54.7774 45.9469 54.811 45.9655 54.8373 45.9923C54.8583 46.0103 54.8749 46.0327 54.886 46.058C54.8971 46.0833 54.9022 46.1108 54.9012 46.1384V46.6039C54.9017 46.6404 54.8928 46.6765 54.8752 46.7085C54.8576 46.7405 54.8319 46.7674 54.8007 46.7864L54.4083 47.0329C54.3722 47.0411 54.3348 47.0411 54.2987 47.0329L54.2805 47.0603Z" fill="#8ABD1F" stroke="#8ABD1F"/>
<path d="M44.4681 53.2306C44.44 53.2265 44.4131 53.2162 44.3894 53.2004C44.3657 53.1846 44.3458 53.1638 44.3312 53.1393C44.3131 53.0892 44.3131 53.0343 44.3312 52.9842C44.3436 52.9288 44.3761 52.8799 44.4225 52.8472L45.244 52.3361C45.2801 52.3282 45.3174 52.3282 45.3535 52.3361C45.3897 52.3371 45.4252 52.3468 45.4569 52.3642C45.4887 52.3817 45.5158 52.4065 45.5361 52.4365C45.5542 52.4898 45.5542 52.5475 45.5361 52.6008C45.5292 52.6279 45.5167 52.6533 45.4994 52.6753C45.4821 52.6973 45.4604 52.7155 45.4357 52.7286L44.6233 53.2397C44.5878 53.2516 44.5493 53.2516 44.5138 53.2397L44.4681 53.2306ZM49.3788 50.1454C49.3523 50.1401 49.3272 50.1292 49.3052 50.1135C49.2831 50.0978 49.2647 50.0775 49.2511 50.0542C49.2374 50.0306 49.2303 50.0038 49.2303 49.9766C49.2303 49.9493 49.2374 49.9226 49.2511 49.899C49.2563 49.8712 49.267 49.8448 49.2827 49.8212C49.2984 49.7977 49.3187 49.7776 49.3423 49.7621L50.1638 49.2509C50.1999 49.243 50.2373 49.243 50.2734 49.2509C50.309 49.2544 50.3435 49.2652 50.3749 49.2824C50.4063 49.2997 50.4339 49.3231 50.4559 49.3513C50.4675 49.3772 50.4735 49.4052 50.4735 49.4335C50.4735 49.4618 50.4675 49.4898 50.4559 49.5156C50.4512 49.5424 50.4405 49.5677 50.4247 49.5898C50.4089 49.612 50.3884 49.6303 50.3646 49.6434L49.5431 50.1546C49.5078 50.1679 49.4689 50.1679 49.4336 50.1546L49.3788 50.1454Z" fill="#8ABD1F" stroke="#8ABD1F"/>
<path d="M35.5048 53.2398C35.4695 53.2531 35.4305 53.2531 35.3952 53.2398L34.5737 52.7286C34.5504 52.715 34.5302 52.6965 34.5144 52.6745C34.4987 52.6525 34.4878 52.6274 34.4825 52.6008C34.4644 52.5475 34.4644 52.4898 34.4825 52.4365C34.4961 52.4131 34.5146 52.3929 34.5366 52.3772C34.5586 52.3615 34.5837 52.3506 34.6103 52.3452H34.6559C34.6946 52.3338 34.7358 52.3338 34.7746 52.3452L35.5869 52.8564C35.6341 52.8865 35.668 52.9336 35.6816 52.9879C35.6951 53.0422 35.6874 53.0997 35.6599 53.1485C35.6272 53.1949 35.5784 53.2274 35.523 53.2398H35.5048ZM30.5849 50.1546C30.5494 50.1664 30.511 50.1664 30.4754 50.1546L29.6539 49.6434C29.6108 49.6115 29.5789 49.5668 29.5626 49.5157C29.5446 49.4624 29.5446 49.4046 29.5626 49.3514C29.5936 49.3073 29.6387 49.2751 29.6904 49.2601C29.7292 49.2487 29.7704 49.2487 29.8091 49.2601L30.6306 49.7712C30.6758 49.8011 30.7083 49.8466 30.7219 49.899C30.7406 49.9522 30.7406 50.0102 30.7219 50.0633C30.7064 50.087 30.6862 50.1072 30.6627 50.1229C30.6392 50.1386 30.6127 50.1494 30.5849 50.1546Z" fill="#8ABD1F" stroke="#8ABD1F"/>
<path d="M25.3001 41.9215C25.2423 41.9198 25.1872 41.8971 25.145 41.8576C25.1075 41.8177 25.0849 41.7661 25.0811 41.7116V40.7988C25.0834 40.7423 25.1075 40.6889 25.1484 40.6497C25.1892 40.6106 25.2436 40.5888 25.3001 40.5888C25.3547 40.5927 25.4063 40.6152 25.4462 40.6527C25.485 40.6917 25.5079 40.7438 25.5101 40.7988V41.7116C25.5078 41.7665 25.485 41.8186 25.4461 41.8575C25.4072 41.8964 25.3551 41.9192 25.3001 41.9215ZM25.3001 36.6C25.2423 36.5983 25.1872 36.5756 25.145 36.5361C25.1061 36.4972 25.0833 36.4451 25.0811 36.3901V35.4773C25.0879 35.4249 25.1142 35.377 25.1548 35.3432C25.1954 35.3093 25.2473 35.292 25.3001 35.2948C25.3537 35.2953 25.4054 35.3147 25.4462 35.3495C25.4843 35.3926 25.5068 35.4473 25.5101 35.5047V36.4175C25.5079 36.4725 25.485 36.5246 25.4462 36.5635C25.4027 36.5912 25.3515 36.604 25.3001 36.6Z" fill="#8ABD1F" stroke="#8ABD1F"/>
<path d="M29.7272 27.9834C29.699 27.9793 29.6721 27.9689 29.6484 27.9532C29.6247 27.9374 29.6049 27.9165 29.5903 27.8921C29.5721 27.8419 29.5721 27.787 29.5903 27.7369C29.6026 27.6815 29.6351 27.6327 29.6815 27.6L30.503 27.0888H30.6126C30.6482 27.0873 30.6837 27.0948 30.7157 27.1108C30.7476 27.1268 30.775 27.1506 30.7951 27.1801C30.8125 27.2335 30.8125 27.291 30.7951 27.3444C30.7882 27.3715 30.7757 27.3969 30.7584 27.4189C30.7411 27.4409 30.7194 27.4591 30.6947 27.4722L29.8823 27.9834C29.8468 27.9952 29.8084 27.9952 29.7728 27.9834H29.7272ZM34.6379 24.8982C34.6113 24.8929 34.5862 24.882 34.5642 24.8662C34.5422 24.8505 34.5237 24.8303 34.5101 24.8069C34.4965 24.7833 34.4893 24.7566 34.4893 24.7293C34.4893 24.7021 34.4965 24.6753 34.5101 24.6517C34.5224 24.5963 34.555 24.5475 34.6014 24.5148L35.4229 24.0037C35.4588 23.9948 35.4964 23.9948 35.5324 24.0037C35.568 24.0072 35.6026 24.0179 35.634 24.0352C35.6653 24.0524 35.6929 24.0759 35.7149 24.1041C35.733 24.1574 35.733 24.2151 35.7149 24.2684C35.708 24.2955 35.6955 24.3209 35.6782 24.3429C35.661 24.3649 35.6393 24.383 35.6145 24.3962L34.8022 24.9073C34.7635 24.9193 34.7222 24.9193 34.6835 24.9073L34.6379 24.8982Z" fill="#8ABD1F" stroke="#8ABD1F"/>
<path d="M40.4339 21.7584H40.3335L39.9958 21.5759L39.6581 21.7584H39.5668C39.5335 21.7595 39.5003 21.7526 39.4702 21.7383C39.44 21.724 39.4137 21.7028 39.3934 21.6763C39.3855 21.6402 39.3855 21.6028 39.3934 21.5667C39.3986 21.539 39.4094 21.5125 39.4251 21.489C39.4407 21.4654 39.461 21.4453 39.4847 21.4298L39.9045 21.1469H40.0141C40.0531 21.1376 40.0937 21.1376 40.1327 21.1469L40.5252 21.3933C40.5489 21.4088 40.5692 21.4289 40.5848 21.4525C40.6005 21.476 40.6113 21.5024 40.6165 21.5302C40.6346 21.5804 40.6346 21.6353 40.6165 21.6854C40.5668 21.7315 40.5017 21.7575 40.4339 21.7584Z" fill="#8ABD1F" stroke="#8ABD1F"/>
<path d="M50.228 27.9925C50.1925 28.0043 50.1541 28.0043 50.1185 27.9925L49.297 27.4814C49.2737 27.4677 49.2534 27.4493 49.2377 27.4272C49.222 27.4052 49.2111 27.3801 49.2057 27.3536C49.1921 27.33 49.185 27.3032 49.185 27.276C49.185 27.2487 49.1921 27.222 49.2057 27.1984C49.2172 27.1725 49.2349 27.1498 49.2571 27.1323C49.2794 27.1148 49.3057 27.103 49.3335 27.098C49.3691 27.0862 49.4075 27.0862 49.4431 27.098L50.2646 27.6091C50.311 27.6418 50.3435 27.6907 50.3558 27.7461C50.3672 27.7703 50.3731 27.7968 50.3731 27.8236C50.3731 27.8505 50.3672 27.877 50.3558 27.9012C50.326 27.9464 50.2805 27.9789 50.228 27.9925ZM45.3082 24.9073C45.2727 24.9192 45.2342 24.9192 45.1987 24.9073L44.3772 24.3962C44.3537 24.3813 44.3333 24.362 44.3174 24.3392C44.3014 24.3164 44.2901 24.2907 44.2841 24.2635C44.2782 24.2363 44.2777 24.2083 44.2827 24.1809C44.2877 24.1535 44.2981 24.1274 44.3133 24.1041C44.3269 24.0807 44.3454 24.0605 44.3674 24.0448C44.3894 24.029 44.4146 24.0182 44.4411 24.0128H44.4685C44.5072 24.0014 44.5484 24.0014 44.5871 24.0128L45.4086 24.524C45.4519 24.5596 45.4837 24.6072 45.4999 24.6609C45.518 24.711 45.518 24.7659 45.4999 24.8161C45.4844 24.8397 45.4643 24.86 45.4408 24.8757C45.4172 24.8914 45.3908 24.9021 45.363 24.9073H45.3082Z" fill="#8ABD1F" stroke="#8ABD1F"/>
<path d="M39.9956 65.0146C39.9406 65.0123 39.8885 64.9895 39.8496 64.9506C39.8107 64.9117 39.7879 64.8596 39.7856 64.8046V43.2633C39.7856 43.2076 39.8078 43.1542 39.8471 43.1148C39.8865 43.0754 39.9399 43.0533 39.9956 43.0533C40.0525 43.0507 40.1081 43.0704 40.1508 43.1081C40.1877 43.1512 40.2072 43.2065 40.2055 43.2633V64.8046C40.2067 64.8586 40.1871 64.9108 40.1508 64.9507C40.1085 64.9902 40.0534 65.0129 39.9956 65.0146Z" fill="#8ABD1F" stroke="#8ABD1F"/>
<path d="M39.9955 12.6124C39.2282 12.6124 38.4782 12.3849 37.8403 11.9586C37.2023 11.5323 36.7051 10.9265 36.4115 10.2176C36.1179 9.50879 36.0411 8.72879 36.1908 7.97629C36.3404 7.22378 36.7099 6.53256 37.2524 5.99004C37.795 5.44751 38.4862 5.07804 39.2387 4.92836C39.9912 4.77868 40.7712 4.8555 41.48 5.14911C42.1889 5.44273 42.7947 5.93994 43.221 6.57789C43.6472 7.21583 43.8748 7.96585 43.8748 8.7331C43.8748 9.76194 43.4661 10.7487 42.7385 11.4762C42.011 12.2037 41.0243 12.6124 39.9955 12.6124ZM39.9955 5.31021C39.3113 5.31021 38.6424 5.5131 38.0735 5.89322C37.5047 6.27335 37.0613 6.81363 36.7994 7.44575C36.5376 8.07787 36.4691 8.77344 36.6026 9.4445C36.736 10.1156 37.0655 10.732 37.5493 11.2158C38.0331 11.6996 38.6495 12.0291 39.3206 12.1625C39.9916 12.296 40.6872 12.2275 41.3193 11.9657C41.9515 11.7038 42.4917 11.2604 42.8719 10.6915C43.252 10.1226 43.4549 9.45381 43.4549 8.76961C43.4549 8.31531 43.3654 7.86547 43.1916 7.44575C43.0177 7.02604 42.7629 6.64468 42.4416 6.32344C42.1204 6.00221 41.7391 5.74739 41.3193 5.57354C40.8996 5.39969 40.4498 5.31021 39.9955 5.31021Z" fill="#8ABD1F" stroke="#8ABD1F"/>
<path d="M15.1682 28.2025C14.3991 28.2025 13.6474 27.9745 13.0079 27.5472C12.3685 27.1199 11.8701 26.5127 11.5758 25.8021C11.2815 25.0916 11.2045 24.3098 11.3545 23.5555C11.5045 22.8013 11.8749 22.1084 12.4187 21.5646C12.9625 21.0208 13.6553 20.6505 14.4096 20.5004C15.1639 20.3504 15.9457 20.4274 16.6562 20.7217C17.3667 21.016 17.974 21.5144 18.4013 22.1538C18.8285 22.7933 19.0566 23.5451 19.0566 24.3141C19.0566 25.3454 18.6469 26.3344 17.9177 27.0636C17.1885 27.7929 16.1995 28.2025 15.1682 28.2025ZM15.1682 20.9004C14.4818 20.9004 13.8108 21.104 13.2402 21.4856C12.6696 21.8671 12.2251 22.4093 11.9628 23.0437C11.7006 23.678 11.6324 24.3759 11.767 25.0489C11.9016 25.722 12.2328 26.34 12.7188 26.8247C13.2048 27.3095 13.8237 27.6391 14.4971 27.7719C15.1706 27.9047 15.8682 27.8347 16.5019 27.5708C17.1355 27.3068 17.6766 26.8608 18.0566 26.2893C18.4366 25.7177 18.6385 25.0462 18.6367 24.3598C18.6428 23.9009 18.5575 23.4454 18.3858 23.0198C18.214 22.5942 17.9594 22.207 17.6366 21.8808C17.3137 21.5546 16.9293 21.2959 16.5055 21.1197C16.0817 20.9435 15.6271 20.8535 15.1682 20.8547V20.9004Z" fill="#8ABD1F" stroke="#8ABD1F"/>
<path d="M64.3941 28.2025C63.6247 28.2043 62.872 27.9778 62.2314 27.5516C61.5907 27.1255 61.0909 26.5188 60.7952 25.8085C60.4995 25.0981 60.4212 24.316 60.5702 23.5611C60.7192 22.8063 61.0888 22.1126 61.6322 21.5678C62.1757 21.0231 62.8685 20.6519 63.623 20.5011C64.3776 20.3503 65.1599 20.4268 65.8709 20.7208C66.5819 21.0149 67.1898 21.5132 67.6174 22.1529C68.0451 22.7925 68.2734 23.5447 68.2734 24.3141C68.2746 24.8243 68.1751 25.3297 67.9807 25.8014C67.7863 26.2732 67.5007 26.7019 67.1404 27.0631C66.7801 27.4243 66.352 27.7108 65.8808 27.9063C65.4095 28.1019 64.9043 28.2025 64.3941 28.2025ZM64.3941 20.9004C63.7073 20.8985 63.0355 21.1007 62.4637 21.4811C61.8919 21.8615 61.4459 22.4031 61.1822 23.0373C60.9186 23.6715 60.8491 24.3696 60.9827 25.0433C61.1162 25.717 61.4467 26.3359 61.9324 26.8215C62.418 27.3071 63.0369 27.6376 63.7106 27.7712C64.3842 27.9047 65.0824 27.8353 65.7166 27.5716C66.3507 27.308 66.8923 26.862 67.2728 26.2902C67.6532 25.7184 67.8553 25.0465 67.8535 24.3598C67.8596 23.9016 67.7745 23.4469 67.6034 23.0219C67.4323 22.5969 67.1784 22.2101 66.8566 21.884C66.5347 21.5579 66.1513 21.299 65.7286 21.1223C65.3059 20.9456 64.8523 20.8547 64.3941 20.8547V20.9004Z" fill="#8ABD1F" stroke="#8ABD1F"/>
<path d="M15.1682 57.0826C14.4014 57.0808 13.6523 56.8517 13.0155 56.4244C12.3788 55.997 11.883 55.3905 11.5908 54.6815C11.2986 53.9725 11.223 53.1928 11.3738 52.4409C11.5245 51.689 11.8946 50.9986 12.4375 50.457C12.9804 49.9154 13.6717 49.5469 14.4239 49.3979C15.1762 49.249 15.9557 49.3263 16.664 49.6202C17.3723 49.9141 17.9776 50.4113 18.4035 51.049C18.8294 51.6868 19.0566 52.4364 19.0566 53.2033C19.0542 54.233 18.6435 55.2197 17.9145 55.9469C17.1856 56.6742 16.1979 57.0826 15.1682 57.0826ZM15.1682 49.7804C14.4844 49.7822 13.8165 49.9866 13.2488 50.3679C12.6811 50.7491 12.2391 51.29 11.9787 51.9223C11.7183 52.5545 11.651 53.2498 11.7856 53.9203C11.9201 54.5907 12.2503 55.2063 12.7344 55.6892C13.2186 56.1721 13.835 56.5006 14.5058 56.6334C15.1766 56.7661 15.8717 56.6971 16.5033 56.435C17.1349 56.1729 17.6747 55.7295 18.0544 55.1608C18.4341 54.5921 18.6368 53.9236 18.6368 53.2398C18.6416 52.7817 18.5554 52.3272 18.3831 51.9026C18.2109 51.4781 17.956 51.092 17.6333 50.7668C17.3106 50.4415 16.9266 50.1836 16.5034 50.008C16.0802 49.8325 15.6264 49.7427 15.1682 49.7439V49.7804Z" fill="#8ABD1F" stroke="#8ABD1F"/>
<path d="M39.9955 72.3532C39.2282 72.3532 38.4782 72.1256 37.8403 71.6994C37.2023 71.2731 36.7051 70.6673 36.4115 69.9584C36.1179 69.2496 36.0411 68.4696 36.1908 67.7171C36.3404 66.9646 36.7099 66.2733 37.2524 65.7308C37.795 65.1883 38.4862 64.8188 39.2387 64.6691C39.9912 64.5195 40.7712 64.5963 41.48 64.8899C42.1889 65.1835 42.7947 65.6807 43.221 66.3187C43.6472 66.9566 43.8748 67.7066 43.8748 68.4739C43.8748 69.5027 43.4661 70.4894 42.7385 71.2169C42.011 71.9444 41.0243 72.3532 39.9955 72.3532ZM39.9955 65.051C39.3113 65.051 38.6424 65.2539 38.0735 65.634C37.5047 66.0141 37.0613 66.5544 36.7994 67.1865C36.5376 67.8187 36.4691 68.5142 36.6026 69.1853C36.736 69.8563 37.0655 70.4727 37.5493 70.9566C38.0331 71.4404 38.6495 71.7698 39.3206 71.9033C39.9916 72.0368 40.6872 71.9683 41.3193 71.7065C41.9515 71.4446 42.4917 71.0012 42.8719 70.4323C43.252 69.8634 43.4549 69.1946 43.4549 68.5104C43.4597 68.053 43.3738 67.5993 43.2021 67.1753C43.0304 66.7514 42.7764 66.3657 42.4547 66.0406C42.1329 65.7155 41.7499 65.4574 41.3278 65.2813C40.9057 65.1051 40.4529 65.0145 39.9955 65.0145V65.051Z" fill="#8ABD1F" stroke="#8ABD1F"/>
<path d="M64.8231 56.827C64.0532 56.8288 63.3002 56.602 62.6593 56.1755C62.0185 55.7489 61.5187 55.1417 61.2233 54.4308C60.9278 53.7199 60.8501 52.9373 60.9998 52.1822C61.1496 51.4271 61.5201 50.7334 62.0644 50.1891C62.6088 49.6447 63.3025 49.2742 64.0576 49.1244C64.8127 48.9747 65.5953 49.0525 66.3062 49.3479C67.0171 49.6433 67.6242 50.1431 68.0508 50.784C68.4774 51.4248 68.7041 52.1779 68.7023 52.9477C68.6999 53.9758 68.2904 54.9611 67.5634 55.6881C66.8365 56.4151 65.8512 56.8245 64.8231 56.827ZM64.8231 49.5248C64.1367 49.523 63.4652 49.7249 62.8936 50.1049C62.322 50.4849 61.876 51.026 61.6121 51.6596C61.3481 52.2933 61.2781 52.991 61.4109 53.6644C61.5437 54.3378 61.8734 54.9567 62.3581 55.4427C62.8428 55.9287 63.4608 56.2599 64.1339 56.3945C64.807 56.5291 65.5048 56.4609 66.1392 56.1987C66.7735 55.9364 67.3157 55.4919 67.6973 54.9213C68.0788 54.3507 68.2824 53.6797 68.2825 52.9933C68.2934 52.5317 68.2121 52.0726 68.0432 51.6429C67.8744 51.2131 67.6214 50.8214 67.2992 50.4907C66.977 50.16 66.592 49.8969 66.1668 49.717C65.7416 49.537 65.2848 49.4437 64.8231 49.4427V49.5248Z" fill="#8ABD1F" stroke="#8ABD1F"/>
<path d="M68.9759 11.2341C68.921 11.2319 68.8689 11.209 68.83 11.1702C68.7911 11.1313 68.7682 11.0792 68.766 11.0242C68.7642 10.9965 68.769 10.9688 68.7802 10.9434C68.7913 10.918 68.8083 10.8956 68.8299 10.8781L70.8106 8.88831C70.8505 8.84837 70.9047 8.82593 70.9612 8.82593C71.0177 8.82593 71.0719 8.84837 71.1118 8.88831C71.1518 8.92825 71.1742 8.98243 71.1742 9.03892C71.1742 9.09541 71.1518 9.14958 71.1118 9.18952L69.1128 11.1702C69.0773 11.2085 69.0281 11.2315 68.9759 11.2341Z" fill="#8ABD1F" stroke="#8ABD1F"/>
<path d="M9.03481 71.1757C8.99398 71.1748 8.9543 71.162 8.92064 71.1389C8.88698 71.1158 8.8608 71.0833 8.8453 71.0456C8.8298 71.0078 8.82566 70.9663 8.83338 70.9262C8.8411 70.8861 8.86034 70.8491 8.88876 70.8198L10.8695 68.8391C10.8874 68.8181 10.9099 68.8014 10.9352 68.7903C10.9605 68.7793 10.9879 68.7741 11.0155 68.7752C11.0571 68.7743 11.098 68.7858 11.1331 68.8082C11.1681 68.8307 11.1957 68.863 11.2124 68.9012C11.229 68.9393 11.2339 68.9815 11.2265 69.0225C11.2191 69.0634 11.1996 69.1013 11.1707 69.1311L9.18085 71.1119C9.16216 71.1319 9.13956 71.1479 9.11444 71.1589C9.08932 71.1699 9.06222 71.1756 9.03481 71.1757Z" fill="#8ABD1F" stroke="#8ABD1F"/>
<path d="M80.9787 40.2147C80.9238 40.2124 80.8717 40.1896 80.8328 40.1507C80.7939 40.1118 80.771 40.0597 80.7688 40.0047C80.7688 39.949 80.7909 39.8956 80.8303 39.8563C80.8697 39.8169 80.9231 39.7948 80.9787 39.7948H83.7901C83.844 39.7936 83.8963 39.8132 83.9361 39.8496C83.9743 39.8926 83.9968 39.9473 84 40.0047C83.9978 40.0597 83.9749 40.1118 83.936 40.1507C83.8971 40.1896 83.845 40.2124 83.7901 40.2147H80.9787Z" fill="#8ABD1F" stroke="#8ABD1F"/>
<path d="M39.9956 84.0001C39.968 84.0012 39.9406 83.996 39.9153 83.985C39.89 83.9739 39.8675 83.9573 39.8496 83.9363C39.8107 83.8973 39.7879 83.8452 39.7857 83.7902V80.988C39.7847 80.9453 39.7969 80.9032 39.8204 80.8676C39.844 80.8319 39.8779 80.8043 39.9176 80.7884C39.9573 80.7725 40.0009 80.7691 40.0426 80.7787C40.0843 80.7883 40.122 80.8104 40.1508 80.842C40.1871 80.8818 40.2068 80.9341 40.2056 80.988V83.7902C40.2084 83.8185 40.2049 83.847 40.1954 83.8738C40.1859 83.9006 40.1705 83.9249 40.1504 83.945C40.1303 83.9651 40.106 83.9804 40.0792 83.99C40.0525 83.9995 40.0239 84.003 39.9956 84.0001Z" fill="#8ABD1F" stroke="#8ABD1F"/>
<path d="M70.9387 71.1758C70.9097 71.1769 70.8809 71.1718 70.8541 71.1608C70.8273 71.1498 70.8032 71.1331 70.7835 71.1119L68.8028 69.1312C68.7827 69.1125 68.7667 69.0899 68.7557 69.0648C68.7447 69.0396 68.739 69.0125 68.7389 68.9851C68.7371 68.9574 68.742 68.9297 68.7531 68.9043C68.7642 68.8789 68.7812 68.8565 68.8028 68.8391C68.8215 68.819 68.8441 68.803 68.8692 68.792C68.8943 68.781 68.9214 68.7753 68.9488 68.7752C69.0056 68.7735 69.0609 68.793 69.104 68.8299L71.0847 70.8198C71.1244 70.8582 71.1473 70.9106 71.1486 70.9658C71.1456 71.0206 71.1229 71.0725 71.0847 71.1119C71.066 71.1319 71.0434 71.1479 71.0183 71.1589C70.9932 71.1699 70.9661 71.1757 70.9387 71.1758Z" fill="#8ABD1F" stroke="#8ABD1F"/>
<path d="M11.0151 11.2341C10.9877 11.234 10.9606 11.2282 10.9355 11.2172C10.9104 11.2063 10.8878 11.1902 10.8691 11.1702L8.87011 9.18947C8.84911 9.17059 8.83214 9.14767 8.82021 9.12208C8.80827 9.0965 8.80163 9.06876 8.80066 9.04054C8.79969 9.01233 8.80443 8.9842 8.81458 8.95786C8.82474 8.93151 8.84011 8.90749 8.85976 8.88722C8.87942 8.86695 8.90296 8.85085 8.92898 8.83989C8.955 8.82893 8.98296 8.82333 9.0112 8.82343C9.03943 8.82352 9.06736 8.82932 9.0933 8.84045C9.11925 8.85159 9.14268 8.86785 9.16219 8.88826L11.152 10.869C11.1889 10.9121 11.2085 10.9674 11.2068 11.0241C11.2063 11.0777 11.1869 11.1294 11.152 11.1702C11.1165 11.2085 11.0673 11.2314 11.0151 11.2341Z" fill="#8ABD1F" stroke="#8ABD1F"/>
</g>
<defs>
<clipPath id="clip0_7912_1696">
<rect width="81" height="81" fill="white"/>
</clipPath>
</defs>
</svg>
