<svg width="81" height="81" viewBox="0 0 81 81" fill="none" xmlns="http://www.w3.org/2000/svg">
<path d="M70.2884 2.3811H10.516C6.00395 2.3811 2.34619 6.03886 2.34619 10.5509V70.3233C2.34619 74.8354 6.00395 78.4932 10.516 78.4932H70.2884C74.8005 78.4932 78.4583 74.8354 78.4583 70.3233V10.5509C78.4583 6.03886 74.8005 2.3811 70.2884 2.3811Z" fill="#3A3A3A"/>
<path d="M66.4759 35.0744L70.6655 38.9428C70.7731 39.0086 70.8589 39.1046 70.9123 39.2189C70.9657 39.3331 70.9843 39.4605 70.9658 39.5852V40.8142C70.9756 41.0277 70.9115 41.238 70.7843 41.4098C70.6571 41.5815 70.4746 41.7041 70.2675 41.7569L56.7768 45.8907C57.6744 47.9545 58.1261 50.1846 58.1022 52.435C58.0784 54.6855 57.5795 56.9055 56.6383 58.9498C55.6972 60.9941 54.3349 62.8166 52.6406 64.2981C50.9464 65.7795 48.9584 66.8864 46.8068 67.5464C44.6552 68.2064 42.3884 68.4045 40.1549 68.1279C37.9214 67.8513 35.7715 67.1061 33.8459 65.9411C31.9203 64.7761 30.2625 63.2176 28.9809 61.3676C27.6993 59.5176 26.8228 57.4178 26.4088 55.2057L22.2191 56.4975C20.7458 56.9514 20.0265 56.9304 18.8185 55.7992L10.7814 48.4533C10.0272 47.7551 9.74793 47.4339 9.83172 46.4772L9.92948 45.4228C9.92948 45.1016 9.99232 44.941 10.4183 44.8153L16.1441 43.0557C16.3248 42.1073 16.6919 41.2042 17.2241 40.3988C17.7562 39.5933 18.443 38.9014 19.2445 38.3633C18.8554 38.0984 18.4909 37.7993 18.1552 37.4695C17.3778 36.6907 16.7871 35.746 16.4272 34.7062C16.0674 33.6664 15.9478 32.5585 16.0775 31.4659C16.2072 30.3733 16.5828 29.3242 17.176 28.3975C17.7693 27.4709 18.5648 26.6906 19.5028 26.1155C18.1504 25.2876 17.1054 24.0406 16.5269 22.5642C15.9484 21.0878 15.8681 19.4628 16.2981 17.9365C16.7282 16.4102 17.645 15.0662 18.9092 14.109C20.1734 13.1518 21.7157 12.6337 23.3015 12.6337C24.8872 12.6337 26.4295 13.1518 27.6937 14.109C28.9579 15.0662 29.8748 16.4102 30.3048 17.9365C30.7349 19.4628 30.6545 21.0878 30.076 22.5642C29.4975 24.0406 28.4525 25.2876 27.1001 26.1155C28.0381 26.6906 28.8336 27.4709 29.4269 28.3975C30.0201 29.3242 30.3957 30.3733 30.5254 31.4659C30.6551 32.5585 30.5355 33.6664 30.1757 34.7062C29.8158 35.746 29.2251 36.6907 28.4478 37.4695C28.112 37.7993 27.7475 38.0984 27.3584 38.3633C27.7725 38.6387 28.1563 38.957 28.5036 39.3129L46.7426 33.6778C46.6723 33.2016 46.6373 32.7208 46.6378 32.2394C46.6378 29.5541 47.7046 26.9787 49.6034 25.0799C51.5022 23.1811 54.0775 22.1144 56.7628 22.1144C59.4482 22.1144 62.0235 23.1811 63.9223 25.0799C65.8211 26.9787 66.8878 29.5541 66.8878 32.2394C66.8895 33.1989 66.7531 34.1537 66.4828 35.0744H66.4759ZM56.274 46.0862L26.9465 55.08C27.3231 57.2406 28.1552 59.2963 29.3874 61.1106C30.6195 62.925 32.2237 64.4563 34.0932 65.6031C35.9627 66.7498 38.0548 67.4857 40.2305 67.7618C42.4062 68.0378 44.6158 67.8478 46.7125 67.2044C48.8091 66.5609 50.7449 65.4787 52.3912 64.0296C54.0375 62.5805 55.3566 60.7978 56.2609 58.7997C57.1653 56.8017 57.6341 54.634 57.6364 52.4409C57.6387 50.2477 57.1743 48.0791 56.274 46.0792V46.0862ZM28.2662 46.5261C28.2726 46.5105 28.282 46.4963 28.2939 46.4844C28.3058 46.4725 28.32 46.463 28.3355 46.4565C28.3511 46.45 28.3678 46.4466 28.3846 46.4466C28.4015 46.4466 28.4182 46.4499 28.4338 46.4563C28.4494 46.4627 28.4635 46.4721 28.4755 46.484C28.4874 46.4959 28.4969 46.51 28.5034 46.5256C28.5099 46.5412 28.5132 46.5579 28.5133 46.5747C28.5133 46.5916 28.51 46.6083 28.5036 46.6239C28.2148 47.3199 27.7881 47.9502 27.2493 48.4771C26.7105 49.0039 26.0707 49.4162 25.3684 49.6893C25.3371 49.6974 25.304 49.6938 25.2752 49.6793C25.2463 49.6647 25.2238 49.6401 25.2118 49.6101C25.1999 49.5802 25.1992 49.5469 25.21 49.5164C25.2208 49.486 25.2424 49.4606 25.2706 49.4449C25.9404 49.1846 26.5508 48.7919 27.0655 48.2904C27.5802 47.789 27.9886 47.1889 28.2662 46.5261ZM28.2662 34.4459C28.2726 34.4303 28.282 34.4162 28.2939 34.4042C28.3058 34.3923 28.32 34.3828 28.3355 34.3763C28.3511 34.3698 28.3678 34.3665 28.3846 34.3664C28.4015 34.3664 28.4182 34.3697 28.4338 34.3761C28.4494 34.3825 28.4635 34.3919 28.4755 34.4038C28.4874 34.4157 28.4969 34.4299 28.5034 34.4454C28.5099 34.461 28.5132 34.4777 28.5133 34.4945C28.5133 34.5114 28.51 34.5281 28.5036 34.5437C28.2206 35.2043 27.8128 35.8042 27.3026 36.3103C27.2776 36.3353 27.2437 36.3494 27.2083 36.3494C27.173 36.3494 27.139 36.3353 27.114 36.3103C27.089 36.2853 27.075 36.2514 27.075 36.2161C27.075 36.1807 27.089 36.1468 27.114 36.1218C27.6053 35.6316 27.9966 35.0505 28.2662 34.411V34.4459ZM28.2662 22.0306C28.2726 22.015 28.282 22.0008 28.2939 21.9889C28.3058 21.9769 28.32 21.9674 28.3355 21.961C28.3511 21.9545 28.3678 21.9511 28.3846 21.9511C28.4015 21.9511 28.4182 21.9543 28.4338 21.9608C28.4494 21.9672 28.4635 21.9766 28.4755 21.9885C28.4874 22.0004 28.4969 22.0145 28.5034 22.0301C28.5099 22.0457 28.5132 22.0623 28.5133 22.0792C28.5133 22.0961 28.51 22.1128 28.5036 22.1283C28.3272 22.5697 28.0923 22.9854 27.8053 23.3643C27.7827 23.3847 27.7537 23.3967 27.7232 23.3982C27.6928 23.3997 27.6627 23.3907 27.6381 23.3727C27.6135 23.3546 27.5959 23.3287 27.5882 23.2992C27.5805 23.2697 27.5832 23.2384 27.5959 23.2107C27.8767 22.8478 28.1112 22.4514 28.2941 22.0306H28.2662ZM64.8698 32.5047C64.8653 32.4853 64.8652 32.465 64.8695 32.4455C64.8739 32.426 64.8826 32.4077 64.895 32.3921C64.9075 32.3764 64.9233 32.3637 64.9413 32.355C64.9593 32.3463 64.979 32.3418 64.999 32.3418C65.019 32.3418 65.0387 32.3463 65.0567 32.355C65.0747 32.3637 65.0905 32.3764 65.103 32.3921C65.1154 32.4077 65.1241 32.426 65.1285 32.4455C65.1328 32.465 65.1327 32.4853 65.1282 32.5047C65.0047 34.3075 64.3017 36.0221 63.1241 37.3927C63.1019 37.4186 63.0703 37.4346 63.0362 37.4372C63.0022 37.4399 62.9685 37.4288 62.9426 37.4066C62.9167 37.3844 62.9006 37.3528 62.898 37.3187C62.8954 37.2847 62.9064 37.251 62.9286 37.2251C64.0716 35.8963 64.7528 34.2326 64.8698 32.4838V32.5047ZM52.8036 59.8073C52.824 59.7786 52.8549 59.7592 52.8896 59.7533C52.9243 59.7474 52.96 59.7555 52.9887 59.7759C53.0174 59.7963 53.0368 59.8272 53.0427 59.8619C53.0486 59.8966 53.0405 59.9322 53.0201 59.9609C51.4671 62.1781 49.2747 63.8687 46.7356 64.807C46.7051 64.8121 46.6738 64.8065 46.647 64.7911C46.6203 64.7756 46.5997 64.7513 46.589 64.7224C46.5782 64.6934 46.5779 64.6616 46.5881 64.6324C46.5983 64.6032 46.6184 64.5785 46.6448 64.5626C49.1265 63.6381 51.2675 61.9793 52.7827 59.8073H52.8036ZM20.0335 26.4088C18.7235 27.1333 17.6913 28.2727 17.0994 29.6477C16.5075 31.0228 16.3893 32.5556 16.7634 34.0051C17.1375 35.4547 17.9828 36.7388 19.1663 37.6556C20.3498 38.5724 21.8044 39.07 23.3015 39.07C24.7985 39.07 26.2531 38.5724 27.4366 37.6556C28.6201 36.7388 29.4654 35.4547 29.8395 34.0051C30.2137 32.5556 30.0955 31.0228 29.5035 29.6477C28.9116 28.2727 27.8794 27.1333 26.5694 26.4088C25.5545 26.9153 24.4357 27.179 23.3015 27.179C22.1672 27.179 21.0484 26.9153 20.0335 26.4088ZM30.0259 19.9078C30.0224 18.4277 29.5328 16.9898 28.6323 15.8152C27.7317 14.6406 26.4702 13.7944 25.0418 13.4068C23.6134 13.0192 22.0971 13.1117 20.7264 13.67C19.3557 14.2283 18.2063 15.2216 17.4552 16.4969C16.7042 17.7723 16.3929 19.2591 16.5694 20.7286C16.7459 22.1981 17.4003 23.569 18.432 24.6302C19.4637 25.6915 20.8155 26.3843 22.2795 26.6022C23.7434 26.8201 25.2384 26.551 26.5345 25.8362C27.5944 25.2517 28.4776 24.393 29.0918 23.35C29.7061 22.3071 30.0287 21.1182 30.0259 19.9078ZM19.7403 38.6635C18.4938 39.4383 17.5338 40.5981 17.0054 41.9673C16.477 43.3365 16.4091 44.8405 16.812 46.2518C17.2149 47.663 18.0666 48.9046 19.2381 49.7885C20.4097 50.6724 21.8373 51.1505 23.305 51.1505C24.7726 51.1505 26.2002 50.6724 27.3718 49.7885C28.5433 48.9046 29.395 47.663 29.7979 46.2518C30.2008 44.8405 30.1329 43.3365 29.6045 41.9673C29.0761 40.5981 28.1161 39.4383 26.8696 38.6635C25.7799 39.2714 24.5528 39.5904 23.305 39.5904C22.0571 39.5904 20.83 39.2714 19.7403 38.6635ZM16.0603 43.6352L10.7744 45.2552C10.544 45.3251 10.3624 45.3809 10.5998 45.5974L20.2011 54.4166C20.3106 54.5582 20.4625 54.6611 20.6347 54.7101C20.8068 54.7591 20.9901 54.7517 21.1578 54.6889L70.2815 39.6341C70.4979 39.5713 70.463 39.4456 70.3303 39.3269L66.3362 35.6121C65.5947 37.6994 64.1892 39.486 62.335 40.698C60.4808 41.91 58.2803 42.4805 56.0708 42.322C53.8613 42.1635 51.7648 41.2848 50.1026 39.8205C48.4404 38.3563 47.3042 36.3873 46.8683 34.2155L28.9226 39.7528C29.6825 40.6784 30.2022 41.7772 30.4357 42.9517C30.6691 44.1263 30.609 45.3403 30.2607 46.4861C29.9124 47.6319 29.2867 48.674 28.4391 49.5199C27.5915 50.3659 26.5482 50.9896 25.4017 51.3356C24.2553 51.6817 23.0411 51.7394 21.867 51.5037C20.6929 51.268 19.5951 50.7461 18.6711 49.9844C17.747 49.2226 17.0253 48.2446 16.5698 47.1371C16.1144 46.0295 15.9394 44.8267 16.0603 43.6352ZM56.7628 22.6451C54.8644 22.6409 53.0074 23.2001 51.4268 24.2518C49.8463 25.3035 48.6133 26.8005 47.8839 28.5533C47.1545 30.306 46.9616 32.2358 47.3294 34.0983C47.6972 35.9608 48.6093 37.6723 49.9503 39.0161C51.2912 40.36 53.0007 41.2759 54.8624 41.6478C56.7241 42.0197 58.6543 41.8309 60.4086 41.1054C62.163 40.3798 63.6626 39.1501 64.7178 37.5719C65.773 35.9936 66.3362 34.1378 66.3362 32.2394C66.3362 29.6984 65.3283 27.2613 63.5335 25.4626C61.7387 23.6639 59.3038 22.6506 56.7628 22.6451ZM70.1139 40.2346L21.3114 55.1638C21.0553 55.2469 20.7806 55.2542 20.5204 55.1848C20.2603 55.1154 20.0257 54.9723 19.845 54.7727L10.5928 46.2957C10.3484 46.0722 10.3415 46.0513 10.3135 46.2957C10.2616 46.5585 10.2616 46.8289 10.3135 47.0917C10.3624 47.364 10.8372 47.79 11.1584 48.0623L19.1328 55.4291C20.1802 56.3858 20.7109 56.3997 21.9957 56.0087L70.1278 41.2541C70.2283 41.2338 70.3177 41.1768 70.3784 41.0941C70.4391 41.0115 70.4667 40.9092 70.456 40.8072V40.5C70.456 40.102 70.456 40.1578 70.1139 40.2695V40.2346Z" fill="#F1F2F0"/>
</svg>
