<svg width="156" height="58" viewBox="0 0 156 58" fill="none" xmlns="http://www.w3.org/2000/svg">
<g clip-path="url(#clip0_7627_9720)">
<path d="M1.99108 16.671L9.32573 15.8044C12.7615 15.3994 15.3268 15.6632 17.3086 16.8122C18.2127 17.3224 18.9837 18.0452 19.5572 18.9201C20.1307 19.7951 20.4902 20.7968 20.6055 21.8418C20.7323 23.0976 20.5774 24.3663 20.1523 25.5524C19.7272 26.7384 19.0431 27.811 18.1514 28.6892C16.2992 30.5729 13.6691 31.6843 10.0851 32.1081L6.62154 32.5131L5.9918 41.7151L0.305603 42.3745L1.99108 16.671ZM10.187 27.5401C12.1225 27.314 13.2246 26.8054 13.9654 26.0049C14.3241 25.625 14.5936 25.1676 14.754 24.6669C14.9144 24.1662 14.9614 23.6351 14.8915 23.1133C14.8588 22.6648 14.7118 22.2326 14.465 21.8593C14.2182 21.4861 13.88 21.1847 13.4839 20.9847C12.3052 20.5187 11.021 20.4011 9.77951 20.6456L7.33463 20.9282L6.86233 27.9262L10.187 27.5401Z" fill="#F0F1EF"/>
<path d="M31.2278 13.2332L36.7844 12.5457L45.3692 37.0341L39.4978 37.7499L37.7845 32.5791L27.7272 33.7659L25.2823 39.417L19.309 40.1517L31.2278 13.2332ZM29.6998 29.1602L36.3583 28.3784L35.3767 25.421C34.7655 23.6126 34.2006 21.7571 33.6912 19.9299H33.6171C32.8855 21.8795 31.9687 23.961 31.1167 25.9672L29.6998 29.1602Z" fill="#F0F1EF"/>
<path d="M49.5551 11.1046L55.2506 10.4359L53.8707 31.2134L64.9838 29.9042L64.6412 34.8396L47.8511 36.8269L49.5551 11.1046Z" fill="#F0F1EF"/>
<path d="M92.7943 17.4057C93.1942 21.0132 92.2745 24.6441 90.2105 27.6061C89.0751 29.2165 87.6143 30.5614 85.926 31.5507C84.2378 32.5399 82.3611 33.1507 80.4217 33.342C73.6798 34.1332 67.6417 30.394 66.8082 23.1416C66.4199 19.5498 67.3391 15.9377 69.392 12.9883C70.5274 11.3779 71.9882 10.033 73.6765 9.04374C75.3647 8.05446 77.2414 7.4437 79.1808 7.25239C85.9412 6.3953 91.9608 10.1628 92.7943 17.4057ZM85.4874 25.0348C86.7659 23.1172 87.3396 20.8031 87.1081 18.4983C86.6543 14.5707 83.7649 11.7074 79.5419 12.1972C78.451 12.2987 77.3968 12.6497 76.458 13.2238C75.5221 13.7956 74.7221 14.5707 74.115 15.4937C72.8366 17.4113 72.2628 19.7254 72.4944 22.0302C72.9389 25.9578 75.8376 28.8211 80.0698 28.3219C81.1569 28.2204 82.2079 27.8724 83.1454 27.3036C84.0829 26.7348 84.8832 25.9595 85.4874 25.0348Z" fill="#F0F1EF"/>
<path d="M97.4155 5.45342L102.602 4.85061L109.39 14.7685L117.614 3.04225L123.263 2.38293L121.549 28.1241L115.854 28.7928L116.53 18.4982C116.678 16.2849 116.854 13.949 117.049 11.811H116.975C115.641 13.7983 114.27 15.7951 112.872 17.7824L108.899 23.4336L105.797 18.8373C104.667 17.1702 103.398 15.2394 102.296 13.497H102.222C102.129 15.6161 102.018 17.7824 101.87 20.0146L101.148 30.4976L95.6744 31.138L97.4155 5.45342Z" fill="#F0F1EF"/>
<path d="M135.895 0.923082L141.451 0.273193L150.045 24.7617L144.174 25.4492L142.461 20.2878L132.431 21.4651L129.995 27.1163L124.013 27.8604L135.895 0.923082ZM134.357 16.8594L141.025 16.0777L140.034 13.1202C139.432 11.3307 138.849 9.4281 138.312 7.61972H138.247C137.487 9.56938 136.608 11.6509 135.737 13.6571L134.357 16.8594Z" fill="#F0F1EF"/>
<path d="M0 42.6665L1.75957 16.445L9.30722 15.5596C12.9282 15.1264 15.4842 15.4655 17.4012 16.5863C18.3394 17.1173 19.1391 17.8689 19.7336 18.7782C20.328 19.6876 20.7 20.7283 20.8185 21.8136C20.9509 23.1067 20.793 24.4135 20.3567 25.6355C19.9204 26.8575 19.217 27.9628 18.2995 28.8682C16.4474 30.7519 13.7524 31.9292 10.0851 32.3531L6.82528 32.7392L6.19555 41.9318L0 42.6665ZM2.22261 16.8971L0.537134 42.0731L5.72323 41.4609L6.35298 32.2683L10.0573 31.8351C13.6043 31.4112 16.1973 30.3563 17.9754 28.4914C18.8371 27.6356 19.4985 26.5935 19.9105 25.4425C20.3225 24.2914 20.4745 23.0608 20.3555 21.8419C20.2502 20.8351 19.9072 19.8691 19.3558 19.0262C18.8043 18.1832 18.0607 17.4883 17.1882 17.0007C15.3361 15.927 12.8912 15.6162 9.39056 16.0588L2.22261 16.8971ZM6.62154 28.1994L7.1309 20.6645L9.77952 20.3537C11.0647 20.0942 12.3963 20.2185 13.6135 20.7116C14.0419 20.9316 14.4108 21.255 14.6878 21.6535C14.9559 22.0602 15.1155 22.5308 15.1508 23.0192C15.2273 23.5791 15.1766 24.1494 15.0027 24.6863C14.8251 25.2233 14.5307 25.7127 14.1414 26.1179C13.3357 27.0127 12.1596 27.5025 10.2148 27.7285L6.62154 28.1994ZM7.54763 21.1449L7.11237 27.6249L10.1129 27.2858C11.9651 27.0786 13.0208 26.636 13.7432 25.8165C14.0775 25.463 14.3306 25.0383 14.4841 24.5733C14.6404 24.1073 14.6879 23.6107 14.623 23.1228C14.5864 22.715 14.4495 22.323 14.2248 21.9831C13.9908 21.6403 13.6711 21.3672 13.2987 21.192C12.166 20.7485 10.9329 20.6407 9.74248 20.8812L7.54763 21.1449Z" fill="#F0F1EF"/>
<path d="M18.9015 40.4437L31.0611 12.9884L36.951 12.2914L37.0158 12.4892L45.7211 37.2884L39.3403 38.0231L37.627 32.8523L27.8846 34.0202L25.4397 39.6714L18.9015 40.4437ZM31.4037 13.4593L19.7072 39.8315L25.1156 39.191L27.5512 33.5398L37.9512 32.3154L39.6644 37.4862L45.0358 36.8646L36.5898 12.8094L31.4037 13.4593ZM29.3293 29.471L30.8851 25.873C31.8112 23.6597 32.6539 21.7289 33.3856 19.8451L33.4411 19.7038L33.8671 19.6567L33.9319 19.8639C34.5061 21.8513 35.0803 23.7068 35.6359 25.355L36.7195 28.6044L29.3293 29.471ZM33.6263 20.6175C32.9503 22.3317 32.1724 24.1212 31.3389 26.0897L30.1072 28.9153L36.0249 28.2183L35.0988 25.5622C34.5987 24.0835 34.0894 22.4258 33.5522 20.6457L33.6263 20.6175Z" fill="#F0F1EF"/>
<path d="M47.564 37.0718L49.3236 10.8503L55.5191 10.1062L54.1393 30.8837L65.2524 29.5839L64.9097 35.0468L47.564 37.0718ZM49.7959 11.3024L48.1012 36.5349L64.3911 34.6512L64.6967 30.2244L53.5836 31.5242L54.9635 10.7561L49.7959 11.3024Z" fill="#F0F1EF"/>
<path d="M78.7177 33.7093C76.0844 33.7539 73.5002 32.9819 71.309 31.4959C69.9825 30.5438 68.8761 29.309 68.0668 27.8776C67.2575 26.4461 66.7648 24.8524 66.623 23.2075C66.2072 19.5433 67.1409 15.8523 69.2438 12.847C70.4049 11.213 71.8933 9.84768 73.6108 8.84114C75.3284 7.8346 77.2362 7.20964 79.2085 7.00745C86.6173 6.14094 92.2664 10.4358 93.0999 17.4339C93.5139 21.0994 92.5768 24.7908 90.4698 27.7944C89.3087 29.4285 87.8204 30.7937 86.1028 31.8003C84.3852 32.8068 82.4774 33.4318 80.5051 33.634C79.9111 33.6923 79.3144 33.7175 78.7177 33.7093ZM81.0052 7.33711C80.4032 7.33711 79.8105 7.3371 79.2085 7.4407C77.304 7.64097 75.4625 8.24788 73.8044 9.2217C72.1463 10.1955 70.709 11.5143 69.5865 13.0919C67.5671 15.9946 66.6703 19.5523 67.0675 23.0851C67.2024 24.6603 67.6732 26.1867 68.4473 27.558C69.2215 28.9292 70.2802 30.1124 71.5498 31.025C74.1548 32.779 77.2985 33.5089 80.3939 33.0783C82.2994 32.8815 84.1422 32.2761 85.8008 31.302C87.4594 30.3279 88.896 29.0072 90.016 27.4271C92.0494 24.5198 92.9533 20.9502 92.5535 17.4056C91.8497 11.3024 87.21 7.33711 81.0052 7.33711ZM79.153 28.6515C77.5371 28.6776 75.967 28.1052 74.7355 27.0409C73.3361 25.7566 72.4605 23.9857 72.2814 22.0773C72.0459 19.7093 72.636 17.3324 73.9484 15.3618C74.5718 14.4038 75.3976 13.5994 76.3655 13.0071C77.3347 12.4121 78.4239 12.0483 79.5512 11.9428C80.5059 11.8017 81.4791 11.8662 82.4076 12.1323C83.3362 12.3984 84.1993 12.8601 84.9411 13.4875C86.3418 14.7597 87.2293 16.5147 87.4322 18.4134C87.6652 20.774 87.0787 23.1431 85.7745 25.1101C85.1567 26.0778 84.33 26.8895 83.3574 27.4836C82.387 28.0775 81.2988 28.4443 80.1717 28.5573C79.834 28.6031 79.4936 28.6251 79.153 28.6233V28.6515ZM80.5143 12.4138C80.2087 12.4138 79.9031 12.4138 79.5882 12.4609C78.5394 12.5635 77.5257 12.9004 76.6197 13.4474C75.7136 13.9945 74.9374 14.7382 74.3466 15.6255C73.1065 17.4921 72.5494 19.7418 72.7722 21.9831C72.9396 23.7686 73.7591 25.4255 75.0689 26.6265C75.7615 27.2092 76.5658 27.639 77.4305 27.8886C78.2943 28.1377 79.2006 28.1955 80.0883 28.0581C81.144 27.956 82.1636 27.6144 83.0723 27.0586C83.9811 26.5028 84.7557 25.7468 85.3393 24.8464C86.5793 22.9798 87.1365 20.73 86.9136 18.4888C86.7505 16.7041 85.9341 15.0468 84.6262 13.8454C83.4771 12.848 82.006 12.318 80.4958 12.3572L80.5143 12.4138Z" fill="#F0F1EF"/>
<path d="M95.3873 31.4488L97.1377 5.22734L102.694 4.56802L109.371 14.3446L117.438 2.84442L123.494 2.10034L121.744 28.3218L115.548 29.0659L116.28 18.4605C116.419 16.379 116.558 14.4199 116.715 12.6209C115.511 14.4011 114.289 16.1812 113.085 17.9236L108.918 23.8292L105.621 18.9315C104.593 17.4527 103.435 15.7103 102.463 14.1562C102.379 16.0399 102.277 17.9237 102.139 20.0052L101.416 30.6859L95.3873 31.4488ZM97.6099 5.67002L95.9522 30.8837L100.935 30.2998L101.62 20.0334C101.768 17.7165 101.879 15.6067 101.963 13.5157V13.2897L102.398 13.2426L102.481 13.3745C103.565 15.0698 104.843 17.01 105.982 18.696L108.89 23.0097L112.65 17.6599C114.03 15.682 115.428 13.6664 116.752 11.6791L116.817 11.5849L117.299 11.519V11.8298C117.113 13.8454 116.947 16.0964 116.78 18.4793L116.132 28.4725L121.318 27.8603L123.003 2.62778L117.752 3.24942L109.418 15.2017L102.509 5.08604L97.6099 5.67002Z" fill="#F0F1EF"/>
<path d="M123.559 28.1335L135.728 0.687571L141.599 0L141.673 0.188384L150.388 24.9783L143.998 25.7223L142.294 20.5232L132.57 21.6723L130.134 27.3235L123.559 28.1335ZM136.061 1.1585L124.402 27.5307L129.801 26.8902L132.246 21.2391L142.646 20.0146L144.359 25.176L149.721 24.545L141.303 0.536869L136.061 1.1585ZM133.959 17.1702L135.515 13.5723C136.441 11.4907 137.274 9.44692 138.015 7.55377L138.071 7.40307H138.497L138.552 7.60085C139.145 9.5976 139.719 11.4531 140.266 13.1013L141.358 16.3413L133.959 17.1702ZM138.256 8.31668C137.534 10.0591 136.811 11.8958 135.969 13.7889L134.765 16.6145L140.692 15.9269L139.766 13.2709C139.266 11.7639 138.753 10.1219 138.228 8.34493L138.256 8.31668Z" fill="#F0F1EF"/>
<path d="M76.9952 56.559C79.043 57.4254 81.2734 57.7495 83.4778 57.5009C84.3773 57.4549 85.259 57.2291 86.0726 56.8364C86.8862 56.4437 87.6157 55.8917 88.2194 55.2121C88.6243 54.6989 88.9252 54.1093 89.1048 53.4772C89.2844 52.8451 89.3392 52.1831 89.2659 51.5294C89.0066 49.3161 87.4137 48.28 84.7651 47.9127C82.8666 47.6489 81.0607 47.8561 80.9311 46.5658C80.9081 46.3328 80.9416 46.0976 81.0288 45.8808C81.116 45.6641 81.2542 45.4723 81.4311 45.3225C81.8941 44.957 82.4571 44.7464 83.0426 44.7197C84.9528 44.5672 86.8689 44.9277 88.5991 45.7652L88.8028 42.2144C86.9072 41.5453 84.8903 41.3074 82.8944 41.5174C81.2163 41.6374 79.6404 42.3817 78.4677 43.6084C78.0047 44.1266 77.6548 44.7386 77.4409 45.4041C77.2271 46.0697 77.154 46.7737 77.2267 47.47C77.4767 49.5986 79.0789 50.5593 81.6812 50.9643C83.6908 51.2845 85.4411 51.0773 85.5986 52.4054C85.6219 52.6134 85.6018 52.8242 85.5396 53.0238C85.4773 53.2234 85.3743 53.4075 85.2374 53.5638C84.733 54.0395 84.073 54.308 83.3852 54.3173C81.2126 54.5169 79.0344 54.0019 77.1711 52.848L76.9952 56.559ZM94.9336 55.749L98.536 55.3157L100.657 49.7305C101.268 48.1293 101.805 46.66 102.287 45.2566H102.342C102.676 46.5658 103.092 48.0822 103.5 49.4008L105.046 54.5528L108.649 54.1196L114.65 38.0419L110.89 38.494L108.686 44.6256C108.103 46.2267 107.528 47.8844 107.028 49.4102H106.973C106.593 47.988 106.167 46.481 105.723 44.974L104.019 39.3229L101.361 39.6431L99.0269 45.7935C98.462 47.2628 97.7859 49.09 97.2488 50.5876H97.2395C96.8783 49.0429 96.4894 47.5924 96.1097 46.1325L94.5631 40.4814L90.7476 40.9335L94.9336 55.749ZM130.421 37.6181C128.265 36.7678 125.948 36.4233 123.642 36.6103C122.472 36.7287 121.335 37.0828 120.3 37.652C119.265 38.2212 118.352 38.9941 117.614 39.9257C116.093 41.9358 115.409 44.4718 115.706 46.9896C116.16 50.9361 118.966 53.2153 122.188 52.8292C123.665 52.6505 125.024 51.9225 126.004 50.7854H126.069L125.995 52.0098L129.653 51.6048L130.421 37.6181ZM126.226 47.5453C125.44 48.6297 124.272 49.3623 122.966 49.5892C121.114 49.8058 119.632 48.6473 119.355 46.2079C119.171 44.7106 119.498 43.1947 120.281 41.913C120.653 41.3197 121.154 40.8205 121.744 40.4533C122.335 40.0861 123 39.8606 123.689 39.7938C124.685 39.681 125.694 39.7936 126.643 40.1234L126.226 47.5453ZM138.376 36.1017L138.423 35.1598L134.792 35.5931L133.515 57.9718L137.173 57.5385L137.571 50.3709H137.636C138.755 50.6569 139.917 50.7303 141.062 50.5876C142.203 50.4839 143.311 50.1437 144.317 49.5881C145.324 49.0325 146.208 48.2732 146.915 47.357C148.339 45.3937 148.969 42.9498 148.675 40.5284C148.212 36.4973 145.378 34.0202 141.923 34.4346C140.607 34.5793 139.378 35.1775 138.441 36.13L138.376 36.1017ZM138.238 39.1439C139.039 38.378 140.056 37.8872 141.145 37.7405C143.201 37.4862 144.739 38.8331 145.026 41.329C145.198 42.7748 144.87 44.2364 144.1 45.4638C143.723 46.0247 143.228 46.4937 142.652 46.8373C142.075 47.1809 141.431 47.3905 140.766 47.4511C139.752 47.5751 138.723 47.4657 137.756 47.1309L138.238 39.1439ZM153.731 49.0523C154.394 48.9766 155 48.6366 155.417 48.1069C155.833 47.5772 156.027 46.901 155.954 46.2267C155.919 45.9243 155.826 45.6319 155.68 45.3666C155.533 45.1013 155.336 44.8684 155.099 44.6816C154.863 44.4948 154.592 44.3578 154.303 44.2787C154.014 44.1995 153.713 44.1797 153.416 44.2206C152.754 44.2987 152.15 44.6393 151.733 45.1684C151.317 45.6975 151.123 46.3723 151.194 47.0462C151.227 47.3491 151.319 47.6421 151.465 47.9081C151.612 48.174 151.809 48.4074 152.046 48.5944C152.282 48.7815 152.553 48.9184 152.843 48.997C153.132 49.0757 153.434 49.0945 153.731 49.0523Z" fill="#F0F1EF"/>
</g>
<defs>
<clipPath id="clip0_7627_9720">
<rect width="156" height="58" fill="white"/>
</clipPath>
</defs>
</svg>
