<svg width="86" height="79" viewBox="0 0 86 79" fill="none" xmlns="http://www.w3.org/2000/svg">
<g clip-path="url(#clip0_8073_42078)">
<path d="M83.4567 59.0738L75.1752 60.9636C74.9954 60.9885 74.813 60.9885 74.6331 60.9636C74.1792 60.9634 73.7343 60.8371 73.3488 60.5989C72.8115 60.2562 72.4312 59.7174 72.2896 59.0987L70.3882 50.868C70.3171 50.5601 70.3077 50.2413 70.3606 49.9298C70.4136 49.6183 70.5278 49.3203 70.6967 49.0527C71.0377 48.5118 71.5805 48.1273 72.2062 47.9835C72.5168 47.9124 72.8384 47.9031 73.1525 47.9559C73.4667 48.0088 73.7673 48.1228 74.037 48.2915C74.3067 48.4602 74.5402 48.6802 74.7241 48.9388C74.908 49.1975 75.0386 49.4897 75.1085 49.7987L75.5922 51.8709C77.3025 47.3992 78.0646 42.6244 77.8307 37.8461C77.5968 33.0679 76.3719 28.3892 74.2328 24.1036C72.0969 19.8204 69.0934 16.022 65.4108 12.9468C61.7282 9.87163 57.446 7.58592 52.8327 6.23308C48.2175 4.87996 43.3709 4.48852 38.5964 5.08327C33.8219 5.67803 29.2224 7.24617 25.0859 9.68948L22.584 5.54511C29.7939 1.27549 38.1775 -0.618998 46.5361 0.132566C54.8974 0.885016 62.8038 4.25106 69.1205 9.74751C75.4537 15.2411 79.8714 22.5888 81.7387 30.7346C83.6016 38.867 82.828 47.3766 79.5286 55.0455L82.3976 54.399C82.7158 54.3048 83.05 54.276 83.3798 54.3145C83.7096 54.353 84.0281 54.4579 84.3157 54.6227C84.6029 54.7874 84.8527 55.0094 85.0494 55.2748C85.246 55.5401 85.3852 55.843 85.4583 56.1645C85.5344 56.4937 85.5396 56.8353 85.4735 57.1667C85.4074 57.4982 85.2714 57.8119 85.0747 58.0874C84.8855 58.3662 84.639 58.6019 84.3515 58.7791C84.064 58.9562 83.742 59.0708 83.4067 59.1153L83.4567 59.0738Z" fill="#FF62C4"/>
<path d="M63.024 73.6042C55.7969 77.8032 47.4196 79.625 39.0886 78.8096C30.7597 77.9937 22.9027 74.5853 16.6376 69.0703C10.373 63.57 6.013 56.2463 4.17786 48.1412C2.35192 40.0222 3.15163 31.5374 6.46298 23.8966L3.46065 24.5846C2.83583 24.7259 2.18013 24.6149 1.63755 24.2762C1.09496 23.9374 0.709837 23.3984 0.56671 22.7777C0.495102 22.4696 0.485341 22.1505 0.538001 21.8387C0.590661 21.5269 0.70469 21.2285 0.873576 20.9605C1.04246 20.6926 1.26288 20.4604 1.5222 20.2772C1.78152 20.0941 2.07465 19.9636 2.3848 19.8932L10.6663 18.0116C10.9786 17.9332 11.3037 17.9185 11.6219 17.9684C11.9401 18.0182 12.2448 18.1316 12.5177 18.3017C13.0564 18.6465 13.4415 19.1835 13.5936 19.802L15.4951 28.0493C15.6345 28.6702 15.5205 29.3208 15.1782 29.8584C14.8358 30.396 14.293 30.7767 13.6686 30.9172C13.4888 30.9421 13.3064 30.9421 13.1266 30.9172C12.5793 30.923 12.0463 30.7442 11.6146 30.4099C11.1829 30.0757 10.878 29.6058 10.7497 29.0771L10.2827 27.2619C8.58428 31.717 7.82701 36.4719 8.05801 41.2305C8.28902 45.9891 9.50334 50.6495 11.6254 54.9214C13.7554 59.1857 16.7446 62.9695 20.4072 66.0379C24.0698 69.1063 28.3279 71.3939 32.9171 72.7588C37.5103 74.1219 42.3366 74.5311 47.0957 73.9607C51.8548 73.3903 56.445 71.8526 60.5804 69.4433L63.024 73.6042Z" fill="#FF62C4"/>
<path d="M42.9999 17.879C40.1439 17.8724 37.3148 18.4267 34.6749 19.5099C32.0351 20.5931 29.6366 22.1839 27.6171 24.191C25.5977 26.1981 23.997 28.5819 22.9071 31.2056C21.8172 33.8292 21.2596 36.641 21.2662 39.4794C21.2607 42.3192 21.8189 45.1321 22.9087 47.7571C23.9986 50.3821 25.5988 52.7676 27.6176 54.7772C29.6364 56.7867 32.0342 58.3807 34.6737 59.4679C37.3133 60.5551 40.1427 61.1142 42.9999 61.1131C45.8578 61.1152 48.6881 60.557 51.3286 59.4703C53.9691 58.3835 56.3679 56.7897 58.3876 54.7801C60.4073 52.7705 62.0082 50.3845 63.0986 47.759C64.189 45.1334 64.7474 42.3199 64.7419 39.4794C64.7485 36.6403 64.1906 33.8278 63.1002 31.2036C62.0098 28.5794 60.4084 26.1953 58.3881 24.188C56.3677 22.1808 53.9682 20.5902 51.3274 19.5075C48.6866 18.4248 45.8565 17.8713 42.9999 17.879ZM53.0494 51.9872C52.597 52.3401 52.0227 52.5015 51.4513 52.4363C50.8798 52.3712 50.3573 52.0847 49.997 51.639L41.3069 40.8637C40.9874 40.4788 40.8133 39.995 40.8148 39.496V24.3608C40.8148 24.0745 40.8715 23.791 40.9816 23.5264C41.0918 23.2619 41.2534 23.0216 41.457 22.8191C41.6591 22.6173 41.8996 22.4576 42.1645 22.3495C42.4295 22.2413 42.7135 22.1868 42.9999 22.1891C43.2866 22.1849 43.5711 22.2385 43.8363 22.3468C44.1015 22.4551 44.3419 22.6158 44.5428 22.8191C44.745 23.0157 44.906 23.2503 45.0162 23.5093C45.1264 23.7683 45.1838 24.0464 45.1849 24.3276V38.75L53.383 48.9701C53.737 49.4158 53.9004 49.9821 53.838 50.5465C53.7755 51.111 53.4923 51.6284 53.0494 51.9872Z" fill="#FF62C4"/>
</g>
<defs>
<clipPath id="clip0_8073_42078">
<rect width="85" height="79" fill="white" transform="translate(0.5)"/>
</clipPath>
</defs>
</svg>
