<svg width="84" height="83" viewBox="0 0 84 83" fill="none" xmlns="http://www.w3.org/2000/svg">
<g clip-path="url(#clip0_8077_3172)">
<path d="M7.89986 5.57373H27.9192C31.6834 5.57373 34.7346 9.34035 34.7346 12.3934V32.4255C34.7346 33.321 34.5583 34.2079 34.2158 35.0353C33.8733 35.8627 33.3713 36.6144 32.7384 37.2477C32.1055 37.881 31.3542 38.3833 30.5273 38.726C29.7004 39.0687 28.8142 39.2451 27.9192 39.2451H7.89986C4.13563 39.2451 1.08449 35.4785 1.08449 32.4255V12.3934C1.08449 10.5847 1.80255 8.85012 3.08067 7.57118C4.3588 6.29225 6.09232 5.57373 7.89986 5.57373Z" stroke="#82BB08" stroke-width="2" stroke-miterlimit="10"/>
<path d="M80.1566 17.5873C81.4337 18.868 82.1509 20.6033 82.1509 22.4125C82.1509 24.2217 81.4337 25.9571 80.1566 27.2378L65.9999 41.3976C63.3404 44.0647 58.5182 43.5558 56.3614 41.3976L42.1637 27.2378C40.8866 25.9571 40.1693 24.2217 40.1693 22.4125C40.1693 20.6033 40.8866 18.868 42.1637 17.5873L56.3204 3.42738C58.9799 0.76034 63.8021 1.26333 65.9589 3.42738" stroke="#82BB08" stroke-width="2" stroke-miterlimit="10"/>
<path d="M7.89986 48.7437H27.9192C31.6834 48.7437 34.7346 52.5103 34.7346 55.5633V75.5954C34.7346 76.491 34.5583 77.3778 34.2158 78.2052C33.8733 79.0326 33.3713 79.7844 32.7384 80.4176C32.1055 81.0509 31.3542 81.5532 30.5273 81.8959C29.7004 82.2387 28.8142 82.4151 27.9192 82.4151H7.89986C4.13563 82.4151 1.08449 78.6484 1.08449 75.5954V55.5692C1.08449 53.7605 1.80255 52.0259 3.08067 50.7469C4.3588 49.468 6.09232 48.7495 7.89986 48.7495V48.7437Z" stroke="#82BB08" stroke-width="2" stroke-miterlimit="10"/>
<path d="M51.1534 48.7437H71.1669C74.9311 48.7437 77.9881 52.5102 77.9881 55.5633V75.5954C77.9866 77.4046 77.2672 79.1392 75.9882 80.418C74.7091 81.6967 72.975 82.4151 71.1669 82.4151H51.1534C47.3892 82.4151 44.3322 78.6484 44.3322 75.5954V55.5692C44.3322 53.7589 45.0508 52.0228 46.3301 50.7428C47.6093 49.4627 49.3443 48.7437 51.1534 48.7437Z" stroke="#82BB08" stroke-width="2" stroke-miterlimit="10"/>
<path d="M77.4737 8.65597C77.394 8.66167 77.3139 8.66167 77.2341 8.65597C76.8288 8.62089 76.4367 8.49421 76.0874 8.28551C75.7381 8.07681 75.4407 7.79152 75.2176 7.45112C74.9456 7.04144 74.7952 6.56303 74.7838 6.07134C74.7724 5.57965 74.9005 5.0948 75.1532 4.67295C75.3607 4.3259 75.6434 4.02977 75.9803 3.80631C76.3172 3.58285 76.6998 3.43774 77.1001 3.38165C77.5004 3.32555 77.9081 3.35987 78.2934 3.48212C78.6787 3.60436 79.0317 3.81143 79.3266 4.08808C79.5797 4.32893 79.7828 4.61739 79.9242 4.93694C80.0656 5.25649 80.1426 5.60084 80.1508 5.95023C80.1589 6.29962 80.098 6.6472 79.9717 6.973C79.8453 7.2988 79.6559 7.59644 79.4143 7.84884C79.1609 8.10605 78.8588 8.30997 78.5255 8.44858C78.1923 8.58719 77.8346 8.65771 77.4737 8.65597ZM77.4737 3.91846H77.1873C76.8706 3.96213 76.5678 4.07689 76.3016 4.25413C76.0354 4.43137 75.8127 4.66651 75.6501 4.94199C75.455 5.27104 75.356 5.64821 75.3642 6.03071C75.3725 6.41322 75.4877 6.78575 75.6968 7.10605C75.8728 7.37335 76.1065 7.59774 76.3806 7.76273C76.6548 7.92772 76.9623 8.02909 77.2808 8.05938C77.5958 8.08921 77.9136 8.04736 78.2102 7.93696C78.5067 7.82656 78.7745 7.65047 78.9934 7.42187C79.3698 7.0238 79.5735 6.49301 79.5604 5.94522C79.5473 5.39742 79.3183 4.87703 78.9233 4.49748C78.5328 4.12463 78.0135 3.91718 77.4737 3.91846Z" fill="#82BB08"/>
<path d="M52.6556 32.0807L51.9366 26.8869L67.6599 10.5747L68.0749 10.9724L52.5503 27.08L53.2284 32.0046L52.6556 32.0807Z" fill="#82BB08"/>
<path d="M53.0472 29.9926L52.6322 29.5949L64.2405 17.5464L64.6613 17.9441L53.0472 29.9926Z" fill="#82BB08"/>
<path d="M66.7831 20.2307V19.6458L69.8576 19.5756C69.9789 19.5723 70.0942 19.522 70.1791 19.4352L73.4582 16.0312L73.879 16.429L70.5999 19.833C70.505 19.9313 70.3916 20.0098 70.2661 20.064C70.1407 20.1182 70.0059 20.147 69.8693 20.1488L66.7831 20.2307Z" fill="#82BB08"/>
<path d="M63.4748 23.6583L63.4631 23.0851L66.5551 23.0149L66.485 19.9502L67.0637 19.9385L67.1513 23.5764L63.4748 23.6583Z" fill="#82BB08"/>
<path d="M60.1723 27.0914L60.1606 26.5182L63.2527 26.448L63.1825 23.3833L63.7612 23.3657L63.843 27.0037L60.1723 27.0914Z" fill="#82BB08"/>
<path d="M60.4377 26.8411L59.8592 26.8545L59.9369 30.2049L60.5154 30.1915L60.4377 26.8411Z" fill="#82BB08"/>
<path d="M58.1382 32.7532L52.9186 32.3321L52.9654 31.7589L57.9103 32.1567L60.0379 29.9575L60.4529 30.3552L58.1382 32.7532Z" fill="#82BB08"/>
<path d="M77.4562 18.6281C76.3532 18.6335 75.2902 18.2148 74.4869 17.4584L73.4991 16.5226L73.8966 16.1073L74.8902 17.0431C75.3836 17.5157 75.9972 17.8436 76.6641 17.9911C77.3309 18.1386 78.0255 18.1 78.6719 17.8795C79.3377 17.67 79.9323 17.2796 80.3895 16.7519C80.8467 16.2243 81.1485 15.5799 81.2613 14.8908L82.8687 4.98877C82.9736 4.38085 82.9259 3.75641 82.73 3.17147C82.5341 2.58652 82.1962 2.0594 81.7465 1.63743C81.2974 1.20976 80.7501 0.899119 80.1528 0.732874C79.5555 0.566629 78.9265 0.549875 78.3213 0.684075L68.3846 2.72529C67.7015 2.85137 67.0669 3.16498 66.5516 3.63111C66.0363 4.09725 65.6607 4.69754 65.4667 5.36495C65.2726 6.03236 65.2678 6.7406 65.4528 7.41058C65.6378 8.08055 66.0053 8.68588 66.5142 9.15895L68.0456 10.6095L67.6423 11.0247L66.1109 9.57421C65.5328 9.02754 65.1168 8.33177 64.9087 7.56358C64.7006 6.79539 64.7085 5.98463 64.9315 5.22066C65.1546 4.45669 65.5842 3.76919 66.1728 3.23394C66.7615 2.69868 67.4865 2.33646 68.2678 2.18721L78.2044 0.145979C78.9008 -0.00754552 79.6242 0.012442 80.3112 0.204167C80.9981 0.395893 81.6275 0.75349 82.1439 1.24555C82.6627 1.72997 83.0528 2.33587 83.2794 3.0087C83.5059 3.68153 83.5616 4.40015 83.4415 5.09989L81.8341 15.0077C81.704 15.8015 81.3565 16.5437 80.8303 17.1519C80.3041 17.76 79.6197 18.2103 78.8532 18.4527C78.3998 18.5851 77.9282 18.6443 77.4562 18.6281Z" fill="#82BB08"/>
<path d="M23.6698 62.8452H27.0542L26.9548 63.9682C26.7544 66.0681 26.0199 68.0816 24.8213 69.8169C24.2043 70.7113 23.4843 71.5299 22.6762 72.2559C21.8458 72.9987 20.9363 73.6479 19.9641 74.1919L18.5613 74.9814C18.3142 75.1173 18.0365 75.1878 17.7546 75.1861C17.4639 75.1874 17.1778 75.1129 16.9246 74.9697L15.5393 74.1919C13.608 73.1256 11.948 71.6286 10.688 69.8169C9.48659 68.0831 8.75182 66.0688 8.5545 63.9682L8.45511 62.8452H11.8336L11.9271 63.781C12.0953 65.3422 12.652 66.8363 13.5462 68.1266C14.5231 69.5245 15.8041 70.6824 17.2929 71.5131L17.7546 71.7705L18.2164 71.5131C19.7032 70.6843 20.9823 69.5283 21.9573 68.1325C22.8537 66.8411 23.4105 65.3446 23.5763 63.781L23.6698 62.8452Z" fill="#82BB08"/>
<path d="M17.7546 75.9111C17.3248 75.9124 16.9027 75.7972 16.533 75.5777L15.1653 74.8115C13.1362 73.6887 11.3907 72.1162 10.0625 70.2143C8.79162 68.3799 8.01458 66.2487 7.80632 64.0263L7.64264 62.1255H12.5116L12.6753 63.7105C12.8292 65.1561 13.3437 66.5398 14.1716 67.7344C15.0877 69.0384 16.2866 70.1181 17.6787 70.8928L17.7605 70.9337L17.8482 70.8869C19.2419 70.1171 20.4414 69.0388 21.3552 67.7344C22.184 66.5403 22.6986 65.1563 22.8515 63.7105L23.0152 62.1255H27.8958L27.7264 64.0322C27.5052 66.2463 26.7204 68.3668 25.4468 70.1909C24.7972 71.1318 24.04 71.9935 23.1906 72.7586C22.3193 73.5379 21.3647 74.2185 20.344 74.7881L18.9412 75.5777C18.581 75.7892 18.1722 75.904 17.7546 75.9111ZM9.27344 63.5643V63.9035C9.45831 65.8844 10.1509 67.7841 11.2842 69.4189C12.4832 71.1363 14.0586 72.5567 15.8901 73.5715L17.2695 74.3436C17.4046 74.4183 17.5565 74.4575 17.7108 74.4575C17.8652 74.4575 18.017 74.4183 18.1521 74.3436L19.5607 73.554C20.4833 73.0366 21.3458 72.4187 22.1326 71.7116C22.9006 71.0149 23.5834 70.2296 24.1667 69.3721C25.2981 67.7385 25.9905 65.8412 26.1774 63.8626V63.5175H24.2953V63.8041C24.1092 65.4855 23.5065 67.0938 22.5418 68.4831C21.5046 69.9701 20.1435 71.202 18.5613 72.0859L17.7138 72.5538L16.8779 72.0918C15.2885 71.2059 13.9213 69.9699 12.8799 68.4773C11.9107 67.0903 11.3075 65.4808 11.1263 63.7982V63.5116L9.27344 63.5643Z" fill="#82BB08"/>
<path d="M27.0775 56.2944H8.43761V59.6867H27.0775V56.2944Z" fill="#82BB08"/>
<path d="M27.8257 60.4355H7.67775V55.5693H27.814L27.8257 60.4355ZM9.18575 58.9324H26.3235V57.0432H9.18575V58.9324Z" fill="#82BB08"/>
</g>
<defs>
<clipPath id="clip0_8077_3172">
<rect width="83" height="83" fill="white" transform="translate(0.5)"/>
</clipPath>
</defs>
</svg>
