<svg width="84" height="81" viewBox="0 0 84 81" fill="none" xmlns="http://www.w3.org/2000/svg">
<g clip-path="url(#clip0_8077_3196)">
<path d="M60.2974 81C60.8451 80.9991 61.3874 80.8921 61.8931 80.6849C62.3988 80.4777 62.8582 80.1744 63.2448 79.7925C63.6315 79.4105 63.9379 78.9573 64.1466 78.4587C64.3552 77.9601 64.4621 77.426 64.461 76.8867V48.8408C64.031 49.5554 63.4198 50.1478 62.6874 50.5601C61.955 50.9724 61.1264 51.1904 60.2826 51.1929H26.6414C25.7973 51.1923 24.968 50.9751 24.2352 50.5626C23.5025 50.1501 22.8916 49.5567 22.463 48.8408V76.8867C22.4643 77.9772 22.905 79.0227 23.6883 79.7938C24.4716 80.5649 25.5336 80.9987 26.6414 81H60.2974ZM43.4678 59.5273C44.104 59.5281 44.7222 59.7353 45.2268 60.1169C45.7313 60.4985 46.0939 61.0332 46.2586 61.6383C46.4232 62.2433 46.3806 62.8848 46.1375 63.4636C45.8943 64.0424 45.4641 64.5261 44.9134 64.8399V71.5306H42.0106V64.8399C41.4591 64.5256 41.0285 64.0409 40.7855 63.461C40.5425 62.8811 40.5009 62.2384 40.667 61.6328C40.8331 61.0272 41.1977 60.4925 41.7041 60.1118C42.2106 59.731 42.8305 59.5256 43.4678 59.5273Z" fill="#82BB08"/>
<path d="M60.3693 24.2161C60.4893 23.9363 60.6332 23.667 60.7994 23.4112V17.1004C60.7994 7.6761 53.0281 -0.00146484 43.4645 -0.00146484C33.9008 -0.00146484 26.1328 7.67771 26.1328 17.102V42.3177C25.1211 42.4294 24.1872 42.9056 23.5109 43.6546C22.8346 44.4036 22.4636 45.3725 22.4696 46.3746V46.3891C22.4874 46.8038 22.5544 47.2149 22.6691 47.6143C22.7093 47.7439 22.7568 47.8713 22.8114 47.9958C22.8822 48.156 22.9636 48.3114 23.055 48.4611C23.1611 48.6509 23.286 48.8299 23.4279 48.9955C23.4279 48.9994 23.4295 49.0031 23.4322 49.0058C23.435 49.0085 23.4387 49.01 23.4426 49.01C23.5259 49.1105 23.6166 49.2046 23.7141 49.2918C24.0981 49.6724 24.555 49.9743 25.0583 50.1799C25.5616 50.3855 26.1014 50.4907 26.6463 50.4895H60.3121C60.4756 50.4895 60.6277 50.475 60.7847 50.4605C60.8948 50.4484 61.004 50.4296 61.1118 50.4042C61.2244 50.3903 61.3345 50.3611 61.4389 50.3173C61.6009 50.279 61.7586 50.2251 61.9098 50.1563C62.0219 50.1089 62.1311 50.0551 62.2369 49.9953C62.351 49.9378 62.4604 49.8716 62.564 49.7973C62.6925 49.7257 62.8126 49.6404 62.9221 49.5429C63.0623 49.4283 63.196 49.3063 63.3228 49.1775C63.4078 49.0776 63.5076 48.9666 63.5926 48.8555C63.8051 48.5899 63.9786 48.2962 64.1078 47.9829C64.1681 47.8607 64.2157 47.7329 64.25 47.6014C64.2922 47.5067 64.3218 47.4072 64.3384 47.3051C64.3636 47.2082 64.3827 47.1098 64.3956 47.0105C64.4357 46.8015 64.4549 46.589 64.4528 46.3762V46.3618C64.4426 45.3675 64.0674 44.4105 63.3965 43.6673C62.7257 42.924 61.8044 42.4447 60.8027 42.3177V29.4C60.6451 29.1523 60.5062 28.8934 60.3873 28.6256H59.3636V45.0223H57.0217V31.1048L57.0642 31.0614C56.9498 31.1467 56.8206 31.2224 56.6914 31.3157C56.3487 31.5326 55.978 31.7032 55.5891 31.8228V42.2614H31.3366V17.1036C31.3179 15.5242 31.6178 13.9569 32.2189 12.4924C32.82 11.0279 33.7103 9.69538 34.8383 8.57203C35.9662 7.44868 37.3094 6.55683 38.79 5.94814C40.2706 5.33946 41.8592 5.02604 43.4637 5.02604C45.0682 5.02604 46.6567 5.33946 48.1373 5.94814C49.6179 6.55683 50.9611 7.44868 52.089 8.57203C53.217 9.69538 54.1073 11.0279 54.7084 12.4924C55.3095 13.9569 55.6094 15.5242 55.5908 17.1036V21.3569C55.9738 21.4796 56.3393 21.65 56.6783 21.8641C56.7928 21.9478 56.9072 22.025 57.0217 22.1039V17.1036C57.0414 15.3386 56.7053 13.5872 56.0327 11.9509C55.3602 10.3146 54.3647 8.82582 53.1037 7.57082C51.8428 6.31583 50.3415 5.3195 48.6868 4.63953C47.0321 3.95955 45.2568 3.60943 43.4637 3.60943C41.6706 3.60943 39.8953 3.95955 38.2405 4.63953C36.5858 5.3195 35.0845 6.31583 33.8236 7.57082C32.5627 8.82582 31.5671 10.3146 30.8946 11.9509C30.2221 13.5872 29.8859 15.3386 29.9056 17.1036V45.0239H27.5589V17.1036C27.5589 8.45368 34.6858 1.41041 43.4678 1.41041C52.2497 1.41041 59.3668 8.45368 59.3668 17.1036V24.2032L60.3693 24.2161Z" fill="#82BB08"/>
<path d="M2.01761 28.0009L10.2959 28.0267H8.30071C8.62128 29.0037 9.24662 29.8563 10.0878 30.4632C10.929 31.0702 11.9431 31.4006 12.9861 31.4074L18.6935 31.4268C19.7627 31.43 20.8033 31.0867 21.6545 30.4497C22.5058 29.8128 23.1204 28.9177 23.4034 27.9027L25.4067 27.9172V24.8906L23.2807 24.8777H23.2693C22.9225 23.9475 22.295 23.144 21.4709 22.5751C20.6468 22.0062 19.6657 21.699 18.6592 21.695L12.9517 21.6773C11.9145 21.6749 10.9035 21.9979 10.0655 22.5995C9.22739 23.201 8.60581 24.0498 8.2909 25.0226L11.0187 25.0307L2.00126 25.0017C1.60583 25.0164 1.23171 25.1818 0.957986 25.4632C0.684266 25.7445 0.532413 26.1196 0.534537 26.5091C0.536661 26.8986 0.692595 27.2721 0.969367 27.5505C1.24614 27.8289 1.62205 27.9904 2.01761 28.0009ZM12.9746 24.4221L18.6788 24.4414C19.1361 24.4415 19.5805 24.5904 19.9429 24.8648H19.467C19.0686 24.8761 18.6903 25.0398 18.4125 25.3212C18.1347 25.6025 17.9791 25.9793 17.9788 26.3717C17.9754 26.7677 18.1317 27.1488 18.4135 27.4313C18.6953 27.7139 19.0795 27.8747 19.4817 27.8786H20.3681H20.965H20.3747C20.1732 28.1268 19.9174 28.327 19.6262 28.4641C19.3351 28.6013 19.0162 28.6719 18.6935 28.6706L12.9877 28.6529C12.7066 28.6528 12.4283 28.5978 12.1689 28.4912C11.9095 28.3845 11.6742 28.2283 11.4766 28.0315H11.9427C12.1421 28.0341 12.34 27.9975 12.5249 27.9238C12.7097 27.8502 12.8778 27.741 13.0193 27.6026C13.1608 27.4642 13.2728 27.2995 13.3488 27.118C13.4248 26.9365 13.4633 26.7419 13.4619 26.5456C13.4611 26.1464 13.3001 25.7638 13.014 25.481C12.7279 25.1982 12.3399 25.038 11.9345 25.0355H11.4766C11.6726 24.8407 11.9059 24.6862 12.1631 24.5809C12.4203 24.4756 12.6961 24.4216 12.9746 24.4221Z" fill="#82BB08"/>
<path d="M81.9693 24.9887L75.8939 24.9694C75.5669 23.995 74.939 23.1455 74.0979 22.5394C73.2568 21.9333 72.2443 21.6009 71.202 21.5886L65.4929 21.5758C64.4557 21.5724 63.4447 21.8959 62.6078 22.4991C61.7708 23.1022 61.152 23.9532 60.8419 24.9276H60.0848L58.3087 24.9147C57.9213 23.9097 57.2199 23.0518 56.3054 22.4644C56.0778 22.3272 55.8387 22.2092 55.5908 22.1119C54.9945 21.8394 54.3445 21.6998 53.6872 21.7029L47.9765 21.6949C47.5555 21.6933 47.1365 21.7508 46.7319 21.8655C46.0402 22.0469 45.3973 22.3755 44.8486 22.8281C44.2999 23.2806 43.8586 23.8462 43.5561 24.4848L43.5413 24.5122C43.4577 24.6844 43.3903 24.8639 43.3402 25.0483H44.2266L46.4866 25.0612C46.68 24.8647 46.9115 24.7085 47.1675 24.602C47.4234 24.4955 47.6986 24.4409 47.9765 24.4414L53.7003 24.4703C54.1722 24.4616 54.6333 24.6102 55.0086 24.8921H54.4951C54.2962 24.891 54.0991 24.929 53.9153 25.0037C53.7315 25.0785 53.5647 25.1886 53.4247 25.3275C53.2846 25.4665 53.174 25.6315 53.0995 25.813C53.025 25.9945 52.9879 26.1888 52.9905 26.3845C52.9875 26.7845 53.1457 27.1693 53.4305 27.4545C53.7154 27.7397 54.1035 27.902 54.5098 27.9058H55.3961C55.1981 28.1523 54.9458 28.3514 54.6583 28.488C54.3708 28.6246 54.0555 28.6953 53.7362 28.6947L47.9994 28.6657C47.7231 28.6648 47.4498 28.61 47.1952 28.5044C46.9406 28.3989 46.7098 28.2447 46.5161 28.0507H46.9822C47.1801 28.054 47.3768 28.018 47.5603 27.9447C47.7437 27.8714 47.9103 27.7625 48.05 27.6243C48.1897 27.4862 48.2997 27.3217 48.3733 27.1408C48.447 26.9598 48.4827 26.7661 48.4785 26.5712C48.4811 26.374 48.4439 26.1782 48.3691 25.9952C48.2942 25.8122 48.1833 25.6456 48.0426 25.5052C47.9018 25.3647 47.7342 25.2532 47.5494 25.1769C47.3646 25.1007 47.1662 25.0614 46.9658 25.0612H46.4915L44.2331 25.0483H43.3467L40.8937 25.0322C40.8003 24.7346 40.6765 24.4471 40.5241 24.1741C40.1826 23.5324 39.6996 22.9741 39.1105 22.5401C38.5213 22.1061 37.8409 21.8074 37.1192 21.6659C36.8082 21.6006 36.4919 21.5628 36.174 21.5532H32.0529V24.3142L36.1903 24.3287C36.4909 24.3308 36.7878 24.3932 37.063 24.5119C37.3383 24.6306 37.5861 24.8033 37.7914 25.0193L39.6541 25.0322H37.0538C36.8535 25.0305 36.6549 25.068 36.4694 25.1424C36.2839 25.2169 36.1153 25.3269 35.9734 25.466C35.8314 25.6052 35.719 25.7707 35.6425 25.9529C35.5661 26.1352 35.5271 26.3306 35.528 26.5278C35.5319 26.9244 35.6941 27.3035 35.9796 27.5834C36.2651 27.8632 36.6509 28.0213 37.0538 28.0234H37.6148C37.2287 28.3648 36.7256 28.5495 36.2067 28.5401H32.0545V31.277L36.2181 31.2898C36.584 31.2962 36.9492 31.2584 37.3057 31.1771C37.9953 31.0241 38.6425 30.7241 39.2016 30.2982C39.7608 29.8724 40.2183 29.3311 40.5421 28.7124C40.6579 28.4961 40.7574 28.2718 40.8397 28.0411H43.3467C43.404 28.2375 43.489 28.4049 43.5593 28.5868L43.574 28.5997C43.8808 29.2548 44.3314 29.8347 44.8933 30.2976C45.4552 30.7606 46.1145 31.0951 46.8235 31.277C47.2156 31.3806 47.6195 31.4347 48.0255 31.4379L53.7493 31.4524C54.3856 31.4583 55.0155 31.3281 55.5957 31.0709C55.8471 30.9875 56.0871 30.874 56.3103 30.7328C57.3448 30.0875 58.1016 29.0897 58.4363 27.93H60.8534C61.1743 28.9034 61.7972 29.7531 62.6345 30.3596C63.4718 30.9661 64.4813 31.2988 65.5207 31.3108L71.2445 31.3236C72.2814 31.3235 73.2914 30.9989 74.1286 30.3967C74.9658 29.7945 75.5868 28.9459 75.9021 27.9735L81.984 27.9928C82.1843 27.995 82.3829 27.9576 82.5683 27.883C82.7536 27.8084 82.9219 27.6979 83.0632 27.5582C83.2045 27.4185 83.316 27.2524 83.391 27.0696C83.466 26.8868 83.5031 26.6911 83.5 26.494C83.4961 26.0961 83.3334 25.7157 83.047 25.435C82.7606 25.1542 82.3735 24.9957 81.9693 24.9936V24.9887ZM72.7474 27.9622C72.3389 28.3487 71.7948 28.5654 71.2282 28.5675L65.5207 28.5546C65.2409 28.555 64.9638 28.5004 64.7058 28.394C64.4477 28.2875 64.2138 28.1314 64.0178 27.9348H64.4479C64.8472 27.9289 65.2282 27.7692 65.5092 27.4899C65.7902 27.2106 65.9487 26.8339 65.9508 26.4408C65.9453 26.0426 65.7821 25.6622 65.4958 25.3808C65.2096 25.0993 64.823 24.939 64.4185 24.934H64.0047C64.2011 24.7393 64.4351 24.5854 64.693 24.4815C64.9509 24.3775 65.2274 24.3255 65.506 24.3287L71.2167 24.3416C71.4979 24.341 71.7763 24.3954 72.036 24.5015C72.2956 24.6076 72.5313 24.7634 72.7294 24.9597H72.0475C71.8488 24.9591 71.6518 24.9973 71.4682 25.072C71.2845 25.1468 71.1178 25.2567 70.9775 25.3953C70.8373 25.534 70.7264 25.6986 70.6512 25.8797C70.5761 26.0609 70.5382 26.2549 70.5397 26.4505C70.5388 26.8488 70.6981 27.2312 70.9828 27.5141C71.2675 27.7971 71.6544 27.9576 72.0589 27.9606H73.9985H72.7409L72.7474 27.9622Z" fill="#82BB08"/>
</g>
<defs>
<clipPath id="clip0_8077_3196">
<rect width="83" height="81" fill="white" transform="translate(0.5)"/>
</clipPath>
</defs>
</svg>
