<svg width="84" height="76" viewBox="0 0 84 76" fill="none" xmlns="http://www.w3.org/2000/svg">
<g clip-path="url(#clip0_8071_41827)">
<path d="M41.8383 75.7262L11.8035 64.1477L11.3723 64.0037V43.5007L1.347 38.6605L0.587288 38.3004L1.1468 37.6575L11.1413 26.5316L1.12628 14.2278L0.5 13.4871L1.39832 13.2042L34.1384 2.64922L34.3951 2.99899L41.9872 12.7721L49.569 2.99899L49.8308 2.63379L82.5812 13.1836L83.4846 13.4665L82.9045 14.2278L72.8895 26.5316L82.9045 37.6626L83.459 38.3004L82.7043 38.6605L72.638 43.5007V63.9779L72.2273 64.1168L42.2028 75.6851L41.9923 75.7828L41.8383 75.7262ZM42.6596 74.2294L71.406 63.1395V44.1077L53.3933 52.7852L53.0699 52.4045L42.6802 39.8899L42.6596 74.2294ZM12.6556 63.1395L41.402 74.2294V39.8693L31.0071 52.384L30.6888 52.7646L12.6762 44.0871L12.6556 63.1395ZM43.0806 38.3879L53.7475 51.2061L81.3646 37.8838L71.7961 27.2774L43.0806 38.3879ZM2.66112 37.9095L30.2936 51.2061L40.9605 38.3879L12.2141 27.3031L2.66112 37.9095ZM13.7079 26.5264L42.018 37.462L70.328 26.5264L41.9974 14.5158L13.7079 26.5264ZM43.0087 13.5591L71.8218 25.7909L81.303 14.1763L50.3134 4.18206L43.0087 13.5591ZM2.73813 14.1763L12.2193 25.7909L41.0324 13.5591L33.7277 4.18206L2.73813 14.1763Z" fill="#82BB08"/>
<path d="M60.9031 0H24.6929C22.5015 0 20.7249 1.78016 20.7249 3.97611V19.1707C20.7249 21.3666 22.5015 23.1468 24.6929 23.1468H60.9031C63.0946 23.1468 64.8711 21.3666 64.8711 19.1707V3.97611C64.8711 1.78016 63.0946 0 60.9031 0Z" fill="#272828"/>
<path d="M30.5676 10.656C31.5107 10.656 32.3335 10.7234 33.036 10.8581C33.7481 10.9832 34.3399 11.2575 34.8115 11.6809C35.2926 12.1043 35.5332 12.7202 35.5332 13.5285C35.5332 15.0201 34.8692 16.0306 33.5412 16.5598C32.2228 17.0795 30.7409 17.3393 29.0953 17.3393C27.4593 17.3393 25.9437 17.0747 24.5483 16.5454C23.153 16.0065 22.4553 14.9865 22.4553 13.4852L26.1362 13.4708C26.1362 14.1348 26.4345 14.5582 27.0311 14.7411C27.6374 14.9143 28.3447 15.0009 29.153 15.0009C29.9133 15.0009 30.5628 14.8902 31.1017 14.6689C31.6502 14.4476 31.9245 14.0867 31.9245 13.5863V13.5718C31.9245 13.2928 31.7561 13.0859 31.4193 12.9511C31.0825 12.8164 30.7216 12.7346 30.3367 12.7058C29.9518 12.6769 29.4898 12.6576 28.9509 12.648H27.8683C26.829 12.648 25.9245 12.5855 25.1546 12.4604C24.3944 12.3256 23.7544 12.0369 23.2348 11.5943C22.7151 11.1516 22.4553 10.4972 22.4553 9.63115C22.4553 8.12993 23.1289 7.15318 24.4762 6.70089C25.833 6.23897 27.3727 6.00802 29.0953 6.00802C30.712 6.00802 32.1891 6.27266 33.5268 6.80193C34.8644 7.33121 35.5332 8.35127 35.5332 9.86211H31.9101C31.9101 9.38095 31.6358 9.02489 31.0873 8.79393C30.5484 8.55335 29.8892 8.41863 29.1097 8.38976C28.2725 8.38976 27.5652 8.48599 26.9878 8.67845C26.4104 8.87092 26.1217 9.17405 26.1217 9.58785C26.1217 10.0209 26.4152 10.3096 27.0022 10.4539C27.5893 10.5983 28.2533 10.6705 28.9942 10.6705L30.5676 10.656ZM48.6435 11.6809C48.6435 12.6913 48.374 13.6007 47.8351 14.4091C47.3059 15.2174 46.5504 15.8525 45.5689 16.3145C44.5873 16.7764 43.447 17.0073 42.1478 17.0073V17.0218H39.2753V17.0073H36.4317V6.32558H42.1334C43.4325 6.32558 44.5729 6.55654 45.5544 7.01845C46.5456 7.48037 47.3059 8.1155 47.8351 8.92385C48.374 9.73219 48.6435 10.6512 48.6435 11.6809ZM42.22 14.1492C43.0572 14.1492 43.7501 13.9471 44.2986 13.543C44.8568 13.1292 45.1358 12.5085 45.1358 11.6809C45.1358 11.219 45.0011 10.8004 44.7317 10.4251C44.4622 10.0401 44.1013 9.74182 43.649 9.53011C43.2064 9.30877 42.73 9.19811 42.22 9.19811H39.997V14.1492H42.22ZM55.9937 11.219L61.8109 17.0073H57.4372L53.1068 12.5325V17.0073H49.5414V6.32558H53.1068V10.0353L57.1774 6.32558H61.5944L55.9937 11.219Z" fill="#82BB08"/>
</g>
<defs>
<clipPath id="clip0_8071_41827">
<rect width="83" height="75.7826" fill="white" transform="translate(0.5)"/>
</clipPath>
</defs>
</svg>
